<svg xmlns="http://www.w3.org/2000/svg" width="30" height="30" viewBox="0 0 30 30" fill="#fff"><path d="M23 12a11 11 0 1 0-12.721 10.865 11 11 0 0 0 3.436 0A10.95 10.95 0 0 0 23 12m-12.141 9.935v-6.9a.5.5 0 0 0-.5-.5H8.193V12.5h2.166a.5.5 0 0 0 .5-.5V9.686c0-2.278 1.264-3.585 3.459-3.585a15 15 0 0 1 1.858.137V7.89h-.843a2 2 0 0 0-2.181 1.735 1.8 1.8 0 0 0-.011.4V12a.5.5 0 0 0 .5.5h2.329l-.312 2.035h-2.017a.5.5 0 0 0-.5.5v6.9a10 10 0 0 1-2.282 0m3.282-.166v-6.234h1.946a.5.5 0 0 0 .5-.425l.465-3.035a.5.5 0 0 0-.494-.575h-2.417v-1.484a1.27 1.27 0 0 1 .308-.821 1.22 1.22 0 0 1 .9-.3h1.324a.5.5 0 0 0 .5-.5V5.806a.5.5 0 0 0-.42-.494 17 17 0 0 0-2.428-.212c-2.754 0-4.466 1.757-4.466 4.585V11.5H7.693a.5.5 0 0 0-.5.5v3.035a.5.5 0 0 0 .5.5h2.166v6.234a10 10 0 1 1 4.282 0"></path></svg>