<svg xmlns="http://www.w3.org/2000/svg" width="30" height="30" viewBox="0 0 30 30" fill="#fff"><path d="M21.938 7.71a7.3 7.3 0 0 0-.456-2.394 4.6 4.6 0 0 0-1.1-1.694 4.6 4.6 0 0 0-1.7-1.1 7.3 7.3 0 0 0-2.393-.456C15.185 2.012 14.817 2 12 2s-3.185.012-4.29.062a7.3 7.3 0 0 0-2.394.456 4.6 4.6 0 0 0-1.694 1.1 4.6 4.6 0 0 0-1.1 1.7 7.3 7.3 0 0 0-.46 2.392C2.012 8.814 2 9.182 2 12s.012 3.186.062 4.29a7.3 7.3 0 0 0 .456 2.394 4.6 4.6 0 0 0 1.1 1.694 4.6 4.6 0 0 0 1.7 1.1 7.3 7.3 0 0 0 2.393.456c1.1.05 1.472.062 4.29.062s3.186-.012 4.29-.062a7.3 7.3 0 0 0 2.394-.456 4.9 4.9 0 0 0 2.8-2.8 7.3 7.3 0 0 0 .456-2.393c.05-1.1.062-1.472.062-4.29s-.015-3.181-.065-4.285m-1 8.534a6.4 6.4 0 0 1-.388 2.077 3.9 3.9 0 0 1-2.228 2.229 6.4 6.4 0 0 1-2.078.388C15.159 20.988 14.8 21 12 21s-3.159-.012-4.244-.062a6.4 6.4 0 0 1-2.077-.388 3.6 3.6 0 0 1-1.35-.879 3.6 3.6 0 0 1-.879-1.349 6.4 6.4 0 0 1-.388-2.078C3.012 15.159 3 14.8 3 12s.012-3.159.062-4.244a6.4 6.4 0 0 1 .388-2.077 3.6 3.6 0 0 1 .879-1.35 3.6 3.6 0 0 1 1.349-.879 6.4 6.4 0 0 1 2.078-.388C8.842 3.012 9.205 3 12 3s3.158.012 4.244.062a6.4 6.4 0 0 1 2.077.388 3.6 3.6 0 0 1 1.35.879 3.6 3.6 0 0 1 .879 1.349 6.4 6.4 0 0 1 .388 2.078C20.988 8.841 21 9.2 21 12s-.012 3.159-.062 4.244"></path><path d="M17.581 5.467a.953.953 0 1 0 .952.952.954.954 0 0 0-.952-.952M12 7.073A4.927 4.927 0 1 0 16.927 12 4.93 4.93 0 0 0 12 7.073m0 8.854A3.927 3.927 0 1 1 15.927 12 3.93 3.93 0 0 1 12 15.927"></path></svg>