<svg enable-background="new 0 0 24 24" viewBox="0 0 24 24" fill="white"><title data-testid="svgTitle" id="title_0.8242691252561427">LinkedIn</title><path d="M4.425,1.671A2.738,2.738,0,0,0,1.5,4.4,2.71,2.71,0,0,0,4.369,7.128H4.4a2.734,2.734,0,1,0,.028-5.457ZM4.4,6.128H4.369a1.736,1.736,0,1,1,.056-3.457A1.737,1.737,0,1,1,4.4,6.128Z"></path><path d="M6.541,8.431H2.253a.5.5,0,0,0-.5.5v12.9a.5.5,0,0,0,.5.5H6.541a.5.5,0,0,0,.5-.5V8.931A.5.5,0,0,0,6.541,8.431Zm-.5,12.9H2.753V9.431H6.041Z"></path><path d="M17.064,8.128A4.691,4.691,0,0,0,13.7,9.362V8.931a.5.5,0,0,0-.5-.5H8.914a.5.5,0,0,0-.5.523c.053,1.183,0,12.756,0,12.873a.5.5,0,0,0,.5.5H13.2a.5.5,0,0,0,.5-.5v-7.2a2.749,2.749,0,0,1,.1-.86,1.869,1.869,0,0,1,1.737-1.254c.413,0,1.671,0,1.671,2.417v6.9a.5.5,0,0,0,.5.5H22a.5.5,0,0,0,.5-.5v-7.4C22.5,10.485,20.467,8.128,17.064,8.128Zm4.436,13.2H18.213v-6.4c0-2.973-1.673-3.417-2.671-3.417a2.83,2.83,0,0,0-2.664,1.878,3.253,3.253,0,0,0-.177,1.236v6.7H9.416c.009-2.058.04-9.654.009-11.9H12.7v1.328a.5.5,0,0,0,.92.272,3.769,3.769,0,0,1,3.443-1.9c2.819,0,4.436,1.934,4.436,5.305Z"></path></svg>
