<svg width="307" height="48" viewBox="0 0 307 48" fill="none" xmlns="http://www.w3.org/2000/svg">
<path d="M8.70711 0.292893C8.31658 -0.0976311 7.68342 -0.0976311 7.29289 0.292893L0.928932 6.65685C0.538408 7.04738 0.538408 7.68054 0.928932 8.07107C1.31946 8.46159 1.95262 8.46159 2.34315 8.07107L8 2.41421L13.6569 8.07107C14.0474 8.46159 14.6805 8.46159 15.0711 8.07107C15.4616 7.68054 15.4616 7.04738 15.0711 6.65685L8.70711 0.292893ZM299.707 0.292893C299.317 -0.0976311 298.683 -0.0976311 298.293 0.292893L291.929 6.65685C291.538 7.04738 291.538 7.68054 291.929 8.07107C292.319 8.46159 292.953 8.46159 293.343 8.07107L299 2.41421L304.657 8.07107C305.047 8.46159 305.681 8.46159 306.071 8.07107C306.462 7.68054 306.462 7.04738 306.071 6.65685L299.707 0.292893ZM7 1V3H9V1H7ZM52 48H255V46H52V48ZM300 3V1H298V3H300ZM255 48C279.853 48 300 27.8528 300 3H298C298 26.7482 278.748 46 255 46V48ZM7 3C7 27.8528 27.1472 48 52 48V46C28.2518 46 9 26.7482 9 3H7Z" fill="black"/>
</svg>
