<svg width="158" height="161" viewBox="0 0 158 161" fill="none" xmlns="http://www.w3.org/2000/svg">
<path d="M80.2071 0.292893C79.8166 -0.0976311 79.1834 -0.0976311 78.7929 0.292893L72.4289 6.65685C72.0384 7.04738 72.0384 7.68054 72.4289 8.07107C72.8195 8.46159 73.4526 8.46159 73.8431 8.07107L79.5 2.41421L85.1569 8.07107C85.5474 8.46159 86.1805 8.46159 86.5711 8.07107C86.9616 7.68054 86.9616 7.04738 86.5711 6.65685L80.2071 0.292893ZM78.7929 160.707C79.1834 161.098 79.8166 161.098 80.2071 160.707L86.5711 154.343C86.9616 153.953 86.9616 153.319 86.5711 152.929C86.1805 152.538 85.5474 152.538 85.1568 152.929L79.5 158.586L73.8431 152.929C73.4526 152.538 72.8194 152.538 72.4289 152.929C72.0384 153.319 72.0384 153.953 72.4289 154.343L78.7929 160.707ZM78.5 1L78.5 160L80.5 160L80.5 1L78.5 1Z" fill="black"/>
<rect width="157" height="78" transform="translate(0.5 43)" fill="#D8D8D8"/>
<path d="M74.401 109V93.775H72.553C71.776 95.455 70.705 95.623 68.5 95.686V97.408H71.902V109H74.401ZM79.9334 100.558V97.702H77.0774V100.558H79.9334ZM79.9334 109V106.144H77.0774V109H79.9334ZM86.9313 109V93.775H85.0833C84.3063 95.455 83.2353 95.623 81.0303 95.686V97.408H84.4323V109H86.9313Z" fill="black"/>
<path d="M0.5 75H3.23L4.406 71.619H10.58L11.777 75H14.696L8.984 59.775H6.17L0.5 75ZM7.472 62.862L9.782 69.393H5.183L7.472 62.862ZM21.8329 68.448C23.2819 68.721 24.9619 69.225 24.9619 70.8C24.9619 72.27 23.5129 73.089 21.7069 73.089C19.5859 73.089 18.2839 72.039 17.8009 69.96H15.1759C15.5119 73.32 17.9479 75.273 21.5809 75.273C24.5839 75.273 27.6289 73.719 27.6289 70.632C27.6289 67.587 25.0879 66.579 22.4209 66.075L20.5519 65.718C19.2289 65.466 18.2839 64.878 18.2839 63.702C18.2839 62.211 20.0269 61.686 21.2029 61.686C22.7149 61.686 24.2899 62.19 24.7309 64.038H27.3139C26.7049 60.867 24.3739 59.502 21.3499 59.502C18.5569 59.502 15.5959 60.951 15.5959 63.786C15.5959 66.369 17.5699 67.587 19.9849 68.091L21.8329 68.448ZM35.7782 68.448C37.2272 68.721 38.9072 69.225 38.9072 70.8C38.9072 72.27 37.4582 73.089 35.6522 73.089C33.5312 73.089 32.2292 72.039 31.7462 69.96H29.1212C29.4572 73.32 31.8932 75.273 35.5262 75.273C38.5292 75.273 41.5742 73.719 41.5742 70.632C41.5742 67.587 39.0332 66.579 36.3662 66.075L34.4972 65.718C33.1742 65.466 32.2292 64.878 32.2292 63.702C32.2292 62.211 33.9722 61.686 35.1482 61.686C36.6602 61.686 38.2352 62.19 38.6762 64.038H41.2592C40.6502 60.867 38.3192 59.502 35.2952 59.502C32.5022 59.502 29.5412 60.951 29.5412 63.786C29.5412 66.369 31.5152 67.587 33.9302 68.091L35.7782 68.448ZM43.7254 75H54.4984V72.753H46.3924V68.28H54.0574V66.075H46.3924V62.001H54.4984V59.775H43.7254V75ZM60.0053 75H62.6723V62.001H67.4603V59.775H55.2173V62.001H60.0053V75ZM73.9334 75H80.0444C83.1524 75 85.7354 73.761 85.7354 70.485C85.7354 68.469 84.7064 67.482 83.4464 66.915C84.3494 66.348 85.1474 65.088 85.1474 63.66C85.1474 60.531 82.4174 59.775 79.6664 59.775H73.9334V75ZM76.6004 68.175H80.0024C82.0394 68.175 82.9844 68.91 82.9844 70.485C82.9844 71.997 82.0604 72.858 80.1494 72.858H76.6004V68.175ZM76.6004 61.917H79.9184C81.4304 61.917 82.4384 62.61 82.4384 63.954C82.4384 65.466 81.4934 66.138 79.9184 66.138H76.6004V61.917ZM86.4072 75H89.1372L90.3132 71.619H96.4872L97.6842 75H100.603L94.8912 59.775H92.0772L86.4072 75ZM93.3792 62.862L95.6892 69.393H91.0902L93.3792 62.862ZM111.728 69.939C111.245 72.039 109.817 73.089 107.738 73.089C105.302 73.089 103.433 71.031 103.433 67.335C103.433 63.66 105.344 61.686 107.759 61.686C109.754 61.686 111.203 62.757 111.686 64.836H114.248C113.639 61.392 111.266 59.502 107.843 59.502C103.412 59.502 100.682 62.568 100.682 67.335C100.682 72.123 103.265 75.273 107.717 75.273C111.266 75.273 113.639 73.383 114.29 69.939H111.728ZM119.195 59.775H116.528V75H119.195V70.338L121.421 67.902L126.209 75H129.359L123.185 65.97L128.834 59.775H125.663L119.195 67.02V59.775ZM130.699 75H141.472V72.753H133.366V68.28H141.031V66.075H133.366V62.001H141.472V59.775H130.699V75ZM153.51 67.377C153.51 72.186 150.57 72.858 147.651 72.858H146.286V61.917H147.651C150.57 61.917 153.51 62.568 153.51 67.377ZM143.619 59.775V75H147.777C152.586 75 156.282 73.32 156.282 67.377C156.282 61.434 152.586 59.775 147.777 59.775H143.619Z" fill="black"/>
</svg>
