<svg width="288" height="288" viewBox="0 0 288 288" fill="none" xmlns="http://www.w3.org/2000/svg">
<circle cx="144" cy="144" r="144" fill="black"/>
<path d="M152.623 137.262L200.547 89.9488L182.366 72L143.533 110.338L104.699 72L86.519 89.9488L134.443 137.262C136.953 139.74 140.243 140.979 143.533 140.979C146.823 140.979 150.113 139.741 152.623 137.262ZM222 187.806L183.166 149.467L222 111.128L203.82 93.1793L155.896 140.493C150.875 145.449 150.875 153.485 155.896 158.442L203.82 205.755L222 187.806ZM143.467 188.662L182.3 227L200.48 209.051L152.557 161.738C147.536 156.782 139.396 156.782 134.376 161.738L86.4527 209.051L104.633 227L143.467 188.662ZM131.104 158.507C133.515 156.127 134.869 152.899 134.869 149.533C134.869 146.167 133.515 142.939 131.104 140.559L83.1804 93.2455L65 111.194L103.834 149.533L65 187.872L83.1804 205.821L131.104 158.507Z" fill="white"/>
</svg>
