<svg width="513" height="513" viewBox="0 0 513 513" fill="none" xmlns="http://www.w3.org/2000/svg">
<circle cx="256.173" cy="256.319" r="256" fill="black"/>
<g clip-path="url(#clip0_41_649)">
<path d="M171.866 277.492L180.411 213.283L106.288 161.824L174.013 184.766L190.008 160.225L248.411 123.984L377.145 194.912L383.817 303.13L326.465 382.832L281.132 389.779L304.575 346.866V305.553L287.53 273.288L270.21 261.817L243.567 289.283V318.349L222.774 337.817L196.36 341.016L184.661 347.643L165.468 341.519L157.47 312.728L171.866 292.482V277.492Z" fill="black"/>
<path d="M290.226 161.276C276.105 158.351 260.658 159.128 260.658 159.128C260.658 159.128 255.586 182.573 224.145 188.742C224.374 188.742 265.685 202.864 290.226 161.276Z" fill="black"/>
<path d="M303.022 374.012C320.067 360.668 332.863 342.296 338.758 321.502C339.032 320.725 341.409 319.354 343.008 318.303C345.659 316.704 348.355 315.378 348.858 313.23C349.909 307.106 350.457 300.708 350.457 294.31C350.457 291.934 348.035 289.512 345.659 287.135C343.785 285.536 341.911 283.662 341.911 282.337C339.261 258.07 328.065 235.402 310.196 218.904L308.323 220.778C325.643 237.048 336.839 259.167 339.261 282.611C339.535 284.759 341.637 286.861 343.785 289.009C345.659 290.609 347.807 293.031 347.807 294.082C347.807 300.206 347.258 306.33 346.207 312.453C345.933 313.505 343.557 314.601 341.683 315.652C339.032 316.978 336.61 318.303 336.108 320.451C329.71 343.119 315.04 362.861 295.573 375.657C299.046 368.208 309.968 343.941 315.817 331.648L314.766 292.208L280.903 259.441L261.71 262.091L240.643 296.23C240.643 296.23 250.514 308.752 236.621 323.422C223.049 337.817 212.355 341.016 212.355 341.016L202.484 335.669C205.409 331.922 211.304 326.346 215.828 322.599C223.551 316.201 231.274 315.652 231.274 308.752C231.594 294.31 216.102 298.286 216.102 298.286L210.481 303.633L208.105 323.376L196.406 338.046L195.081 337.772L175.887 333.521C175.887 333.521 187.632 327.398 189.505 320.451C191.379 313.779 185.758 291.66 185.484 290.334C185.758 290.609 191.105 295.133 193.481 302.582C197.731 290.837 203.352 279.64 204.952 278.589C206.551 277.538 228.121 266.067 228.121 266.067L220.946 284.987L226.293 282.063L239.089 250.621C239.089 250.621 251.61 244.497 260.933 244.497C277.704 244.223 302.519 223.703 291.323 186.914C294.522 188.239 349.954 215.98 359.551 270.363C366.726 312.179 343.008 351.345 303.022 374.012Z" fill="black"/>
<path d="M239.592 167.126C245.715 159.905 243.339 149.257 243.339 149.257L225.471 175.672C225.196 175.672 231.823 175.946 239.592 167.126Z" fill="white"/>
<path d="M179.589 311.356L181.737 300.708C181.737 300.708 172.917 316.155 172.14 318.303C171.317 320.725 172.688 324.975 176.116 324.701C179.589 324.427 183.839 319.354 183.839 315.652C183.839 310.854 179.589 311.356 179.589 311.356Z" fill="white"/>
<path d="M337.935 141.808C337.935 141.808 351.279 142.356 365.126 143.955C333.914 119.414 304.346 112.239 280.354 112.239C247.314 112.239 224.922 125.858 223.551 126.635L233.97 110.091C233.97 110.091 192.384 106.07 177.715 150.079C173.967 140.756 170.54 127.138 170.54 127.138C170.54 127.138 148.924 146.103 159.07 177.545C134.255 168.497 98.8383 155.929 97.4674 155.701C95.5937 155.426 95.0453 156.249 95.0453 156.249C95.0453 156.249 94.4969 157.026 96.0964 158.397C99.0668 160.728 155.048 202.087 167.341 210.084C164.69 219.681 164.69 224.206 167.341 228.73C171.088 234.854 171.317 238.053 170.814 242.577C170.266 247.102 165.467 286.313 164.416 291.111C163.365 295.91 152.169 312.956 152.672 318.029C153.22 323.102 160.121 344.672 166.29 347.094C170.814 348.694 182.01 352.167 189.459 352.167C192.11 352.167 194.532 351.619 195.583 350.568C200.107 346.592 201.432 345.769 204.631 345.769C204.906 345.769 205.18 345.769 205.408 345.769C206.734 345.769 208.333 346.043 210.207 346.043C214.457 346.043 220.078 345.221 224.053 341.519C229.903 335.669 240.048 327.672 243.247 323.924C247.268 318.851 249.371 311.951 248.32 305.004C247.497 298.606 250.97 292.985 254.992 287.409C260.064 280.737 269.387 268.764 269.387 268.764C287.803 282.565 299.274 303.633 299.274 327.078C299.274 368.665 263.035 402.255 218.25 402.255C211.303 402.255 204.677 401.478 198.005 399.879C218.524 407.054 235.844 409.476 250.01 409.476C280.126 409.476 296.121 398.553 296.121 398.553C296.121 398.553 290.545 405.774 281.451 414C281.725 414 281.725 414 281.725 414C331.583 407.054 355.849 366.014 355.849 366.014C355.849 366.014 353.975 379.359 351.599 388.408C417.908 338.548 406.712 276.167 406.438 274.065C406.986 274.842 413.658 282.839 417.086 287.135C427.779 177.271 337.935 141.808 337.935 141.808ZM235.844 317.252C234.793 318.577 230.268 322.599 227.07 325.524C223.871 328.449 220.397 331.373 217.747 334.07C216.696 335.121 214.548 335.669 211.349 335.669C210.298 335.669 209.201 335.669 208.424 335.669C207.876 335.669 207.373 335.669 206.825 335.669C206.277 335.669 206.002 335.669 205.774 335.669C204.951 335.669 204.174 335.669 203.352 335.669C207.373 330.322 219.072 318.075 223.094 315.424C227.892 312.225 230.314 309.026 227.344 303.45C224.419 297.829 216.696 299.2 216.696 299.2C216.696 299.2 221.22 297.327 225.242 297.327C220.169 296.001 213.771 297.327 210.846 300.251C207.647 303.176 208.196 313.596 206.871 320.222C205.545 327.169 201.021 330.642 194.075 337.04C190.328 340.514 187.677 341.565 185.529 341.565C181.005 340.788 175.658 339.417 171.911 338.091C169.26 334.618 165.239 323.147 164.188 318.349C164.965 315.698 168.164 310.077 169.763 306.878C172.962 300.754 174.836 297.281 175.384 294.082C176.435 289.557 179.908 261.543 181.234 249.844C184.707 254.368 189.505 261.863 188.408 266.661C196.131 255.739 190.556 245.045 187.86 240.795C185.484 236.545 182.285 227.999 184.935 218.95C187.586 209.901 197.182 184.812 197.182 184.812C197.182 184.812 200.381 190.433 204.906 189.336C209.43 188.285 245.943 133.353 245.943 133.353C245.943 133.353 255.814 154.924 245.395 170.69C234.747 186.411 224.328 189.336 224.328 189.336C224.328 189.336 238.997 191.987 252.57 182.115C258.145 195.186 263.492 208.759 263.766 210.633C262.943 212.506 252.295 238.099 251.244 239.698C250.696 240.247 246.994 241.298 244.298 241.846C239.774 243.171 237.123 243.994 236.027 244.771C234.153 246.37 225.607 269.815 221.631 281.286C216.833 282.611 212.035 285.307 208.561 290.609C210.435 289.283 216.285 288.461 220.58 287.958C224.328 287.684 235.752 293.808 238.723 305.278C238.723 305.553 238.723 305.553 238.723 305.827C239.317 310.031 237.992 314.053 235.844 317.252ZM210.801 320.451C213.223 316.978 212.949 311.128 213.223 309.254C213.497 307.381 214 303.907 216.147 303.405C218.295 302.856 223.368 303.679 223.368 307.381C223.368 310.854 219.621 311.631 216.97 314.053C215.051 315.881 211.303 319.903 210.801 320.451ZM317.142 269.495C319.793 255.922 320.067 244.177 319.29 234.58C329.664 248.427 336.061 265.245 337.935 282.565C338.209 284.713 340.311 286.815 342.459 288.963C344.333 290.563 346.481 292.711 346.481 294.036C346.481 300.16 345.932 306.284 344.881 312.453C344.607 313.23 342.231 314.601 340.357 315.652C337.707 316.978 335.285 318.303 334.782 320.451C328.932 340.971 316.365 359.114 299.594 371.91C324.363 346.043 336.336 303.359 317.142 269.495ZM300.371 374.286C317.691 360.942 331.035 342.296 336.884 321.228C337.158 320.451 339.535 319.08 341.134 318.029C343.785 316.704 346.481 315.104 346.984 312.956C348.035 306.832 348.583 300.434 348.583 294.036C348.583 291.66 346.161 289.238 343.785 286.861C342.459 285.262 340.311 283.388 340.311 282.063C338.164 262.594 330.441 244.222 318.467 229.004C313.121 197.014 291.825 187.142 291.277 186.868C291.825 187.691 305.672 207.662 296.075 231.106C286.204 254.825 260.887 251.123 258.739 251.352C256.591 251.352 248.365 262 237.946 281.743C236.621 281.194 231 279.869 224.602 280.966C229.4 267.621 236.621 248.701 237.946 247.102C238.494 246.553 242.47 245.502 245.166 244.725C250.239 243.4 252.615 242.577 253.438 241.526C253.986 240.704 256.637 234.58 259.287 228.182C261.709 228.182 267.833 227.633 268.336 227.359C268.884 226.811 273.957 213.786 273.957 212.186C273.957 210.861 263.537 184.995 259.561 175.123C261.435 172.975 263.309 170.325 265.137 167.4C319.793 173.295 362.475 219.681 362.475 275.893C362.475 319.08 337.158 356.692 300.371 374.286Z" fill="white"/>
<path d="M229.446 230.33C234.519 224.48 231.868 213.557 222.5 211.684C224.922 206.108 228.349 194.912 228.349 194.912C228.349 194.912 201.159 237.55 198.782 238.373C196.36 239.195 193.984 229.827 193.984 229.827C188.911 249.295 202.53 251.946 204.129 245.822C211.578 243.903 224.374 235.905 229.446 230.33Z" fill="white"/>
<path d="M206.231 240.703L220.078 216.985C220.078 216.985 228.075 221.007 224.054 227.405C219.027 234.854 206.231 240.703 206.231 240.703Z" fill="black"/>
<path d="M377.648 350.568C373.626 355.915 369.102 361.49 363.801 366.837C398.167 300.708 365.4 240.201 364.075 237.824C366.497 240.247 368.874 242.897 371.021 245.274C397.39 274.568 400.589 318.577 377.648 350.568Z" fill="black"/>
<path d="M409.637 265.519C397.618 233.254 380.573 205.788 343.008 181.019C306.769 157.026 267.833 158.9 265.686 159.174C265.411 159.174 265.137 159.174 265.137 159.174C266.462 158.625 267.788 158.351 269.113 158.123C277.385 155.472 288.032 153.324 298.726 151.999C327.014 147.932 355.53 157.529 374.997 178.094C375.272 178.368 375.272 178.368 375.546 178.642C397.664 202.087 409.135 231.381 409.637 265.519Z" fill="black"/>
<path d="M334.462 133.536C294.75 126.087 269.158 129.788 250.742 136.735C250.193 134.587 248.32 130.337 246.72 126.863C241.191 133.536 235.296 141.533 231.594 146.606C221.449 153.553 217.199 160.225 217.199 160.225C223.048 140.208 240.14 125.31 260.933 121.562C266.782 120.511 273.18 119.963 280.126 119.963C298.497 120.237 316.868 124.761 334.462 133.536Z" fill="black"/>
<path d="M187.586 184.72C156.419 183.669 166.793 147.383 167.341 145.281C167.341 145.555 169.443 173.798 187.586 184.72Z" fill="black"/>
<path d="M218.25 119.414C194.258 133.81 199.057 168.177 199.057 168.177C176.116 133.307 216.376 120.237 218.25 119.414Z" fill="black"/>
<path d="M178.812 194.317C180.411 195.643 182.011 198.065 180.137 201.538C179.086 203.412 177.486 203.138 175.064 202.087C171.865 200.487 152.672 189.29 135.352 177.82C155.094 184.766 175.064 192.215 178.263 193.815C178.263 193.815 178.538 194.089 178.812 194.317Z" fill="black"/>
</g>
<defs>
<clipPath id="clip0_41_649">
<rect width="323" height="304" fill="white" transform="translate(95 110)"/>
</clipPath>
</defs>
</svg>
