<svg width="513" height="513" viewBox="0 0 513 513" fill="none" xmlns="http://www.w3.org/2000/svg">
<circle cx="256.173" cy="256.319" r="255.5" fill="black" stroke="white"/>
<g clip-path="url(#clip0_41_649)">
<path d="M187.261 273.438L192.737 232.251L145.234 199.243L188.637 213.958L198.888 198.217L236.316 174.97L318.818 220.466L323.093 289.883L286.338 341.008L257.286 345.463L272.31 317.937V291.437L261.386 270.741L250.286 263.383L233.212 281.001V299.645L219.886 312.133L202.958 314.185L195.461 318.435L183.16 314.507L178.035 296.039L187.261 283.053V273.438Z" fill="black"/>
<path d="M263.114 198.891C254.064 197.015 244.165 197.513 244.165 197.513C244.165 197.513 240.914 212.551 220.765 216.509C220.911 216.509 247.386 225.567 263.114 198.891Z" fill="black"/>
<path d="M271.314 335.35C282.238 326.79 290.438 315.005 294.217 301.667C294.392 301.169 295.915 300.29 296.94 299.615C298.639 298.589 300.367 297.739 300.689 296.361C301.363 292.433 301.714 288.329 301.714 284.225C301.714 282.701 300.162 281.147 298.639 279.623C297.438 278.597 296.237 277.395 296.237 276.545C294.539 260.979 287.363 246.439 275.912 235.856L274.711 237.058C285.811 247.494 292.986 261.682 294.539 276.721C294.714 278.099 296.062 279.447 297.438 280.825C298.639 281.851 300.015 283.404 300.015 284.079C300.015 288.007 299.664 291.935 298.99 295.863C298.815 296.537 297.292 297.241 296.091 297.915C294.392 298.765 292.84 299.615 292.518 300.993C288.418 315.533 279.017 328.197 266.54 336.405C268.766 331.627 275.766 316.061 279.514 308.175L278.841 282.877L257.139 261.858L244.839 263.559L231.337 285.456C231.337 285.456 237.663 293.489 228.76 302.899C220.062 312.133 213.209 314.185 213.209 314.185L206.883 310.755C208.757 308.351 212.535 304.775 215.435 302.371C220.384 298.267 225.334 297.915 225.334 293.489C225.539 284.225 215.61 286.776 215.61 286.776L212.008 290.205L210.485 302.869L202.988 312.279L202.138 312.103L189.838 309.377C189.838 309.377 197.365 305.449 198.565 300.993C199.766 296.713 196.164 282.525 195.988 281.675C196.164 281.851 199.59 284.753 201.113 289.531C203.837 281.997 207.439 274.815 208.464 274.141C209.489 273.467 223.313 266.109 223.313 266.109L218.715 278.245L222.141 276.369L230.342 256.201C230.342 256.201 238.366 252.272 244.341 252.272C255.089 252.097 270.992 238.934 263.817 215.336C265.867 216.186 301.392 233.98 307.542 268.864C312.14 295.687 296.94 320.81 271.314 335.35Z" fill="black"/>
<path d="M230.664 202.643C234.588 198.011 233.065 191.181 233.065 191.181L221.614 208.125C221.438 208.125 225.685 208.301 230.664 202.643Z" fill="white"/>
<path d="M192.21 295.16L193.587 288.329C193.587 288.329 187.934 298.238 187.436 299.615C186.909 301.169 187.788 303.895 189.984 303.719C192.21 303.544 194.934 300.29 194.934 297.915C194.934 294.837 192.21 295.16 192.21 295.16Z" fill="white"/>
<path d="M293.689 186.403C293.689 186.403 302.241 186.755 311.115 187.781C291.112 172.039 272.163 167.436 256.788 167.436C235.613 167.436 221.263 176.172 220.384 176.671L227.062 166.059C227.062 166.059 200.41 163.479 191.009 191.709C188.608 185.729 186.411 176.993 186.411 176.993C186.411 176.993 172.559 189.158 179.06 209.327C163.158 203.523 140.46 195.461 139.582 195.315C138.381 195.139 138.029 195.666 138.029 195.666C138.029 195.666 137.678 196.165 138.703 197.044C140.607 198.539 176.483 225.069 184.361 230.199C182.663 236.355 182.663 239.257 184.361 242.159C186.763 246.087 186.909 248.139 186.587 251.041C186.236 253.944 183.16 279.095 182.487 282.173C181.813 285.251 174.638 296.186 174.96 299.44C175.312 302.694 179.734 316.53 183.688 318.084C186.587 319.11 193.762 321.338 198.536 321.338C200.235 321.338 201.787 320.986 202.461 320.312C205.36 317.761 206.209 317.234 208.259 317.234C208.435 317.234 208.611 317.234 208.757 317.234C209.607 317.234 210.632 317.409 211.832 317.409C214.556 317.409 218.158 316.882 220.706 314.507C224.455 310.755 230.957 305.625 233.007 303.221C235.584 299.967 236.931 295.541 236.258 291.085C235.731 286.981 237.956 283.375 240.534 279.799C243.784 275.519 249.759 267.839 249.759 267.839C261.562 276.692 268.913 290.206 268.913 305.244C268.913 331.92 245.688 353.466 216.987 353.466C212.535 353.466 208.289 352.968 204.013 351.942C217.163 356.544 228.262 358.098 237.341 358.098C256.641 358.098 266.892 351.092 266.892 351.092C266.892 351.092 263.319 355.723 257.491 361C257.666 361 257.666 361 257.666 361C289.618 356.544 305.17 330.22 305.17 330.22C305.17 330.22 303.969 338.78 302.446 344.584C344.941 312.602 337.766 272.588 337.59 271.239C337.942 271.737 342.218 276.867 344.414 279.623C351.267 209.151 293.689 186.403 293.689 186.403ZM228.262 298.941C227.589 299.791 224.689 302.371 222.639 304.247C220.589 306.123 218.363 307.999 216.665 309.729C215.991 310.403 214.615 310.755 212.565 310.755C211.891 310.755 211.188 310.755 210.69 310.755C210.339 310.755 210.017 310.755 209.665 310.755C209.314 310.755 209.138 310.755 208.992 310.755C208.464 310.755 207.967 310.755 207.439 310.755C210.017 307.325 217.514 299.469 220.091 297.769C223.166 295.717 224.719 293.665 222.815 290.088C220.941 286.483 215.991 287.362 215.991 287.362C215.991 287.362 218.891 286.16 221.468 286.16C218.217 285.31 214.117 286.16 212.242 288.036C210.192 289.912 210.544 296.596 209.694 300.847C208.845 305.303 205.946 307.53 201.494 311.634C199.093 313.862 197.394 314.537 196.017 314.537C193.118 314.038 189.691 313.159 187.29 312.309C185.591 310.081 183.014 302.723 182.34 299.645C182.838 297.945 184.888 294.339 185.913 292.287C187.964 288.359 189.164 286.131 189.516 284.079C190.189 281.177 192.415 263.207 193.264 255.702C195.49 258.605 198.565 263.412 197.863 266.49C202.812 259.484 199.239 252.624 197.511 249.898C195.988 247.172 193.938 241.69 195.637 235.886C197.335 230.082 203.486 213.988 203.486 213.988C203.486 213.988 205.536 217.594 208.435 216.89C211.335 216.216 234.735 180.98 234.735 180.98C234.735 180.98 241.061 194.816 234.383 204.93C227.559 215.014 220.882 216.89 220.882 216.89C220.882 216.89 230.283 218.59 238.981 212.258C242.554 220.642 245.981 229.349 246.157 230.551C245.63 231.752 238.806 248.169 238.132 249.195C237.781 249.546 235.408 250.221 233.68 250.572C230.781 251.422 229.082 251.95 228.38 252.448C227.179 253.474 221.702 268.513 219.154 275.871C216.079 276.721 213.004 278.45 210.778 281.851C211.979 281.001 215.728 280.473 218.481 280.151C220.882 279.975 228.204 283.903 230.107 291.261C230.107 291.437 230.107 291.437 230.107 291.613C230.488 294.31 229.639 296.889 228.262 298.941ZM212.213 300.993C213.765 298.765 213.59 295.013 213.765 293.811C213.941 292.609 214.263 290.381 215.64 290.059C217.016 289.707 220.267 290.235 220.267 292.609C220.267 294.837 217.866 295.336 216.167 296.889C214.937 298.062 212.535 300.641 212.213 300.993ZM280.364 268.308C282.062 259.601 282.238 252.067 281.74 245.911C288.388 254.794 292.489 265.581 293.689 276.692C293.865 278.069 295.212 279.418 296.589 280.796C297.79 281.822 299.166 283.199 299.166 284.049C299.166 287.978 298.815 291.906 298.141 295.863C297.965 296.362 296.442 297.241 295.242 297.915C293.543 298.765 291.991 299.615 291.669 300.993C287.92 314.155 279.866 325.793 269.118 334.001C284.991 317.409 292.664 290.03 280.364 268.308ZM269.616 335.526C280.715 326.966 289.267 315.006 293.016 301.492C293.191 300.993 294.714 300.114 295.739 299.44C297.438 298.589 299.166 297.563 299.488 296.186C300.162 292.258 300.513 288.154 300.513 284.049C300.513 282.525 298.961 280.971 297.438 279.447C296.589 278.421 295.212 277.219 295.212 276.369C293.836 263.881 288.886 252.097 281.213 242.335C277.787 221.815 264.139 215.483 263.787 215.307C264.139 215.835 273.013 228.645 266.863 243.683C260.537 258.898 244.312 256.523 242.935 256.67C241.559 256.67 236.287 263.5 229.61 276.164C228.76 275.812 225.158 274.962 221.058 275.666C224.133 267.106 228.76 254.97 229.61 253.944C229.961 253.592 232.509 252.918 234.237 252.419C237.488 251.569 239.011 251.041 239.538 250.367C239.889 249.839 241.588 245.911 243.287 241.807C244.839 241.807 248.763 241.456 249.085 241.28C249.437 240.928 252.688 232.573 252.688 231.547C252.688 230.697 246.01 214.105 243.462 207.773C244.663 206.395 245.864 204.695 247.035 202.819C282.062 206.601 309.416 236.355 309.416 272.412C309.416 300.114 293.191 324.24 269.616 335.526Z" fill="white"/>
<path d="M224.162 243.185C227.413 239.433 225.714 232.427 219.711 231.225C221.263 227.648 223.459 220.466 223.459 220.466C223.459 220.466 206.034 247.817 204.511 248.344C202.958 248.872 201.435 242.863 201.435 242.863C198.185 255.351 206.912 257.051 207.937 253.123C212.711 251.891 220.911 246.761 224.162 243.185Z" fill="white"/>
<path d="M209.284 249.839L218.158 234.625C218.158 234.625 223.283 237.205 220.706 241.309C217.485 246.087 209.284 249.839 209.284 249.839Z" fill="black"/>
<path d="M319.14 320.312C316.562 323.741 313.663 327.318 310.266 330.747C332.289 288.329 311.291 249.517 310.441 247.993C311.994 249.546 313.516 251.247 314.893 252.771C331.792 271.562 333.842 299.791 319.14 320.312Z" fill="black"/>
<path d="M339.64 265.757C331.938 245.061 321.014 227.443 296.94 211.555C273.716 196.165 248.763 197.367 247.387 197.542C247.211 197.542 247.035 197.542 247.035 197.542C247.884 197.191 248.734 197.015 249.583 196.868C254.884 195.168 261.708 193.79 268.561 192.94C286.69 190.331 304.965 196.487 317.441 209.679C317.617 209.855 317.617 209.855 317.792 210.03C331.967 225.069 339.318 243.859 339.64 265.757Z" fill="black"/>
<path d="M291.464 181.097C266.013 176.319 249.613 178.693 237.81 183.149C237.459 181.771 236.258 179.045 235.233 176.817C231.689 181.097 227.911 186.227 225.539 189.481C219.037 193.937 216.313 198.217 216.313 198.217C220.062 185.377 231.016 175.82 244.341 173.417C248.09 172.742 252.19 172.391 256.642 172.391C268.415 172.567 280.188 175.469 291.464 181.097Z" fill="black"/>
<path d="M197.336 213.929C177.362 213.255 184.01 189.979 184.361 188.631C184.361 188.807 185.709 206.923 197.336 213.929Z" fill="black"/>
<path d="M216.987 172.039C201.611 181.273 204.686 203.317 204.686 203.317C189.984 180.95 215.786 172.566 216.987 172.039Z" fill="black"/>
<path d="M191.712 220.085C192.737 220.935 193.762 222.489 192.562 224.717C191.888 225.919 190.863 225.743 189.311 225.069C187.261 224.043 174.96 216.861 163.86 209.503C176.512 213.958 189.311 218.737 191.361 219.763C191.361 219.763 191.536 219.939 191.712 220.085Z" fill="black"/>
</g>
<defs>
<clipPath id="clip0_41_649">
<rect width="207" height="195" fill="white" transform="translate(138 166)"/>
</clipPath>
</defs>
</svg>
