<svg width="513" height="513" viewBox="0 0 513 513" fill="none" xmlns="http://www.w3.org/2000/svg">
<circle cx="256.173" cy="256.319" r="255.5" fill="black" stroke="white"/>
<g clip-path="url(#clip0_41_649)">
<path d="M181.635 271.435L188.488 219.898L129.051 178.596L183.358 197.01L196.183 177.312L243.014 148.224L346.24 205.153L351.59 292.013L305.602 355.984L269.251 361.559L288.05 327.116V293.957L274.381 268.06L260.493 258.853L239.13 280.898V304.227L222.457 319.853L201.277 322.421L191.896 327.74L176.505 322.824L170.093 299.716L181.635 283.466V271.435Z" fill="black"/>
<path d="M276.543 178.156C265.22 175.808 252.835 176.432 252.835 176.432C252.835 176.432 248.767 195.249 223.556 200.201C223.739 200.201 256.866 211.535 276.543 178.156Z" fill="black"/>
<path d="M286.804 348.904C300.472 338.194 310.732 323.448 315.459 306.758C315.679 306.135 317.585 305.034 318.867 304.191C320.992 302.907 323.154 301.843 323.558 300.119C324.4 295.204 324.84 290.069 324.84 284.933C324.84 283.026 322.898 281.082 320.992 279.174C319.49 277.891 317.988 276.387 317.988 275.323C315.862 255.845 306.884 237.652 292.557 224.41L291.054 225.914C304.942 238.972 313.92 256.726 315.862 275.543C316.082 277.267 317.768 278.954 319.49 280.678C320.992 281.962 322.715 283.906 322.715 284.75C322.715 289.665 322.275 294.58 321.432 299.496C321.212 300.339 319.307 301.22 317.804 302.063C315.679 303.127 313.737 304.191 313.334 305.915C308.204 324.108 296.441 339.954 280.831 350.225C283.616 344.246 292.373 324.769 297.064 314.901L296.221 283.246L269.068 256.946L253.677 259.073L236.784 286.474C236.784 286.474 244.7 296.524 233.56 308.299C222.677 319.853 214.102 322.421 214.102 322.421L206.187 318.129C208.532 315.121 213.259 310.646 216.887 307.639C223.08 302.503 229.272 302.063 229.272 296.524C229.529 284.933 217.107 288.124 217.107 288.124L212.599 292.416L210.694 308.262L201.313 320.037L200.25 319.817L184.86 316.405C184.86 316.405 194.277 311.49 195.78 305.915C197.282 300.559 192.775 282.806 192.555 281.742C192.775 281.962 197.062 285.594 198.968 291.572C202.376 282.146 206.883 273.159 208.165 272.315C209.448 271.471 226.744 262.265 226.744 262.265L220.991 277.45L225.278 275.103L235.539 249.867C235.539 249.867 245.579 244.951 253.054 244.951C266.503 244.731 286.4 228.262 277.423 198.734C279.988 199.797 324.437 222.063 332.132 265.713C337.885 299.275 318.867 330.711 286.804 348.904Z" fill="black"/>
<path d="M235.942 182.851C240.852 177.055 238.947 168.509 238.947 168.509L224.619 189.71C224.399 189.71 229.712 189.93 235.942 182.851Z" fill="white"/>
<path d="M187.828 298.615L189.55 290.069C189.55 290.069 182.478 302.467 181.855 304.191C181.196 306.135 182.295 309.546 185.043 309.326C187.828 309.106 191.236 305.034 191.236 302.063C191.236 298.212 187.828 298.615 187.828 298.615Z" fill="white"/>
<path d="M314.8 162.53C314.8 162.53 325.5 162.97 336.603 164.254C311.575 144.556 287.866 138.797 268.628 138.797C242.135 138.797 224.179 149.728 223.08 150.352L231.434 137.073C231.434 137.073 198.088 133.846 186.326 169.169C183.321 161.686 180.573 150.755 180.573 150.755C180.573 150.755 163.24 165.978 171.375 191.214C151.477 183.951 123.078 173.864 121.979 173.681C120.476 173.461 120.037 174.121 120.037 174.121C120.037 174.121 119.597 174.744 120.879 175.845C123.261 177.716 168.15 210.912 178.007 217.331C175.882 225.034 175.882 228.665 178.007 232.297C181.012 237.212 181.196 239.779 180.792 243.411C180.353 247.042 176.505 278.514 175.662 282.366C174.819 286.217 165.842 299.899 166.245 303.971C166.684 308.042 172.218 325.355 177.165 327.3C180.792 328.583 189.77 331.371 195.743 331.371C197.869 331.371 199.811 330.931 200.654 330.087C204.281 326.896 205.344 326.236 207.909 326.236C208.129 326.236 208.349 326.236 208.532 326.236C209.595 326.236 210.877 326.456 212.38 326.456C215.787 326.456 220.295 325.796 223.483 322.824C228.173 318.129 236.308 311.71 238.873 308.702C242.098 304.631 243.784 299.092 242.941 293.517C242.281 288.381 245.066 283.87 248.291 279.395C252.358 274.039 259.834 264.429 259.834 264.429C274.601 275.506 283.799 292.416 283.799 311.233C283.799 344.613 254.74 371.573 218.829 371.573C213.259 371.573 207.946 370.95 202.596 369.666C219.049 375.425 232.937 377.369 244.297 377.369C268.445 377.369 281.27 368.602 281.27 368.602C281.27 368.602 276.8 374.398 269.508 381C269.728 381 269.728 381 269.728 381C309.706 375.425 329.164 342.485 329.164 342.485C329.164 342.485 327.662 353.196 325.756 360.459C378.927 320.44 369.949 270.371 369.729 268.684C370.169 269.307 375.519 275.726 378.267 279.174C386.842 190.994 314.8 162.53 314.8 162.53ZM232.937 303.347C232.094 304.411 228.466 307.639 225.901 309.986C223.336 312.334 220.551 314.681 218.426 316.846C217.583 317.689 215.861 318.129 213.296 318.129C212.453 318.129 211.573 318.129 210.95 318.129C210.511 318.129 210.108 318.129 209.668 318.129C209.228 318.129 209.008 318.129 208.825 318.129C208.166 318.129 207.543 318.129 206.883 318.129C210.108 313.838 219.489 304.007 222.713 301.88C226.561 299.312 228.503 296.744 226.121 292.269C223.776 287.758 217.583 288.858 217.583 288.858C217.583 288.858 221.211 287.354 224.435 287.354C220.368 286.29 215.238 287.354 212.893 289.702C210.328 292.049 210.767 300.413 209.705 305.731C208.642 311.307 205.014 314.094 199.444 319.23C196.439 322.017 194.314 322.861 192.592 322.861C188.964 322.238 184.677 321.137 181.672 320.073C179.547 317.286 176.322 308.079 175.479 304.227C176.102 302.1 178.667 297.588 179.95 295.02C182.515 290.105 184.017 287.318 184.457 284.75C185.3 281.119 188.085 258.633 189.147 249.243C191.932 252.874 195.78 258.89 194.9 262.741C201.093 253.975 196.623 245.392 194.461 241.98C192.555 238.569 189.99 231.71 192.115 224.447C194.241 217.184 201.936 197.046 201.936 197.046C201.936 197.046 204.501 201.558 208.129 200.678C211.757 199.834 241.035 155.744 241.035 155.744C241.035 155.744 248.95 173.057 240.596 185.712C232.057 198.33 223.703 200.678 223.703 200.678C223.703 200.678 235.465 202.805 246.349 194.882C250.819 205.373 255.107 216.267 255.326 217.771C254.667 219.275 246.129 239.816 245.286 241.1C244.846 241.54 241.878 242.384 239.716 242.824C236.088 243.888 233.963 244.548 233.083 245.171C231.581 246.455 224.729 265.272 221.541 274.479C217.693 275.543 213.845 277.707 211.06 281.962C212.563 280.898 217.253 280.238 220.698 279.835C223.703 279.615 232.864 284.53 235.245 293.737C235.245 293.957 235.245 293.957 235.245 294.177C235.722 297.551 234.659 300.779 232.937 303.347ZM212.856 305.915C214.798 303.127 214.578 298.432 214.798 296.928C215.018 295.424 215.421 292.636 217.143 292.233C218.866 291.793 222.933 292.453 222.933 295.424C222.933 298.212 219.928 298.835 217.803 300.779C216.264 302.247 213.259 305.475 212.856 305.915ZM298.127 265.016C300.252 254.122 300.472 244.695 299.849 236.992C308.167 248.106 313.297 261.604 314.8 275.506C315.02 277.23 316.705 278.918 318.427 280.642C319.93 281.925 321.652 283.649 321.652 284.713C321.652 289.628 321.212 294.544 320.37 299.496C320.15 300.119 318.244 301.22 316.742 302.063C314.616 303.127 312.674 304.191 312.271 305.915C307.581 322.384 297.504 336.947 284.055 347.217C303.916 326.456 313.517 292.196 298.127 265.016ZM284.678 349.125C298.566 338.414 309.266 323.448 313.957 306.538C314.177 305.915 316.082 304.814 317.365 303.971C319.49 302.907 321.652 301.623 322.055 299.899C322.898 294.984 323.338 289.849 323.338 284.713C323.338 282.806 321.396 280.862 319.49 278.954C318.427 277.671 316.705 276.167 316.705 275.103C314.983 259.477 308.79 244.731 299.189 232.517C294.902 206.84 277.826 198.917 277.386 198.697C277.826 199.357 288.929 215.387 281.234 234.204C273.319 253.241 253.018 250.27 251.296 250.453C249.573 250.453 242.977 259 234.623 274.846C233.56 274.406 229.053 273.342 223.922 274.223C227.77 263.512 233.56 248.326 234.623 247.042C235.062 246.602 238.25 245.758 240.412 245.135C244.48 244.071 246.385 243.411 247.045 242.567C247.485 241.907 249.61 236.992 251.735 231.856C253.677 231.856 258.588 231.416 258.991 231.196C259.431 230.756 263.498 220.302 263.498 219.018C263.498 217.954 255.143 197.193 251.955 189.27C253.458 187.546 254.96 185.419 256.426 183.071C300.252 187.803 334.478 225.034 334.478 270.151C334.478 304.814 314.177 335.002 284.678 349.125Z" fill="white"/>
<path d="M227.807 233.58C231.874 228.885 229.749 220.119 222.237 218.615C224.179 214.14 226.927 205.153 226.927 205.153C226.927 205.153 205.124 239.376 203.219 240.036C201.277 240.696 199.371 233.177 199.371 233.177C195.304 248.803 206.224 250.93 207.506 246.015C213.479 244.475 223.739 238.055 227.807 233.58Z" fill="white"/>
<path d="M209.191 241.907L220.295 222.87C220.295 222.87 226.707 226.098 223.483 231.233C219.452 237.212 209.191 241.907 209.191 241.907Z" fill="black"/>
<path d="M346.643 330.087C343.419 334.379 339.791 338.854 335.54 343.146C363.097 290.069 336.823 241.503 335.76 239.596C337.702 241.54 339.608 243.667 341.33 245.575C362.474 269.087 365.039 304.411 346.643 330.087Z" fill="black"/>
<path d="M372.294 261.824C362.657 235.928 348.989 213.883 318.867 194.002C289.809 174.744 258.588 176.248 256.866 176.468C256.646 176.468 256.426 176.468 256.426 176.468C257.488 176.028 258.551 175.808 259.614 175.625C266.246 173.497 274.784 171.773 283.359 170.709C306.042 167.445 328.908 175.148 344.518 191.654C344.738 191.874 344.738 191.874 344.958 192.094C362.693 210.912 371.891 234.424 372.294 261.824Z" fill="black"/>
<path d="M312.015 155.891C280.171 149.912 259.651 152.883 244.883 158.458C244.443 156.734 242.941 153.323 241.658 150.535C237.224 155.891 232.497 162.31 229.529 166.381C221.394 171.957 217.986 177.312 217.986 177.312C222.677 161.246 236.382 149.288 253.055 146.28C257.745 145.437 262.875 144.996 268.445 144.996C283.176 145.216 297.907 148.848 312.015 155.891Z" fill="black"/>
<path d="M194.241 196.973C169.249 196.129 177.568 167.005 178.007 165.317C178.007 165.537 179.693 188.206 194.241 196.973Z" fill="black"/>
<path d="M218.829 144.556C199.591 156.111 203.438 183.694 203.438 183.694C185.043 155.707 217.326 145.216 218.829 144.556Z" fill="black"/>
<path d="M187.205 204.676C188.487 205.74 189.77 207.684 188.268 210.471C187.425 211.975 186.142 211.755 184.2 210.912C181.635 209.628 166.245 200.641 152.356 191.434C168.187 197.01 184.2 202.989 186.765 204.272C186.765 204.272 186.985 204.492 187.205 204.676Z" fill="black"/>
</g>
<defs>
<clipPath id="clip0_41_649">
<rect width="259" height="244" fill="white" transform="translate(120 137)"/>
</clipPath>
</defs>
</svg>
