<svg width="513" height="513" viewBox="0 0 513 513" fill="none" xmlns="http://www.w3.org/2000/svg">
<circle cx="256.183" cy="256.09" r="255.5" fill="black" stroke="white"/>
<circle cx="256.183" cy="261.369" r="210.164" fill="black" stroke="white" stroke-width="4"/>
<g clip-path="url(#clip0_20_11)">
<path d="M209.826 263.833C209.399 271.254 215.106 277.607 222.519 278.035C222.786 278.035 223.053 278.035 223.319 278.035C230.786 278.035 236.813 272.001 236.759 264.527C236.759 257.052 230.733 251.019 223.266 251.072C216.119 251.072 210.199 256.678 209.826 263.833Z" fill="white"/>
<path d="M159.586 260.362C157.186 260.202 155.106 262.071 155 264.473C154.893 266.876 156.706 268.958 159.106 269.065C161.506 269.225 163.533 267.356 163.693 264.954C163.853 262.551 161.986 260.522 159.586 260.362Z" fill="white"/>
<path d="M208.973 185.561C211.107 184.494 211.96 181.824 210.893 179.688C209.827 177.553 207.16 176.699 205.027 177.766C202.893 178.834 202.04 181.45 203.107 183.586C204.173 185.775 206.787 186.683 208.973 185.561Z" fill="white"/>
<path d="M222.626 209.427C225.933 207.772 227.266 203.714 225.613 200.404C223.96 197.094 219.906 195.759 216.6 197.414C213.293 199.069 211.96 203.127 213.613 206.437C215.266 209.747 219.32 211.082 222.626 209.427Z" fill="white"/>
<path d="M176.653 225.818C179.213 227.473 182.627 226.779 184.333 224.216C185.987 221.654 185.293 218.237 182.733 216.528C180.173 214.873 176.76 215.567 175.053 218.13C173.347 220.693 174.093 224.163 176.653 225.818Z" fill="white"/>
<path d="M184.813 257.96C181.079 257.746 177.933 260.576 177.719 264.313C177.506 268.05 180.333 271.201 184.066 271.414C187.799 271.628 190.946 268.798 191.159 265.061C191.373 261.377 188.546 258.173 184.813 257.96Z" fill="white"/>
<path d="M177.399 303.182C174.679 304.57 173.559 307.88 174.946 310.656C176.332 313.379 179.639 314.501 182.412 313.112C185.132 311.724 186.252 308.414 184.866 305.638C183.479 302.915 180.119 301.794 177.399 303.182Z" fill="white"/>
<path d="M203.533 244.024C207.213 246.427 212.12 245.413 214.466 241.729C216.866 238.045 215.853 233.133 212.173 230.783C208.493 228.381 203.586 229.395 201.24 233.079C198.84 236.71 199.853 241.622 203.533 244.024Z" fill="white"/>
<path d="M286.467 208.893C289.56 210.922 293.773 210.068 295.8 206.971C297.827 203.875 296.973 199.657 293.88 197.628C290.787 195.599 286.573 196.453 284.547 199.55C282.467 202.7 283.32 206.864 286.467 208.893Z" fill="white"/>
<path d="M300.227 185.134C302.253 186.469 304.92 185.881 306.253 183.853C307.587 181.824 307 179.154 304.973 177.819C302.947 176.485 300.28 177.072 298.947 179.047C297.667 181.076 298.253 183.799 300.227 185.134Z" fill="white"/>
<path d="M287.48 250.965C280.066 250.538 273.666 256.251 273.293 263.672C272.866 271.094 278.573 277.501 285.986 277.874C286.253 277.874 286.52 277.874 286.733 277.874C294.146 277.874 300.173 271.841 300.173 264.367C300.226 257.265 294.626 251.339 287.48 250.965Z" fill="white"/>
<path d="M227.053 243.063C229.346 247.602 233.986 250.485 239.106 250.485C246.52 250.485 252.546 244.452 252.546 236.977C252.546 234.895 252.066 232.812 251.106 230.89C247.746 224.216 239.64 221.547 233.026 224.91C226.36 228.327 223.693 236.443 227.053 243.063Z" fill="white"/>
<path d="M332.6 225.818C335.32 224.43 336.386 221.066 335 218.344C333.613 215.621 330.253 214.553 327.533 215.941C324.813 217.329 323.746 220.639 325.08 223.362C326.52 226.085 329.826 227.206 332.6 225.818Z" fill="white"/>
<path d="M298.466 230.09C294.573 232.065 292.973 236.817 294.946 240.714C296.919 244.612 301.666 246.214 305.559 244.238C309.453 242.263 311.053 237.511 309.079 233.613C307.106 229.716 302.359 228.168 298.466 230.09Z" fill="white"/>
<path d="M254.466 183.105C257.506 183.266 260.119 180.916 260.333 177.873C260.546 174.83 258.146 172.214 255.106 172C252.066 171.84 249.452 174.136 249.239 177.179C249.079 180.276 251.426 182.892 254.466 183.105Z" fill="white"/>
<path d="M254.413 217.969C258.786 218.236 262.52 214.873 262.733 210.495C263 206.117 259.64 202.379 255.266 202.166C250.893 201.899 247.16 205.262 246.946 209.64C246.733 214.019 250.04 217.756 254.413 217.969Z" fill="white"/>
<path d="M211.533 298.911C215.426 296.935 217.026 292.183 215.053 288.286C213.08 284.388 208.333 282.786 204.44 284.762C200.546 286.737 198.946 291.489 200.92 295.387C202.893 299.284 207.64 300.886 211.533 298.911Z" fill="white"/>
<path d="M259.533 229.555C255.48 235.802 257.186 244.131 263.426 248.189C269.666 252.247 277.986 250.538 282.04 244.291C286.093 238.045 284.386 229.716 278.146 225.658C275.96 224.216 273.4 223.469 270.786 223.469C266.253 223.469 262.04 225.765 259.533 229.555Z" fill="white"/>
<path d="M282.946 285.937C279.586 279.263 271.479 276.593 264.866 279.957C258.199 283.32 255.533 291.436 258.893 298.056C262.253 304.73 270.359 307.4 276.973 304.036C283.586 300.726 286.306 292.717 282.999 286.043C282.999 285.99 282.999 285.99 282.946 285.937Z" fill="white"/>
<path d="M306.466 284.975C302.786 282.573 297.879 283.587 295.533 287.271C293.133 290.955 294.146 295.867 297.826 298.216C301.506 300.619 306.413 299.604 308.759 295.921C311.159 292.29 310.146 287.378 306.466 284.975Z" fill="white"/>
<path d="M332.279 264.74C332.493 261.003 329.666 257.853 325.933 257.639C322.199 257.426 319.053 260.255 318.839 263.993C318.626 267.73 321.453 270.88 325.186 271.094C328.866 271.307 332.066 268.424 332.279 264.74Z" fill="white"/>
<path d="M350.893 259.935C348.493 259.775 346.413 261.643 346.306 264.046C346.2 266.449 348.013 268.531 350.413 268.638C352.813 268.798 354.84 266.929 355 264.527C355.106 262.124 353.293 260.095 350.893 259.935Z" fill="white"/>
<path d="M333.346 303.182C330.786 301.527 327.373 302.221 325.666 304.784C324.013 307.346 324.706 310.764 327.266 312.472C329.826 314.127 333.24 313.433 334.946 310.87C336.653 308.308 335.906 304.837 333.346 303.182Z" fill="white"/>
<path d="M209.72 343.866C207.693 342.531 205.027 343.118 203.693 345.094C202.36 347.123 202.947 349.792 204.92 351.127C206.947 352.462 209.613 351.874 210.947 349.899C212.333 347.924 211.747 345.201 209.72 343.866Z" fill="white"/>
<path d="M301.027 343.439C298.893 344.507 298.04 347.176 299.107 349.312C300.173 351.448 302.84 352.302 304.973 351.234C307.107 350.166 307.96 347.55 306.893 345.414C305.827 343.225 303.213 342.318 301.027 343.439Z" fill="white"/>
<path d="M250.466 299.444C254.519 293.198 252.813 284.869 246.573 280.757C240.333 276.7 232.013 278.408 227.906 284.655C223.799 290.902 225.559 299.231 231.799 303.342C233.986 304.783 236.546 305.531 239.159 305.531C243.746 305.584 247.959 303.288 250.466 299.444Z" fill="white"/>
<path d="M223.533 320.107C220.44 318.078 216.227 318.932 214.2 322.029C212.173 325.126 213.027 329.343 216.12 331.372C219.213 333.401 223.427 332.547 225.453 329.45C227.533 326.354 226.68 322.136 223.533 320.107Z" fill="white"/>
<path d="M254.946 345.894C251.906 345.734 249.293 348.083 249.08 351.127C248.866 354.17 251.266 356.786 254.306 357C257.346 357.16 259.96 354.864 260.173 351.821C260.333 348.724 257.986 346.108 254.946 345.894Z" fill="white"/>
<path d="M255 311.03C250.627 310.764 246.893 314.127 246.68 318.505C246.413 322.883 249.773 326.621 254.147 326.834C258.52 327.048 262.253 323.738 262.467 319.359C262.733 315.035 259.373 311.244 255 311.03Z" fill="white"/>
<path d="M287.373 319.573C284.066 321.281 282.733 325.339 284.439 328.649C286.146 331.959 290.199 333.294 293.506 331.586C296.813 329.931 298.146 325.873 296.493 322.563C294.786 319.252 290.733 317.864 287.373 319.573Z" fill="white"/>
</g>
<defs>
<clipPath id="clip0_20_11">
<rect width="200" height="185" fill="white" transform="translate(155 172)"/>
</clipPath>
</defs>
</svg>
