<?xml version="1.0" encoding="UTF-8"?>
<!DOCTYPE svg PUBLIC "-//W3C//DTD SVG 1.1//EN" "http://www.w3.org/Graphics/SVG/1.1/DTD/svg11.dtd">
<svg xmlns="http://www.w3.org/2000/svg" version="1.1" width="400px" height="400px" style="shape-rendering:geometricPrecision; text-rendering:geometricPrecision; image-rendering:optimizeQuality; fill-rule:evenodd; clip-rule:evenodd" xmlns:xlink="http://www.w3.org/1999/xlink">
<g><path style="opacity:0.988" fill="#f69321" d="M 399.5,180.5 C 399.5,193.5 399.5,206.5 399.5,219.5C 387.196,304.644 340.529,361.811 259.5,391C 246.233,394.818 232.9,397.652 219.5,399.5C 206.5,399.5 193.5,399.5 180.5,399.5C 99.4123,387.915 43.2457,344.248 12,268.5C -11.7511,194.936 0.582203,128.269 49,68.5C 97.4536,16.2121 157.287,-5.95457 228.5,2C 301.255,14.7715 353.089,54.6048 384,121.5C 391.855,140.591 397.021,160.258 399.5,180.5 Z"/></g>
<g><path style="opacity:1" fill="#ffe5b8" d="M 211.5,76.5 C 214.059,76.1984 216.393,76.5318 218.5,77.5C 215.763,77.4013 213.096,77.7347 210.5,78.5C 210.833,77.8333 211.167,77.1667 211.5,76.5 Z"/></g>
<g><path style="opacity:1" fill="#f1b56d" d="M 211.5,76.5 C 215.546,74.7997 219.213,75.4664 222.5,78.5C 222.5,79.1667 222.5,79.8333 222.5,80.5C 221.167,79.5 219.833,78.5 218.5,77.5C 216.393,76.5318 214.059,76.1984 211.5,76.5 Z"/></g>
<g><path style="opacity:1" fill="#fcfdfa" d="M 221.5,98.5 C 221.5,98.8333 221.5,99.1667 221.5,99.5C 218.991,108.527 217.658,117.86 217.5,127.5C 216.835,129.698 216.168,132.031 215.5,134.5C 214.334,153.491 214.167,172.491 215,191.5C 215.278,192.416 215.778,193.082 216.5,193.5C 216.669,198.181 217.002,202.848 217.5,207.5C 217.387,210.049 218.054,212.382 219.5,214.5C 218.311,215.429 216.978,215.762 215.5,215.5C 215.465,220.378 213.132,221.711 208.5,219.5C 207.469,218.3 206.635,216.966 206,215.5C 204.894,210.231 204.227,204.897 204,199.5C 203.667,199.833 203.333,200.167 203,200.5C 202.5,179.836 202.333,159.169 202.5,138.5C 203.268,137.737 203.768,136.737 204,135.5C 204.678,125.135 205.511,114.801 206.5,104.5C 207.79,103.942 208.623,102.942 209,101.5C 209.333,95.5 209.667,89.5 210,83.5C 210.741,82.3595 211.575,82.3595 212.5,83.5C 213.452,81.9547 213.785,80.288 213.5,78.5C 214.833,78.5 216.167,78.5 217.5,78.5C 217.371,81.7287 218.538,83.3954 221,83.5C 221.499,88.4889 221.666,93.4889 221.5,98.5 Z"/></g>
<g><path style="opacity:1" fill="#fef6e1" d="M 218.5,77.5 C 219.833,78.5 221.167,79.5 222.5,80.5C 223.719,86.357 223.719,92.357 222.5,98.5C 222.167,98.5 221.833,98.5 221.5,98.5C 221.666,93.4889 221.499,88.4889 221,83.5C 218.538,83.3954 217.371,81.7287 217.5,78.5C 216.167,78.5 214.833,78.5 213.5,78.5C 213.785,80.288 213.452,81.9547 212.5,83.5C 211.575,82.3595 210.741,82.3595 210,83.5C 209.667,89.5 209.333,95.5 209,101.5C 208.623,102.942 207.79,103.942 206.5,104.5C 207.114,100.865 207.448,97.1981 207.5,93.5C 208.325,89.3528 208.825,85.0195 209,80.5C 209.717,79.9558 210.217,79.2891 210.5,78.5C 213.096,77.7347 215.763,77.4013 218.5,77.5 Z"/></g>
<g><path style="opacity:1" fill="#fde2b6" d="M 210.5,78.5 C 210.217,79.2891 209.717,79.9558 209,80.5C 208.825,85.0195 208.325,89.3528 207.5,93.5C 207.5,88.8333 207.5,84.1667 207.5,79.5C 208.391,78.8902 209.391,78.5569 210.5,78.5 Z"/></g>
<g><path style="opacity:1" fill="#eb9a39" d="M 127.5,96.5 C 129.927,96.477 132.26,95.977 134.5,95C 135.337,93.9887 135.67,92.8221 135.5,91.5C 138.431,86.9703 137.431,83.3036 132.5,80.5C 130.393,79.5318 128.059,79.1984 125.5,79.5C 123.167,79.8333 121.833,81.1667 121.5,83.5C 120.848,84.4486 120.514,85.6153 120.5,87C 120.393,89.2206 121.06,91.0539 122.5,92.5C 123.527,94.1942 124.861,95.5275 126.5,96.5C 123.675,96.8384 121.508,95.8384 120,93.5C 119.501,88.8452 119.334,84.1785 119.5,79.5C 122.127,78.9084 124.794,78.5751 127.5,78.5C 127.5,77.5 127.5,76.5 127.5,75.5C 130.518,75.7038 133.518,76.0371 136.5,76.5C 136.784,79.6318 137.617,82.6318 139,85.5C 141.411,93.4499 138.578,97.7832 130.5,98.5C 128.97,98.3601 127.97,97.6935 127.5,96.5 Z"/></g>
<g><path style="opacity:1" fill="#ffe8bf" d="M 121.5,83.5 C 121.833,83.5 122.167,83.5 122.5,83.5C 122.5,86.5 122.5,89.5 122.5,92.5C 121.06,91.0539 120.393,89.2206 120.5,87C 120.514,85.6153 120.848,84.4486 121.5,83.5 Z"/></g>
<g><path style="opacity:1" fill="#fdfaf2" d="M 125.5,79.5 C 128.059,79.1984 130.393,79.5318 132.5,80.5C 132.685,82.1958 133.519,83.5291 135,84.5C 135.497,86.8098 135.663,89.1432 135.5,91.5C 134.356,93.9272 132.356,94.9272 129.5,94.5C 126.891,94.5587 124.557,93.892 122.5,92.5C 122.5,89.5 122.5,86.5 122.5,83.5C 123.5,82.1667 124.5,80.8333 125.5,79.5 Z"/></g>
<g><path style="opacity:1" fill="#fbe0b5" d="M 132.5,80.5 C 137.431,83.3036 138.431,86.9703 135.5,91.5C 135.663,89.1432 135.497,86.8098 135,84.5C 133.519,83.5291 132.685,82.1958 132.5,80.5 Z"/></g>
<g><path style="opacity:1" fill="#f6c887" d="M 125.5,79.5 C 124.5,80.8333 123.5,82.1667 122.5,83.5C 122.167,83.5 121.833,83.5 121.5,83.5C 121.833,81.1667 123.167,79.8333 125.5,79.5 Z"/></g>
<g><path style="opacity:1" fill="#ffe7bd" d="M 135.5,91.5 C 135.67,92.8221 135.337,93.9887 134.5,95C 132.26,95.977 129.927,96.477 127.5,96.5C 127.167,96.5 126.833,96.5 126.5,96.5C 124.861,95.5275 123.527,94.1942 122.5,92.5C 124.557,93.892 126.891,94.5587 129.5,94.5C 132.356,94.9272 134.356,93.9272 135.5,91.5 Z"/></g>
<g><path style="opacity:1" fill="#f29427" d="M 285.5,120.5 C 291.721,118.184 293.721,113.851 291.5,107.5C 290.5,106.833 289.5,106.167 288.5,105.5C 288.167,104.833 287.833,104.167 287.5,103.5C 286.306,102.223 284.64,101.556 282.5,101.5C 276.872,102.769 271.538,104.936 266.5,108C 265.663,109.011 265.33,110.178 265.5,111.5C 264.167,112.167 263.167,113.167 262.5,114.5C 259.249,117.246 256.083,120.246 253,123.5C 252.505,125.473 252.338,127.473 252.5,129.5C 251.404,132.032 250.071,134.365 248.5,136.5C 246.084,138.346 244.417,140.679 243.5,143.5C 243.716,140.568 243.049,137.902 241.5,135.5C 242.34,133.739 243.34,132.073 244.5,130.5C 245.48,131.981 246.647,133.315 248,134.5C 248.067,131.953 248.901,129.786 250.5,128C 248.945,123.276 250.612,120.443 255.5,119.5C 255.5,118.167 255.5,116.833 255.5,115.5C 256.5,115.5 257.5,115.5 258.5,115.5C 258.44,111.515 260.44,109.848 264.5,110.5C 264.5,109.167 264.5,107.833 264.5,106.5C 267.374,105.156 270.374,103.99 273.5,103C 272.333,101.833 271.167,100.667 270,99.5C 267,101.167 264,102.833 261,104.5C 259.049,102.863 259.216,101.363 261.5,100C 269.981,97.0226 278.648,96.1893 287.5,97.5C 287.281,96.325 287.614,95.325 288.5,94.5C 290.791,96.8173 290.791,98.984 288.5,101C 293.719,105.873 294.885,111.707 292,118.5C 290.103,120.016 287.936,120.683 285.5,120.5 Z"/></g>
<g><path style="opacity:1" fill="#f7c484" d="M 207.5,79.5 C 207.5,84.1667 207.5,88.8333 207.5,93.5C 207.448,97.1981 207.114,100.865 206.5,104.5C 205.833,106.833 205.167,109.167 204.5,111.5C 205.497,102.192 206.163,92.8588 206.5,83.5C 206.232,81.901 206.566,80.5676 207.5,79.5 Z"/></g>
<g><path style="opacity:1" fill="#fff6e3" d="M 221.5,99.5 C 221.354,103.519 221.021,107.519 220.5,111.5C 219.676,114.764 219.342,118.098 219.5,121.5C 218.833,123.5 218.167,125.5 217.5,127.5C 217.658,117.86 218.991,108.527 221.5,99.5 Z"/></g>
<g><path style="opacity:1" fill="#ee9d41" d="M 222.5,78.5 C 223.117,78.6107 223.617,78.944 224,79.5C 224.667,89.1667 224.667,98.8333 224,108.5C 223.14,112.961 221.974,117.294 220.5,121.5C 220.167,121.5 219.833,121.5 219.5,121.5C 219.342,118.098 219.676,114.764 220.5,111.5C 222.177,107.455 222.844,103.122 222.5,98.5C 223.719,92.357 223.719,86.357 222.5,80.5C 222.5,79.8333 222.5,79.1667 222.5,78.5 Z"/></g>
<g><path style="opacity:1" fill="#efbb7e" d="M 221.5,98.5 C 221.833,98.5 222.167,98.5 222.5,98.5C 222.844,103.122 222.177,107.455 220.5,111.5C 221.021,107.519 221.354,103.519 221.5,99.5C 221.5,99.1667 221.5,98.8333 221.5,98.5 Z"/></g>
<g><path style="opacity:1" fill="#fef3d4" d="M 287.5,103.5 C 287.833,104.167 288.167,104.833 288.5,105.5C 288.557,106.609 288.89,107.609 289.5,108.5C 288.127,108.657 286.793,108.49 285.5,108C 286.337,106.989 286.67,105.822 286.5,104.5C 283.753,104.187 281.086,104.52 278.5,105.5C 274.576,107.622 270.576,109.622 266.5,111.5C 267.29,110.206 268.29,109.039 269.5,108C 272.611,107.556 275.277,106.223 277.5,104C 280.817,103.502 284.15,103.335 287.5,103.5 Z"/></g>
<g><path style="opacity:1" fill="#e7a756" d="M 287.5,103.5 C 284.15,103.335 280.817,103.502 277.5,104C 275.277,106.223 272.611,107.556 269.5,108C 268.29,109.039 267.29,110.206 266.5,111.5C 266.167,111.5 265.833,111.5 265.5,111.5C 265.33,110.178 265.663,109.011 266.5,108C 271.538,104.936 276.872,102.769 282.5,101.5C 284.64,101.556 286.306,102.223 287.5,103.5 Z"/></g>
<g><path style="opacity:1" fill="#fcfcfa" d="M 289.5,108.5 C 290.451,109.919 290.784,111.585 290.5,113.5C 289.728,114.694 288.728,115.694 287.5,116.5C 284.685,116.892 282.185,117.892 280,119.5C 278.635,119.156 277.468,118.489 276.5,117.5C 274.464,120.214 273.131,123.214 272.5,126.5C 270.669,125.948 269.003,125.948 267.5,126.5C 268.789,129.151 268.289,131.484 266,133.5C 264.368,131.067 262.868,128.567 261.5,126C 261.867,123.756 262.867,123.256 264.5,124.5C 264.833,124 265.167,123.5 265.5,123C 264.259,121.269 263.259,119.436 262.5,117.5C 264.738,116.147 266.071,114.147 266.5,111.5C 270.576,109.622 274.576,107.622 278.5,105.5C 281.086,104.52 283.753,104.187 286.5,104.5C 286.67,105.822 286.337,106.989 285.5,108C 286.793,108.49 288.127,108.657 289.5,108.5 Z"/></g>
<g><path style="opacity:1" fill="#fad49e" d="M 288.5,105.5 C 289.5,106.167 290.5,106.833 291.5,107.5C 291.795,109.735 291.461,111.735 290.5,113.5C 290.784,111.585 290.451,109.919 289.5,108.5C 288.89,107.609 288.557,106.609 288.5,105.5 Z"/></g>
<g><path style="opacity:1" fill="#f0952d" d="M 206.5,83.5 C 206.163,92.8588 205.497,102.192 204.5,111.5C 202.922,116.583 202.255,121.916 202.5,127.5C 201.833,132.833 201.167,138.167 200.5,143.5C 200.666,136.159 200.5,128.826 200,121.5C 199.086,122.654 198.253,122.487 197.5,121C 198.704,119.647 199.371,117.981 199.5,116C 197.948,111.252 197.448,106.418 198,101.5C 198.158,106.556 199.491,111.223 202,115.5C 203.434,104.766 204.934,94.0991 206.5,83.5 Z"/></g>
<g><path style="opacity:1" fill="#feecce" d="M 265.5,111.5 C 265.833,111.5 266.167,111.5 266.5,111.5C 266.071,114.147 264.738,116.147 262.5,117.5C 261.833,117.833 261.167,118.167 260.5,118.5C 260.733,116.938 261.4,115.605 262.5,114.5C 263.167,113.167 264.167,112.167 265.5,111.5 Z"/></g>
<g><path style="opacity:1" fill="#f4c78e" d="M 204.5,111.5 C 204.473,117.051 203.806,122.384 202.5,127.5C 202.255,121.916 202.922,116.583 204.5,111.5 Z"/></g>
<g><path style="opacity:1" fill="#e59e49" d="M 291.5,107.5 C 293.721,113.851 291.721,118.184 285.5,120.5C 284.07,121.537 282.403,122.204 280.5,122.5C 280.833,121.833 281.167,121.167 281.5,120.5C 283.777,119.551 285.777,118.218 287.5,116.5C 288.728,115.694 289.728,114.694 290.5,113.5C 291.461,111.735 291.795,109.735 291.5,107.5 Z"/></g>
<g><path style="opacity:1" fill="#fdf7e3" d="M 287.5,116.5 C 285.777,118.218 283.777,119.551 281.5,120.5C 278.518,122.474 275.518,124.474 272.5,126.5C 273.131,123.214 274.464,120.214 276.5,117.5C 277.468,118.489 278.635,119.156 280,119.5C 282.185,117.892 284.685,116.892 287.5,116.5 Z"/></g>
<g><path style="opacity:1" fill="#e49e4c" d="M 262.5,114.5 C 261.4,115.605 260.733,116.938 260.5,118.5C 259.167,119.167 258.167,120.167 257.5,121.5C 256.542,121.953 255.708,122.619 255,123.5C 254.76,125.852 253.927,127.852 252.5,129.5C 252.338,127.473 252.505,125.473 253,123.5C 256.083,120.246 259.249,117.246 262.5,114.5 Z"/></g>
<g><path style="opacity:1" fill="#e6ab68" d="M 281.5,120.5 C 281.167,121.167 280.833,121.833 280.5,122.5C 278.142,124.678 275.475,126.345 272.5,127.5C 272.5,127.167 272.5,126.833 272.5,126.5C 275.518,124.474 278.518,122.474 281.5,120.5 Z"/></g>
<g><path style="opacity:1" fill="#fdf9ec" d="M 262.5,117.5 C 263.259,119.436 264.259,121.269 265.5,123C 265.167,123.5 264.833,124 264.5,124.5C 262.867,123.256 261.867,123.756 261.5,126C 262.868,128.567 264.368,131.067 266,133.5C 268.289,131.484 268.789,129.151 267.5,126.5C 269.003,125.948 270.669,125.948 272.5,126.5C 272.5,126.833 272.5,127.167 272.5,127.5C 272.5,127.833 272.5,128.167 272.5,128.5C 270.05,130.629 268.383,133.296 267.5,136.5C 265.008,140.151 263.008,144.151 261.5,148.5C 260.687,150.261 259.687,151.928 258.5,153.5C 259.285,147.681 261.285,142.348 264.5,137.5C 262.64,133.066 260.14,129.066 257,125.5C 256.722,126.416 256.222,127.082 255.5,127.5C 255.704,125.315 256.37,123.315 257.5,121.5C 258.167,120.167 259.167,119.167 260.5,118.5C 261.167,118.167 261.833,117.833 262.5,117.5 Z"/></g>
<g><path style="opacity:1" fill="#fdefc9" d="M 257.5,121.5 C 256.37,123.315 255.704,125.315 255.5,127.5C 253.016,132.299 250.35,136.966 247.5,141.5C 248.038,139.883 248.371,138.216 248.5,136.5C 250.071,134.365 251.404,132.032 252.5,129.5C 253.927,127.852 254.76,125.852 255,123.5C 255.708,122.619 256.542,121.953 257.5,121.5 Z"/></g>
<g><path style="opacity:1" fill="#e9a75b" d="M 272.5,128.5 C 272.649,129.552 272.483,130.552 272,131.5C 270.583,133.398 269.083,135.064 267.5,136.5C 268.383,133.296 270.05,130.629 272.5,128.5 Z"/></g>
<g><path style="opacity:1" fill="#fef8e6" d="M 206.5,104.5 C 205.511,114.801 204.678,125.135 204,135.5C 203.768,136.737 203.268,137.737 202.5,138.5C 202.5,134.833 202.5,131.167 202.5,127.5C 203.806,122.384 204.473,117.051 204.5,111.5C 205.167,109.167 205.833,106.833 206.5,104.5 Z"/></g>
<g><path style="opacity:1" fill="#fff2d8" d="M 217.5,127.5 C 216.714,149.491 216.38,171.491 216.5,193.5C 215.778,193.082 215.278,192.416 215,191.5C 214.167,172.491 214.334,153.491 215.5,134.5C 216.168,132.031 216.835,129.698 217.5,127.5 Z"/></g>
<g><path style="opacity:1" fill="#e9a558" d="M 267.5,136.5 C 267.563,141.696 265.563,145.696 261.5,148.5C 263.008,144.151 265.008,140.151 267.5,136.5 Z"/></g>
<g><path style="opacity:1" fill="#e49c4c" d="M 248.5,136.5 C 248.371,138.216 248.038,139.883 247.5,141.5C 245.05,145.281 243.05,149.281 241.5,153.5C 241.576,150.027 242.242,146.694 243.5,143.5C 244.417,140.679 246.084,138.346 248.5,136.5 Z"/></g>
<g><path style="opacity:1" fill="#e69a3b" d="M 362.5,162.5 C 360.772,160.774 358.772,159.441 356.5,158.5C 353.038,157.518 349.371,157.185 345.5,157.5C 350.868,154.744 356.035,155.077 361,158.5C 361.791,159.745 362.291,161.078 362.5,162.5 Z"/></g>
<g><path style="opacity:1" fill="#e8b26e" d="M 345.5,157.5 C 349.371,157.185 353.038,157.518 356.5,158.5C 351.968,158.182 347.634,158.515 343.5,159.5C 340.833,159.5 338.167,159.5 335.5,159.5C 335.5,159.167 335.5,158.833 335.5,158.5C 338.86,158.384 342.193,158.051 345.5,157.5 Z"/></g>
<g><path style="opacity:1" fill="#f0952c" d="M 219.5,121.5 C 219.833,121.5 220.167,121.5 220.5,121.5C 219.512,145.159 219.345,168.826 220,192.5C 222.148,194.572 221.982,196.406 219.5,198C 220,198.5 220.5,199 221,199.5C 221.132,203.662 221.966,207.662 223.5,211.5C 223.324,215.004 222.324,218.004 220.5,220.5C 221.58,217.257 221.747,213.924 221,210.5C 220.764,208.881 219.931,207.881 218.5,207.5C 217.04,178.815 217.373,150.149 219.5,121.5 Z"/></g>
<g><path style="opacity:1" fill="#eaaf6a" d="M 219.5,121.5 C 217.373,150.149 217.04,178.815 218.5,207.5C 218.167,207.5 217.833,207.5 217.5,207.5C 217.002,202.848 216.669,198.181 216.5,193.5C 216.38,171.491 216.714,149.491 217.5,127.5C 218.167,125.5 218.833,123.5 219.5,121.5 Z"/></g>
<g><path style="opacity:1" fill="#fef1ce" d="M 155.5,159.5 C 155.5,159.833 155.5,160.167 155.5,160.5C 155.833,161.5 156.5,162.167 157.5,162.5C 158.44,170.779 158.773,179.112 158.5,187.5C 157.814,179.962 156.981,172.296 156,164.5C 154.334,161.621 151.834,160.788 148.5,162C 146.951,163.214 145.785,164.714 145,166.5C 144.257,177.86 144.423,189.193 145.5,200.5C 144.732,199.737 144.232,198.737 144,197.5C 143.5,187.506 143.334,177.506 143.5,167.5C 142.725,163.818 144.059,161.318 147.5,160C 150.146,159.503 152.813,159.336 155.5,159.5 Z"/></g>
<g><path style="opacity:1" fill="#eb9f48" d="M 200.5,143.5 C 200.255,163.518 200.588,183.518 201.5,203.5C 201.5,204.833 201.5,206.167 201.5,207.5C 199.75,204.645 198.917,201.311 199,197.5C 198.833,188.5 198.667,179.5 198.5,170.5C 198.502,161.141 199.168,152.141 200.5,143.5 Z"/></g>
<g><path style="opacity:1" fill="#eb9935" d="M 335.5,158.5 C 335.5,158.833 335.5,159.167 335.5,159.5C 334.833,159.5 334.167,159.5 333.5,159.5C 331.102,159.259 329.102,159.926 327.5,161.5C 320.976,162.566 314.643,164.232 308.5,166.5C 310.364,164.782 312.697,163.615 315.5,163C 316.071,161.795 316.738,160.628 317.5,159.5C 318.772,160.046 320.106,160.379 321.5,160.5C 325.937,158.786 330.604,158.12 335.5,158.5 Z"/></g>
<g><path style="opacity:1" fill="#f1ca8e" d="M 333.5,159.5 C 331.898,161.074 329.898,161.741 327.5,161.5C 329.102,159.926 331.102,159.259 333.5,159.5 Z"/></g>
<g><path style="opacity:1" fill="#ea9f4a" d="M 146.5,158.5 C 149.713,158.19 152.713,158.523 155.5,159.5C 152.813,159.336 150.146,159.503 147.5,160C 144.059,161.318 142.725,163.818 143.5,167.5C 143.167,167.5 142.833,167.5 142.5,167.5C 142.5,165.167 142.5,162.833 142.5,160.5C 144.38,160.771 145.713,160.104 146.5,158.5 Z"/></g>
<g><path style="opacity:1" fill="#fbd6ac" d="M 327.5,161.5 C 321.807,163.903 315.807,166.07 309.5,168C 308.619,168.708 307.953,169.542 307.5,170.5C 305.938,170.733 304.605,171.4 303.5,172.5C 303.771,170.57 304.771,169.236 306.5,168.5C 307.5,168.167 308.167,167.5 308.5,166.5C 314.643,164.232 320.976,162.566 327.5,161.5 Z"/></g>
<g><path style="opacity:1" fill="#fef0d0" d="M 343.5,159.5 C 347.634,158.515 351.968,158.182 356.5,158.5C 358.772,159.441 360.772,160.774 362.5,162.5C 362.557,163.609 362.89,164.609 363.5,165.5C 364.238,175.406 363.238,185.072 360.5,194.5C 359.599,195.29 358.932,196.29 358.5,197.5C 358.167,197.5 357.833,197.5 357.5,197.5C 362.131,188.02 363.631,178.02 362,167.5C 360.137,165.624 358.637,163.457 357.5,161C 352.882,160.006 348.215,159.506 343.5,159.5 Z"/></g>
<g><path style="opacity:1" fill="#fcfdf9" d="M 258.5,153.5 C 257.533,158.38 256.199,163.046 254.5,167.5C 253.778,167.918 253.278,168.584 253,169.5C 252.502,172.482 252.335,175.482 252.5,178.5C 254.527,178.662 256.527,178.495 258.5,178C 260.119,177.764 261.119,176.931 261.5,175.5C 262.5,175.167 263.167,174.5 263.5,173.5C 264.167,173.5 264.833,173.5 265.5,173.5C 269.309,173.013 273.142,172.679 277,172.5C 284.36,173.856 291.86,174.856 299.5,175.5C 300.833,175.5 302.167,175.5 303.5,175.5C 304.833,175.5 306.167,175.5 307.5,175.5C 307.281,176.675 307.614,177.675 308.5,178.5C 310.776,179.213 313.109,179.713 315.5,180C 314.584,180.278 313.918,180.778 313.5,181.5C 310.235,182.46 306.902,182.46 303.5,181.5C 303.721,186.484 302.721,191.151 300.5,195.5C 299.889,197.775 298.555,199.441 296.5,200.5C 292.912,200.46 289.912,201.793 287.5,204.5C 284.553,205.321 281.553,205.821 278.5,206C 281.167,207.333 281.167,208.667 278.5,210C 267.845,213.77 257.511,213.27 247.5,208.5C 246.504,208.586 245.671,208.252 245,207.5C 244.011,205.03 242.845,202.697 241.5,200.5C 238.795,186.158 238.961,171.824 242,157.5C 244.676,152.476 246.509,147.143 247.5,141.5C 250.35,136.966 253.016,132.299 255.5,127.5C 256.222,127.082 256.722,126.416 257,125.5C 260.14,129.066 262.64,133.066 264.5,137.5C 261.285,142.348 259.285,147.681 258.5,153.5 Z"/></g>
<g><path style="opacity:1" fill="#e29d49" d="M 261.5,148.5 C 259.555,157.11 257.555,165.61 255.5,174C 257.615,173.145 259.948,172.645 262.5,172.5C 262.5,172.833 262.5,173.167 262.5,173.5C 260.62,173.229 259.287,173.896 258.5,175.5C 257.292,176.234 255.959,176.567 254.5,176.5C 254.5,173.5 254.5,170.5 254.5,167.5C 256.199,163.046 257.533,158.38 258.5,153.5C 259.687,151.928 260.687,150.261 261.5,148.5 Z"/></g>
<g><path style="opacity:1" fill="#fcfdf9" d="M 158.5,187.5 C 158.172,192.875 158.505,198.208 159.5,203.5C 160.176,204.602 160.842,205.602 161.5,206.5C 161.5,206.833 161.5,207.167 161.5,207.5C 161.69,210.855 162.69,213.855 164.5,216.5C 164.806,221.426 166.472,225.759 169.5,229.5C 170.126,233.375 168.459,235.209 164.5,235C 162.513,239.295 161.179,239.295 160.5,235C 159.207,234.51 157.873,234.343 156.5,234.5C 156.22,231.728 156.887,229.228 158.5,227C 155.866,226.35 153.533,225.183 151.5,223.5C 149.625,218.7 148.459,213.7 148,208.5C 147.617,207.944 147.117,207.611 146.5,207.5C 145.532,205.393 145.198,203.059 145.5,200.5C 144.423,189.193 144.257,177.86 145,166.5C 145.785,164.714 146.951,163.214 148.5,162C 151.834,160.788 154.334,161.621 156,164.5C 156.981,172.296 157.814,179.962 158.5,187.5 Z"/></g>
<g><path style="opacity:1" fill="#f6b86f" d="M 283.5,170.5 C 283.5,170.833 283.5,171.167 283.5,171.5C 278.489,171.334 273.489,171.501 268.5,172C 267.263,172.232 266.263,172.732 265.5,173.5C 264.833,173.5 264.167,173.5 263.5,173.5C 263.167,173.5 262.833,173.5 262.5,173.5C 262.5,173.167 262.5,172.833 262.5,172.5C 269.351,170.716 276.351,170.05 283.5,170.5 Z"/></g>
<g><path style="opacity:1" fill="#ec9639" d="M 306.5,168.5 C 304.771,169.236 303.771,170.57 303.5,172.5C 303.5,172.833 303.5,173.167 303.5,173.5C 301.5,173.5 299.5,173.5 297.5,173.5C 293.005,172.578 288.338,171.911 283.5,171.5C 283.5,171.167 283.5,170.833 283.5,170.5C 289.659,170.034 295.659,170.701 301.5,172.5C 302.298,170.922 302.798,169.256 303,167.5C 304.011,168.337 305.178,168.67 306.5,168.5 Z"/></g>
<g><path style="opacity:1" fill="#fce6c3" d="M 247.5,141.5 C 246.509,147.143 244.676,152.476 242,157.5C 238.961,171.824 238.795,186.158 241.5,200.5C 240.833,200.167 240.167,199.833 239.5,199.5C 236.451,184.013 237.118,168.68 241.5,153.5C 243.05,149.281 245.05,145.281 247.5,141.5 Z"/></g>
<g><path style="opacity:1" fill="#fcfdf9" d="M 333.5,159.5 C 334.167,159.5 334.833,159.5 335.5,159.5C 338.167,159.5 340.833,159.5 343.5,159.5C 348.215,159.506 352.882,160.006 357.5,161C 358.637,163.457 360.137,165.624 362,167.5C 363.631,178.02 362.131,188.02 357.5,197.5C 355.833,199.5 354.167,201.5 352.5,203.5C 352.167,203.5 351.833,203.5 351.5,203.5C 350.199,204.884 350.199,206.384 351.5,208C 362.879,208.209 374.212,208.709 385.5,209.5C 386.167,209.833 386.833,210.167 387.5,210.5C 388.678,213.477 388.678,216.477 387.5,219.5C 386.5,220.167 385.5,220.833 384.5,221.5C 370.172,220.98 355.839,220.647 341.5,220.5C 339.313,219.241 337.813,217.908 337,216.5C 333.895,217.367 330.728,217.701 327.5,217.5C 324.289,209.447 326.623,204.114 334.5,201.5C 334.5,200.5 334.5,199.5 334.5,198.5C 338.826,198.011 341.493,195.678 342.5,191.5C 342.5,191.167 342.5,190.833 342.5,190.5C 344.262,189.738 345.262,188.404 345.5,186.5C 346.167,186.167 346.833,185.833 347.5,185.5C 348.458,185.047 349.292,184.381 350,183.5C 350.296,180.294 350.796,177.128 351.5,174C 351.095,173.055 350.428,172.388 349.5,172C 345.81,171.419 342.144,171.585 338.5,172.5C 334.027,173.921 329.527,175.254 325,176.5C 323.564,176.441 322.231,176.108 321,175.5C 320.544,176.744 321.044,177.577 322.5,178C 318.49,178.357 314.49,178.19 310.5,177.5C 310.5,176.167 310.5,174.833 310.5,173.5C 309.5,173.5 308.5,173.5 307.5,173.5C 307.5,172.5 307.5,171.5 307.5,170.5C 307.953,169.542 308.619,168.708 309.5,168C 315.807,166.07 321.807,163.903 327.5,161.5C 329.898,161.741 331.898,161.074 333.5,159.5 Z"/></g>
<g><path style="opacity:1" fill="#eb993d" d="M 75.5,176.5 C 63.4933,175.189 51.4933,175.189 39.5,176.5C 39.6107,175.883 39.944,175.383 40.5,175C 51.8333,174.333 63.1667,174.333 74.5,175C 75.056,175.383 75.3893,175.883 75.5,176.5 Z"/></g>
<g><path style="opacity:1" fill="#f9d6aa" d="M 262.5,173.5 C 262.833,173.5 263.167,173.5 263.5,173.5C 263.167,174.5 262.5,175.167 261.5,175.5C 260.5,175.5 259.5,175.5 258.5,175.5C 259.287,173.896 260.62,173.229 262.5,173.5 Z"/></g>
<g><path style="opacity:1" fill="#fde5c2" d="M 283.5,171.5 C 288.338,171.911 293.005,172.578 297.5,173.5C 298.167,174.167 298.833,174.833 299.5,175.5C 291.86,174.856 284.36,173.856 277,172.5C 273.142,172.679 269.309,173.013 265.5,173.5C 266.263,172.732 267.263,172.232 268.5,172C 273.489,171.501 278.489,171.334 283.5,171.5 Z"/></g>
<g><path style="opacity:1" fill="#e9bd84" d="M 297.5,173.5 C 299.5,173.5 301.5,173.5 303.5,173.5C 303.5,174.167 303.5,174.833 303.5,175.5C 302.167,175.5 300.833,175.5 299.5,175.5C 298.833,174.833 298.167,174.167 297.5,173.5 Z"/></g>
<g><path style="opacity:1" fill="#f8cd98" d="M 75.5,176.5 C 75.8417,177.338 76.5084,177.672 77.5,177.5C 77.5,177.833 77.5,178.167 77.5,178.5C 75.139,178.326 72.8056,177.993 70.5,177.5C 57.6591,175.642 44.9924,176.309 32.5,179.5C 34.3204,177.552 36.6538,176.552 39.5,176.5C 51.4933,175.189 63.4933,175.189 75.5,176.5 Z"/></g>
<g><path style="opacity:1" fill="#ea9631" d="M 146.5,158.5 C 145.713,160.104 144.38,160.771 142.5,160.5C 142.5,162.833 142.5,165.167 142.5,167.5C 142.5,175.5 142.5,183.5 142.5,191.5C 141.351,191.209 140.684,190.376 140.5,189C 139.03,179.094 139.364,169.26 141.5,159.5C 143.216,159.371 144.883,159.038 146.5,158.5 Z"/></g>
<g><path style="opacity:1" fill="#e3983f" d="M 155.5,160.5 C 157.117,161.038 158.784,161.371 160.5,161.5C 160.5,166.167 160.5,170.833 160.5,175.5C 160.5,181.833 160.5,188.167 160.5,194.5C 159.532,192.393 159.198,190.059 159.5,187.5C 159.666,179.493 159.5,171.493 159,163.5C 158.617,162.944 158.117,162.611 157.5,162.5C 156.5,162.167 155.833,161.5 155.5,160.5 Z"/></g>
<g><path style="opacity:1" fill="#f09528" d="M 160.5,175.5 C 161.496,175.414 162.329,175.748 163,176.5C 163.378,183.189 163.378,189.856 163,196.5C 163.202,194.744 163.702,193.078 164.5,191.5C 167.459,201.753 169.626,212.086 171,222.5C 171.308,221.692 171.808,221.025 172.5,220.5C 173.226,224.309 174.226,227.976 175.5,231.5C 174.379,234.401 173.379,237.401 172.5,240.5C 168.291,242.339 163.958,243.672 159.5,244.5C 159.5,243.167 159.5,241.833 159.5,240.5C 162.85,240.665 166.183,240.498 169.5,240C 171.155,238.556 171.822,236.722 171.5,234.5C 171.63,229.981 170.297,225.981 167.5,222.5C 166.984,217.83 165.651,213.497 163.5,209.5C 162.662,209.158 162.328,208.492 162.5,207.5C 162.841,203.84 162.175,200.507 160.5,197.5C 160.5,196.5 160.5,195.5 160.5,194.5C 160.5,188.167 160.5,181.833 160.5,175.5 Z"/></g>
<g><path style="opacity:1" fill="#e39c47" d="M 241.5,153.5 C 237.118,168.68 236.451,184.013 239.5,199.5C 238.685,198.571 237.852,197.571 237,196.5C 236.168,185.818 236.334,175.151 237.5,164.5C 238.308,160.411 239.641,156.745 241.5,153.5 Z"/></g>
<g><path style="opacity:1" fill="#fefaee" d="M 307.5,170.5 C 307.5,171.5 307.5,172.5 307.5,173.5C 308.5,173.5 309.5,173.5 310.5,173.5C 310.5,174.833 310.5,176.167 310.5,177.5C 314.49,178.19 318.49,178.357 322.5,178C 321.044,177.577 320.544,176.744 321,175.5C 322.231,176.108 323.564,176.441 325,176.5C 329.527,175.254 334.027,173.921 338.5,172.5C 342.144,171.585 345.81,171.419 349.5,172C 350.428,172.388 351.095,173.055 351.5,174C 350.796,177.128 350.296,180.294 350,183.5C 349.292,184.381 348.458,185.047 347.5,185.5C 348.051,182.193 348.384,178.86 348.5,175.5C 341.683,175.064 335.016,175.731 328.5,177.5C 326.302,177.12 324.635,177.787 323.5,179.5C 322.833,179.5 322.167,179.5 321.5,179.5C 318.692,179.693 316.025,180.36 313.5,181.5C 313.918,180.778 314.584,180.278 315.5,180C 313.109,179.713 310.776,179.213 308.5,178.5C 307.614,177.675 307.281,176.675 307.5,175.5C 306.167,175.5 304.833,175.5 303.5,175.5C 303.5,174.833 303.5,174.167 303.5,173.5C 303.5,173.167 303.5,172.833 303.5,172.5C 304.605,171.4 305.938,170.733 307.5,170.5 Z"/></g>
<g><path style="opacity:1" fill="#fdf2dc" d="M 254.5,167.5 C 254.5,170.5 254.5,173.5 254.5,176.5C 255.959,176.567 257.292,176.234 258.5,175.5C 259.5,175.5 260.5,175.5 261.5,175.5C 261.119,176.931 260.119,177.764 258.5,178C 256.527,178.495 254.527,178.662 252.5,178.5C 252.335,175.482 252.502,172.482 253,169.5C 253.278,168.584 253.778,167.918 254.5,167.5 Z"/></g>
<g><path style="opacity:1" fill="#e1a150" d="M 77.5,178.5 C 77.5,178.167 77.5,177.833 77.5,177.5C 80.3933,177.031 82.3933,178.031 83.5,180.5C 81.5,179.833 79.5,179.167 77.5,178.5 Z"/></g>
<g><path style="opacity:1" fill="#ebab60" d="M 347.5,185.5 C 346.833,185.833 346.167,186.167 345.5,186.5C 346.324,183.236 346.658,179.902 346.5,176.5C 340.378,175.802 334.712,176.802 329.5,179.5C 328.167,179.5 326.833,179.5 325.5,179.5C 326.5,178.833 327.5,178.167 328.5,177.5C 335.016,175.731 341.683,175.064 348.5,175.5C 348.384,178.86 348.051,182.193 347.5,185.5 Z"/></g>
<g><path style="opacity:1" fill="#fad1a2" d="M 328.5,177.5 C 327.5,178.167 326.5,178.833 325.5,179.5C 324.833,179.5 324.167,179.5 323.5,179.5C 324.635,177.787 326.302,177.12 328.5,177.5 Z"/></g>
<g><path style="opacity:1" fill="#ed952f" d="M 345.5,186.5 C 343.738,187.262 342.738,188.596 342.5,190.5C 342.5,190.833 342.5,191.167 342.5,191.5C 340.57,191.771 339.236,192.771 338.5,194.5C 338.167,194.5 337.833,194.5 337.5,194.5C 337.337,192.143 337.503,189.81 338,187.5C 340.195,186.405 342.362,185.405 344.5,184.5C 345.309,182.929 345.643,181.262 345.5,179.5C 343.176,179.995 341.009,179.995 339,179.5C 337.302,181.033 335.469,182.366 333.5,183.5C 332.833,183.333 332.167,183.167 331.5,183C 332.337,181.989 332.67,180.822 332.5,179.5C 331.5,179.5 330.5,179.5 329.5,179.5C 334.712,176.802 340.378,175.802 346.5,176.5C 346.658,179.902 346.324,183.236 345.5,186.5 Z"/></g>
<g><path style="opacity:1" fill="#fef3d7" d="M 70.5,177.5 C 72.8056,177.993 75.139,178.326 77.5,178.5C 79.5,179.167 81.5,179.833 83.5,180.5C 83.8417,181.338 84.5084,181.672 85.5,181.5C 86.5,183.167 87.8333,184.5 89.5,185.5C 89.5,186.167 89.5,186.833 89.5,187.5C 87.7175,186.886 86.3841,185.72 85.5,184C 80.3692,181.978 75.3692,179.811 70.5,177.5 Z"/></g>
<g><path style="opacity:1" fill="#ecbf88" d="M 157.5,162.5 C 158.117,162.611 158.617,162.944 159,163.5C 159.5,171.493 159.666,179.493 159.5,187.5C 159.167,187.5 158.833,187.5 158.5,187.5C 158.773,179.112 158.44,170.779 157.5,162.5 Z"/></g>
<g><path style="opacity:1" fill="#eca652" d="M 363.5,165.5 C 366.212,171.849 366.879,178.516 365.5,185.5C 364.381,188.908 362.715,191.908 360.5,194.5C 363.238,185.072 364.238,175.406 363.5,165.5 Z"/></g>
<g><path style="opacity:1" fill="#edb569" d="M 85.5,181.5 C 87.7488,182.08 89.4154,183.413 90.5,185.5C 90.1667,185.5 89.8333,185.5 89.5,185.5C 87.8333,184.5 86.5,183.167 85.5,181.5 Z"/></g>
<g><path style="opacity:1" fill="#fbce95" d="M 29.5,181.5 C 27.8061,183.861 25.8061,185.861 23.5,187.5C 22.8333,187.833 22.1667,188.167 21.5,188.5C 21.4142,187.504 21.7476,186.671 22.5,186C 24.7343,184.25 27.0676,182.75 29.5,181.5 Z"/></g>
<g><path style="opacity:1" fill="#fad0a3" d="M 105.5,186.5 C 105.167,186.5 104.833,186.5 104.5,186.5C 101.43,186.368 98.4299,186.701 95.5,187.5C 98.6053,184.216 101.939,183.883 105.5,186.5 Z"/></g>
<g><path style="opacity:1" fill="#f0c292" d="M 308.5,184.5 C 307.5,184.5 306.5,184.5 305.5,184.5C 305.5,186.167 305.5,187.833 305.5,189.5C 305.573,191.027 304.906,192.027 303.5,192.5C 304.299,189.57 304.632,186.57 304.5,183.5C 306.099,183.232 307.432,183.566 308.5,184.5 Z"/></g>
<g><path style="opacity:1" fill="#e7a756" d="M 321.5,179.5 C 322.167,179.5 322.833,179.5 323.5,179.5C 324.167,179.5 324.833,179.5 325.5,179.5C 320.802,182.275 315.802,184.608 310.5,186.5C 309.264,185.754 307.93,185.421 306.5,185.5C 306.768,187.099 306.434,188.432 305.5,189.5C 305.5,187.833 305.5,186.167 305.5,184.5C 306.5,184.5 307.5,184.5 308.5,184.5C 310.199,184.66 311.866,184.494 313.5,184C 316.557,183.084 319.224,181.584 321.5,179.5 Z"/></g>
<g><path style="opacity:1" fill="#edd09f" d="M 89.5,185.5 C 89.8333,185.5 90.1667,185.5 90.5,185.5C 91.4006,187.727 93.0672,188.727 95.5,188.5C 95.189,189.478 94.5223,190.145 93.5,190.5C 92.1482,189.476 90.8149,188.476 89.5,187.5C 89.5,186.833 89.5,186.167 89.5,185.5 Z"/></g>
<g><path style="opacity:1" fill="#e9ac66" d="M 271.5,188.5 C 271.5,188.167 271.5,187.833 271.5,187.5C 275.182,187.335 278.848,187.501 282.5,188C 283.332,189.909 282.999,191.742 281.5,193.5C 279.901,193.232 278.568,193.566 277.5,194.5C 276.833,194.5 276.167,194.5 275.5,194.5C 276.681,192.933 278.347,192.099 280.5,192C 281.337,190.989 281.67,189.822 281.5,188.5C 278.167,188.5 274.833,188.5 271.5,188.5 Z"/></g>
<g><path style="opacity:1" fill="#fdf1d6" d="M 271.5,187.5 C 271.5,187.833 271.5,188.167 271.5,188.5C 267.835,188.502 264.835,189.835 262.5,192.5C 262.167,192.5 261.833,192.5 261.5,192.5C 259.5,192.5 257.5,192.5 255.5,192.5C 255.5,193.5 255.5,194.5 255.5,195.5C 254.199,194.116 254.199,192.616 255.5,191C 260.787,189.517 266.12,188.35 271.5,187.5 Z"/></g>
<g><path style="opacity:1" fill="#ea9737" d="M 271.5,188.5 C 274.833,188.5 278.167,188.5 281.5,188.5C 281.67,189.822 281.337,190.989 280.5,192C 278.347,192.099 276.681,192.933 275.5,194.5C 274.167,194.833 272.833,195.167 271.5,195.5C 273.247,193.116 275.58,191.45 278.5,190.5C 275.554,189.679 272.554,189.679 269.5,190.5C 270.167,189.833 270.833,189.167 271.5,188.5 Z"/></g>
<g><path style="opacity:1" fill="#f0b976" d="M 345.5,186.5 C 345.262,188.404 344.262,189.738 342.5,190.5C 342.738,188.596 343.738,187.262 345.5,186.5 Z"/></g>
<g><path style="opacity:1" fill="#f8e8cb" d="M 281.5,193.5 C 282.999,191.742 283.332,189.909 282.5,188C 278.848,187.501 275.182,187.335 271.5,187.5C 272.871,186.213 274.705,185.547 277,185.5C 280.407,185.422 283.574,186.088 286.5,187.5C 286.719,188.675 286.386,189.675 285.5,190.5C 284.358,191.826 283.024,192.826 281.5,193.5 Z"/></g>
<g><path style="opacity:1" fill="#e5af67" d="M 271.5,188.5 C 270.833,189.167 270.167,189.833 269.5,190.5C 267.167,191.167 264.833,191.833 262.5,192.5C 264.835,189.835 267.835,188.502 271.5,188.5 Z"/></g>
<g><path style="opacity:1" fill="#fef6dc" d="M 23.5,187.5 C 22.9179,191.113 21.0846,194.113 18,196.5C 14.7266,203.727 13.2266,211.394 13.5,219.5C 12.5128,214.695 12.1795,209.695 12.5,204.5C 13.8234,201.543 15.1568,198.543 16.5,195.5C 18.7024,193.589 20.369,191.255 21.5,188.5C 22.1667,188.167 22.8333,187.833 23.5,187.5 Z"/></g>
<g><path style="opacity:1" fill="#fcfdf9" d="M 70.5,177.5 C 75.3692,179.811 80.3692,181.978 85.5,184C 86.3841,185.72 87.7175,186.886 89.5,187.5C 90.8149,188.476 92.1482,189.476 93.5,190.5C 94.5223,190.145 95.189,189.478 95.5,188.5C 95.5,188.167 95.5,187.833 95.5,187.5C 98.4299,186.701 101.43,186.368 104.5,186.5C 105.031,188.544 106.198,190.211 108,191.5C 108.333,195.167 108.667,198.833 109,202.5C 110.299,203.09 111.132,204.09 111.5,205.5C 111.565,209.533 113.231,212.533 116.5,214.5C 117.143,216.076 118.143,217.41 119.5,218.5C 120.604,220.389 121.937,222.055 123.5,223.5C 123.5,224.167 123.5,224.833 123.5,225.5C 123.427,227.027 124.094,228.027 125.5,228.5C 125.343,229.873 125.51,231.207 126,232.5C 128.468,235.675 131.468,238.341 135,240.5C 137.913,248.174 135.413,251.341 127.5,250C 128.966,249.365 130.3,248.531 131.5,247.5C 132.833,246.5 132.833,245.5 131.5,244.5C 128.778,245.009 126.612,246.343 125,248.5C 123.2,247.68 121.366,247.014 119.5,246.5C 119.167,245.5 118.5,244.833 117.5,244.5C 116.925,242.589 115.925,240.922 114.5,239.5C 114.269,236.937 112.935,235.27 110.5,234.5C 110.329,230.768 108.829,227.768 106,225.5C 105.333,223.5 104.667,221.5 104,219.5C 103.329,218.748 102.496,218.414 101.5,218.5C 100.041,218.433 98.7079,218.766 97.5,219.5C 95.2407,220.344 94.2407,222.011 94.5,224.5C 93.5,224.5 92.5,224.5 91.5,224.5C 91.5,225.833 91.5,227.167 91.5,228.5C 90.5,228.5 89.5,228.5 88.5,228.5C 88.6495,229.552 88.4828,230.552 88,231.5C 85.8733,233.114 84.3733,235.114 83.5,237.5C 82.7095,238.401 81.7095,239.068 80.5,239.5C 77.1706,239.264 74.1706,240.097 71.5,242C 61.5056,242.5 51.5056,242.666 41.5,242.5C 40.1667,242.167 38.8333,241.833 37.5,241.5C 35.8148,239.182 33.4815,238.182 30.5,238.5C 30.5,237.5 30.5,236.5 30.5,235.5C 27.2153,235.79 24.2153,235.123 21.5,233.5C 19.877,230.785 19.2104,227.785 19.5,224.5C 18.5,224.5 17.5,224.5 16.5,224.5C 16.6495,223.448 16.4828,222.448 16,221.5C 15.6667,221.833 15.3333,222.167 15,222.5C 14.7216,221.584 14.2216,220.918 13.5,220.5C 13.5,220.167 13.5,219.833 13.5,219.5C 13.2266,211.394 14.7266,203.727 18,196.5C 21.0846,194.113 22.9179,191.113 23.5,187.5C 25.8061,185.861 27.8061,183.861 29.5,181.5C 30.2905,180.599 31.2905,179.932 32.5,179.5C 44.9924,176.309 57.6591,175.642 70.5,177.5 Z"/></g>
<g><path style="opacity:1" fill="#eeb36e" d="M 61.5,192.5 C 60.5,192.5 59.5,192.5 58.5,192.5C 52.8114,192.532 47.1448,192.866 41.5,193.5C 41.5,192.833 41.8333,192.5 42.5,192.5C 48.9834,191.324 55.3167,191.324 61.5,192.5 Z"/></g>
<g><path style="opacity:1" fill="#f49323" d="M 271.5,195.5 C 267.985,195.712 264.652,195.712 261.5,195.5C 264.199,193.83 266.865,192.163 269.5,190.5C 272.554,189.679 275.554,189.679 278.5,190.5C 275.58,191.45 273.247,193.116 271.5,195.5 Z"/></g>
<g><path style="opacity:1" fill="#f4b068" d="M 105.5,186.5 C 107.371,186.859 108.871,187.859 110,189.5C 110.497,192.146 110.664,194.813 110.5,197.5C 110.349,193.195 108.683,189.528 105.5,186.5 Z"/></g>
<g><path style="opacity:1" fill="#fdf4db" d="M 321.5,179.5 C 319.224,181.584 316.557,183.084 313.5,184C 311.866,184.494 310.199,184.66 308.5,184.5C 307.432,183.566 306.099,183.232 304.5,183.5C 304.632,186.57 304.299,189.57 303.5,192.5C 302.89,193.391 302.557,194.391 302.5,195.5C 301.833,195.5 301.167,195.5 300.5,195.5C 302.721,191.151 303.721,186.484 303.5,181.5C 306.902,182.46 310.235,182.46 313.5,181.5C 316.025,180.36 318.692,179.693 321.5,179.5 Z"/></g>
<g><path style="opacity:1" fill="#f6cf9a" d="M 21.5,188.5 C 20.369,191.255 18.7024,193.589 16.5,195.5C 16.5569,194.391 16.8902,193.391 17.5,192.5C 17.8333,190.167 19.1667,188.833 21.5,188.5 Z"/></g>
<g><path style="opacity:1" fill="#e89e46" d="M 58.5,192.5 C 59.5,192.5 60.5,192.5 61.5,192.5C 67.5346,192.592 73.2013,194.092 78.5,197C 79.0322,199.463 80.3655,201.297 82.5,202.5C 85.2589,202.933 86.5922,204.6 86.5,207.5C 86.1667,207.5 85.8333,207.5 85.5,207.5C 82.415,205.567 79.415,203.4 76.5,201C 73.13,194.732 67.9633,192.899 61,195.5C 59.6898,194.87 58.8565,193.87 58.5,192.5 Z"/></g>
<g><path style="opacity:1" fill="#e3af73" d="M 261.5,192.5 C 260.048,193.302 258.382,193.802 256.5,194C 257.056,194.383 257.389,194.883 257.5,195.5C 256.833,195.5 256.167,195.5 255.5,195.5C 255.5,194.5 255.5,193.5 255.5,192.5C 257.5,192.5 259.5,192.5 261.5,192.5 Z"/></g>
<g><path style="opacity:1" fill="#fde5bf" d="M 342.5,191.5 C 341.493,195.678 338.826,198.011 334.5,198.5C 334.5,199.5 334.5,200.5 334.5,201.5C 326.623,204.114 324.289,209.447 327.5,217.5C 324.828,215.609 323.828,212.942 324.5,209.5C 326.806,204.196 330.473,200.196 335.5,197.5C 336.833,196.833 337.833,195.833 338.5,194.5C 339.236,192.771 340.57,191.771 342.5,191.5 Z"/></g>
<g><path style="opacity:1" fill="#fee3ba" d="M 275.5,194.5 C 276.167,194.5 276.833,194.5 277.5,194.5C 275.898,196.074 273.898,196.741 271.5,196.5C 271.5,196.167 271.5,195.833 271.5,195.5C 272.833,195.167 274.167,194.833 275.5,194.5 Z"/></g>
<g><path style="opacity:1" fill="#e3af6e" d="M 337.5,194.5 C 337.833,194.5 338.167,194.5 338.5,194.5C 337.833,195.833 336.833,196.833 335.5,197.5C 335.427,195.973 336.094,194.973 337.5,194.5 Z"/></g>
<g><path style="opacity:1" fill="#e79b45" d="M 269.5,190.5 C 266.865,192.163 264.199,193.83 261.5,195.5C 264.652,195.712 267.985,195.712 271.5,195.5C 271.5,195.833 271.5,196.167 271.5,196.5C 267.865,197.114 264.198,197.448 260.5,197.5C 258.973,197.573 257.973,196.906 257.5,195.5C 257.389,194.883 257.056,194.383 256.5,194C 258.382,193.802 260.048,193.302 261.5,192.5C 261.833,192.5 262.167,192.5 262.5,192.5C 264.833,191.833 267.167,191.167 269.5,190.5 Z"/></g>
<g><path style="opacity:1" fill="#f7c88b" d="M 16.5,195.5 C 15.1568,198.543 13.8234,201.543 12.5,204.5C 12.309,200.712 13.6423,197.712 16.5,195.5 Z"/></g>
<g><path style="opacity:1" fill="#fef3d9" d="M 87.5,207.5 C 88.038,205.883 88.3713,204.216 88.5,202.5C 86.5,202.5 84.5,202.5 82.5,202.5C 80.3655,201.297 79.0322,199.463 78.5,197C 73.2013,194.092 67.5346,192.592 61.5,192.5C 55.3167,191.324 48.9834,191.324 42.5,192.5C 45.5982,191.179 49.0982,190.512 53,190.5C 61.2252,190.732 69.3919,191.565 77.5,193C 77.1667,193.333 76.8333,193.667 76.5,194C 79.2146,194.875 80.5479,196.708 80.5,199.5C 85.5,200.833 90.5,202.167 95.5,203.5C 95.8995,206.761 94.7329,207.428 92,205.5C 90.3933,206.074 88.8933,206.74 87.5,207.5 Z"/></g>
<g><path style="opacity:1" fill="#f8cf9a" d="M 271.5,196.5 C 267.956,198.569 264.29,198.902 260.5,197.5C 264.198,197.448 267.865,197.114 271.5,196.5 Z"/></g>
<g><path style="opacity:1" fill="#f4b778" d="M 300.5,195.5 C 301.167,195.5 301.833,195.5 302.5,195.5C 301.145,198.855 298.811,201.189 295.5,202.5C 295.833,201.833 296.167,201.167 296.5,200.5C 298.555,199.441 299.889,197.775 300.5,195.5 Z"/></g>
<g><path style="opacity:1" fill="#f5bd81" d="M 39.5,194.5 C 36.8333,197.5 34.1667,200.5 31.5,203.5C 30.8333,203.833 30.1667,204.167 29.5,204.5C 31.8333,200.167 35.1667,196.833 39.5,194.5 Z"/></g>
<g><path style="opacity:1" fill="#fef4de" d="M 104.5,186.5 C 104.833,186.5 105.167,186.5 105.5,186.5C 108.683,189.528 110.349,193.195 110.5,197.5C 111.167,199.5 111.833,201.5 112.5,203.5C 112.514,207.251 113.847,210.251 116.5,212.5C 116.5,213.167 116.5,213.833 116.5,214.5C 113.231,212.533 111.565,209.533 111.5,205.5C 111.132,204.09 110.299,203.09 109,202.5C 108.667,198.833 108.333,195.167 108,191.5C 106.198,190.211 105.031,188.544 104.5,186.5 Z"/></g>
<g><path style="opacity:1" fill="#fff5d5" d="M 158.5,187.5 C 158.833,187.5 159.167,187.5 159.5,187.5C 159.198,190.059 159.532,192.393 160.5,194.5C 160.5,195.5 160.5,196.5 160.5,197.5C 160.963,200.482 161.296,203.482 161.5,206.5C 160.842,205.602 160.176,204.602 159.5,203.5C 158.505,198.208 158.172,192.875 158.5,187.5 Z"/></g>
<g><path style="opacity:1" fill="#eab871" d="M 357.5,197.5 C 357.833,197.5 358.167,197.5 358.5,197.5C 357.585,199.754 356.252,201.754 354.5,203.5C 353.662,203.842 353.328,204.508 353.5,205.5C 352.662,205.158 352.328,204.492 352.5,203.5C 354.167,201.5 355.833,199.5 357.5,197.5 Z"/></g>
<g><path style="opacity:1" fill="#e4a959" d="M 160.5,197.5 C 162.175,200.507 162.841,203.84 162.5,207.5C 162.167,207.5 161.833,207.5 161.5,207.5C 161.5,207.167 161.5,206.833 161.5,206.5C 161.296,203.482 160.963,200.482 160.5,197.5 Z"/></g>
<g><path style="opacity:1" fill="#f2c37c" d="M 295.5,202.5 C 293.371,204.95 290.704,206.617 287.5,207.5C 289.629,205.05 292.296,203.383 295.5,202.5 Z"/></g>
<g><path style="opacity:1" fill="#ecd09d" d="M 82.5,202.5 C 84.5,202.5 86.5,202.5 88.5,202.5C 88.3713,204.216 88.038,205.883 87.5,207.5C 87.1667,207.5 86.8333,207.5 86.5,207.5C 86.5922,204.6 85.2589,202.933 82.5,202.5 Z"/></g>
<g><path style="opacity:1" fill="#e1973f" d="M 354.5,203.5 C 364.177,204.376 373.844,205.376 383.5,206.5C 373.503,206.084 363.503,205.75 353.5,205.5C 353.328,204.508 353.662,203.842 354.5,203.5 Z"/></g>
<g><path style="opacity:1" fill="#f69322" d="M 58.5,192.5 C 58.8565,193.87 59.6898,194.87 61,195.5C 67.9633,192.899 73.13,194.732 76.5,201C 79.415,203.4 82.415,205.567 85.5,207.5C 85.5,208.167 85.5,208.833 85.5,209.5C 84.0256,210.436 83.0256,211.77 82.5,213.5C 80.4412,216.721 77.6079,219.055 74,220.5C 73.6905,221.766 73.1905,222.933 72.5,224C 69.9528,224.66 67.4528,224.493 65,223.5C 63.1886,224.424 63.3553,225.257 65.5,226C 59.5092,226.499 53.5092,226.666 47.5,226.5C 42.1864,226.34 37.853,224.34 34.5,220.5C 30.4264,215.543 29.4264,209.877 31.5,203.5C 34.1667,200.5 36.8333,197.5 39.5,194.5C 40.4916,194.672 41.1583,194.338 41.5,193.5C 47.1448,192.866 52.8114,192.532 58.5,192.5 Z"/></g>
<g><path style="opacity:1" fill="#fcd59f" d="M 351.5,203.5 C 351.833,203.5 352.167,203.5 352.5,203.5C 352.328,204.492 352.662,205.158 353.5,205.5C 363.503,205.75 373.503,206.084 383.5,206.5C 383.5,206.833 383.5,207.167 383.5,207.5C 372.833,207.167 362.167,206.833 351.5,206.5C 351.5,205.5 351.5,204.5 351.5,203.5 Z"/></g>
<g><path style="opacity:1" fill="#fff8e5" d="M 351.5,203.5 C 351.5,204.5 351.5,205.5 351.5,206.5C 362.167,206.833 372.833,207.167 383.5,207.5C 383.833,207.5 384.167,207.5 384.5,207.5C 384.833,208.167 385.167,208.833 385.5,209.5C 374.212,208.709 362.879,208.209 351.5,208C 350.199,206.384 350.199,204.884 351.5,203.5 Z"/></g>
<g><path style="opacity:1" fill="#f2cd99" d="M 29.5,204.5 C 28.8857,208.135 28.5524,211.802 28.5,215.5C 28.1667,215.5 27.8333,215.5 27.5,215.5C 27.3354,212.482 27.502,209.482 28,206.5C 28.2784,205.584 28.7784,204.918 29.5,204.5 Z"/></g>
<g><path style="opacity:1" fill="#e5a043" d="M 239.5,199.5 C 240.167,199.833 240.833,200.167 241.5,200.5C 242.845,202.697 244.011,205.03 245,207.5C 245.671,208.252 246.504,208.586 247.5,208.5C 247.833,209.167 248.167,209.833 248.5,210.5C 243.007,208.996 240.007,205.329 239.5,199.5 Z"/></g>
<g><path style="opacity:1" fill="#f9daaa" d="M 112.5,203.5 C 114.079,206.3 115.412,209.3 116.5,212.5C 113.847,210.251 112.514,207.251 112.5,203.5 Z"/></g>
<g><path style="opacity:1" fill="#ea9a3e" d="M 110.5,197.5 C 114.947,199.761 116.614,203.428 115.5,208.5C 117.592,208.561 119.092,209.561 120,211.5C 120.551,215.851 121.718,219.851 123.5,223.5C 121.937,222.055 120.604,220.389 119.5,218.5C 119.245,216.033 118.245,214.033 116.5,212.5C 115.412,209.3 114.079,206.3 112.5,203.5C 111.833,201.5 111.167,199.5 110.5,197.5 Z"/></g>
<g><path style="opacity:1" fill="#e9a758" d="M 142.5,167.5 C 142.833,167.5 143.167,167.5 143.5,167.5C 143.334,177.506 143.5,187.506 144,197.5C 144.232,198.737 144.732,199.737 145.5,200.5C 145.198,203.059 145.532,205.393 146.5,207.5C 147.184,212.9 148.184,218.233 149.5,223.5C 148.504,223.586 147.671,223.252 147,222.5C 145.171,212.202 143.671,201.869 142.5,191.5C 142.5,183.5 142.5,175.5 142.5,167.5 Z"/></g>
<g><path style="opacity:1" fill="#feddb4" d="M 161.5,207.5 C 161.833,207.5 162.167,207.5 162.5,207.5C 162.328,208.492 162.662,209.158 163.5,209.5C 163.993,211.806 164.326,214.139 164.5,216.5C 162.69,213.855 161.69,210.855 161.5,207.5 Z"/></g>
<g><path style="opacity:1" fill="#f6d39f" d="M 201.5,203.5 C 202.581,206.627 203.247,209.96 203.5,213.5C 202.262,211.786 201.595,209.786 201.5,207.5C 201.5,206.167 201.5,204.833 201.5,203.5 Z"/></g>
<g><path style="opacity:1" fill="#eba453" d="M 287.5,207.5 C 285.518,210.137 282.852,211.47 279.5,211.5C 281.482,208.863 284.148,207.53 287.5,207.5 Z"/></g>
<g><path style="opacity:1" fill="#fff6de" d="M 296.5,200.5 C 296.167,201.167 295.833,201.833 295.5,202.5C 292.296,203.383 289.629,205.05 287.5,207.5C 284.148,207.53 281.482,208.863 279.5,211.5C 277.102,211.259 275.102,211.926 273.5,213.5C 266.443,213.76 259.443,213.427 252.5,212.5C 251.395,211.4 250.062,210.733 248.5,210.5C 248.167,209.833 247.833,209.167 247.5,208.5C 257.511,213.27 267.845,213.77 278.5,210C 281.167,208.667 281.167,207.333 278.5,206C 281.553,205.821 284.553,205.321 287.5,204.5C 289.912,201.793 292.912,200.46 296.5,200.5 Z"/></g>
<g><path style="opacity:1" fill="#e4a459" d="M 279.5,211.5 C 277.898,213.074 275.898,213.741 273.5,213.5C 275.102,211.926 277.102,211.259 279.5,211.5 Z"/></g>
<g><path style="opacity:1" fill="#e79a3d" d="M 31.5,203.5 C 29.4264,209.877 30.4264,215.543 34.5,220.5C 33.391,220.443 32.391,220.11 31.5,219.5C 30.0256,218.564 29.0256,217.23 28.5,215.5C 28.5524,211.802 28.8857,208.135 29.5,204.5C 30.1667,204.167 30.8333,203.833 31.5,203.5 Z"/></g>
<g><path style="opacity:1" fill="#e6b87d" d="M 85.5,209.5 C 85.0075,211.819 84.0075,213.819 82.5,215.5C 82.5,214.833 82.5,214.167 82.5,213.5C 83.0256,211.77 84.0256,210.436 85.5,209.5 Z"/></g>
<g><path style="opacity:1" fill="#f1b370" d="M 252.5,212.5 C 259.443,213.427 266.443,213.76 273.5,213.5C 267.013,214.654 260.346,214.821 253.5,214C 252.944,213.617 252.611,213.117 252.5,212.5 Z"/></g>
<g><path style="opacity:1" fill="#e8a14d" d="M 324.5,209.5 C 323.828,212.942 324.828,215.609 327.5,217.5C 327.5,218.167 327.5,218.833 327.5,219.5C 323.513,217.695 322.013,214.695 323,210.5C 323.383,209.944 323.883,209.611 324.5,209.5 Z"/></g>
<g><path style="opacity:1" fill="#f8bc87" d="M 387.5,210.5 C 388.993,211.312 389.66,212.645 389.5,214.5C 389.564,216.557 388.898,218.223 387.5,219.5C 388.678,216.477 388.678,213.477 387.5,210.5 Z"/></g>
<g><path style="opacity:1" fill="#fef0d3" d="M 202.5,127.5 C 202.5,131.167 202.5,134.833 202.5,138.5C 202.333,159.169 202.5,179.836 203,200.5C 203.333,200.167 203.667,199.833 204,199.5C 204.227,204.897 204.894,210.231 206,215.5C 206.635,216.966 207.469,218.3 208.5,219.5C 213.132,221.711 215.465,220.378 215.5,215.5C 216.978,215.762 218.311,215.429 219.5,214.5C 218.054,212.382 217.387,210.049 217.5,207.5C 217.833,207.5 218.167,207.5 218.5,207.5C 221.608,212.89 220.941,217.723 216.5,222C 214.866,222.494 213.199,222.66 211.5,222.5C 210.448,222.649 209.448,222.483 208.5,222C 207.167,219.809 205.5,217.976 203.5,216.5C 203.5,215.5 203.5,214.5 203.5,213.5C 203.247,209.96 202.581,206.627 201.5,203.5C 200.588,183.518 200.255,163.518 200.5,143.5C 201.167,138.167 201.833,132.833 202.5,127.5 Z"/></g>
<g><path style="opacity:1" fill="#db9a44" d="M 163.5,209.5 C 165.651,213.497 166.984,217.83 167.5,222.5C 166.5,220.5 165.5,218.5 164.5,216.5C 164.326,214.139 163.993,211.806 163.5,209.5 Z"/></g>
<g><path style="opacity:1" fill="#f6cb95" d="M 116.5,212.5 C 118.245,214.033 119.245,216.033 119.5,218.5C 118.143,217.41 117.143,216.076 116.5,214.5C 116.5,213.833 116.5,213.167 116.5,212.5 Z"/></g>
<g><path style="opacity:1" fill="#fff6e1" d="M 341.5,220.5 C 341.167,220.5 340.833,220.5 340.5,220.5C 336.102,220.706 331.768,220.373 327.5,219.5C 327.5,218.833 327.5,218.167 327.5,217.5C 330.728,217.701 333.895,217.367 337,216.5C 337.813,217.908 339.313,219.241 341.5,220.5 Z"/></g>
<g><path style="opacity:1" fill="#fef3d0" d="M 146.5,207.5 C 147.117,207.611 147.617,207.944 148,208.5C 148.459,213.7 149.625,218.7 151.5,223.5C 151.5,224.167 151.5,224.833 151.5,225.5C 150.833,224.833 150.167,224.167 149.5,223.5C 148.184,218.233 147.184,212.9 146.5,207.5 Z"/></g>
<g><path style="opacity:1" fill="#ea9c3f" d="M 203.5,216.5 C 205.5,217.976 207.167,219.809 208.5,222C 209.448,222.483 210.448,222.649 211.5,222.5C 213.726,223.756 216.059,223.756 218.5,222.5C 216.952,223.794 214.952,224.461 212.5,224.5C 206.524,225.233 203.524,222.566 203.5,216.5 Z"/></g>
<g><path style="opacity:1" fill="#fbddab" d="M 82.5,215.5 C 81.6472,219.02 79.6472,221.687 76.5,223.5C 78.1223,220.545 80.1223,217.878 82.5,215.5 Z"/></g>
<g><path style="opacity:1" fill="#e1a460" d="M 327.5,219.5 C 331.768,220.373 336.102,220.706 340.5,220.5C 340.5,220.833 340.5,221.167 340.5,221.5C 335.706,222.097 331.373,221.43 327.5,219.5 Z"/></g>
<g><path style="opacity:1" fill="#eca050" d="M 384.5,207.5 C 389.15,208.163 391.15,210.829 390.5,215.5C 390.333,217.167 390.167,218.833 390,220.5C 387.749,221.412 385.583,222.412 383.5,223.5C 377.974,223.821 372.64,223.488 367.5,222.5C 373.358,222.822 379.025,222.489 384.5,221.5C 385.5,220.833 386.5,220.167 387.5,219.5C 388.898,218.223 389.564,216.557 389.5,214.5C 389.66,212.645 388.993,211.312 387.5,210.5C 386.833,210.167 386.167,209.833 385.5,209.5C 385.167,208.833 384.833,208.167 384.5,207.5 Z"/></g>
<g><path style="opacity:1" fill="#e6a85a" d="M 31.5,219.5 C 32.391,220.11 33.391,220.443 34.5,220.5C 37.853,224.34 42.1864,226.34 47.5,226.5C 47.5,226.833 47.5,227.167 47.5,227.5C 45.8333,227.5 44.1667,227.5 42.5,227.5C 40.7857,226.262 38.7857,225.595 36.5,225.5C 35.1516,224.399 33.6516,223.399 32,222.5C 31.5172,221.552 31.3505,220.552 31.5,219.5 Z"/></g>
<g><path style="opacity:1" fill="#e7a960" d="M 218.5,207.5 C 219.931,207.881 220.764,208.881 221,210.5C 221.747,213.924 221.58,217.257 220.5,220.5C 219.5,220.833 218.833,221.5 218.5,222.5C 216.059,223.756 213.726,223.756 211.5,222.5C 213.199,222.66 214.866,222.494 216.5,222C 220.941,217.723 221.608,212.89 218.5,207.5 Z"/></g>
<g><path style="opacity:1" fill="#fef3ce" d="M 340.5,221.5 C 340.5,221.167 340.5,220.833 340.5,220.5C 340.833,220.5 341.167,220.5 341.5,220.5C 355.839,220.647 370.172,220.98 384.5,221.5C 379.025,222.489 373.358,222.822 367.5,222.5C 358.553,221.556 349.553,221.222 340.5,221.5 Z"/></g>
<g><path style="opacity:1" fill="#fdf1d3" d="M 27.5,215.5 C 27.8333,215.5 28.1667,215.5 28.5,215.5C 29.0256,217.23 30.0256,218.564 31.5,219.5C 31.3505,220.552 31.5172,221.552 32,222.5C 33.6516,223.399 35.1516,224.399 36.5,225.5C 32.4384,225.276 29.605,223.276 28,219.5C 27.51,218.207 27.3433,216.873 27.5,215.5 Z"/></g>
<g><path style="opacity:1" fill="#e9a859" d="M 101.5,218.5 C 102.6,219.605 103.267,220.938 103.5,222.5C 102.833,222.167 102.167,221.833 101.5,221.5C 100.791,220.596 99.791,220.263 98.5,220.5C 98.6602,222.199 98.4935,223.866 98,225.5C 97.2303,224.402 96.397,224.402 95.5,225.5C 96.6298,223.685 97.2964,221.685 97.5,219.5C 98.7079,218.766 100.041,218.433 101.5,218.5 Z"/></g>
<g><path style="opacity:1" fill="#ef9b3f" d="M 340.5,221.5 C 349.553,221.222 358.553,221.556 367.5,222.5C 372.64,223.488 377.974,223.821 383.5,223.5C 369.994,224.826 356.328,224.826 342.5,223.5C 341.757,222.818 341.091,222.151 340.5,221.5 Z"/></g>
<g><path style="opacity:1" fill="#fff6dd" d="M 13.5,220.5 C 14.2216,220.918 14.7216,221.584 15,222.5C 15.3333,222.167 15.6667,221.833 16,221.5C 16.4828,222.448 16.6495,223.448 16.5,224.5C 17.5,224.5 18.5,224.5 19.5,224.5C 19.2104,227.785 19.877,230.785 21.5,233.5C 21.1667,233.5 20.8333,233.5 20.5,233.5C 19.4884,232.128 18.4884,230.795 17.5,229.5C 16.4918,227.456 15.4918,225.456 14.5,223.5C 13.596,222.791 13.2627,221.791 13.5,220.5 Z"/></g>
<g><path style="opacity:1" fill="#ea9635" d="M 82.5,213.5 C 82.5,214.167 82.5,214.833 82.5,215.5C 80.1223,217.878 78.1223,220.545 76.5,223.5C 74.8333,224.167 73.1667,224.833 71.5,225.5C 63.9911,227.308 56.3245,227.975 48.5,227.5C 48.1667,227.5 47.8333,227.5 47.5,227.5C 47.5,227.167 47.5,226.833 47.5,226.5C 53.5092,226.666 59.5092,226.499 65.5,226C 63.3553,225.257 63.1886,224.424 65,223.5C 67.4528,224.493 69.9528,224.66 72.5,224C 73.1905,222.933 73.6905,221.766 74,220.5C 77.6079,219.055 80.4412,216.721 82.5,213.5 Z"/></g>
<g><path style="opacity:1" fill="#fff6de" d="M 97.5,219.5 C 97.2964,221.685 96.6298,223.685 95.5,225.5C 94.1667,226.5 92.8333,227.5 91.5,228.5C 91.5,227.167 91.5,225.833 91.5,224.5C 92.5,224.5 93.5,224.5 94.5,224.5C 94.2407,222.011 95.2407,220.344 97.5,219.5 Z"/></g>
<g><path style="opacity:1" fill="#fbe3bd" d="M 101.5,218.5 C 102.496,218.414 103.329,218.748 104,219.5C 104.667,221.5 105.333,223.5 106,225.5C 108.829,227.768 110.329,230.768 110.5,234.5C 107.663,230.831 105.33,226.831 103.5,222.5C 103.267,220.938 102.6,219.605 101.5,218.5 Z"/></g>
<g><path style="opacity:1" fill="#fde1b3" d="M 164.5,216.5 C 165.5,218.5 166.5,220.5 167.5,222.5C 170.297,225.981 171.63,229.981 171.5,234.5C 171.167,234.5 170.833,234.5 170.5,234.5C 170.784,232.585 170.451,230.919 169.5,229.5C 166.472,225.759 164.806,221.426 164.5,216.5 Z"/></g>
<g><path style="opacity:1" fill="#e4b271" d="M 71.5,225.5 C 70.3998,226.558 69.0664,227.392 67.5,228C 60.9863,228.82 54.6529,228.653 48.5,227.5C 56.3245,227.975 63.9911,227.308 71.5,225.5 Z"/></g>
<g><path style="opacity:1" fill="#fbd8ae" d="M 123.5,225.5 C 124.906,225.973 125.573,226.973 125.5,228.5C 124.094,228.027 123.427,227.027 123.5,225.5 Z"/></g>
<g><path style="opacity:1" fill="#f0be80" d="M 14.5,223.5 C 15.4918,225.456 16.4918,227.456 17.5,229.5C 15.0246,228.313 14.0246,226.313 14.5,223.5 Z"/></g>
<g><path style="opacity:1" fill="#fef1ce" d="M 76.5,223.5 C 75.0037,226.265 72.6704,228.099 69.5,229C 62.1667,229.667 54.8333,229.667 47.5,229C 45.6183,228.802 43.9516,228.302 42.5,227.5C 44.1667,227.5 45.8333,227.5 47.5,227.5C 47.8333,227.5 48.1667,227.5 48.5,227.5C 54.6529,228.653 60.9863,228.82 67.5,228C 69.0664,227.392 70.3998,226.558 71.5,225.5C 73.1667,224.833 74.8333,224.167 76.5,223.5 Z"/></g>
<g><path style="opacity:1" fill="#f3bf82" d="M 95.5,225.5 C 94.5849,227.754 93.2516,229.754 91.5,231.5C 90.7281,232.694 89.7281,233.694 88.5,234.5C 88.9752,232.216 89.9752,230.216 91.5,228.5C 92.8333,227.5 94.1667,226.5 95.5,225.5 Z"/></g>
<g><path style="opacity:1" fill="#e99c45" d="M 123.5,223.5 C 125.257,224.292 126.591,225.625 127.5,227.5C 129.078,228.298 130.744,228.798 132.5,229C 130.797,232.764 131.964,235.264 136,236.5C 137.333,238.5 138.667,240.5 140,242.5C 140.79,245.634 140.457,248.634 139,251.5C 137.556,253.155 135.722,253.822 133.5,253.5C 133.5,253.167 133.5,252.833 133.5,252.5C 136.702,252.463 138.368,250.797 138.5,247.5C 138.702,245.011 138.202,242.677 137,240.5C 132.938,236.701 129.105,232.701 125.5,228.5C 125.573,226.973 124.906,225.973 123.5,225.5C 123.5,224.833 123.5,224.167 123.5,223.5 Z"/></g>
<g><path style="opacity:1" fill="#ed9d43" d="M 17.5,192.5 C 16.8902,193.391 16.5569,194.391 16.5,195.5C 13.6423,197.712 12.309,200.712 12.5,204.5C 12.1795,209.695 12.5128,214.695 13.5,219.5C 13.5,219.833 13.5,220.167 13.5,220.5C 13.2627,221.791 13.596,222.791 14.5,223.5C 14.0246,226.313 15.0246,228.313 17.5,229.5C 18.4884,230.795 19.4884,232.128 20.5,233.5C 18.3618,233.297 16.6951,232.297 15.5,230.5C 14.914,230.709 14.414,231.043 14,231.5C 11.9177,227.848 10.9177,223.848 11,219.5C 10.3333,212.5 10.3333,205.5 11,198.5C 12.5355,195.706 14.7022,193.706 17.5,192.5 Z"/></g>
<g><path style="opacity:1" fill="#e59a38" d="M 101.5,221.5 C 102.167,221.833 102.833,222.167 103.5,222.5C 105.33,226.831 107.663,230.831 110.5,234.5C 110.893,236.284 111.559,237.95 112.5,239.5C 111.325,239.719 110.325,239.386 109.5,238.5C 106.056,233.15 103.389,227.483 101.5,221.5 Z"/></g>
<g><path style="opacity:1" fill="#e2a154" d="M 149.5,223.5 C 150.167,224.167 150.833,224.833 151.5,225.5C 152.773,229.65 154.44,233.65 156.5,237.5C 152.288,233.917 149.954,229.25 149.5,223.5 Z"/></g>
<g><path style="opacity:1" fill="#fff3d2" d="M 91.5,228.5 C 89.9752,230.216 88.9752,232.216 88.5,234.5C 87.5,234.833 86.8333,235.5 86.5,236.5C 85.609,237.11 84.609,237.443 83.5,237.5C 84.3733,235.114 85.8733,233.114 88,231.5C 88.4828,230.552 88.6495,229.552 88.5,228.5C 89.5,228.5 90.5,228.5 91.5,228.5 Z"/></g>
<g><path style="opacity:1" fill="#fcdfaf" d="M 110.5,234.5 C 112.935,235.27 114.269,236.937 114.5,239.5C 114.167,239.5 113.833,239.5 113.5,239.5C 113.167,239.5 112.833,239.5 112.5,239.5C 111.559,237.95 110.893,236.284 110.5,234.5 Z"/></g>
<g><path style="opacity:1" fill="#fef9e3" d="M 151.5,223.5 C 153.533,225.183 155.866,226.35 158.5,227C 156.887,229.228 156.22,231.728 156.5,234.5C 157.873,234.343 159.207,234.51 160.5,235C 161.179,239.295 162.513,239.295 164.5,235C 168.459,235.209 170.126,233.375 169.5,229.5C 170.451,230.919 170.784,232.585 170.5,234.5C 168.395,239.102 164.728,240.769 159.5,239.5C 158.5,238.833 157.5,238.167 156.5,237.5C 154.44,233.65 152.773,229.65 151.5,225.5C 151.5,224.833 151.5,224.167 151.5,223.5 Z"/></g>
<g><path style="opacity:1" fill="#ef9b3e" d="M 20.5,233.5 C 20.8333,233.5 21.1667,233.5 21.5,233.5C 24.7846,238.444 29.4512,241.11 35.5,241.5C 35.5,241.833 35.5,242.167 35.5,242.5C 30.5055,241.17 25.5055,239.836 20.5,238.5C 20.5,236.833 20.5,235.167 20.5,233.5 Z"/></g>
<g><path style="opacity:1" fill="#ebae68" d="M 86.5,236.5 C 84.8369,238.533 82.8369,240.366 80.5,242C 79.2068,242.49 77.8734,242.657 76.5,242.5C 78.0764,241.857 79.4097,240.857 80.5,239.5C 81.7095,239.068 82.7095,238.401 83.5,237.5C 84.609,237.443 85.609,237.11 86.5,236.5 Z"/></g>
<g><path style="opacity:1" fill="#eda85c" d="M 170.5,234.5 C 170.833,234.5 171.167,234.5 171.5,234.5C 171.822,236.722 171.155,238.556 169.5,240C 166.183,240.498 162.85,240.665 159.5,240.5C 159.5,240.167 159.5,239.833 159.5,239.5C 164.728,240.769 168.395,239.102 170.5,234.5 Z"/></g>
<g><path style="opacity:1" fill="#fef2d6" d="M 21.5,233.5 C 24.2153,235.123 27.2153,235.79 30.5,235.5C 30.5,236.5 30.5,237.5 30.5,238.5C 33.4815,238.182 35.8148,239.182 37.5,241.5C 36.8333,241.5 36.1667,241.5 35.5,241.5C 29.4512,241.11 24.7846,238.444 21.5,233.5 Z"/></g>
<g><path style="opacity:1" fill="#e8ac67" d="M 113.5,239.5 C 113.833,239.5 114.167,239.5 114.5,239.5C 115.925,240.922 116.925,242.589 117.5,244.5C 115.413,243.415 114.08,241.749 113.5,239.5 Z"/></g>
<g><path style="opacity:1" fill="#fdd29a" d="M 35.5,242.5 C 35.5,242.167 35.5,241.833 35.5,241.5C 36.1667,241.5 36.8333,241.5 37.5,241.5C 38.8333,241.833 40.1667,242.167 41.5,242.5C 41.5,242.833 41.5,243.167 41.5,243.5C 39.7085,243.634 38.0418,243.301 36.5,242.5C 36.1667,242.5 35.8333,242.5 35.5,242.5 Z"/></g>
<g><path style="opacity:1" fill="#ffeccb" d="M 80.5,239.5 C 79.4097,240.857 78.0764,241.857 76.5,242.5C 74.302,242.12 72.6354,242.787 71.5,244.5C 61.4726,244.699 51.4726,244.366 41.5,243.5C 41.5,243.167 41.5,242.833 41.5,242.5C 51.5056,242.666 61.5056,242.5 71.5,242C 74.1706,240.097 77.1706,239.264 80.5,239.5 Z"/></g>
<g><path style="opacity:1" fill="#e1983f" d="M 36.5,242.5 C 38.0418,243.301 39.7085,243.634 41.5,243.5C 51.4726,244.366 61.4726,244.699 71.5,244.5C 63.6841,245.492 55.6841,245.826 47.5,245.5C 44.4816,245.665 41.4816,245.498 38.5,245C 37.244,244.583 36.5774,243.75 36.5,242.5 Z"/></g>
<g><path style="opacity:1" fill="#ec9732" d="M 91.5,231.5 C 89.1412,238.855 84.1412,243.522 76.5,245.5C 66.6746,246.823 57.008,246.823 47.5,245.5C 55.6841,245.826 63.6841,245.492 71.5,244.5C 72.6354,242.787 74.302,242.12 76.5,242.5C 77.8734,242.657 79.2068,242.49 80.5,242C 82.8369,240.366 84.8369,238.533 86.5,236.5C 86.8333,235.5 87.5,234.833 88.5,234.5C 89.7281,233.694 90.7281,232.694 91.5,231.5 Z"/></g>
<g><path style="opacity:1" fill="#fdf7e2" d="M 125.5,228.5 C 129.105,232.701 132.938,236.701 137,240.5C 138.202,242.677 138.702,245.011 138.5,247.5C 137.053,249.403 135.386,251.07 133.5,252.5C 129.885,252.845 126.552,252.178 123.5,250.5C 121.833,249.5 120.5,248.167 119.5,246.5C 121.366,247.014 123.2,247.68 125,248.5C 126.612,246.343 128.778,245.009 131.5,244.5C 132.833,245.5 132.833,246.5 131.5,247.5C 130.3,248.531 128.966,249.365 127.5,250C 135.413,251.341 137.913,248.174 135,240.5C 131.468,238.341 128.468,235.675 126,232.5C 125.51,231.207 125.343,229.873 125.5,228.5 Z"/></g>
<g><path style="opacity:1" fill="#ec983a" d="M 117.5,244.5 C 118.5,244.833 119.167,245.5 119.5,246.5C 120.5,248.167 121.833,249.5 123.5,250.5C 125.391,253.172 128.058,254.172 131.5,253.5C 126.812,255.197 122.645,254.197 119,250.5C 117.872,248.655 117.372,246.655 117.5,244.5 Z"/></g>
<g><path style="opacity:1" fill="#f3bc7f" d="M 138.5,247.5 C 138.368,250.797 136.702,252.463 133.5,252.5C 135.386,251.07 137.053,249.403 138.5,247.5 Z"/></g>
<g><path style="opacity:1" fill="#f8c98a" d="M 123.5,250.5 C 126.552,252.178 129.885,252.845 133.5,252.5C 133.5,252.833 133.5,253.167 133.5,253.5C 132.833,253.5 132.167,253.5 131.5,253.5C 128.058,254.172 125.391,253.172 123.5,250.5 Z"/></g>
</svg>
