<svg width="513" height="513" viewBox="0 0 513 513" fill="none" xmlns="http://www.w3.org/2000/svg">
<circle cx="256.184" cy="256.09" r="256" fill="black"/>
<g clip-path="url(#clip0_20_13)">
<path d="M178.281 362.867L212.823 303.262L247.365 243.867L281.696 184.262L287.382 174.817L289.91 184.262L300.441 223.509L288.646 243.867L254.104 303.262L219.773 362.867H261.055L295.596 303.262L313.499 272.41L321.924 303.262L337.931 362.867H375L358.993 303.262L342.986 243.867L338.773 228.546L364.469 184.262H326.979L325.715 179.854L312.657 131.163L310.972 124.867H274.956L274.113 126.126L240.414 184.262L205.873 243.867L171.542 303.262L137 362.867H178.281Z" fill="white"/>
</g>
<defs>
<clipPath id="clip0_20_13">
<rect width="238" height="238" fill="white" transform="translate(137 119)"/>
</clipPath>
</defs>
</svg>
