<svg width="513" height="513" viewBox="0 0 513 513" fill="none" xmlns="http://www.w3.org/2000/svg">
<circle cx="256.184" cy="256.09" r="255.5" fill="black" stroke="white"/>
<g clip-path="url(#clip0_20_13)">
<path d="M203.198 324.451L223.444 289.389L243.691 254.451L263.815 219.389L267.148 213.834L268.63 219.389L274.802 242.476L267.889 254.451L247.642 289.389L227.519 324.451H251.716L271.963 289.389L282.457 271.241L287.395 289.389L296.778 324.451H318.506L309.123 289.389L299.741 254.451L297.272 245.439L312.333 219.389H290.358L289.617 216.797L281.963 188.155L280.975 184.451H259.864L259.37 185.192L239.617 219.389L219.37 254.451L199.247 289.389L179 324.451H203.198Z" fill="white"/>
</g>
<defs>
<clipPath id="clip0_20_13">
<rect width="139.506" height="140" fill="white" transform="translate(179 181)"/>
</clipPath>
</defs>
</svg>
