<svg width="513" height="513" viewBox="0 0 513 513" fill="none" xmlns="http://www.w3.org/2000/svg">
<circle cx="256.933" cy="256.173" r="255.5" fill="black" stroke="white"/>
<g clip-path="url(#clip0_75_21)">
<path d="M164.126 343C164 340.485 163.958 337.97 164.084 335.455C164.926 335.203 165.768 335.036 166.652 334.91C169.178 334.491 171.704 333.862 174.146 333.149C174.82 332.94 175.493 332.688 176.167 332.437C179.409 331.179 182.272 329.083 184.461 326.401C185.976 324.514 187.281 322.46 188.418 320.323C190.018 317.388 191.407 314.328 192.67 311.226C195.196 304.939 197.722 298.693 200.206 292.405C208.795 270.776 217.383 249.147 225.972 227.517C234.097 206.936 242.096 186.354 249.927 165.647C250.095 165.228 250.263 164.808 250.432 164.389C253.337 163.593 256.158 162.754 259.105 161.958C259.273 162.377 259.441 162.754 259.568 163.132C262.894 172.354 266.219 181.575 269.503 190.839C280.828 222.319 292.153 253.757 303.773 285.112C306.973 293.663 310.172 302.256 313.414 310.807C314.677 314.286 316.193 317.724 317.919 320.993C318.676 322.418 319.476 323.76 320.36 325.101C323.055 329.293 327.223 332.269 332.064 333.527C334.675 334.197 337.285 334.742 339.979 335.078L341.874 335.371C342.126 336.209 342 337.006 342 337.802C342 338.599 342 339.521 342 340.359C342.042 341.197 342 341.994 341.958 342.832C341.705 342.874 341.495 342.916 341.242 342.958C340.947 342.958 340.653 342.958 340.358 342.958H274.64C274.555 342.832 274.513 342.665 274.471 342.497C274.471 340.233 274.471 337.97 274.471 335.706C274.471 335.622 274.513 335.497 274.555 335.413C275.103 335.245 275.65 335.161 276.239 335.078C278.976 334.7 281.67 334.197 284.365 333.485C285.417 333.191 286.512 332.814 287.522 332.395C288.027 332.185 288.533 331.934 289.038 331.64C291.69 330.173 292.743 327.868 292.49 324.933C292.364 323.592 292.153 322.293 291.774 320.993C291.227 318.981 290.511 317.011 289.838 315.083C276.029 276.728 262.388 238.332 248.874 199.851C248.748 199.432 248.664 198.971 248.243 198.594C248.116 198.678 247.906 198.762 247.822 198.845C247.695 199.055 247.611 199.265 247.569 199.474C240.959 218.379 233.929 237.158 226.94 255.895C221.762 269.77 216.583 283.687 211.784 297.687C209.847 303.304 207.995 308.963 206.184 314.622C205.469 316.801 204.964 319.023 204.627 321.245C204.374 322.754 204.332 324.263 204.5 325.814C204.711 327.784 205.763 329.586 207.405 330.76C208.458 331.515 209.637 332.101 210.9 332.521C212.878 333.233 214.899 333.736 216.962 334.072C219.236 334.491 221.509 334.826 223.825 335.161C223.993 335.203 224.119 335.203 224.33 335.245C224.372 335.413 224.414 335.581 224.456 335.748C224.456 337.928 224.456 340.15 224.456 342.329C224.456 342.455 224.414 342.581 224.372 342.707C224.161 342.748 223.951 342.79 223.74 342.79C223.446 342.79 223.151 342.79 222.856 342.79L164.126 343Z" fill="white"/>
</g>
<defs>
<clipPath id="clip0_75_21">
<rect width="178" height="181" fill="white" transform="translate(164 162)"/>
</clipPath>
</defs>
</svg>
