<svg width="513" height="513" viewBox="0 0 513 513" fill="none" xmlns="http://www.w3.org/2000/svg">
<circle cx="256.933" cy="256.173" r="256" fill="black"/>
<g clip-path="url(#clip0_75_21)">
<path d="M108.217 391C108 386.665 107.928 382.329 108.145 377.994C109.592 377.56 111.04 377.271 112.56 377.055C116.902 376.332 121.245 375.248 125.442 374.02C126.6 373.659 127.758 373.225 128.916 372.792C134.489 370.624 139.411 367.011 143.174 362.387C145.78 359.135 148.023 355.595 149.977 351.91C152.728 346.852 155.116 341.577 157.287 336.23C161.63 325.392 165.972 314.626 170.242 303.787C185.007 266.503 199.771 229.22 214.535 191.936C228.504 156.458 242.255 120.981 255.717 85.2862C256.006 84.5637 256.296 83.8411 256.585 83.1186C261.579 81.7457 266.428 80.3006 271.494 78.9277C271.784 79.6503 272.073 80.3006 272.29 80.9509C278.008 96.8471 283.726 112.743 289.371 128.712C308.84 182.976 328.308 237.168 348.284 291.215C353.784 305.955 359.285 320.768 364.858 335.508C367.029 341.505 369.634 347.43 372.602 353.066C373.904 355.522 375.28 357.835 376.799 360.147C381.431 367.372 388.597 372.503 396.92 374.67C401.407 375.826 405.894 376.766 410.526 377.344L413.783 377.85C414.217 379.295 414 380.667 414 382.04C414 383.413 414 385.003 414 386.448C414.072 387.893 414 389.266 413.928 390.711C413.493 390.783 413.132 390.856 412.697 390.928C412.191 390.928 411.684 390.928 411.177 390.928H298.201C298.056 390.711 297.983 390.422 297.911 390.133C297.911 386.231 297.911 382.329 297.911 378.428C297.911 378.283 297.983 378.066 298.056 377.922C298.997 377.633 299.938 377.488 300.951 377.344C305.655 376.693 310.287 375.826 314.919 374.598C316.728 374.092 318.61 373.442 320.347 372.719C321.216 372.358 322.084 371.925 322.953 371.419C327.512 368.89 329.322 364.916 328.887 359.858C328.67 357.546 328.308 355.306 327.657 353.066C326.716 349.598 325.486 346.202 324.328 342.878C300.589 276.764 277.14 210.578 253.907 144.247C253.69 143.524 253.545 142.73 252.822 142.079C252.605 142.224 252.243 142.368 252.098 142.513C251.881 142.874 251.736 143.235 251.664 143.597C240.301 176.184 228.214 208.554 216.2 240.853C207.298 264.769 198.396 288.758 190.145 312.892C186.816 322.574 183.632 332.328 180.519 342.083C179.289 345.84 178.421 349.67 177.842 353.499C177.407 356.101 177.335 358.702 177.624 361.375C177.986 364.771 179.796 367.878 182.618 369.901C184.428 371.202 186.454 372.214 188.625 372.936C192.027 374.164 195.501 375.032 199.047 375.61C202.956 376.332 206.864 376.91 210.844 377.488C211.134 377.56 211.351 377.56 211.713 377.633C211.785 377.922 211.858 378.211 211.93 378.5C211.93 382.257 211.93 386.087 211.93 389.844C211.93 390.061 211.858 390.277 211.785 390.494C211.423 390.567 211.062 390.639 210.7 390.639C210.193 390.639 209.686 390.639 209.18 390.639L108.217 391Z" fill="white"/>
</g>
<defs>
<clipPath id="clip0_75_21">
<rect width="306" height="312" fill="white" transform="translate(108 79)"/>
</clipPath>
</defs>
</svg>
