<svg width="513" height="513" viewBox="0 0 513 513" fill="none" xmlns="http://www.w3.org/2000/svg">
<circle cx="256.933" cy="256.173" r="255.5" fill="black" stroke="white"/>
<g clip-path="url(#clip0_75_21)">
<path d="M165.126 335C165 332.485 164.958 329.97 165.084 327.455C165.926 327.203 166.768 327.036 167.652 326.91C170.178 326.491 172.704 325.862 175.146 325.149C175.82 324.94 176.493 324.688 177.167 324.437C180.409 323.179 183.272 321.083 185.461 318.401C186.976 316.514 188.282 314.46 189.418 312.323C191.018 309.388 192.407 306.328 193.67 303.226C196.196 296.939 198.722 290.693 201.206 284.405C209.795 262.776 218.383 241.147 226.972 219.517C235.097 198.936 243.096 178.354 250.927 157.647C251.095 157.228 251.264 156.808 251.432 156.389C254.337 155.593 257.158 154.754 260.105 153.958C260.273 154.377 260.441 154.754 260.568 155.132C263.894 164.354 267.22 173.575 270.503 182.839C281.828 214.319 293.153 245.757 304.773 277.112C307.973 285.663 311.172 294.256 314.414 302.807C315.677 306.286 317.193 309.724 318.919 312.993C319.677 314.418 320.476 315.76 321.361 317.101C324.055 321.293 328.223 324.269 333.064 325.527C335.675 326.197 338.285 326.742 340.979 327.078L342.874 327.371C343.126 328.209 343 329.006 343 329.802C343 330.599 343 331.521 343 332.359C343.042 333.197 343 333.994 342.958 334.832C342.705 334.874 342.495 334.916 342.242 334.958C341.948 334.958 341.653 334.958 341.358 334.958H275.64C275.555 334.832 275.513 334.665 275.471 334.497C275.471 332.233 275.471 329.97 275.471 327.706C275.471 327.622 275.513 327.497 275.555 327.413C276.103 327.245 276.65 327.161 277.239 327.078C279.976 326.7 282.67 326.197 285.365 325.485C286.417 325.191 287.512 324.814 288.522 324.395C289.028 324.185 289.533 323.934 290.038 323.64C292.69 322.173 293.743 319.868 293.49 316.933C293.364 315.592 293.153 314.293 292.774 312.993C292.227 310.981 291.511 309.011 290.838 307.083C277.029 268.728 263.388 230.332 249.874 191.851C249.748 191.432 249.664 190.971 249.243 190.594C249.116 190.678 248.906 190.762 248.822 190.845C248.695 191.055 248.611 191.265 248.569 191.474C241.959 210.379 234.929 229.158 227.94 247.895C222.762 261.77 217.583 275.687 212.784 289.687C210.847 295.304 208.995 300.963 207.185 306.622C206.469 308.801 205.964 311.023 205.627 313.245C205.374 314.754 205.332 316.263 205.501 317.814C205.711 319.784 206.764 321.586 208.406 322.76C209.458 323.515 210.637 324.101 211.9 324.521C213.879 325.233 215.899 325.736 217.962 326.072C220.236 326.491 222.509 326.826 224.825 327.161C224.993 327.203 225.119 327.203 225.33 327.245C225.372 327.413 225.414 327.581 225.456 327.748C225.456 329.928 225.456 332.15 225.456 334.329C225.456 334.455 225.414 334.581 225.372 334.707C225.161 334.748 224.951 334.79 224.74 334.79C224.446 334.79 224.151 334.79 223.856 334.79L165.126 335Z" fill="white"/>
</g>
<defs>
<clipPath id="clip0_75_21">
<rect width="178" height="181" fill="white" transform="translate(165 154)"/>
</clipPath>
</defs>
</svg>
