<svg width="513" height="513" viewBox="0 0 513 513" fill="none" xmlns="http://www.w3.org/2000/svg">
<circle cx="256.067" cy="256.499" r="255.5" fill="black" stroke="white"/>
<circle cx="255.878" cy="261.777" r="210.164" fill="black" stroke="white" stroke-width="4"/>
<g clip-path="url(#clip0_40_632)">
<path fill-rule="evenodd" clip-rule="evenodd" d="M269.003 164.925L333.28 197.588C342.603 202.463 348.491 211.725 348.491 222.45V237.562H324.939V222.45C324.939 220.987 323.957 219.525 322.485 218.55L258.208 185.888C257.227 185.4 255.755 185.4 254.283 185.888L190.005 218.55C188.533 219.038 187.552 220.5 187.552 222.45V237.562H164V222.45C164 212.212 169.888 202.463 179.211 197.588L243.488 164.925C251.339 161.025 260.661 161.025 269.003 164.925ZM276.363 258.525C276.363 247.312 267.04 238.537 256.245 238.537C244.96 238.537 236.128 247.312 236.128 258.525C236.128 269.737 245.451 278.512 256.245 278.512C267.04 278.512 276.363 269.737 276.363 258.525ZM321.995 300.45C323.467 299.962 324.448 298.5 324.448 296.55V281.438H348V296.55C348 306.788 342.112 316.538 332.789 321.413L268.512 354.075C264.587 356.025 260.171 357 255.755 357C251.339 357 246.923 356.025 242.997 354.075L179.211 321.413C169.888 316.538 164 307.275 164 296.55V281.438H187.552V296.55C187.552 298.012 188.533 299.475 190.005 300.45L244.469 327.75V300.45C225.824 295.087 212.576 278.512 212.576 258.525C212.576 234.637 232.203 214.65 256.736 214.65C280.779 214.65 300.896 234.15 300.896 258.525C300.896 278.512 287.157 295.575 269.003 300.45V327.75L321.995 300.45Z" fill="white" fill-opacity="0.9"/>
</g>
<defs>
<clipPath id="clip0_40_632">
<rect width="184" height="195" fill="white" transform="translate(164 162)"/>
</clipPath>
</defs>
</svg>
