<svg width="513" height="513" viewBox="0 0 513 513" fill="none" xmlns="http://www.w3.org/2000/svg">
<circle cx="256.067" cy="256.499" r="255.5" fill="black" stroke="white"/>
<g clip-path="url(#clip0_40_632)">
<path fill-rule="evenodd" clip-rule="evenodd" d="M260.003 170.925L324.28 203.588C333.603 208.463 339.491 217.725 339.491 228.45V243.562H315.939V228.45C315.939 226.987 314.957 225.525 313.485 224.55L249.208 191.888C248.227 191.4 246.755 191.4 245.283 191.888L181.005 224.55C179.533 225.038 178.552 226.5 178.552 228.45V243.562H155V228.45C155 218.212 160.888 208.463 170.211 203.588L234.488 170.925C242.339 167.025 251.661 167.025 260.003 170.925ZM267.363 264.525C267.363 253.312 258.04 244.537 247.245 244.537C235.96 244.537 227.128 253.312 227.128 264.525C227.128 275.737 236.451 284.512 247.245 284.512C258.04 284.512 267.363 275.737 267.363 264.525ZM312.995 306.45C314.467 305.962 315.448 304.5 315.448 302.55V287.438H339V302.55C339 312.788 333.112 322.538 323.789 327.413L259.512 360.075C255.587 362.025 251.171 363 246.755 363C242.339 363 237.923 362.025 233.997 360.075L170.211 327.413C160.888 322.538 155 313.275 155 302.55V287.438H178.552V302.55C178.552 304.012 179.533 305.475 181.005 306.45L235.469 333.75V306.45C216.824 301.087 203.576 284.512 203.576 264.525C203.576 240.637 223.203 220.65 247.736 220.65C271.779 220.65 291.896 240.15 291.896 264.525C291.896 284.512 278.157 301.575 260.003 306.45V333.75L312.995 306.45Z" fill="white" fill-opacity="0.9"/>
</g>
<defs>
<clipPath id="clip0_40_632">
<rect width="184" height="195" fill="white" transform="translate(155 168)"/>
</clipPath>
</defs>
</svg>
