<svg width="513" height="513" viewBox="0 0 513 513" fill="none" xmlns="http://www.w3.org/2000/svg">
<circle cx="256.067" cy="256.499" r="255.5" fill="black" stroke="white"/>
<path fill-rule="evenodd" clip-rule="evenodd" d="M271.003 165.925L335.28 198.588C344.603 203.463 350.491 212.725 350.491 223.45V238.562H326.939V223.45C326.939 221.987 325.957 220.525 324.485 219.55L260.208 186.888C259.227 186.4 257.755 186.4 256.283 186.888L192.005 219.55C190.533 220.038 189.552 221.5 189.552 223.45V238.562H166V223.45C166 213.212 171.888 203.463 181.211 198.588L245.488 165.925C253.339 162.025 262.661 162.025 271.003 165.925ZM278.363 259.525C278.363 248.312 269.04 239.537 258.245 239.537C246.96 239.537 238.128 248.312 238.128 259.525C238.128 270.737 247.451 279.512 258.245 279.512C269.04 279.512 278.363 270.737 278.363 259.525ZM323.995 301.45C325.467 300.962 326.448 299.5 326.448 297.55V282.438H350V297.55C350 307.788 344.112 317.538 334.789 322.413L270.512 355.075C266.587 357.025 262.171 358 257.755 358C253.339 358 248.923 357.025 244.997 355.075L181.211 322.413C171.888 317.538 166 308.275 166 297.55V282.438H189.552V297.55C189.552 299.012 190.533 300.475 192.005 301.45L246.469 328.75V301.45C227.824 296.087 214.576 279.512 214.576 259.525C214.576 235.637 234.203 215.65 258.736 215.65C282.779 215.65 302.896 235.15 302.896 259.525C302.896 279.512 289.157 296.575 271.003 301.45V328.75L323.995 301.45Z" fill="white" fill-opacity="0.9"/>
</svg>
