<svg width="513" height="513" viewBox="0 0 513 513" fill="none" xmlns="http://www.w3.org/2000/svg">
<circle cx="256.761" cy="256.521" r="256" fill="black"/>
<path d="M343.675 208.518H316.413C313.262 208.518 310.24 207.167 308.118 204.788L297.059 192.315C295.387 190.45 293.072 189.357 290.565 189.357C288.057 189.357 285.742 190.45 284.071 192.315L274.554 203.052C271.468 206.524 266.967 208.582 262.338 208.582H113.102C108.858 220.605 106.093 233.4 105 246.71H245.877C248.385 246.71 250.7 245.681 252.436 243.881L265.553 230.185C267.16 228.449 269.475 227.485 271.79 227.485H272.304C274.812 227.485 277.126 228.578 278.798 230.443L289.857 242.916C291.979 245.295 295.001 246.645 298.152 246.645H413.117C412.024 233.4 409.259 220.541 405.016 208.453L343.675 208.518Z" fill="white"/>
<path d="M190.259 326.951C192.767 326.951 195.082 325.923 196.818 324.122L209.934 310.427C211.606 308.691 213.857 307.727 216.236 307.727H216.75C219.258 307.727 221.637 308.82 223.244 310.62L234.304 323.094C236.425 325.472 239.447 326.823 242.598 326.823H398.457C404.308 314.735 408.552 301.811 411.124 288.245H261.502C258.351 288.245 255.329 286.895 253.207 284.516L242.148 272.171C240.476 270.306 238.161 269.277 235.654 269.277C233.146 269.277 230.767 270.37 229.16 272.171L219.644 282.908C216.557 286.445 212.056 288.438 207.363 288.438H107.122C109.694 302.004 113.937 314.928 119.788 327.016L190.259 326.951Z" fill="white"/>
<path d="M300.788 166.789C303.296 166.789 305.61 165.76 307.346 163.96L320.463 150.265C322.071 148.529 324.385 147.564 326.764 147.564H327.279C329.786 147.564 332.101 148.657 333.773 150.522L344.832 163.06C346.954 165.439 349.976 166.789 353.127 166.789H382.768C354.541 129.24 309.661 105 259.123 105C208.584 105 163.64 129.24 135.413 166.789H300.788Z" fill="white"/>
<path d="M241.312 365.209H200.804C197.654 365.209 194.632 363.858 192.51 361.479L181.451 349.006C179.779 347.141 177.464 346.113 174.956 346.113C172.449 346.113 170.07 347.206 168.462 349.006L158.946 359.743C155.86 363.28 151.359 365.273 146.665 365.273H146.022C174.249 395.492 214.436 414.46 259.123 414.46C303.81 414.46 343.932 395.492 372.223 365.273L241.312 365.209Z" fill="white"/>
</svg>
