<svg width="513" height="513" viewBox="0 0 513 513" fill="none" xmlns="http://www.w3.org/2000/svg">
<circle cx="256.761" cy="256.521" r="255.5" fill="black" stroke="white"/>
<path d="M317.344 223.596H299.358C297.279 223.596 295.285 222.705 293.886 221.135L286.59 212.906C285.487 211.676 283.96 210.955 282.305 210.955C280.651 210.955 279.124 211.676 278.021 212.906L271.743 219.99C269.707 222.281 266.737 223.638 263.683 223.638H165.228C162.428 231.57 160.604 240.012 159.883 248.792H252.824C254.478 248.792 256.005 248.113 257.15 246.926L265.804 237.891C266.864 236.745 268.392 236.109 269.919 236.109H270.258C271.912 236.109 273.439 236.83 274.542 238.06L281.839 246.289C283.238 247.859 285.232 248.75 287.311 248.75H363.156C362.435 240.012 360.611 231.528 357.812 223.553L317.344 223.596Z" fill="white"/>
<path d="M216.131 301.73C217.785 301.73 219.312 301.051 220.458 299.863L229.111 290.828C230.214 289.683 231.699 289.047 233.268 289.047H233.608C235.262 289.047 236.831 289.768 237.892 290.956L245.188 299.185C246.588 300.754 248.582 301.645 250.66 301.645H353.485C357.345 293.67 360.145 285.144 361.841 276.194H263.131C261.053 276.194 259.059 275.303 257.659 273.734L250.363 265.589C249.26 264.359 247.733 263.681 246.079 263.681C244.424 263.681 242.855 264.402 241.794 265.589L235.516 272.673C233.48 275.006 230.511 276.321 227.414 276.321H161.282C162.979 285.272 165.779 293.798 169.639 301.772L216.131 301.73Z" fill="white"/>
<path d="M289.05 196.066C290.704 196.066 292.231 195.387 293.376 194.2L302.03 185.165C303.09 184.019 304.618 183.383 306.187 183.383H306.526C308.181 183.383 309.708 184.104 310.811 185.334L318.107 193.606C319.507 195.175 321.5 196.066 323.579 196.066H343.134C324.512 171.294 294.904 155.302 261.562 155.302C228.22 155.302 198.569 171.294 179.947 196.066H289.05Z" fill="white"/>
<path d="M249.812 326.969H223.088C221.009 326.969 219.015 326.079 217.616 324.509L210.319 316.28C209.216 315.05 207.689 314.371 206.035 314.371C204.381 314.371 202.811 315.092 201.751 316.28L195.473 323.364C193.436 325.697 190.467 327.012 187.37 327.012H186.946C205.568 346.948 232.081 359.462 261.562 359.462C291.043 359.462 317.513 346.948 336.178 327.012L249.812 326.969Z" fill="white"/>
</svg>
