<svg width="513" height="513" viewBox="0 0 513 513" fill="none" xmlns="http://www.w3.org/2000/svg">
<circle cx="256.761" cy="256.521" r="255.5" fill="black" stroke="white"/>
<circle cx="256.761" cy="261.799" r="210.164" fill="black" stroke="white" stroke-width="4"/>
<path d="M318.779 222.798H298.629C296.3 222.798 294.067 221.8 292.499 220.041L284.324 210.822C283.089 209.444 281.378 208.636 279.525 208.636C277.671 208.636 275.96 209.444 274.725 210.822L267.691 218.758C265.41 221.324 262.083 222.845 258.662 222.845H148.358C145.222 231.732 143.178 241.189 142.37 251.026H246.495C248.349 251.026 250.06 250.266 251.343 248.935L261.038 238.813C262.226 237.53 263.937 236.817 265.648 236.817H266.028C267.881 236.817 269.592 237.625 270.828 239.003L279.002 248.222C280.57 249.98 282.804 250.978 285.132 250.978H370.105C369.297 241.189 367.254 231.684 364.117 222.75L318.779 222.798Z" fill="white"/>
<path d="M205.387 310.334C207.24 310.334 208.951 309.574 210.234 308.243L219.929 298.121C221.165 296.837 222.828 296.125 224.587 296.125H224.967C226.82 296.125 228.579 296.932 229.767 298.263L237.941 307.483C239.509 309.241 241.743 310.239 244.071 310.239H359.27C363.594 301.305 366.731 291.753 368.632 281.725H258.044C255.715 281.725 253.481 280.727 251.913 278.969L243.739 269.845C242.503 268.466 240.792 267.706 238.939 267.706C237.085 267.706 235.327 268.514 234.139 269.845L227.105 277.781C224.824 280.395 221.498 281.868 218.028 281.868H143.938C145.839 291.895 148.976 301.447 153.301 310.381L205.387 310.334Z" fill="white"/>
<path d="M287.081 191.955C288.934 191.955 290.645 191.195 291.928 189.864L301.623 179.742C302.811 178.458 304.522 177.746 306.28 177.746H306.661C308.514 177.746 310.225 178.554 311.461 179.932L319.635 189.199C321.203 190.957 323.437 191.955 325.765 191.955H347.674C326.811 164.202 293.639 146.286 256.285 146.286C218.931 146.286 185.712 164.202 164.849 191.955H287.081Z" fill="white"/>
<path d="M243.121 338.61H213.181C210.852 338.61 208.619 337.612 207.051 335.854L198.876 326.635C197.641 325.256 195.93 324.496 194.076 324.496C192.223 324.496 190.465 325.304 189.277 326.635L182.243 334.571C179.962 337.185 176.635 338.658 173.166 338.658H172.691C193.554 360.994 223.256 375.013 256.285 375.013C289.314 375.013 318.969 360.994 339.88 338.658L243.121 338.61Z" fill="white"/>
</svg>
