<svg width="513" height="513" viewBox="0 0 513 513" fill="none" xmlns="http://www.w3.org/2000/svg">
<circle cx="256.761" cy="256.521" r="255.5" fill="black" stroke="white"/>
<path d="M307.559 224.341H289.573C287.494 224.341 285.501 223.45 284.101 221.88L276.805 213.651C275.702 212.421 274.175 211.7 272.52 211.7C270.866 211.7 269.339 212.421 268.236 213.651L261.958 220.735C259.922 223.026 256.952 224.383 253.898 224.383H155.443C152.643 232.315 150.819 240.756 150.098 249.537H243.039C244.693 249.537 246.22 248.858 247.366 247.671L256.019 238.636C257.08 237.49 258.607 236.854 260.134 236.854H260.473C262.127 236.854 263.655 237.575 264.757 238.805L272.054 247.034C273.453 248.604 275.447 249.495 277.526 249.495H353.372C352.65 240.756 350.826 232.273 348.027 224.298L307.559 224.341Z" fill="white"/>
<path d="M206.346 302.475C208 302.475 209.527 301.796 210.673 300.608L219.326 291.573C220.429 290.428 221.914 289.792 223.483 289.792H223.823C225.477 289.792 227.046 290.513 228.107 291.7L235.403 299.93C236.803 301.499 238.797 302.39 240.875 302.39H343.7C347.56 294.415 350.36 285.889 352.056 276.939H253.346C251.268 276.939 249.274 276.048 247.874 274.479L240.578 266.334C239.475 265.104 237.948 264.426 236.294 264.426C234.64 264.426 233.07 265.147 232.01 266.334L225.731 273.418C223.695 275.751 220.726 277.066 217.629 277.066H151.498C153.194 286.016 155.994 294.542 159.854 302.517L206.346 302.475Z" fill="white"/>
<path d="M279.265 196.811C280.919 196.811 282.446 196.132 283.592 194.945L292.245 185.91C293.306 184.764 294.833 184.128 296.402 184.128H296.742C298.396 184.128 299.923 184.849 301.026 186.079L308.322 194.351C309.722 195.92 311.716 196.811 313.794 196.811H333.349C314.727 172.039 285.119 156.047 251.777 156.047C218.435 156.047 188.784 172.039 170.162 196.811H279.265Z" fill="white"/>
<path d="M240.027 327.714H213.303C211.224 327.714 209.23 326.823 207.831 325.254L200.534 317.025C199.432 315.795 197.904 315.116 196.25 315.116C194.596 315.116 193.026 315.837 191.966 317.025L185.688 324.109C183.652 326.442 180.682 327.757 177.586 327.757H177.161C195.783 347.693 222.296 360.207 251.777 360.207C281.259 360.207 307.728 347.693 326.393 327.757L240.027 327.714Z" fill="white"/>
</svg>
