<svg width="513" height="513" viewBox="0 0 513 513" fill="none" xmlns="http://www.w3.org/2000/svg">
<circle cx="256.18" cy="256.32" r="255.5" fill="black" stroke="white"/>
<circle cx="256.18" cy="261.599" r="210.164" fill="black" stroke="white" stroke-width="4"/>
<g clip-path="url(#clip0_40_78)">
<path d="M168.707 204.272V289.728C168.707 295.222 171.585 300.192 176.381 302.982L250.414 345.71C255.122 348.414 260.965 348.414 265.674 345.71L339.706 302.982C344.415 300.279 347.38 295.222 347.38 289.728V204.272C347.38 198.778 344.502 193.808 339.706 191.018L265.674 148.29C260.965 145.586 255.122 145.586 250.414 148.29L176.381 191.018C171.672 193.721 168.794 198.778 168.794 204.272H168.707Z" fill="black"/>
<path d="M274.132 263.568L263.581 292.519C263.319 293.304 263.319 294.176 263.581 295.048L281.718 344.839L302.734 332.718L277.533 263.568C276.922 261.999 274.742 261.999 274.132 263.568Z" fill="white"/>
<path d="M295.322 214.911C294.711 213.341 292.531 213.341 291.921 214.911L281.37 243.861C281.108 244.646 281.108 245.518 281.37 246.39L311.105 327.922L332.12 315.801L295.322 214.998V214.911Z" fill="white"/>
<path d="M258 151.516C258.523 151.516 259.046 151.69 259.482 151.952L339.532 198.168C340.491 198.691 341.014 199.738 341.014 200.784V293.216C341.014 294.262 340.404 295.309 339.532 295.832L259.482 342.048C259.046 342.31 258.523 342.484 258 342.484C257.477 342.484 256.954 342.31 256.518 342.048L176.468 295.832C175.509 295.309 174.986 294.262 174.986 293.216V200.697C174.986 199.65 175.596 198.604 176.468 198.081L256.518 151.865C256.954 151.603 257.477 151.429 258 151.429V151.516ZM258 138C255.122 138 252.332 138.698 249.716 140.18L169.666 186.396C164.522 189.361 161.382 194.767 161.382 200.697V293.129C161.382 299.058 164.522 304.465 169.666 307.43L249.716 353.646C252.245 355.128 255.122 355.826 258 355.826C260.878 355.826 263.668 355.128 266.284 353.646L346.334 307.43C351.478 304.465 354.618 299.058 354.618 293.129V200.697C354.618 194.767 351.478 189.361 346.334 186.396L266.197 140.18C263.668 138.698 260.79 138 257.913 138H258Z" fill="white"/>
<path d="M204.982 328.009L212.394 307.778L227.218 320.074L213.354 332.805L204.982 328.009Z" fill="black"/>
<path d="M251.198 194.157H230.881C229.398 194.157 228.003 195.116 227.48 196.511L183.967 315.801L204.982 327.922L252.942 196.511C253.378 195.291 252.506 194.07 251.286 194.07L251.198 194.157Z" fill="white"/>
<path d="M286.776 194.157H266.458C264.976 194.157 263.581 195.116 263.058 196.511L213.354 332.718L234.369 344.839L288.433 196.511C288.869 195.291 287.997 194.07 286.776 194.07V194.157Z" fill="white"/>
</g>
<defs>
<clipPath id="clip0_40_78">
<rect width="218" height="218" fill="white" transform="translate(149 138)"/>
</clipPath>
</defs>
</svg>
