<svg width="513" height="513" viewBox="0 0 513 513" fill="none" xmlns="http://www.w3.org/2000/svg">
<circle cx="256.18" cy="256.32" r="256" fill="black"/>
<g clip-path="url(#clip0_40_78)">
<path d="M115.917 194.968V329.032C115.917 337.651 120.431 345.448 127.955 349.826L244.098 416.858C251.486 421.099 260.651 421.099 268.038 416.858L384.182 349.826C391.569 345.585 396.22 337.651 396.22 329.032V194.968C396.22 186.35 391.706 178.552 384.182 174.175L268.038 107.143C260.651 102.902 251.486 102.902 244.098 107.143L127.955 174.175C120.568 178.415 116.054 186.35 116.054 194.968H115.917Z" fill="black"/>
<path d="M281.308 287.992L264.755 333.41C264.345 334.641 264.345 336.009 264.755 337.377L293.21 415.49L326.179 396.475L286.643 287.992C285.686 285.53 282.266 285.53 281.308 287.992Z" fill="white"/>
<path d="M314.551 211.658C313.593 209.195 310.173 209.195 309.215 211.658L292.663 257.075C292.252 258.307 292.252 259.675 292.663 261.043L339.311 388.951L372.28 369.935L314.551 211.795V211.658Z" fill="white"/>
<path d="M256 112.204C256.821 112.204 257.642 112.478 258.326 112.888L383.908 185.392C385.413 186.213 386.234 187.854 386.234 189.496V334.504C386.234 336.146 385.276 337.787 383.908 338.608L258.326 411.112C257.642 411.522 256.821 411.796 256 411.796C255.179 411.796 254.358 411.522 253.674 411.112L128.092 338.608C126.587 337.787 125.766 336.146 125.766 334.504V189.359C125.766 187.718 126.724 186.076 128.092 185.255L253.674 112.751C254.358 112.341 255.179 112.067 256 112.067V112.204ZM256 91C251.486 91 247.108 92.0944 243.004 94.42L117.422 166.924C109.35 171.575 104.426 180.057 104.426 189.359V334.367C104.426 343.67 109.35 352.151 117.422 356.802L243.004 429.306C246.971 431.632 251.486 432.726 256 432.726C260.514 432.726 264.892 431.632 268.996 429.306L394.578 356.802C402.65 352.151 407.574 343.67 407.574 334.367V189.359C407.574 180.057 402.65 171.575 394.578 166.924L268.859 94.42C264.892 92.0944 260.378 91 255.863 91H256Z" fill="white"/>
<path d="M172.826 389.087L184.454 357.35L207.71 376.638L185.958 396.611L172.826 389.087Z" fill="black"/>
<path d="M245.33 179.099H213.455C211.13 179.099 208.941 180.604 208.12 182.793L139.857 369.935L172.826 388.95L248.066 182.793C248.75 180.878 247.382 178.962 245.466 178.962L245.33 179.099Z" fill="white"/>
<path d="M301.144 179.099H269.27C266.944 179.099 264.755 180.604 263.934 182.793L185.958 396.474L218.927 415.49L303.743 182.793C304.427 180.878 303.059 178.962 301.144 178.962V179.099Z" fill="white"/>
</g>
<defs>
<clipPath id="clip0_40_78">
<rect width="342" height="342" fill="white" transform="translate(85 91)"/>
</clipPath>
</defs>
</svg>
