<svg width="513" height="513" viewBox="0 0 513 513" fill="none" xmlns="http://www.w3.org/2000/svg">
<circle cx="256.18" cy="256.32" r="255.5" fill="black" stroke="white"/>
<g clip-path="url(#clip0_40_78)">
<path d="M170.707 215.272V300.728C170.707 306.222 173.585 311.192 178.381 313.982L252.414 356.71C257.122 359.414 262.965 359.414 267.674 356.71L341.706 313.982C346.415 311.279 349.38 306.222 349.38 300.728V215.272C349.38 209.778 346.502 204.808 341.706 202.018L267.674 159.29C262.965 156.586 257.122 156.586 252.414 159.29L178.381 202.018C173.672 204.721 170.794 209.778 170.794 215.272H170.707Z" fill="black"/>
<path d="M276.132 274.568L265.581 303.519C265.319 304.304 265.319 305.176 265.581 306.048L283.718 355.839L304.734 343.718L279.533 274.568C278.922 272.999 276.742 272.999 276.132 274.568Z" fill="white"/>
<path d="M297.322 225.911C296.711 224.341 294.531 224.341 293.921 225.911L283.37 254.861C283.108 255.646 283.108 256.518 283.37 257.39L313.105 338.922L334.12 326.801L297.322 225.998V225.911Z" fill="white"/>
<path d="M260 162.516C260.523 162.516 261.046 162.69 261.482 162.952L341.532 209.168C342.491 209.691 343.014 210.738 343.014 211.784V304.216C343.014 305.262 342.404 306.309 341.532 306.832L261.482 353.048C261.046 353.31 260.523 353.484 260 353.484C259.477 353.484 258.954 353.31 258.518 353.048L178.468 306.832C177.509 306.309 176.986 305.262 176.986 304.216V211.697C176.986 210.65 177.596 209.604 178.468 209.081L258.518 162.865C258.954 162.603 259.477 162.429 260 162.429V162.516ZM260 149C257.122 149 254.332 149.698 251.716 151.18L171.666 197.396C166.522 200.361 163.382 205.767 163.382 211.697V304.129C163.382 310.058 166.522 315.465 171.666 318.43L251.716 364.646C254.245 366.128 257.122 366.826 260 366.826C262.878 366.826 265.668 366.128 268.284 364.646L348.334 318.43C353.478 315.465 356.618 310.058 356.618 304.129V211.697C356.618 205.767 353.478 200.361 348.334 197.396L268.197 151.18C265.668 149.698 262.79 149 259.913 149H260Z" fill="white"/>
<path d="M206.982 339.009L214.394 318.778L229.218 331.074L215.354 343.805L206.982 339.009Z" fill="black"/>
<path d="M253.198 205.157H232.881C231.398 205.157 230.003 206.116 229.48 207.511L185.967 326.801L206.982 338.922L254.942 207.511C255.378 206.291 254.506 205.07 253.286 205.07L253.198 205.157Z" fill="white"/>
<path d="M288.776 205.157H268.458C266.976 205.157 265.581 206.116 265.058 207.511L215.354 343.718L236.369 355.839L290.433 207.511C290.869 206.291 289.997 205.07 288.776 205.07V205.157Z" fill="white"/>
</g>
<defs>
<clipPath id="clip0_40_78">
<rect width="218" height="218" fill="white" transform="translate(151 149)"/>
</clipPath>
</defs>
</svg>
