<svg width="513" height="513" viewBox="0 0 513 513" fill="none" xmlns="http://www.w3.org/2000/svg">
<circle cx="256.18" cy="256.32" r="255.5" fill="black" stroke="white"/>
<g clip-path="url(#clip0_40_78)">
<path d="M167.707 211.272V296.728C167.707 302.222 170.585 307.192 175.381 309.982L249.414 352.71C254.122 355.414 259.965 355.414 264.674 352.71L338.706 309.982C343.415 307.279 346.38 302.222 346.38 296.728V211.272C346.38 205.778 343.502 200.808 338.706 198.018L264.674 155.29C259.965 152.586 254.122 152.586 249.414 155.29L175.381 198.018C170.672 200.721 167.794 205.778 167.794 211.272H167.707Z" fill="black"/>
<path d="M273.132 270.568L262.581 299.519C262.319 300.304 262.319 301.176 262.581 302.048L280.718 351.839L301.734 339.718L276.533 270.568C275.922 268.999 273.742 268.999 273.132 270.568Z" fill="white"/>
<path d="M294.322 221.911C293.711 220.341 291.531 220.341 290.921 221.911L280.37 250.861C280.108 251.646 280.108 252.518 280.37 253.39L310.105 334.922L331.12 322.801L294.322 221.998V221.911Z" fill="white"/>
<path d="M257 158.516C257.523 158.516 258.046 158.69 258.482 158.952L338.532 205.168C339.491 205.691 340.014 206.738 340.014 207.784V300.216C340.014 301.262 339.404 302.309 338.532 302.832L258.482 349.048C258.046 349.31 257.523 349.484 257 349.484C256.477 349.484 255.954 349.31 255.518 349.048L175.468 302.832C174.509 302.309 173.986 301.262 173.986 300.216V207.697C173.986 206.65 174.596 205.604 175.468 205.081L255.518 158.865C255.954 158.603 256.477 158.429 257 158.429V158.516ZM257 145C254.122 145 251.332 145.698 248.716 147.18L168.666 193.396C163.522 196.361 160.382 201.767 160.382 207.697V300.129C160.382 306.058 163.522 311.465 168.666 314.43L248.716 360.646C251.245 362.128 254.122 362.826 257 362.826C259.878 362.826 262.668 362.128 265.284 360.646L345.334 314.43C350.478 311.465 353.618 306.058 353.618 300.129V207.697C353.618 201.767 350.478 196.361 345.334 193.396L265.197 147.18C262.668 145.698 259.79 145 256.913 145H257Z" fill="white"/>
<path d="M203.982 335.009L211.394 314.778L226.218 327.074L212.354 339.805L203.982 335.009Z" fill="black"/>
<path d="M250.198 201.157H229.881C228.398 201.157 227.003 202.116 226.48 203.511L182.967 322.801L203.982 334.922L251.942 203.511C252.378 202.291 251.506 201.07 250.286 201.07L250.198 201.157Z" fill="white"/>
<path d="M285.776 201.157H265.458C263.976 201.157 262.581 202.116 262.058 203.511L212.354 339.718L233.369 351.839L287.433 203.511C287.869 202.291 286.997 201.07 285.776 201.07V201.157Z" fill="white"/>
</g>
<defs>
<clipPath id="clip0_40_78">
<rect width="218" height="218" fill="white" transform="translate(148 145)"/>
</clipPath>
</defs>
</svg>
