<svg width="513" height="513" viewBox="0 0 513 513" fill="none" xmlns="http://www.w3.org/2000/svg">
<g clip-path="url(#clip0_214_25)">
<path d="M513 0H0V513H513V0Z" fill="#1E1E1E"/>
<path d="M11695 -3602H-10333V6750H11695V-3602Z" fill="white"/>
<path d="M256.073 511.66C397.182 511.66 511.573 397.269 511.573 256.16C511.573 115.051 397.182 0.660156 256.073 0.660156C114.964 0.660156 0.572998 115.051 0.572998 256.16C0.572998 397.269 114.964 511.66 256.073 511.66Z" fill="black"/>
<path d="M285.608 337.435C284.244 336.071 284.244 333.343 282.88 330.615C282.88 327.887 281.516 325.159 281.516 322.431C278.787 325.159 276.059 326.523 273.331 329.251C270.603 331.979 266.511 333.343 263.783 334.707C259.691 336.071 256.963 337.435 251.507 338.799C247.415 340.163 241.959 340.163 237.867 340.163C229.683 340.163 222.863 338.799 216.043 336.071C209.223 333.343 203.766 330.615 198.31 326.523C192.854 322.431 190.126 316.975 187.398 311.519C184.67 306.063 183.306 299.243 183.306 292.423C183.306 276.055 190.126 262.414 202.402 254.23C214.679 244.682 233.775 240.59 258.327 240.59H281.516V231.042C281.516 222.858 278.787 217.402 274.695 213.31C269.239 209.218 262.419 206.49 252.871 206.49C244.687 206.49 239.231 207.854 235.139 211.946C231.047 216.038 229.683 220.13 229.683 225.586H188.762C188.762 218.766 190.126 211.946 192.854 206.49C195.582 201.034 199.674 195.577 206.495 190.121C211.951 186.029 218.771 181.937 226.955 179.209C235.139 176.481 244.687 175.117 255.599 175.117C265.147 175.117 273.331 176.481 281.516 179.209C289.7 181.937 296.52 184.665 303.34 190.121C308.796 194.213 314.252 201.034 316.98 207.854C319.708 214.674 322.436 222.858 322.436 232.406V300.607C322.436 308.791 322.436 315.611 323.8 321.067C325.164 326.523 326.528 331.979 327.892 334.707V337.435H285.608ZM246.051 308.791C250.143 308.791 254.235 308.791 256.963 307.427C261.055 306.063 263.783 304.699 266.511 303.335C269.239 301.971 271.967 300.607 273.331 297.879C274.695 296.515 277.423 293.787 278.787 292.423V265.142H258.327C251.507 265.142 246.051 265.142 241.959 266.506C237.867 267.87 233.775 269.234 231.047 271.962C228.319 274.69 225.591 276.055 224.227 280.147C222.863 282.875 222.863 286.967 222.863 289.695C222.863 295.151 224.227 299.243 228.319 303.335C232.411 307.427 239.231 308.791 246.051 308.791Z" fill="white"/>
</g>
<defs>
<clipPath id="clip0_214_25">
<rect width="513" height="513" fill="white"/>
</clipPath>
</defs>
</svg>
