<svg width="513" height="513" viewBox="0 0 513 513" fill="none" xmlns="http://www.w3.org/2000/svg">
<g clip-path="url(#clip0_214_25)">
<path d="M513 0H0V513H513V0Z" fill="#1E1E1E"/>
<path d="M11695 -3602H-10333V6750H11695V-3602Z" fill="white"/>
<path d="M256.073 511.66C397.182 511.66 511.573 397.269 511.573 256.16C511.573 115.051 397.182 0.660156 256.073 0.660156C114.964 0.660156 0.572998 115.051 0.572998 256.16C0.572998 397.269 114.964 511.66 256.073 511.66Z" fill="black"/>
<path d="M310.671 400.074C308.209 397.612 308.209 392.686 305.746 387.761C305.746 382.835 303.284 377.909 303.284 372.984C298.358 377.909 293.433 380.372 288.509 385.298C283.585 390.223 276.198 392.686 271.273 395.149C263.887 397.612 258.962 400.074 249.113 402.537C241.727 405 231.878 405 224.491 405C209.718 405 197.406 402.537 185.095 397.612C172.784 392.686 162.933 387.761 153.085 380.372C143.236 372.984 138.311 363.133 133.387 353.282C128.462 343.431 126 331.117 126 318.803C126 289.249 138.311 264.62 160.471 249.843C182.633 232.604 217.104 225.215 261.424 225.215H303.284V207.976C303.284 193.199 298.358 183.348 290.971 175.96C281.122 168.571 268.811 163.646 251.576 163.646C236.802 163.646 226.953 166.109 219.567 173.497C212.18 180.885 209.718 188.274 209.718 198.125H135.849C135.849 185.811 138.311 173.497 143.236 163.646C148.16 153.795 155.547 143.942 167.86 134.091C177.709 126.702 190.02 119.314 204.793 114.388C219.567 109.463 236.802 107 256.5 107C273.736 107 288.509 109.463 303.284 114.388C318.058 119.314 330.369 124.239 342.68 134.091C352.529 141.479 362.378 153.795 367.302 166.109C372.227 178.422 377.151 193.199 377.151 210.439V333.579C377.151 348.356 377.151 360.67 379.613 370.521C382.076 380.372 384.538 390.223 387 395.149V400.074H310.671ZM239.264 348.356C246.651 348.356 254.038 348.356 258.962 345.893C266.349 343.431 271.273 340.968 276.198 338.505C281.122 336.042 286.047 333.579 288.509 328.654C290.971 326.191 295.896 321.265 298.358 318.803V269.545H261.424C249.113 269.545 239.264 269.545 231.878 272.008C224.491 274.471 217.104 276.934 212.18 281.859C207.255 286.785 202.331 289.249 199.869 296.638C197.406 301.563 197.406 308.952 197.406 313.877C197.406 323.728 199.869 331.117 207.255 338.505C214.642 345.893 226.953 348.356 239.264 348.356Z" fill="white"/>
</g>
<defs>
<clipPath id="clip0_214_25">
<rect width="513" height="513" fill="white"/>
</clipPath>
</defs>
</svg>
