<svg width="513" height="513" viewBox="0 0 513 513" fill="none" xmlns="http://www.w3.org/2000/svg">
<rect width="513" height="513" fill="#1E1E1E"/>
<rect width="22028" height="10352" transform="translate(-10333 -3602)" fill="white"/>
<circle cx="256.073" cy="256.16" r="255.5" fill="black" stroke="white"/>
<path d="M278.608 330.435C277.244 329.071 277.244 326.343 275.88 323.615C275.88 320.887 274.516 318.159 274.516 315.431C271.787 318.159 269.059 319.523 266.331 322.251C263.603 324.979 259.511 326.343 256.783 327.707C252.691 329.071 249.963 330.435 244.507 331.799C240.415 333.163 234.959 333.163 230.867 333.163C222.683 333.163 215.863 331.799 209.043 329.071C202.223 326.343 196.766 323.615 191.31 319.523C185.854 315.431 183.126 309.975 180.398 304.519C177.67 299.063 176.306 292.243 176.306 285.423C176.306 269.055 183.126 255.414 195.402 247.23C207.679 237.682 226.775 233.59 251.327 233.59H274.516V224.042C274.516 215.858 271.787 210.402 267.695 206.31C262.239 202.218 255.419 199.49 245.871 199.49C237.687 199.49 232.231 200.854 228.139 204.946C224.047 209.038 222.683 213.13 222.683 218.586H181.762C181.762 211.766 183.126 204.946 185.854 199.49C188.582 194.034 192.674 188.577 199.495 183.121C204.951 179.029 211.771 174.937 219.955 172.209C228.139 169.481 237.687 168.117 248.599 168.117C258.147 168.117 266.331 169.481 274.516 172.209C282.7 174.937 289.52 177.665 296.34 183.121C301.796 187.213 307.252 194.034 309.98 200.854C312.708 207.674 315.436 215.858 315.436 225.406V293.607C315.436 301.791 315.436 308.611 316.8 314.067C318.164 319.523 319.528 324.979 320.892 327.707V330.435H278.608ZM239.051 301.791C243.143 301.791 247.235 301.791 249.963 300.427C254.055 299.063 256.783 297.699 259.511 296.335C262.239 294.971 264.967 293.607 266.331 290.879C267.695 289.515 270.423 286.787 271.787 285.423V258.142H251.327C244.507 258.142 239.051 258.142 234.959 259.506C230.867 260.87 226.775 262.234 224.047 264.962C221.319 267.69 218.591 269.055 217.227 273.147C215.863 275.875 215.863 279.967 215.863 282.695C215.863 288.151 217.227 292.243 221.319 296.335C225.411 300.427 232.231 301.791 239.051 301.791Z" fill="white"/>
</svg>
