<svg width="513" height="513" viewBox="0 0 513 513" fill="none" xmlns="http://www.w3.org/2000/svg">
<circle cx="256.933" cy="256.264" r="256" fill="black"/>
<path d="M261.006 97.042C241.222 97.042 225.18 168.8 225.18 257.319C225.18 345.837 241.222 417.595 261.006 417.595C280.79 417.595 296.833 345.837 296.833 257.319C296.833 168.8 280.79 97.042 261.006 97.042ZM263.48 408.55C261.218 411.567 258.955 409.304 258.955 409.304C249.844 398.747 245.288 379.134 245.288 379.134C229.352 327.846 233.145 217.727 233.145 217.727C240.634 130.304 254.259 109.652 258.895 105.067C259.368 104.599 259.992 104.313 260.655 104.259C261.319 104.206 261.98 104.388 262.522 104.773C269.25 109.54 274.892 129.475 274.892 129.475C291.553 191.323 290.044 249.399 290.044 249.399C291.553 299.934 281.695 356.501 281.695 356.501C274.107 399.491 263.48 408.55 263.48 408.55Z" fill="white"/>
<path d="M400.028 177.558C390.178 160.391 319.958 182.188 243.14 226.237C166.322 270.286 112.136 319.914 121.979 337.073C131.821 354.233 202.049 332.443 278.867 288.394C355.685 244.345 409.871 194.717 400.028 177.558ZM131.066 334.718C127.295 334.243 128.147 331.144 128.147 331.144C132.773 317.99 147.494 304.278 147.494 304.278C184.067 264.93 281.478 213.422 281.478 213.422C361.028 176.411 385.737 177.973 392.005 179.698C392.648 179.878 393.207 180.279 393.583 180.832C393.959 181.384 394.127 182.051 394.058 182.716C393.304 190.927 378.784 205.736 378.784 205.736C333.459 250.983 282.33 278.58 282.33 278.58C239.247 305.046 185.275 324.634 185.275 324.634C144.207 339.432 131.068 334.718 131.068 334.718H131.066Z" fill="white"/>
<path d="M399.681 337.645C409.607 320.523 355.557 270.668 279.009 226.288C202.461 181.907 132.25 159.84 122.332 176.991C112.414 194.142 166.456 243.968 243.048 288.348C319.64 332.728 389.763 354.797 399.681 337.645ZM128.91 183.607C127.443 180.13 130.539 179.293 130.539 179.293C144.242 176.705 163.491 182.602 163.491 182.602C215.858 194.527 309.236 253.019 309.236 253.019C381.13 303.327 392.156 325.486 393.809 331.777C393.977 332.422 393.911 333.106 393.624 333.707C393.337 334.309 392.847 334.79 392.24 335.065C384.743 338.498 364.664 333.384 364.664 333.384C302.778 316.79 253.285 286.388 253.285 286.388C208.816 262.403 164.843 225.497 164.843 225.497C131.43 197.365 128.92 183.645 128.92 183.645L128.91 183.607Z" fill="white"/>
<path d="M260.631 275.797C271.045 275.797 279.487 267.355 279.487 256.941C279.487 246.527 271.045 238.085 260.631 238.085C250.217 238.085 241.775 246.527 241.775 256.941C241.775 267.355 250.217 275.797 260.631 275.797Z" fill="white"/>
<path d="M337.939 195.846C343.979 195.846 348.876 190.781 348.876 184.532C348.876 178.284 343.979 173.219 337.939 173.219C331.899 173.219 327.002 178.284 327.002 184.532C327.002 190.781 331.899 195.846 337.939 195.846Z" fill="white"/>
<path d="M158.43 234.313C164.471 234.313 169.367 229.248 169.367 223C169.367 216.751 164.471 211.686 158.43 211.686C152.39 211.686 147.494 216.751 147.494 223C147.494 229.248 152.39 234.313 158.43 234.313Z" fill="white"/>
<path d="M238.379 373.093C244.419 373.093 249.316 368.028 249.316 361.78C249.316 355.532 244.419 350.466 238.379 350.466C232.339 350.466 227.442 355.532 227.442 361.78C227.442 368.028 232.339 373.093 238.379 373.093Z" fill="white"/>
</svg>
