<svg width="513" height="513" viewBox="0 0 513 513" fill="none" xmlns="http://www.w3.org/2000/svg">
<circle cx="256.933" cy="256.264" r="255.5" fill="black" stroke="white"/>
<path d="M258.882 136.617C244.124 136.617 232.157 190.145 232.157 256.176C232.157 322.206 244.124 375.734 258.882 375.734C273.64 375.734 285.607 322.206 285.607 256.176C285.607 190.145 273.64 136.617 258.882 136.617ZM260.727 368.987C259.039 371.238 257.352 369.549 257.352 369.549C250.555 361.674 247.157 347.044 247.157 347.044C235.269 308.786 238.098 226.642 238.098 226.642C243.685 161.428 253.848 146.023 257.307 142.603C257.66 142.254 258.125 142.04 258.62 142C259.115 141.96 259.608 142.096 260.013 142.384C265.031 145.94 269.24 160.81 269.24 160.81C281.668 206.946 280.543 250.268 280.543 250.268C281.668 287.964 274.315 330.161 274.315 330.161C268.655 362.23 260.727 368.987 260.727 368.987Z" fill="white"/>
<path d="M362.586 196.677C355.238 183.872 302.857 200.131 245.554 232.99C188.252 265.848 147.831 302.868 155.174 315.669C162.516 328.469 214.902 312.215 272.205 279.356C329.507 246.498 369.928 209.478 362.586 196.677ZM161.953 313.912C159.14 313.558 159.775 311.245 159.775 311.245C163.226 301.433 174.207 291.205 174.207 291.205C201.488 261.853 274.153 223.431 274.153 223.431C333.493 195.822 351.925 196.987 356.601 198.274C357.081 198.408 357.498 198.708 357.778 199.12C358.058 199.532 358.184 200.03 358.132 200.525C357.57 206.65 346.738 217.697 346.738 217.697C312.928 251.449 274.788 272.036 274.788 272.036C242.651 291.778 202.39 306.389 202.39 306.389C171.755 317.428 161.954 313.912 161.954 313.912H161.953Z" fill="white"/>
<path d="M362.327 316.095C369.731 303.323 329.412 266.133 272.311 233.028C215.21 199.922 162.835 183.461 155.437 196.255C148.039 209.048 188.352 246.216 245.486 279.322C302.62 312.427 354.928 328.889 362.327 316.095ZM160.344 201.19C159.25 198.597 161.559 197.972 161.559 197.972C171.781 196.042 186.14 200.441 186.14 200.441C225.203 209.336 294.859 252.968 294.859 252.968C348.488 290.496 356.713 307.025 357.946 311.718C358.072 312.199 358.023 312.709 357.809 313.158C357.595 313.607 357.229 313.965 356.776 314.171C351.184 316.731 336.206 312.916 336.206 312.916C290.042 300.538 253.122 277.859 253.122 277.859C219.95 259.968 187.148 232.438 187.148 232.438C162.224 211.452 160.352 201.218 160.352 201.218L160.344 201.19Z" fill="white"/>
<path d="M258.602 269.959C266.37 269.959 272.667 263.662 272.667 255.894C272.667 248.126 266.37 241.828 258.602 241.828C250.834 241.828 244.536 248.126 244.536 255.894C244.536 263.662 250.834 269.959 258.602 269.959Z" fill="white"/>
<path d="M316.27 210.32C320.776 210.32 324.428 206.541 324.428 201.88C324.428 197.219 320.776 193.441 316.27 193.441C311.764 193.441 308.112 197.219 308.112 201.88C308.112 206.541 311.764 210.32 316.27 210.32Z" fill="white"/>
<path d="M182.365 239.014C186.871 239.014 190.523 235.236 190.523 230.575C190.523 225.914 186.871 222.136 182.365 222.136C177.859 222.136 174.207 225.914 174.207 230.575C174.207 235.236 177.859 239.014 182.365 239.014Z" fill="white"/>
<path d="M242.003 342.538C246.509 342.538 250.161 338.759 250.161 334.099C250.161 329.438 246.509 325.659 242.003 325.659C237.497 325.659 233.845 329.438 233.845 334.099C233.845 338.759 237.497 342.538 242.003 342.538Z" fill="white"/>
</svg>
