<svg width="513" height="513" viewBox="0 0 513 513" fill="none" xmlns="http://www.w3.org/2000/svg">
<circle cx="256.933" cy="256.245" r="255.5" fill="black" stroke="white"/>
<path d="M255.738 184.162C257.639 180.919 262.291 180.876 264.271 184.082L288.795 223.807C289.805 225.443 289.797 227.513 288.775 229.135L236.407 312.234C235.504 313.667 233.938 314.541 232.248 314.555L187.897 314.915C184.016 314.946 181.576 310.704 183.544 307.346L255.738 184.162Z" fill="white"/>
<path d="M298.244 259.476C300.191 256.269 304.845 256.269 306.792 259.476L335.592 306.915C337.615 310.247 335.217 314.51 331.318 314.51H273.717C269.819 314.51 267.42 310.247 269.443 306.915L298.244 259.476Z" fill="white"/>
</svg>
