<svg width="513" height="513" viewBox="0 0 513 513" fill="none" xmlns="http://www.w3.org/2000/svg">
<circle cx="256.933" cy="256.245" r="256" fill="black"/>
<path d="M259.74 123.892C261.641 120.649 266.293 120.606 268.272 123.812L314.158 198.139C315.168 199.774 315.16 201.844 314.138 203.466L222.945 348.174C222.042 349.608 220.476 350.481 218.786 350.495L135.328 351.172C131.447 351.204 129.007 346.962 130.974 343.604L259.74 123.892Z" fill="white"/>
<path d="M332.053 251.966C334 248.759 338.654 248.759 340.601 251.966L395.77 342.839C397.793 346.171 395.394 350.434 391.496 350.434H281.157C277.259 350.434 274.86 346.171 276.883 342.839L332.053 251.966Z" fill="white"/>
</svg>
