<svg width="513" height="513" viewBox="0 0 513 513" fill="none" xmlns="http://www.w3.org/2000/svg">
<circle cx="256.678" cy="256.048" r="255.5" fill="black" stroke="white"/>
<g clip-path="url(#clip0_45_16422)">
<path d="M252.985 433.837C360.957 433.837 448.485 348.771 448.485 243.837C448.485 138.903 360.957 53.8369 252.985 53.8369C145.014 53.8369 57.4854 138.903 57.4854 243.837C57.4854 348.771 145.014 433.837 252.985 433.837Z" fill="black"/>
<path d="M264.692 234.946L329.756 172.519L305.073 148.837L252.351 199.422L199.629 148.837L174.947 172.519L240.01 234.946C243.418 238.216 247.885 239.851 252.351 239.851C256.818 239.851 261.285 238.217 264.692 234.946ZM358.881 301.636L306.159 251.05L358.881 200.464L334.199 176.782L269.136 239.21C262.319 245.749 262.319 256.352 269.136 262.892L334.199 325.319L358.881 301.636ZM252.262 302.766L304.983 353.351L329.665 329.668L264.603 267.241C257.786 260.702 246.735 260.702 239.92 267.241L174.857 329.668L199.539 353.351L252.262 302.766ZM235.477 262.978C238.751 259.838 240.589 255.579 240.589 251.137C240.589 246.696 238.751 242.437 235.477 239.297L170.414 176.869L145.732 200.551L198.454 251.137L145.732 301.724L170.414 325.406L235.477 262.978Z" fill="white"/>
</g>
<defs>
<clipPath id="clip0_45_16422">
<rect width="391" height="380" fill="white" transform="translate(57.4854 53.8369)"/>
</clipPath>
</defs>
</svg>
