<svg width="513" height="513" viewBox="0 0 513 513" fill="none" xmlns="http://www.w3.org/2000/svg">
<circle cx="256.521" cy="256.12" r="255.5" fill="black" stroke="white"/>
<path fill-rule="evenodd" clip-rule="evenodd" d="M167.197 185.695C167.197 185.695 146.579 169.216 145.161 209.917C143.743 241.458 143.781 302.702 158.383 331.637C164.553 342.521 172.793 339.187 188.123 328.341C201.46 318.492 249.711 274.035 270.139 254.527C290.566 235.02 331.995 179.065 340.618 217.084C344.029 233.065 348.245 246.632 345.026 282.083C344.029 293.005 339.354 301.284 318.045 286.49C301.948 276.142 286.657 265.028 286.657 265.028C286.657 265.028 283.706 259.739 276.73 268.324C271.25 275.184 268.491 276.871 277.267 282.083C286.082 287.295 330.654 318.032 347.747 322.822C361.85 326.923 369.899 326.846 370.32 299.137C370.243 277.139 368.979 214.171 360.969 187.343C354.913 170.634 346.022 163.045 326.821 181.825C307.62 200.604 247.067 259.318 213.954 285.915C191.994 302.395 182.604 317.265 174.326 289.786C168.501 268.976 160.951 204.206 184.789 216.547C199.697 223.675 207.132 223.637 201.307 228.121C195.481 232.567 178.733 247.935 178.733 247.935C178.733 247.935 173.559 252.113 175.974 261.157C178.388 267.481 178.388 270.624 191.381 258.398C204.373 246.172 213.954 236.936 213.954 236.936C213.954 236.936 216.024 233.678 222.194 239.695C228.364 245.712 229.361 247.399 229.361 247.399C229.361 247.399 231.009 251.883 237.601 244.103C244.231 236.323 248.485 231.57 235.953 224.289C223.459 216.93 167.197 185.695 167.197 185.695Z" fill="white"/>
</svg>
