<svg width="513" height="513" viewBox="0 0 513 513" fill="none" xmlns="http://www.w3.org/2000/svg">
<circle cx="256.521" cy="256.12" r="256" fill="black"/>
<path fill-rule="evenodd" clip-rule="evenodd" d="M130.57 156.762C130.57 156.762 101.8 133.738 99.8209 190.602C97.8423 234.668 97.8958 320.231 118.271 360.657C126.88 375.863 138.378 371.205 159.769 356.052C178.379 342.291 245.707 280.18 274.21 252.927C302.714 225.673 360.523 147.499 372.555 200.614C377.315 222.942 383.197 241.897 378.705 291.425C377.315 306.685 370.79 318.25 341.057 297.582C318.596 283.125 297.259 267.598 297.259 267.598C297.259 267.598 293.141 260.209 283.408 272.202C275.761 281.787 271.911 284.143 284.157 291.425C296.457 298.707 358.651 341.649 382.502 348.342C402.181 354.071 413.412 353.964 414 315.252C413.893 284.517 412.128 196.545 400.952 159.064C392.502 135.719 380.095 125.118 353.303 151.354C326.511 177.591 242.017 259.62 195.813 296.779C165.17 319.803 152.068 340.578 140.517 302.187C132.389 273.113 121.854 182.624 155.116 199.865C175.919 209.824 186.294 209.77 178.165 216.035C170.037 222.246 146.667 243.717 146.667 243.717C146.667 243.717 139.448 249.553 142.817 262.19C146.186 271.024 146.186 275.415 164.315 258.335C182.443 241.254 195.813 228.35 195.813 228.35C195.813 228.35 198.7 223.799 207.31 232.205C215.92 240.612 217.311 242.968 217.311 242.968C217.311 242.968 219.61 249.232 228.808 238.363C238.06 227.493 243.996 220.854 226.509 210.681C209.075 200.4 130.57 156.762 130.57 156.762Z" fill="white"/>
</svg>
