<svg width="513" height="513" viewBox="0 0 513 513" fill="none" xmlns="http://www.w3.org/2000/svg">
<circle cx="256.18" cy="256.411" r="255.5" fill="black" stroke="white"/>
<path d="M305.861 203.675C296.834 186.418 278.563 183.818 256.751 188.972L247.83 161.962L231.407 167.393L240.204 194.331C235.882 195.733 231.431 196.985 227.041 198.55L218.255 171.77L201.831 177.201L210.753 204.211C207.218 205.481 177.597 215.212 177.597 215.212L183.384 232.805C183.384 232.805 195.431 228.541 195.33 228.826C202.023 226.59 205.457 229.782 207.176 232.889L231.682 306.909C232.065 309.071 231.917 312.82 227.329 314.398C227.617 314.538 215.38 318.338 215.38 318.338L218.594 339.085C218.594 339.085 247.942 329.451 251.797 328.2L260.818 355.521L277.242 350.09L268.207 322.571C272.729 321.195 277.13 319.788 281.409 318.349L290.394 345.713L306.817 340.282L297.798 313C323.121 305.027 340.215 287.579 334.836 262.998C331.462 248.188 314.289 237.002 300.613 236.522C308.475 228.56 311.991 217.466 305.861 203.675ZM302.193 269.749C307.159 294.119 273.185 299.407 262.097 303.13L249.823 266.997C260.951 263.271 295.125 248.463 302.193 269.749ZM278.26 221.029C283.242 242.653 254.187 247.136 244.923 250.18L233.747 217.394C243.056 214.427 269.743 201.271 278.26 221.029Z" fill="white"/>
</svg>
