<svg width="513" height="513" viewBox="0 0 513 513" fill="none" xmlns="http://www.w3.org/2000/svg">
<circle cx="256.18" cy="256.411" r="255.5" fill="black" stroke="white"/>
<circle cx="256.181" cy="261.689" r="210.164" fill="black" stroke="white" stroke-width="4"/>
<path d="M302.148 203.998C294.29 186.178 276.232 182.368 254.126 186.059L247.022 158.516L230.274 162.842L237.259 190.306C232.853 191.417 228.329 192.369 223.844 193.639L216.859 166.334L200.111 170.66L207.215 198.203C203.603 199.235 173.401 206.974 173.401 206.974L178.005 224.913C178.005 224.913 190.308 221.461 190.189 221.738C197.015 219.952 200.23 223.366 201.738 226.58L221.264 302.067C221.503 304.249 221.106 307.98 216.422 309.25C216.7 309.409 204.238 312.385 204.238 312.385L206.064 333.301C206.064 333.301 235.989 325.641 239.918 324.649L247.101 352.51L263.849 348.184L256.666 320.124C261.27 319.053 265.754 317.942 270.12 316.791L277.264 344.691L294.012 340.365L286.829 312.544C312.626 306.273 330.843 290.001 327.112 265.117C324.731 250.115 308.34 237.812 294.727 236.423C303.101 229.001 307.347 218.166 302.148 203.998ZM294.092 269.681C297.425 294.327 263.175 297.344 251.864 300.32L242.021 263.45C253.372 260.474 288.456 247.972 294.092 269.681ZM273.454 219.476C276.986 241.384 247.697 243.924 238.251 246.345L229.281 212.888C238.767 210.546 266.27 199.196 273.454 219.476Z" fill="white"/>
</svg>
