<svg width="513" height="513" viewBox="0 0 513 513" fill="none" xmlns="http://www.w3.org/2000/svg">
<circle cx="256.9" cy="256.132" r="255.5" fill="black" stroke="white"/>
<circle cx="256.711" cy="261.411" r="210.164" fill="black" stroke="white" stroke-width="4"/>
<path d="M172.073 260.988L172.206 309.959L213.816 334.444V363.114L147.855 324.427V246.668L172.073 260.988ZM172.073 212.018V240.554L147.84 226.219V197.683L172.073 183.348L196.424 197.683L172.073 212.018ZM231.193 197.683L255.426 183.348L279.778 197.683L255.426 212.018L231.193 197.683Z" fill="white"/>
<path d="M189.583 299.809V271.139L213.816 285.474V314.01L189.583 299.809ZM231.193 344.713L255.426 359.048L279.778 344.713V373.249L255.426 387.584L231.193 373.249V344.713ZM314.532 197.683L338.765 183.348L363.116 197.683V226.219L338.765 240.554V212.018L314.532 197.683ZM338.765 309.959L338.898 260.988L363.131 246.653V324.412L297.17 363.099V334.429L338.765 309.959Z" fill="white"/>
<path d="M321.388 299.809L297.155 314.01V285.474L321.388 271.139V299.809Z" fill="white"/>
<path d="M321.388 222.168L321.521 250.838L279.793 275.323V324.412L255.56 338.614L231.327 324.412V275.323L189.598 250.838V222.168L213.935 207.833L255.411 232.437L297.14 207.833L321.492 222.168H321.388ZM189.583 173.213L255.426 134.393L321.388 173.213L297.155 187.548L255.426 162.944L213.816 187.548L189.583 173.213Z" fill="white"/>
</svg>
