<svg width="597" height="598" viewBox="0 0 597 598" fill="none" xmlns="http://www.w3.org/2000/svg">
<circle cx="297.9" cy="299.132" r="256" fill="black"/>
<path d="M179.419 298.405L179.607 367.418L238.15 401.925V442.329L145.346 387.809V278.224L179.419 298.405ZM179.419 229.392V269.608L145.325 249.405V209.189L179.419 188.987L213.68 209.189L179.419 229.392ZM262.598 209.189L296.692 188.987L330.953 209.189L296.692 229.392L262.598 209.189Z" fill="white"/>
<path d="M204.056 353.114V312.71L238.15 332.912V373.128L204.056 353.114ZM262.598 416.397L296.692 436.599L330.953 416.397V456.613L296.692 476.815L262.598 456.613V416.397ZM379.85 209.189L413.944 188.987L448.205 209.189V249.405L413.944 269.608V229.392L379.85 209.189ZM413.944 367.418L414.132 298.405L448.226 278.203V387.788L355.423 442.308V401.904L413.944 367.418Z" fill="white"/>
<path d="M389.496 353.114L355.401 373.128V332.912L389.496 312.709V353.114Z" fill="white"/>
<path d="M389.496 243.696L389.684 284.1L330.974 318.607V387.788L296.88 407.802L262.786 387.788V318.607L204.077 284.1V243.696L238.317 223.494L296.671 258.168L355.381 223.494L389.642 243.696H389.496ZM204.056 174.703L296.692 119.995L389.496 174.703L355.402 194.906L296.692 160.232L238.15 194.906L204.056 174.703Z" fill="white"/>
</svg>
