<svg width="513" height="513" viewBox="0 0 513 513" fill="none" xmlns="http://www.w3.org/2000/svg">
<circle cx="256.9" cy="256.132" r="255.5" fill="black" stroke="white"/>
<path d="M175.073 256.988L175.207 305.959L216.816 330.444V359.114L150.855 320.427V242.668L175.073 256.988ZM175.073 208.018V236.554L150.84 222.219V193.683L175.073 179.348L199.425 193.683L175.073 208.018ZM234.194 193.683L258.426 179.348L282.778 193.683L258.426 208.018L234.194 193.683Z" fill="white"/>
<path d="M192.584 295.809V267.139L216.817 281.474V310.01L192.584 295.809ZM234.194 340.713L258.427 355.048L282.778 340.713V369.249L258.427 383.584L234.194 369.249V340.713ZM317.532 193.683L341.765 179.348L366.117 193.683V222.219L341.765 236.554V208.018L317.532 193.683ZM341.765 305.959L341.899 256.988L366.132 242.653V320.412L300.17 359.099V330.429L341.765 305.959Z" fill="white"/>
<path d="M324.388 295.809L300.155 310.01V281.474L324.388 267.139V295.809Z" fill="white"/>
<path d="M324.388 218.168L324.522 246.838L282.793 271.323V320.412L258.56 334.614L234.327 320.412V271.323L192.599 246.838V218.168L216.935 203.833L258.412 228.437L300.14 203.833L324.492 218.168H324.388ZM192.584 169.213L258.427 130.393L324.388 169.213L300.155 183.548L258.427 158.944L216.817 183.548L192.584 169.213Z" fill="white"/>
</svg>
