<svg width="513" height="513" viewBox="0 0 513 513" fill="none" xmlns="http://www.w3.org/2000/svg">
<circle cx="256.074" cy="256.25" r="255.5" fill="black" stroke="white"/>
<path d="M319.686 222.506C317.782 202.202 300.686 195.397 279.083 193.457V165.281H262.366V192.705C257.977 192.705 253.482 192.79 249.021 192.887V165.281H232.305L232.293 193.433C228.673 193.505 225.112 193.578 221.645 193.578V193.493L198.587 193.481V211.796C198.587 211.796 210.938 211.554 210.725 211.784C217.504 211.784 219.705 215.811 220.344 219.292V251.386C220.817 251.386 221.42 251.41 222.107 251.507H220.344L220.332 296.47C220.036 298.653 218.782 302.134 214.05 302.146C214.263 302.34 201.9 302.146 201.9 302.146L198.575 322.62H220.344C224.39 322.62 228.377 322.693 232.281 322.717L232.293 351.209H248.998V323.021C253.576 323.118 258.013 323.154 262.355 323.154L262.343 351.209H279.06V322.778C307.169 321.128 326.868 313.863 329.305 286.791C331.28 264.995 321.283 255.255 305.324 251.325C315.037 246.279 321.106 237.364 319.686 222.506ZM296.285 283.419C296.285 304.706 260.734 302.292 249.388 302.292V264.534C260.734 264.558 296.285 261.222 296.285 283.419ZM288.501 230.16C288.501 249.53 258.829 247.262 249.388 247.274V213.045C258.841 213.045 288.512 209.965 288.501 230.16Z" fill="white"/>
</svg>
