<svg width="513" height="513" viewBox="0 0 513 513" fill="none" xmlns="http://www.w3.org/2000/svg">
<circle cx="256.074" cy="256.25" r="255.5" fill="black" stroke="white"/>
<g clip-path="url(#clip0_75_20)">
<circle cx="217.502" cy="256.237" r="7.89697" fill="white"/>
<path d="M435 264.5C435 363.061 355.076 442.971 256.457 442.986C157.909 442.986 77.9857 363.061 78 264.486C77.9714 165.911 157.895 86 256.486 86C355.076 86 435 165.925 435 264.5Z" fill="white"/>
<path d="M309.183 231.628C307.355 212.618 290.943 206.247 270.203 204.43V178.05H254.155V203.726C249.941 203.726 245.625 203.805 241.343 203.896V178.05H225.294L225.283 204.407C221.807 204.475 218.389 204.543 215.061 204.543V204.464L192.924 204.453V221.6C192.924 221.6 204.782 221.373 204.578 221.589C211.086 221.589 213.198 225.359 213.812 228.618V258.666C214.266 258.666 214.845 258.689 215.504 258.78H213.812L213.8 300.877C213.516 302.921 212.312 306.18 207.769 306.191C207.974 306.373 196.105 306.191 196.105 306.191L192.913 325.36H213.812C217.696 325.36 221.523 325.428 225.272 325.451L225.283 352.126H241.32V325.735C245.716 325.826 249.975 325.86 254.143 325.86L254.132 352.126H270.18V325.508C297.167 323.963 316.077 317.161 318.417 291.814C320.314 271.408 310.717 262.289 295.395 258.609C304.72 253.885 310.546 245.539 309.183 231.628ZM286.717 288.657C286.717 308.587 252.587 306.327 241.695 306.327V270.976C252.587 270.999 286.717 267.876 286.717 288.657ZM279.244 238.793C279.244 256.929 250.759 254.805 241.695 254.816V222.77C250.77 222.77 279.255 219.885 279.244 238.793Z" fill="black"/>
</g>
<defs>
<clipPath id="clip0_75_20">
<rect width="357" height="357" fill="white" transform="translate(78 86)"/>
</clipPath>
</defs>
</svg>
