<svg width="513" height="513" viewBox="0 0 513 513" fill="none" xmlns="http://www.w3.org/2000/svg">
<circle cx="256.074" cy="256.25" r="256" fill="black"/>
<path d="M348.068 205.005C344.906 171.296 316.524 160 280.659 156.778V110H252.906V155.529C245.619 155.529 238.155 155.67 230.751 155.831V110H202.997L202.978 156.737C196.967 156.858 191.055 156.979 185.301 156.979V156.838L147.02 156.818V187.225C147.02 187.225 167.525 186.822 167.172 187.204C178.426 187.204 182.079 193.89 183.14 199.669V252.951C183.926 252.951 184.927 252.991 186.067 253.152H183.14L183.12 327.799C182.629 331.424 180.547 337.203 172.691 337.223C173.044 337.546 152.519 337.223 152.519 337.223L147 371.214H183.14C189.857 371.214 196.476 371.335 202.958 371.375L202.978 418.677H230.711V371.879C238.312 372.04 245.678 372.1 252.886 372.1L252.867 418.677H280.62V371.476C327.288 368.738 359.99 356.676 364.036 311.73C367.317 275.544 350.72 259.375 324.224 252.85C340.349 244.473 350.425 229.673 348.068 205.005ZM309.218 306.132C309.218 341.472 250.195 337.465 231.359 337.465V274.779C250.195 274.82 309.218 269.282 309.218 306.132ZM296.294 217.712C296.294 249.87 247.033 246.105 231.359 246.125V189.299C247.053 189.299 296.313 184.184 296.294 217.712Z" fill="white"/>
</svg>
