<svg width="513" height="513" viewBox="0 0 513 513" fill="none" xmlns="http://www.w3.org/2000/svg">
<circle cx="256.9" cy="256.222" r="256" fill="black"/>
<path d="M373.287 236.046C378.132 204.552 356.578 183.403 322.839 169.038L337.283 124.796L310.375 116.022L295.837 160.05C288.783 157.705 281.704 155.037 274.401 152.842L288.799 109.032L261.891 100.259L247.448 144.501C241.558 142.745 193.089 126.838 193.089 126.838L183.651 155.632C183.651 155.632 203.659 161.698 203.251 161.977C214.238 165.521 215.668 173.059 214.918 178.82L175.413 300.122C173.821 303.342 169.99 308.138 162.413 305.768C162.656 306.232 142.848 299.369 142.848 299.369L126.958 329.824C126.958 329.824 174.973 345.596 181.266 347.686L166.653 392.436L193.561 401.21L208.348 356.186C215.641 358.76 222.805 361.175 229.84 363.429L215.137 408.199L242.045 416.973L256.623 372.278C297.723 386.333 337.17 379.923 353.926 342.317C363.845 319.53 352.066 288.134 334.512 274.237C352.594 271.371 367.988 260.164 373.287 236.046ZM304.365 319.55C287.271 356.478 237.376 330.494 219.155 324.644L238.03 265.128C256.305 271.012 315.699 284.647 304.365 319.55ZM320.087 232.14C305.677 265.466 263.043 243.191 247.884 238.216L264.959 184.176C280.103 189.295 328.028 197.846 320.087 232.14Z" fill="white"/>
</svg>
