<svg width="513" height="513" viewBox="0 0 513 513" fill="none" xmlns="http://www.w3.org/2000/svg">
<circle cx="256.9" cy="256.222" r="255.5" fill="black" stroke="white"/>
<path d="M329.474 242.742C332.435 223.493 319.262 210.568 298.641 201.788L307.468 174.747L291.023 169.385L282.137 196.294C277.826 194.861 273.5 193.23 269.036 191.889L277.836 165.113L261.39 159.751L252.562 186.791C248.963 185.718 219.339 175.996 219.339 175.996L213.57 193.594C213.57 193.594 225.799 197.302 225.55 197.472C232.265 199.639 233.139 204.245 232.681 207.766L208.536 281.904C207.562 283.873 205.221 286.804 200.59 285.356C200.739 285.639 188.632 281.445 188.632 281.445L178.92 300.058C178.92 300.058 208.267 309.698 212.113 310.975L203.182 338.326L219.627 343.689L228.665 316.171C233.123 317.744 237.501 319.219 241.8 320.597L232.814 347.96L249.26 353.323L258.17 326.006C283.29 334.596 307.4 330.678 317.64 307.694C323.703 293.766 316.504 274.578 305.775 266.084C316.827 264.332 326.235 257.483 329.474 242.742ZM287.349 293.779C276.902 316.349 246.407 300.468 235.27 296.892L246.806 260.517C257.976 264.113 294.276 272.447 287.349 293.779ZM296.958 240.355C288.151 260.723 262.094 247.109 252.829 244.069L263.265 211.04C272.521 214.168 301.812 219.395 296.958 240.355Z" fill="white"/>
</svg>
