<svg width="513" height="513" viewBox="0 0 513 513" fill="none" xmlns="http://www.w3.org/2000/svg">
<circle cx="256.9" cy="256.222" r="255.5" fill="black" stroke="white"/>
<path d="M332.474 241.742C335.435 222.493 322.262 209.568 301.641 200.788L310.468 173.747L294.023 168.385L285.137 195.294C280.826 193.861 276.5 192.23 272.036 190.889L280.836 164.113L264.39 158.751L255.562 185.791C251.963 184.718 222.339 174.996 222.339 174.996L216.57 192.594C216.57 192.594 228.799 196.302 228.55 196.472C235.265 198.639 236.139 203.245 235.681 206.766L211.536 280.904C210.562 282.873 208.221 285.804 203.59 284.356C203.739 284.639 191.632 280.445 191.632 280.445L181.92 299.058C181.92 299.058 211.267 308.698 215.113 309.975L206.182 337.326L222.627 342.689L231.665 315.171C236.123 316.744 240.501 318.219 244.8 319.597L235.814 346.96L252.26 352.323L261.17 325.006C286.29 333.596 310.4 329.678 320.64 306.694C326.703 292.767 319.504 273.578 308.775 265.084C319.827 263.332 329.235 256.483 332.474 241.742ZM290.349 292.779C279.902 315.349 249.407 299.468 238.27 295.892L249.806 259.517C260.976 263.113 297.276 271.447 290.349 292.779ZM299.958 239.355C291.151 259.723 265.094 246.109 255.829 243.069L266.265 210.04C275.521 213.168 304.812 218.395 299.958 239.355Z" fill="white"/>
</svg>
