<svg width="513" height="513" viewBox="0 0 513 513" fill="none" xmlns="http://www.w3.org/2000/svg">
<circle cx="256.933" cy="256.155" r="255.5" fill="black" stroke="white"/>
<circle cx="256.933" cy="261.434" r="210.164" fill="black" stroke="white" stroke-width="4"/>
<g clip-path="url(#clip0_40_168)">
<path fill-rule="evenodd" clip-rule="evenodd" d="M195.905 199.75C193.019 184.8 204.565 171 219.574 171C232.852 171 243.82 181.925 243.82 195.15V225.05C247.284 225.05 250.748 224.475 254.211 224.475C257.675 224.475 260.562 224.475 264.025 225.05V195.15C264.025 181.925 274.994 171 288.271 171C303.281 171 314.826 184.8 312.517 199.75L306.167 234.825C328.681 244.6 346 261.85 346 283.125V296.35C346 314.175 334.454 329.125 317.713 338.9C300.972 349.25 279.035 355 254.211 355C229.388 355 207.451 349.25 190.71 338.9C174.546 329.125 163 314.175 163 296.35V283.125C163 261.85 179.741 244.6 202.256 234.825L195.905 199.75ZM297.508 239.425L305.013 198.025C306.744 187.675 299.24 177.9 288.271 177.9C279.035 177.9 271.53 185.375 271.53 194.575V232.525C269.221 231.95 266.334 231.95 264.025 231.95C260.562 231.95 257.675 231.375 254.211 231.375C250.748 231.375 247.284 231.375 243.82 231.95C241.511 231.95 238.625 232.525 236.315 232.525V195.15C236.315 185.95 228.811 178.475 219.574 178.475C209.183 178.475 201.101 188.25 203.41 198.6L210.915 240C186.669 249.2 170.505 265.3 170.505 283.7V296.925C170.505 325.1 208.028 348.1 254.211 348.1C300.394 348.1 337.918 325.1 337.918 296.925V283.7C338.495 264.725 322.331 248.625 297.508 239.425Z" fill="white"/>
<path d="M338.495 296.35C338.495 324.525 300.972 347.525 254.789 347.525C208.606 347.525 171.082 324.525 171.082 296.35V283.125H339.073V296.35H338.495Z" fill="url(#paint0_linear_40_168)"/>
<path fill-rule="evenodd" clip-rule="evenodd" d="M203.41 198.6C201.101 188.25 209.183 178.475 219.574 178.475C228.811 178.475 236.315 185.95 236.315 195.15V233.1C242.088 232.525 247.861 231.95 254.211 231.95C259.984 231.95 265.757 232.525 271.53 233.1V195.15C271.53 185.95 279.035 178.475 288.271 178.475C298.662 178.475 306.744 188.25 305.013 198.6L297.508 240C321.754 249.2 338.495 265.3 338.495 283.7C338.495 311.875 300.972 334.875 254.789 334.875C208.606 334.875 171.082 311.875 171.082 283.7C171.082 265.3 187.246 249.2 211.492 240L203.41 198.6Z" fill="black"/>
<path d="M231.12 279.675C231.12 287.15 227.079 293.475 221.883 293.475C216.688 293.475 212.647 287.15 212.647 279.675C212.647 272.2 216.688 265.875 221.883 265.875C227.079 265.875 231.12 272.2 231.12 279.675Z" fill="white"/>
<path d="M295.199 279.675C295.199 287.15 291.158 293.475 285.962 293.475C280.767 293.475 276.726 287.15 276.726 279.675C276.726 272.2 280.767 265.875 285.962 265.875C291.158 265.875 295.199 272.2 295.199 279.675Z" fill="white"/>
</g>
<defs>
<linearGradient id="paint0_linear_40_168" x1="255.077" y1="283.125" x2="255.077" y2="347.525" gradientUnits="userSpaceOnUse">
<stop stop-color="white"/>
<stop offset="1" stop-color="#515151"/>
</linearGradient>
<clipPath id="clip0_40_168">
<rect width="183" height="184" fill="white" transform="translate(163 171)"/>
</clipPath>
</defs>
</svg>
