<svg width="513" height="513" viewBox="0 0 513 513" fill="none" xmlns="http://www.w3.org/2000/svg">
<circle cx="256.933" cy="256.155" r="255.5" fill="black" stroke="white"/>
<g clip-path="url(#clip0_40_168)">
<path fill-rule="evenodd" clip-rule="evenodd" d="M201.136 194.48C198.249 179.53 209.795 165.73 224.805 165.73C238.082 165.73 249.051 176.655 249.051 189.88V219.78C252.514 219.78 255.978 219.205 259.442 219.205C262.906 219.205 265.792 219.205 269.256 219.78V189.88C269.256 176.655 280.224 165.73 293.502 165.73C308.511 165.73 320.057 179.53 317.748 194.48L311.398 229.555C333.912 239.33 351.23 256.58 351.23 277.855V291.08C351.23 308.905 339.685 323.855 322.943 333.63C306.202 343.98 284.265 349.73 259.442 349.73C234.618 349.73 212.682 343.98 195.94 333.63C179.776 323.855 168.23 308.905 168.23 291.08V277.855C168.23 256.58 184.972 239.33 207.486 229.555L201.136 194.48ZM302.738 234.155L310.243 192.755C311.975 182.405 304.47 172.63 293.502 172.63C284.265 172.63 276.76 180.105 276.76 189.305V227.255C274.451 226.68 271.565 226.68 269.256 226.68C265.792 226.68 262.906 226.105 259.442 226.105C255.978 226.105 252.514 226.105 249.051 226.68C246.742 226.68 243.855 227.255 241.546 227.255V189.88C241.546 180.68 234.041 173.205 224.805 173.205C214.413 173.205 206.331 182.98 208.641 193.33L216.145 234.73C191.899 243.93 175.735 260.03 175.735 278.43V291.655C175.735 319.83 213.259 342.83 259.442 342.83C305.625 342.83 343.148 319.83 343.148 291.655V278.43C343.726 259.455 327.562 243.355 302.738 234.155Z" fill="white"/>
<path d="M343.726 291.08C343.726 319.255 306.202 342.255 260.019 342.255C213.836 342.255 176.312 319.255 176.312 291.08V277.855H344.303V291.08H343.726Z" fill="url(#paint0_linear_40_168)"/>
<path fill-rule="evenodd" clip-rule="evenodd" d="M208.641 193.33C206.331 182.98 214.413 173.205 224.805 173.205C234.041 173.205 241.546 180.68 241.546 189.88V227.83C247.319 227.255 253.092 226.68 259.442 226.68C265.215 226.68 270.988 227.255 276.76 227.83V189.88C276.76 180.68 284.265 173.205 293.502 173.205C303.893 173.205 311.975 182.98 310.243 193.33L302.738 234.73C326.984 243.93 343.726 260.03 343.726 278.43C343.726 306.605 306.202 329.605 260.019 329.605C213.836 329.605 176.312 306.605 176.312 278.43C176.312 260.03 192.477 243.93 216.723 234.73L208.641 193.33Z" fill="black"/>
<path d="M236.35 274.405C236.35 281.88 232.309 288.205 227.114 288.205C221.918 288.205 217.877 281.88 217.877 274.405C217.877 266.93 221.918 260.605 227.114 260.605C232.309 260.605 236.35 266.93 236.35 274.405Z" fill="white"/>
<path d="M300.429 274.405C300.429 281.88 296.388 288.205 291.193 288.205C285.997 288.205 281.956 281.88 281.956 274.405C281.956 266.93 285.997 260.605 291.193 260.605C296.388 260.605 300.429 266.93 300.429 274.405Z" fill="white"/>
</g>
<defs>
<linearGradient id="paint0_linear_40_168" x1="260.308" y1="277.855" x2="260.308" y2="342.255" gradientUnits="userSpaceOnUse">
<stop stop-color="white"/>
<stop offset="1" stop-color="#515151"/>
</linearGradient>
<clipPath id="clip0_40_168">
<rect width="183" height="184" fill="white" transform="translate(168.23 165.73)"/>
</clipPath>
</defs>
</svg>
