<svg width="512" height="513" viewBox="0 0 512 513" fill="none" xmlns="http://www.w3.org/2000/svg">
<circle cx="256.004" cy="256.38" r="255.5" fill="black" stroke="white"/>
<circle cx="256.004" cy="261.659" r="210.164" fill="black" stroke="white" stroke-width="4"/>
<g clip-path="url(#clip0_40_428)">
<path d="M250 452C353.83 452 438 367.83 438 264C438 160.17 353.83 76 250 76C146.17 76 62 160.17 62 264C62 367.83 146.17 452 250 452Z" fill="black"/>
<path fill-rule="evenodd" clip-rule="evenodd" d="M149.207 320.808C141.457 304.492 137.378 286.545 137.378 267.373C137.378 197.215 194.075 140.517 264.234 140.517C303.392 140.517 338.063 158.057 361.313 185.794L375.182 173.965C348.668 142.149 308.694 122.162 264.234 122.162C183.878 122.162 119.022 187.018 119.022 266.966C119.022 288.992 123.917 309.795 132.483 328.15L149.207 320.808Z" fill="white"/>
<path fill-rule="evenodd" clip-rule="evenodd" d="M264.234 353.032C216.918 353.032 178.167 314.689 178.167 266.966C178.167 219.65 216.51 180.899 264.234 180.899C290.747 180.899 314.405 192.728 330.313 211.492L344.181 199.663C325.01 176.82 296.457 162.544 264.234 162.544C206.72 162.952 159.812 209.452 159.812 266.966C159.812 324.479 206.312 370.979 263.826 370.979V353.032H264.234Z" fill="white"/>
<path fill-rule="evenodd" clip-rule="evenodd" d="M295.234 293.071C287.892 302.045 276.471 307.755 263.826 307.755C241.391 307.755 223.036 289.4 223.036 266.966C223.036 244.531 241.391 226.176 263.826 226.176C276.471 226.176 287.484 231.887 295.234 240.86L310.734 227.808C299.313 214.347 282.589 205.781 263.826 205.781C229.97 205.781 202.641 233.11 202.641 266.966C202.641 300.821 229.97 328.15 263.826 328.15C280.957 328.15 296.458 321.216 307.879 309.387L295.234 293.071Z" fill="white"/>
</g>
<defs>
<clipPath id="clip0_40_428">
<rect width="376" height="376" fill="white" transform="translate(62 76)"/>
</clipPath>
</defs>
</svg>
