<svg width="513" height="512" viewBox="0 0 513 512" fill="none" xmlns="http://www.w3.org/2000/svg">
<path d="M512.183 255.995C512.183 397.38 397.568 511.995 256.183 511.995C114.798 511.995 0.182617 397.38 0.182617 255.995C0.182617 114.61 114.798 -0.00488281 256.183 -0.00488281C397.568 -0.00488281 512.183 114.61 512.183 255.995Z" fill="black"/>
<path fill-rule="evenodd" clip-rule="evenodd" d="M136.154 333.452C127.994 328.458 123 319.589 123 310.037V256.712C123 250.381 128.158 245.25 134.489 245.278C136.509 245.278 138.501 245.823 140.247 246.833L260.57 316.996C267.611 321.09 271.95 328.622 271.95 336.782V392.017C271.977 399.603 265.837 405.771 258.25 405.771C255.712 405.771 253.201 405.061 251.045 403.752L136.154 333.452ZM315.505 232.233C322.546 236.326 326.857 243.886 326.885 252.018V364.126C326.885 367.428 325.111 370.485 322.218 372.095L295.883 386.913C295.556 387.105 295.201 387.241 294.819 387.35V325.101C294.819 317.051 290.589 309.573 283.657 305.425L177.99 242.221V171.949C177.99 165.618 183.147 160.487 189.479 160.514C191.498 160.514 193.49 161.06 195.237 162.07L315.505 232.233ZM368.175 149.435C375.243 153.528 379.582 161.087 379.582 169.247V332.988C379.555 336.345 377.699 339.429 374.752 341.039L349.781 354.52V240.529C349.781 232.479 345.551 225.028 338.674 220.88L230.66 156.093V89.4508C230.66 87.4314 231.205 85.4392 232.188 83.6926C235.381 78.2346 242.394 76.3789 247.852 79.5445L368.175 149.435Z" fill="white"/>
</svg>
