<svg width="513" height="512" viewBox="0 0 513 512" fill="none" xmlns="http://www.w3.org/2000/svg">
<path d="M512.183 255.995C512.183 397.38 397.568 511.995 256.183 511.995C114.798 511.995 0.182617 397.38 0.182617 255.995C0.182617 114.61 114.798 -0.00488281 256.183 -0.00488281C397.568 -0.00488281 512.183 114.61 512.183 255.995Z" fill="black"/>
<path d="M510.183 255.995C510.183 396.275 396.463 509.995 256.183 509.995C115.902 509.995 2.18262 396.275 2.18262 255.995C2.18262 115.715 115.902 1.99512 256.183 1.99512C396.463 1.99512 510.183 115.715 510.183 255.995Z" stroke="white" stroke-width="4"/>
<path fill-rule="evenodd" clip-rule="evenodd" d="M171.313 317.855C165.795 314.478 162.418 308.481 162.418 302.022V265.964C162.418 261.683 165.906 258.214 170.187 258.232C171.552 258.232 172.899 258.602 174.081 259.284L255.442 306.728C260.202 309.496 263.137 314.589 263.137 320.107V357.456C263.155 362.586 259.003 366.757 253.873 366.757C252.157 366.757 250.459 366.277 249.001 365.391L171.313 317.855ZM292.588 249.412C297.349 252.18 300.265 257.291 300.283 262.79V338.597C300.283 340.83 299.084 342.897 297.128 343.985L279.32 354.006C279.099 354.135 278.859 354.227 278.601 354.301V312.209C278.601 306.765 275.74 301.709 271.053 298.904L199.602 256.166V208.648C199.602 204.367 203.089 200.898 207.37 200.916C208.736 200.916 210.083 201.285 211.264 201.968L292.588 249.412ZM328.203 193.424C332.983 196.192 335.917 201.304 335.917 206.821V317.542C335.898 319.811 334.643 321.897 332.651 322.985L315.766 332.101V255.022C315.766 249.578 312.905 244.54 308.255 241.735L235.217 197.927V152.864C235.217 151.498 235.586 150.151 236.25 148.97C238.409 145.279 243.152 144.024 246.842 146.165L328.203 193.424Z" fill="white"/>
</svg>
