<svg width="513" height="513" viewBox="0 0 513 513" fill="none" xmlns="http://www.w3.org/2000/svg">
<circle cx="256.184" cy="256.09" r="255.5" fill="black" stroke="white"/>
<circle cx="255.714" cy="256.369" r="210.164" fill="black" stroke="white" stroke-width="4"/>
<path fill-rule="evenodd" clip-rule="evenodd" d="M264.066 169.39L192.72 210.603V293.086L264.066 334.299L335.411 293.086V210.603L264.066 169.39ZM267.062 148.586C265.196 147.512 262.935 147.512 261.07 148.586L176.269 197.6C174.404 198.675 173.273 200.653 173.273 202.802V300.831C173.273 302.979 174.404 304.958 176.269 306.032L261.07 355.046C262.935 356.12 265.196 356.12 267.062 355.046L351.862 306.032C353.728 304.958 354.859 302.979 354.859 300.831V202.802C354.859 200.653 353.728 198.675 351.862 197.6L267.062 148.586Z" fill="white"/>
<path d="M264.066 199.24L218.556 225.528V278.104L263.783 304.223C263.953 304.336 264.066 304.505 264.066 304.732V313.72C264.066 314.173 263.557 314.455 263.161 314.229L211.829 284.606C210.415 283.814 209.567 282.344 209.567 280.705V222.927C209.567 221.345 210.415 219.818 211.829 219.027L261.804 190.138C263.218 189.347 264.914 189.347 266.271 190.138L317.829 219.818C318.225 220.044 318.225 220.61 317.829 220.836C314.776 222.645 313.25 223.436 309.801 225.358C309.632 225.471 309.406 225.471 309.236 225.358L264.066 199.24Z" fill="white"/>
<path d="M271.585 252.947C271.585 252.721 271.698 252.495 271.924 252.438L317.151 228.355C317.547 228.129 318.056 228.412 318.056 228.864V287.489C318.056 287.715 317.942 287.885 317.773 287.998L272.546 314.286C272.15 314.512 271.641 314.229 271.641 313.777V252.947H271.585Z" fill="white"/>
</svg>
