<svg width="513" height="513" viewBox="0 0 513 513" fill="none" xmlns="http://www.w3.org/2000/svg">
<circle cx="256.184" cy="256.09" r="255.5" fill="black" stroke="white"/>
<path fill-rule="evenodd" clip-rule="evenodd" d="M260.517 161.523L182.498 206.591V296.789L260.517 341.857L338.536 296.789V206.591L260.517 161.523ZM263.794 138.773C261.754 137.598 259.281 137.598 257.241 138.773L164.508 192.372C162.468 193.547 161.231 195.71 161.231 198.06V305.259C161.231 307.608 162.468 309.772 164.508 310.946L257.241 364.546C259.281 365.72 261.754 365.72 263.794 364.546L356.527 310.946C358.567 309.772 359.803 307.608 359.803 305.259V198.06C359.803 195.71 358.567 193.547 356.527 192.372L263.794 138.773Z" fill="white"/>
<path d="M260.517 194.165L210.751 222.912V280.406L260.208 308.968C260.393 309.092 260.517 309.277 260.517 309.524V319.354C260.517 319.849 259.961 320.158 259.528 319.91L203.394 287.516C201.848 286.65 200.921 285.043 200.921 283.25V220.068C200.921 218.337 201.848 216.668 203.394 215.803L258.044 184.212C259.59 183.346 261.444 183.346 262.928 184.212L319.31 216.668C319.742 216.915 319.742 217.534 319.31 217.781C315.971 219.759 314.302 220.625 310.531 222.727C310.345 222.85 310.098 222.85 309.913 222.727L260.517 194.165Z" fill="white"/>
<path d="M268.74 252.896C268.74 252.649 268.864 252.401 269.111 252.34L318.569 226.004C319.001 225.756 319.558 226.065 319.558 226.56V290.669C319.558 290.916 319.434 291.102 319.249 291.226L269.791 319.973C269.358 320.22 268.802 319.911 268.802 319.416V252.896H268.74Z" fill="white"/>
</svg>
