<svg width="513" height="513" viewBox="0 0 513 513" fill="none" xmlns="http://www.w3.org/2000/svg">
<circle cx="256.764" cy="256.979" r="255.5" fill="black" stroke="white"/>
<g clip-path="url(#clip0_40_433)">
<path d="M254.095 129L140 195V327L254.095 393L368 327V195L254.095 129ZM334.208 307.409L253.905 353.818L173.792 307.409V214.591L254.095 168.182L334.208 214.591V307.409Z" fill="white"/>
<path d="M254.095 393L368 327V195L254.095 129V168.182L334.208 214.591V307.599L253.905 354.009V393H254.095Z" fill="url(#paint0_linear_40_433)"/>
<path d="M253.905 129L140 195V327L253.905 393V353.818L173.792 307.409V214.401L253.905 168.182V129Z" fill="white"/>
<path d="M307.251 291.813L254.095 322.625L200.749 291.813V230.187L254.095 199.375L307.251 230.187L285.039 243.121L253.905 225.052L222.961 243.121V279.069L254.095 297.138L285.229 279.069L307.251 291.813Z" fill="white"/>
</g>
<defs>
<linearGradient id="paint0_linear_40_433" x1="311.079" y1="393.006" x2="311.079" y2="261.003" gradientUnits="userSpaceOnUse">
<stop stop-color="white"/>
<stop offset="1" stop-color="white" stop-opacity="0"/>
</linearGradient>
<clipPath id="clip0_40_433">
<rect width="228" height="264" fill="white" transform="translate(140 129)"/>
</clipPath>
</defs>
</svg>
