<svg width="513" height="513" viewBox="0 0 513 513" fill="none" xmlns="http://www.w3.org/2000/svg">
<circle cx="256.942" cy="256.594" r="255.5" fill="black" stroke="white"/>
<g clip-path="url(#clip0_40_179)">
<path d="M340.176 324.842C334.562 324.842 329.799 328.755 328.608 334.198L283.95 332.072C284.12 331.221 284.205 330.371 284.205 329.52C284.205 327.989 283.95 326.458 283.525 324.927L299.772 315.571C303.77 320.504 311 321.525 316.189 317.783C321.378 314.04 322.739 306.896 319.251 301.538C315.763 296.179 308.703 294.478 303.174 297.625C297.645 300.772 295.519 307.747 298.411 313.445L282.674 322.546C278.932 314.636 269.66 311.064 261.579 314.381C253.498 317.698 249.415 326.798 252.307 335.048L223.046 342.108C222.875 338.11 221.174 334.368 218.367 331.476L223.641 324.162C229.595 326.203 236.145 323.226 238.527 317.358C240.909 311.489 238.272 304.77 232.573 302.133C226.873 299.411 219.983 301.708 217.006 307.236C214.029 312.765 215.9 319.739 221.259 323.056L216.411 329.775C213.008 327.224 208.67 326.118 204.417 326.628L199.398 297.966C205.693 296.605 210.541 291.672 211.902 285.463C213.263 279.169 210.882 272.705 205.778 268.878C200.674 264.965 193.784 264.455 188.17 267.432L175.496 242.681C178.218 241.321 180.429 239.194 182.046 236.643L192.593 239.449C192.508 240.045 192.423 240.555 192.423 241.151C192.423 247.274 197.102 252.462 203.226 253.058C209.351 253.653 214.965 249.486 216.07 243.362C217.176 237.238 213.519 231.369 207.564 229.753C201.61 228.052 195.4 231.199 193.189 236.983L183.236 234.346C184.597 231.114 184.853 227.542 184.002 224.14L213.349 210.617C218.792 217.421 228.66 218.867 235.805 213.764C242.95 208.66 244.822 198.879 240.058 191.565L258.772 173.279C261.068 174.725 263.705 175.66 266.342 175.83V183.91C260.133 184.591 255.454 190.034 255.795 196.328C256.135 202.622 261.324 207.555 267.618 207.555C273.913 207.555 279.102 202.622 279.442 196.328C279.782 190.034 275.189 184.591 268.894 183.91V175.83C271.276 175.66 273.488 174.98 275.529 173.874L296.029 197.263C291.266 203.557 291.606 212.318 296.795 218.186C302.068 224.055 310.745 225.416 317.55 221.333C324.355 217.251 327.247 209.001 324.61 201.601L330.99 198.029C335.073 202.792 342.133 203.642 347.151 199.815C352.17 196.073 353.361 189.013 349.873 183.825C346.386 178.637 339.411 177.021 334.052 180.253C328.693 183.485 326.736 190.289 329.629 195.903L323.589 199.305C321.122 194.797 316.699 191.735 311.68 190.97C306.662 190.204 301.473 191.82 297.815 195.392L277.741 172.513C279.697 170.982 281.313 168.941 282.419 166.73L300.027 169.621C301.388 175.745 307.342 179.743 313.467 178.637C319.676 177.616 323.929 171.918 323.249 165.709C322.568 159.5 317.124 154.822 310.915 155.162C304.62 155.503 299.772 160.606 299.687 166.9L283.355 164.178C285.651 156.353 281.909 148.018 274.508 144.531C267.108 141.044 258.346 143.595 253.838 150.4C249.33 157.204 250.521 166.304 256.645 171.748L238.442 189.524C235.635 186.292 231.637 184.25 227.384 183.91V171.493C233.593 170.812 238.272 165.369 237.931 159.075C237.591 152.781 232.488 147.933 226.193 147.933C219.898 147.933 214.71 152.866 214.369 159.16C214.029 165.454 218.622 170.897 224.917 171.578V183.91C219.303 184.335 214.284 187.653 211.647 192.586C209.01 197.604 209.095 203.557 211.902 208.49L183.322 221.588C182.301 219.122 180.685 216.996 178.643 215.295L189.786 195.222C190.807 195.477 191.743 195.647 192.763 195.647C198.803 195.647 203.822 191.14 204.587 185.186C205.353 179.232 201.44 173.704 195.656 172.258C189.786 170.812 183.832 173.959 181.705 179.573C179.579 185.186 182.046 191.48 187.319 194.287L176.517 213.849C169.967 209.936 161.716 211.042 156.357 216.485C151.083 221.929 150.147 230.179 154.145 236.643C158.143 243.107 165.969 245.999 173.199 243.702L186.044 268.793C182.811 271.174 180.514 274.746 179.749 278.659L170.392 275.937C170.647 275.001 170.732 273.981 170.732 273.045C170.732 267.006 166.224 261.988 160.27 261.308C154.315 260.628 148.786 264.455 147.34 270.324C145.894 276.192 149.127 282.146 154.826 284.187C160.44 286.228 166.734 283.762 169.456 278.404L179.409 281.295C179.409 281.55 179.409 281.806 179.409 282.061C179.409 287.674 182.216 292.862 186.979 295.839L180.6 304.174C175.921 300.007 168.776 300.262 164.353 304.77C159.929 309.278 159.759 316.337 164.012 321.015C168.266 325.693 175.326 326.203 180.259 322.206C185.193 318.208 186.044 311.149 182.386 306.046L189.276 297.03C191.317 297.966 193.614 298.391 195.911 298.391C196.251 298.391 196.591 298.391 196.931 298.306L202.035 327.139C195.23 329.18 190.467 335.389 190.212 342.448C190.041 349.592 194.465 355.971 201.185 358.353C207.905 360.734 215.39 358.523 219.728 352.824L243.546 363.456C243.375 364.307 243.205 365.242 243.205 366.093C243.205 372.131 247.714 377.234 253.753 377.915C259.792 378.595 265.322 374.683 266.683 368.814C268.044 362.946 264.726 356.992 259.027 354.951C253.328 352.909 247.033 355.546 244.396 360.989L221.174 350.613C222.195 348.742 222.875 346.701 223.046 344.574L253.328 337.175C255.624 341.427 259.707 344.404 264.471 345.425C269.234 346.36 274.168 345.17 277.911 342.193L289.224 351.974C286.587 357.757 288.884 364.562 294.498 367.453C300.112 370.43 307.002 368.474 310.234 363.031C313.467 357.587 311.936 350.613 306.747 347.041C301.473 343.469 294.413 344.659 290.585 349.677L279.782 340.407C281.398 338.706 282.589 336.579 283.355 334.368L328.353 336.579C328.438 343.128 333.712 348.317 340.261 348.317C346.811 348.317 352.085 342.958 352 336.494C352 330.115 346.726 324.842 340.176 324.842Z" fill="white"/>
</g>
<defs>
<clipPath id="clip0_40_179">
<rect width="205" height="235" fill="white" transform="translate(147 143)"/>
</clipPath>
</defs>
</svg>
