<svg width="513" height="513" viewBox="0 0 513 513" fill="none" xmlns="http://www.w3.org/2000/svg">
<circle cx="256.942" cy="256.594" r="255.5" fill="black" stroke="white"/>
<g clip-path="url(#clip0_40_179)">
<path d="M339.176 324.842C333.562 324.842 328.799 328.755 327.608 334.198L282.95 332.072C283.12 331.221 283.205 330.371 283.205 329.52C283.205 327.989 282.95 326.458 282.525 324.927L298.772 315.571C302.77 320.504 310 321.525 315.189 317.783C320.378 314.04 321.739 306.896 318.251 301.538C314.763 296.179 307.703 294.478 302.174 297.625C296.645 300.772 294.519 307.747 297.411 313.445L281.674 322.546C277.932 314.636 268.66 311.064 260.579 314.381C252.498 317.698 248.415 326.798 251.307 335.048L222.046 342.108C221.875 338.11 220.174 334.368 217.367 331.476L222.641 324.162C228.595 326.203 235.145 323.226 237.527 317.358C239.909 311.489 237.272 304.77 231.573 302.133C225.873 299.411 218.983 301.708 216.006 307.236C213.029 312.765 214.9 319.739 220.259 323.056L215.411 329.775C212.008 327.224 207.67 326.118 203.417 326.628L198.398 297.966C204.693 296.605 209.541 291.672 210.902 285.463C212.263 279.169 209.882 272.705 204.778 268.878C199.674 264.965 192.784 264.455 187.17 267.432L174.496 242.681C177.218 241.321 179.429 239.194 181.046 236.643L191.593 239.449C191.508 240.045 191.423 240.555 191.423 241.151C191.423 247.274 196.102 252.462 202.226 253.058C208.351 253.653 213.965 249.486 215.07 243.362C216.176 237.238 212.519 231.369 206.564 229.753C200.61 228.052 194.4 231.199 192.189 236.983L182.236 234.346C183.597 231.114 183.853 227.542 183.002 224.14L212.349 210.617C217.792 217.421 227.66 218.867 234.805 213.764C241.95 208.66 243.822 198.879 239.058 191.565L257.772 173.279C260.068 174.725 262.705 175.66 265.342 175.83V183.91C259.133 184.591 254.454 190.034 254.795 196.328C255.135 202.622 260.324 207.555 266.618 207.555C272.913 207.555 278.102 202.622 278.442 196.328C278.782 190.034 274.189 184.591 267.894 183.91V175.83C270.276 175.66 272.488 174.98 274.529 173.874L295.029 197.263C290.266 203.557 290.606 212.318 295.795 218.186C301.068 224.055 309.745 225.416 316.55 221.333C323.355 217.251 326.247 209.001 323.61 201.601L329.99 198.029C334.073 202.792 341.133 203.642 346.151 199.815C351.17 196.073 352.361 189.013 348.873 183.825C345.386 178.637 338.411 177.021 333.052 180.253C327.693 183.485 325.736 190.289 328.629 195.903L322.589 199.305C320.122 194.797 315.699 191.735 310.68 190.97C305.662 190.204 300.473 191.82 296.815 195.392L276.741 172.513C278.697 170.982 280.313 168.941 281.419 166.73L299.027 169.621C300.388 175.745 306.342 179.743 312.467 178.637C318.676 177.616 322.929 171.918 322.249 165.709C321.568 159.5 316.124 154.822 309.915 155.162C303.62 155.503 298.772 160.606 298.687 166.9L282.355 164.178C284.651 156.353 280.909 148.018 273.508 144.531C266.108 141.044 257.346 143.595 252.838 150.4C248.33 157.204 249.521 166.304 255.645 171.748L237.442 189.524C234.635 186.292 230.637 184.25 226.384 183.91V171.493C232.593 170.812 237.272 165.369 236.931 159.075C236.591 152.781 231.488 147.933 225.193 147.933C218.898 147.933 213.71 152.866 213.369 159.16C213.029 165.454 217.622 170.897 223.917 171.578V183.91C218.303 184.335 213.284 187.653 210.647 192.586C208.01 197.604 208.095 203.557 210.902 208.49L182.322 221.588C181.301 219.122 179.685 216.996 177.643 215.295L188.786 195.222C189.807 195.477 190.743 195.647 191.763 195.647C197.803 195.647 202.822 191.14 203.587 185.186C204.353 179.232 200.44 173.704 194.656 172.258C188.786 170.812 182.832 173.959 180.705 179.573C178.579 185.186 181.046 191.48 186.319 194.287L175.517 213.849C168.967 209.936 160.716 211.042 155.357 216.485C150.083 221.929 149.147 230.179 153.145 236.643C157.143 243.107 164.969 245.999 172.199 243.702L185.044 268.793C181.811 271.174 179.514 274.746 178.749 278.659L169.392 275.937C169.647 275.001 169.732 273.981 169.732 273.045C169.732 267.006 165.224 261.988 159.27 261.308C153.315 260.628 147.786 264.455 146.34 270.324C144.894 276.192 148.127 282.146 153.826 284.187C159.44 286.228 165.734 283.762 168.456 278.404L178.409 281.295C178.409 281.55 178.409 281.806 178.409 282.061C178.409 287.674 181.216 292.862 185.979 295.839L179.6 304.174C174.921 300.007 167.776 300.262 163.353 304.77C158.929 309.278 158.759 316.337 163.012 321.015C167.266 325.693 174.326 326.203 179.259 322.206C184.193 318.208 185.044 311.149 181.386 306.046L188.276 297.03C190.317 297.966 192.614 298.391 194.911 298.391C195.251 298.391 195.591 298.391 195.931 298.306L201.035 327.139C194.23 329.18 189.467 335.389 189.212 342.448C189.041 349.592 193.465 355.971 200.185 358.353C206.905 360.734 214.39 358.523 218.728 352.824L242.546 363.456C242.375 364.307 242.205 365.242 242.205 366.093C242.205 372.131 246.714 377.234 252.753 377.915C258.792 378.595 264.322 374.683 265.683 368.814C267.044 362.946 263.726 356.992 258.027 354.951C252.328 352.909 246.033 355.546 243.396 360.989L220.174 350.613C221.195 348.742 221.875 346.701 222.046 344.574L252.328 337.175C254.624 341.427 258.707 344.404 263.471 345.425C268.234 346.36 273.168 345.17 276.911 342.193L288.224 351.974C285.587 357.757 287.884 364.562 293.498 367.453C299.112 370.43 306.002 368.474 309.234 363.031C312.467 357.587 310.936 350.613 305.747 347.041C300.473 343.469 293.413 344.659 289.585 349.677L278.782 340.407C280.398 338.706 281.589 336.579 282.355 334.368L327.353 336.579C327.438 343.128 332.712 348.317 339.261 348.317C345.811 348.317 351.085 342.958 351 336.494C351 330.115 345.726 324.842 339.176 324.842Z" fill="white"/>
</g>
<defs>
<clipPath id="clip0_40_179">
<rect width="205" height="235" fill="white" transform="translate(146 143)"/>
</clipPath>
</defs>
</svg>
