<svg width="513" height="513" viewBox="0 0 513 513" fill="none" xmlns="http://www.w3.org/2000/svg">
<circle cx="256.942" cy="256.594" r="256" fill="black"/>
<g clip-path="url(#clip0_40_179)">
<path d="M381.678 350.71C373.927 350.71 367.351 356.104 365.707 363.609L304.058 360.677C304.293 359.505 304.41 358.332 304.41 357.159C304.41 355.049 304.058 352.938 303.471 350.827L325.9 337.928C331.419 344.729 341.4 346.137 348.563 340.977C355.726 335.817 357.605 325.967 352.79 318.58C347.976 311.192 338.229 308.847 330.597 313.185C322.964 317.524 320.028 327.14 324.021 334.997L302.297 347.544C297.13 336.638 284.33 331.713 273.175 336.286C262.019 340.86 256.383 353.407 260.375 364.782L219.98 374.514C219.745 369.003 217.397 363.843 213.522 359.856L220.802 349.772C229.022 352.586 238.064 348.482 241.352 340.391C244.64 332.299 241 323.036 233.132 319.4C225.264 315.648 215.753 318.814 211.643 326.436C207.533 334.058 210.116 343.674 217.514 348.247L210.821 357.511C206.124 353.993 200.135 352.469 194.263 353.172L187.335 313.655C196.025 311.778 202.718 304.977 204.597 296.417C206.476 287.739 203.188 278.827 196.142 273.55C189.097 268.156 179.585 267.453 171.835 271.557L154.338 237.433C158.096 235.557 161.149 232.625 163.38 229.107L177.941 232.977C177.824 233.798 177.706 234.501 177.706 235.322C177.706 243.765 184.165 250.918 192.62 251.739C201.074 252.56 208.824 246.814 210.351 238.371C211.878 229.928 206.828 221.837 198.608 219.609C190.388 217.264 181.816 221.602 178.763 229.576L165.024 225.941C166.903 221.485 167.255 216.56 166.081 211.869L206.593 193.225C214.109 202.606 227.73 204.599 237.594 197.563C247.458 190.527 250.042 177.042 243.466 166.957L269.3 141.746C272.47 143.739 276.11 145.029 279.751 145.264V156.404C271.178 157.342 264.72 164.847 265.19 173.524C265.659 182.202 272.822 189.003 281.512 189.003C290.202 189.003 297.365 182.202 297.834 173.524C298.304 164.847 291.963 157.342 283.273 156.404V145.264C286.561 145.029 289.615 144.091 292.433 142.567L320.733 174.814C314.157 183.492 314.627 195.57 321.79 203.661C329.07 211.752 341.048 213.628 350.442 208C359.836 202.371 363.829 190.997 360.188 180.795L368.995 175.869C374.632 182.436 384.378 183.609 391.307 178.332C398.235 173.172 399.879 163.44 395.064 156.286C390.25 149.133 380.621 146.905 373.223 151.361C365.825 155.817 363.124 165.198 367.117 172.938L358.779 177.628C355.374 171.413 349.268 167.192 342.339 166.137C335.411 165.081 328.248 167.309 323.199 172.234L295.486 140.69C298.187 138.58 300.418 135.765 301.944 132.716L326.252 136.703C328.131 145.146 336.351 150.658 344.805 149.133C353.378 147.726 359.249 139.869 358.31 131.309C357.37 122.749 349.855 116.299 341.283 116.769C332.593 117.238 325.9 124.273 325.782 132.951L303.236 129.198C306.407 118.41 301.24 106.918 291.024 102.111C280.807 97.3027 268.712 100.821 262.489 110.202C256.265 119.583 257.909 132.13 266.364 139.635L241.234 164.143C237.359 159.687 231.84 156.873 225.969 156.404V139.283C234.541 138.345 241 130.84 240.53 122.163C240.06 113.485 233.015 106.801 224.325 106.801C215.635 106.801 208.472 113.602 208.002 122.28C207.533 130.957 213.874 138.462 222.563 139.4V156.404C214.813 156.99 207.885 161.563 204.245 168.365C200.605 175.283 200.722 183.492 204.597 190.293L165.141 208.352C163.732 204.951 161.501 202.019 158.683 199.674L174.066 172C175.475 172.352 176.767 172.586 178.176 172.586C186.513 172.586 193.441 166.371 194.498 158.163C195.555 149.954 190.154 142.332 182.168 140.339C174.066 138.345 165.846 142.684 162.91 150.423C159.975 158.163 163.38 166.84 170.661 170.71L155.747 197.681C146.705 192.286 135.315 193.811 127.917 201.316C120.637 208.821 119.345 220.195 124.864 229.107C130.383 238.019 141.186 242.006 151.168 238.84L168.899 273.433C164.437 276.716 161.266 281.641 160.21 287.036L147.293 283.283C147.645 281.993 147.762 280.586 147.762 279.296C147.762 270.97 141.539 264.052 133.319 263.114C125.099 262.176 117.466 267.453 115.47 275.544C113.473 283.635 117.936 291.843 125.803 294.658C133.554 297.472 142.243 294.071 146.001 286.684L159.74 290.671C159.74 291.023 159.74 291.374 159.74 291.726C159.74 299.466 163.615 306.619 170.191 310.723L161.384 322.215C154.925 316.469 145.061 316.821 138.955 323.036C132.849 329.251 132.614 338.984 138.485 345.433C144.357 351.883 154.103 352.586 160.914 347.075C167.725 341.563 168.899 331.83 163.85 324.795L173.361 312.365C176.18 313.655 179.35 314.241 182.521 314.241C182.99 314.241 183.46 314.241 183.93 314.124L190.976 353.876C181.581 356.69 175.005 365.251 174.653 374.983C174.418 384.834 180.524 393.628 189.801 396.912C199.078 400.195 209.412 397.146 215.4 389.29L248.28 403.948C248.045 405.12 247.81 406.41 247.81 407.583C247.81 415.909 254.034 422.944 262.371 423.883C270.709 424.821 278.341 419.426 280.22 411.335C282.099 403.244 277.52 395.036 269.652 392.221C261.784 389.407 253.095 393.042 249.454 400.547L217.397 386.241C218.806 383.661 219.745 380.847 219.98 377.915L261.784 367.713C264.955 373.576 270.591 377.681 277.167 379.088C283.743 380.378 290.554 378.736 295.721 374.632L311.339 388.117C307.698 396.091 310.869 405.472 318.619 409.459C326.369 413.563 335.881 410.866 340.343 403.361C344.805 395.856 342.692 386.241 335.529 381.316C328.248 376.391 318.502 378.032 313.217 384.951L298.304 372.169C300.535 369.824 302.179 366.892 303.236 363.843L365.355 366.892C365.473 375.922 372.753 383.075 381.795 383.075C390.837 383.075 398.117 375.687 398 366.775C398 357.98 390.72 350.71 381.678 350.71Z" fill="white"/>
</g>
<defs>
<clipPath id="clip0_40_179">
<rect width="283" height="324" fill="white" transform="translate(115 100)"/>
</clipPath>
</defs>
</svg>
