<svg width="513" height="513" viewBox="0 0 513 513" fill="none" xmlns="http://www.w3.org/2000/svg">
<circle cx="256.942" cy="256.594" r="255.5" fill="black" stroke="white"/>
<circle cx="256.943" cy="261.873" r="210.164" fill="black" stroke="white" stroke-width="4"/>
<g clip-path="url(#clip0_40_179)">
<path d="M327.176 325.842C321.562 325.842 316.799 329.755 315.608 335.198L270.95 333.072C271.12 332.221 271.205 331.371 271.205 330.52C271.205 328.989 270.95 327.458 270.525 325.927L286.772 316.571C290.77 321.504 298 322.525 303.189 318.783C308.378 315.04 309.739 307.896 306.251 302.538C302.763 297.179 295.703 295.478 290.174 298.625C284.645 301.772 282.519 308.747 285.411 314.445L269.674 323.546C265.932 315.636 256.66 312.064 248.579 315.381C240.498 318.698 236.415 327.798 239.307 336.048L210.046 343.108C209.875 339.11 208.174 335.368 205.367 332.476L210.641 325.162C216.595 327.203 223.145 324.226 225.527 318.358C227.909 312.489 225.272 305.77 219.573 303.133C213.873 300.411 206.983 302.708 204.006 308.236C201.029 313.765 202.9 320.739 208.259 324.056L203.411 330.775C200.008 328.224 195.67 327.118 191.417 327.628L186.398 298.966C192.693 297.605 197.541 292.672 198.902 286.463C200.263 280.169 197.882 273.705 192.778 269.878C187.674 265.965 180.784 265.455 175.17 268.432L162.496 243.681C165.218 242.321 167.429 240.194 169.046 237.643L179.593 240.449C179.508 241.045 179.423 241.555 179.423 242.151C179.423 248.274 184.102 253.462 190.226 254.058C196.351 254.653 201.965 250.486 203.07 244.362C204.176 238.238 200.519 232.369 194.564 230.753C188.61 229.052 182.4 232.199 180.189 237.983L170.236 235.346C171.597 232.114 171.853 228.542 171.002 225.14L200.349 211.617C205.792 218.421 215.66 219.867 222.805 214.764C229.95 209.66 231.822 199.879 227.058 192.565L245.772 174.279C248.068 175.725 250.705 176.66 253.342 176.83V184.91C247.133 185.591 242.454 191.034 242.795 197.328C243.135 203.622 248.324 208.555 254.618 208.555C260.913 208.555 266.102 203.622 266.442 197.328C266.782 191.034 262.189 185.591 255.894 184.91V176.83C258.276 176.66 260.488 175.98 262.529 174.874L283.029 198.263C278.266 204.557 278.606 213.318 283.795 219.186C289.068 225.055 297.745 226.416 304.55 222.333C311.355 218.251 314.247 210.001 311.61 202.601L317.99 199.029C322.073 203.792 329.133 204.642 334.151 200.815C339.17 197.073 340.361 190.013 336.873 184.825C333.386 179.637 326.411 178.021 321.052 181.253C315.693 184.485 313.736 191.289 316.629 196.903L310.589 200.305C308.122 195.797 303.699 192.735 298.68 191.97C293.662 191.204 288.473 192.82 284.815 196.392L264.741 173.513C266.697 171.982 268.313 169.941 269.419 167.73L287.027 170.621C288.388 176.745 294.342 180.743 300.467 179.637C306.676 178.616 310.929 172.918 310.249 166.709C309.568 160.5 304.124 155.822 297.915 156.162C291.62 156.503 286.772 161.606 286.687 167.9L270.355 165.178C272.651 157.353 268.909 149.018 261.508 145.531C254.108 142.044 245.346 144.595 240.838 151.4C236.33 158.204 237.521 167.304 243.645 172.748L225.442 190.524C222.635 187.292 218.637 185.25 214.384 184.91V172.493C220.593 171.812 225.272 166.369 224.931 160.075C224.591 153.781 219.488 148.933 213.193 148.933C206.898 148.933 201.71 153.866 201.369 160.16C201.029 166.454 205.622 171.897 211.917 172.578V184.91C206.303 185.335 201.284 188.653 198.647 193.586C196.01 198.604 196.095 204.557 198.902 209.49L170.322 222.588C169.301 220.122 167.685 217.996 165.643 216.295L176.786 196.222C177.807 196.477 178.743 196.647 179.763 196.647C185.803 196.647 190.822 192.14 191.587 186.186C192.353 180.232 188.44 174.704 182.656 173.258C176.786 171.812 170.832 174.959 168.705 180.573C166.579 186.186 169.046 192.48 174.319 195.287L163.517 214.849C156.967 210.936 148.716 212.042 143.357 217.485C138.083 222.929 137.147 231.179 141.145 237.643C145.143 244.107 152.969 246.999 160.199 244.702L173.044 269.793C169.811 272.174 167.514 275.746 166.749 279.659L157.392 276.937C157.647 276.001 157.732 274.981 157.732 274.045C157.732 268.006 153.224 262.988 147.27 262.308C141.315 261.628 135.786 265.455 134.34 271.324C132.894 277.192 136.127 283.146 141.826 285.187C147.44 287.228 153.734 284.762 156.456 279.404L166.409 282.295C166.409 282.55 166.409 282.806 166.409 283.061C166.409 288.674 169.216 293.862 173.979 296.839L167.6 305.174C162.921 301.007 155.776 301.262 151.353 305.77C146.929 310.278 146.759 317.337 151.012 322.015C155.266 326.693 162.326 327.203 167.259 323.206C172.193 319.208 173.044 312.149 169.386 307.046L176.276 298.03C178.317 298.966 180.614 299.391 182.911 299.391C183.251 299.391 183.591 299.391 183.931 299.306L189.035 328.139C182.23 330.18 177.467 336.389 177.212 343.448C177.041 350.592 181.465 356.971 188.185 359.353C194.905 361.734 202.39 359.523 206.728 353.824L230.546 364.456C230.375 365.307 230.205 366.242 230.205 367.093C230.205 373.131 234.714 378.234 240.753 378.915C246.792 379.595 252.322 375.683 253.683 369.814C255.044 363.946 251.726 357.992 246.027 355.951C240.328 353.909 234.033 356.546 231.396 361.989L208.174 351.613C209.195 349.742 209.875 347.701 210.046 345.574L240.328 338.175C242.624 342.427 246.707 345.404 251.471 346.425C256.234 347.36 261.168 346.17 264.911 343.193L276.224 352.974C273.587 358.757 275.884 365.562 281.498 368.453C287.112 371.43 294.002 369.474 297.234 364.031C300.467 358.587 298.936 351.613 293.747 348.041C288.473 344.469 281.413 345.659 277.585 350.677L266.782 341.407C268.398 339.706 269.589 337.579 270.355 335.368L315.353 337.579C315.438 344.128 320.712 349.317 327.261 349.317C333.811 349.317 339.085 343.958 339 337.494C339 331.115 333.726 325.842 327.176 325.842Z" fill="white"/>
</g>
<defs>
<clipPath id="clip0_40_179">
<rect width="205" height="235" fill="white" transform="translate(134 144)"/>
</clipPath>
</defs>
</svg>
