<svg width="513" height="513" viewBox="0 0 513 513" fill="none" xmlns="http://www.w3.org/2000/svg">
<circle cx="256.942" cy="256.488" r="256" fill="black"/>
<g clip-path="url(#clip0_40_123)">
<path d="M299.802 165.616H277.821V198.844H299.802V165.616Z" fill="#969696"/>
<path d="M236.717 104H214.737V137.228H236.717V104Z" fill="#969696"/>
<path d="M173.633 135.688H151.652V168.916H173.633V135.688Z" fill="#969696"/>
<path d="M142.2 262H120V356.844H142.2V262Z" fill="#969696"/>
<path d="M142.2 167.156H120V262H142.2V167.156Z" fill="#969696"/>
<path d="M331.234 197.304H309.254V230.532H331.234V197.304Z" fill="#969696"/>
<path d="M331.234 293.468H309.254V326.696H331.234V293.468Z" fill="#969696"/>
<path d="M299.802 325.156H277.821V358.384H299.802V325.156Z" fill="#969696"/>
<path d="M236.717 386.771H214.737V420H236.717V386.771Z" fill="#969696"/>
<path d="M173.633 355.083H151.652V388.312H173.633V355.083Z" fill="#969696"/>
<path d="M393 230.312V167.156H361.348V135.688H298.263V104H235.179V135.688H172.094V167.376H140.442V356.844H172.094V388.532H235.179V420.22H298.263V388.532H361.348V356.844H393V293.468H329.915V325.156H298.263V356.844H235.179V325.156H203.746V198.844H235.399V167.156H298.483V198.844H330.135V230.532H393V230.312Z" fill="white"/>
</g>
<defs>
<clipPath id="clip0_40_123">
<rect width="273" height="316" fill="white" transform="translate(120 104)"/>
</clipPath>
</defs>
</svg>
