<svg width="513" height="513" viewBox="0 0 513 513" fill="none" xmlns="http://www.w3.org/2000/svg">
<circle cx="256.942" cy="256.488" r="255.5" fill="black" stroke="white"/>
<circle cx="256.943" cy="261.767" r="210.164" fill="black" stroke="white" stroke-width="4"/>
<g clip-path="url(#clip0_40_123)">
<path d="M287.502 193.922H272.527V216.53H287.502V193.922Z" fill="#969696"/>
<path d="M244.522 152H229.546V174.608H244.522V152Z" fill="#969696"/>
<path d="M201.541 173.56H186.565V196.168H201.541V173.56Z" fill="#969696"/>
<path d="M180.126 259.5H165V324.03H180.126V259.5Z" fill="#969696"/>
<path d="M180.126 194.97H165V259.5H180.126V194.97Z" fill="#969696"/>
<path d="M308.918 215.482H293.942V238.09H308.918V215.482Z" fill="#969696"/>
<path d="M308.918 280.91H293.942V303.518H308.918V280.91Z" fill="#969696"/>
<path d="M287.502 302.47H272.527V325.078H287.502V302.47Z" fill="#969696"/>
<path d="M244.522 344.392H229.546V367H244.522V344.392Z" fill="#969696"/>
<path d="M201.541 322.832H186.565V345.44H201.541V322.832Z" fill="#969696"/>
<path d="M351 237.94V194.97H329.435V173.56H286.454V152H243.473V173.56H200.493V195.12H178.928V324.03H200.493V345.59H243.473V367.15H286.454V345.59H329.435V324.03H351V280.91H308.019V302.47H286.454V324.03H243.473V302.47H222.058V216.53H243.623V194.97H286.604V216.53H308.169V238.09H351V237.94Z" fill="white"/>
</g>
<defs>
<clipPath id="clip0_40_123">
<rect width="186" height="215" fill="white" transform="translate(165 152)"/>
</clipPath>
</defs>
</svg>
