<svg width="513" height="513" viewBox="0 0 513 513" fill="none" xmlns="http://www.w3.org/2000/svg">
<circle cx="256.942" cy="256.488" r="255.5" fill="black" stroke="white"/>
<g clip-path="url(#clip0_40_123)">
<path d="M286.502 193.922H271.527V216.53H286.502V193.922Z" fill="#969696"/>
<path d="M243.522 152H228.546V174.608H243.522V152Z" fill="#969696"/>
<path d="M200.541 173.56H185.565V196.168H200.541V173.56Z" fill="#969696"/>
<path d="M179.126 259.5H164V324.03H179.126V259.5Z" fill="#969696"/>
<path d="M179.126 194.97H164V259.5H179.126V194.97Z" fill="#969696"/>
<path d="M307.918 215.482H292.942V238.09H307.918V215.482Z" fill="#969696"/>
<path d="M307.918 280.91H292.942V303.518H307.918V280.91Z" fill="#969696"/>
<path d="M286.502 302.47H271.527V325.078H286.502V302.47Z" fill="#969696"/>
<path d="M243.522 344.392H228.546V367H243.522V344.392Z" fill="#969696"/>
<path d="M200.541 322.832H185.565V345.44H200.541V322.832Z" fill="#969696"/>
<path d="M350 237.94V194.97H328.435V173.56H285.454V152H242.473V173.56H199.493V195.12H177.928V324.03H199.493V345.59H242.473V367.15H285.454V345.59H328.435V324.03H350V280.91H307.019V302.47H285.454V324.03H242.473V302.47H221.058V216.53H242.623V194.97H285.604V216.53H307.169V238.09H350V237.94Z" fill="white"/>
</g>
<defs>
<clipPath id="clip0_40_123">
<rect width="186" height="215" fill="white" transform="translate(164 152)"/>
</clipPath>
</defs>
</svg>
