<svg width="513" height="513" viewBox="0 0 513 513" fill="none" xmlns="http://www.w3.org/2000/svg">
<circle cx="256.456" cy="256.249" r="255.5" fill="black" stroke="white"/>
<path d="M269.25 269.688H335.693C337.109 269.688 337.778 269.688 337.88 267.831C338.423 261.072 338.423 254.274 337.88 247.507C337.88 246.193 337.227 245.65 335.803 245.65H203.571C201.935 245.65 201.494 246.193 201.494 247.727V267.178C201.494 269.688 201.494 269.688 204.114 269.688H269.25ZM330.46 222.917C330.649 222.422 330.649 221.879 330.46 221.391C329.351 218.975 328.037 216.67 326.51 214.506C324.212 210.808 321.506 207.401 318.421 204.34C316.965 202.491 315.282 200.83 313.393 199.422C303.935 191.372 292.691 185.675 280.605 182.811C274.507 181.442 268.275 180.789 262.027 180.844H203.343C201.706 180.844 201.486 181.497 201.486 182.921V221.714C201.486 223.35 201.486 223.791 203.563 223.791H329.673C329.673 223.791 330.767 223.571 330.987 222.917H330.452H330.46ZM330.46 292.421C328.603 292.216 326.73 292.216 324.873 292.421H203.682C202.045 292.421 201.494 292.421 201.494 294.608V332.535C201.494 334.281 201.494 334.722 203.682 334.722H259.635C262.31 334.927 264.986 334.738 267.606 334.179C275.726 333.597 283.713 331.834 291.33 328.931C294.099 327.971 296.775 326.72 299.301 325.217H300.064C313.181 318.395 323.835 307.678 330.555 294.522C330.555 294.522 331.318 292.869 330.46 292.436V292.421ZM179.533 354.386V353.733V328.27V319.638V293.955C179.533 292.531 179.533 292.318 177.786 292.318H154.07C152.756 292.318 152.213 292.318 152.213 290.572V269.806H177.566C178.982 269.806 179.533 269.806 179.533 267.949V247.404C179.533 246.09 179.533 245.768 177.786 245.768H154.07C152.756 245.768 152.213 245.768 152.213 244.021V224.79C152.213 223.586 152.213 223.264 153.96 223.264H177.456C179.092 223.264 179.533 223.264 179.533 221.186V162.282C179.533 160.535 179.533 160.095 181.72 160.095H263.679C269.628 160.331 275.537 160.984 281.384 162.062C293.431 164.289 305.005 168.593 315.588 174.738C322.607 178.869 329.067 183.858 334.819 189.602C339.147 194.095 343.05 198.958 346.512 204.135C349.951 209.384 352.807 214.994 355.049 220.856C355.325 222.382 356.788 223.413 358.315 223.154H377.876C380.386 223.154 380.386 223.154 380.496 225.561V243.486C380.496 245.233 379.843 245.673 378.089 245.673H363.005C361.478 245.673 361.037 245.673 361.148 247.641C361.746 254.297 361.746 260.978 361.148 267.635C361.148 269.492 361.148 269.712 363.233 269.712H380.488C381.252 270.695 380.488 271.679 380.488 272.671C380.599 273.937 380.599 275.22 380.488 276.487V289.714C380.488 291.571 379.946 292.122 378.301 292.122H357.646C356.206 291.846 354.805 292.767 354.475 294.199C349.557 306.985 341.689 318.45 331.522 327.64C327.808 330.985 323.906 334.132 319.83 337.035C315.455 339.553 311.198 342.174 306.713 344.251C298.459 347.965 289.803 350.703 280.919 352.442C272.484 353.953 263.931 354.637 255.347 354.519H179.501V354.409L179.533 354.386Z" fill="#FEFEFD"/>
</svg>
