<svg width="513" height="513" viewBox="0 0 513 513" fill="none" xmlns="http://www.w3.org/2000/svg">
<circle cx="256.933" cy="256.245" r="255.5" fill="black" stroke="white"/>
<g clip-path="url(#clip0_24_904)">
<path d="M291.539 171H215.09L208.75 206.737L277.754 206.82C311.745 206.82 321.767 219.282 321.481 239.916C321.317 250.48 316.777 268.39 314.813 274.208C309.578 289.683 298.82 307.304 258.489 307.263L191.407 307.222L185.087 343H261.372C288.287 343 299.699 339.822 311.848 334.21C338.721 321.624 354.715 294.883 361.137 259.971C370.647 207.975 358.785 171 291.539 171Z" fill="white"/>
<path d="M182.101 239.049C162.058 239.049 159.195 252.213 157.313 260.177C154.818 270.577 154 274.827 154 274.827H232.29C252.333 274.827 255.196 261.663 257.078 253.699C259.573 243.299 260.391 239.049 260.391 239.049H182.101Z" fill="white"/>
</g>
<defs>
<clipPath id="clip0_24_904">
<rect width="210" height="172" fill="white" transform="translate(154 171)"/>
</clipPath>
</defs>
</svg>
