<svg width="513" height="513" viewBox="0 0 513 513" fill="none" xmlns="http://www.w3.org/2000/svg">
<circle cx="256.933" cy="256.245" r="255.5" fill="black" stroke="white"/>
<circle cx="256.933" cy="261.524" r="210.164" fill="black" stroke="white" stroke-width="4"/>
<g clip-path="url(#clip0_24_904)">
<path d="M282.791 188H224.544L219.714 215.218L272.289 215.281C298.187 215.281 305.822 224.773 305.604 240.488C305.479 248.534 302.02 262.175 300.524 266.606C296.535 278.393 288.339 291.813 257.61 291.782L206.5 291.75L201.685 319H259.807C280.314 319 289.009 316.58 298.265 312.305C318.74 302.719 330.925 282.353 335.818 255.763C343.064 216.161 334.026 188 282.791 188Z" fill="white"/>
<path d="M199.41 239.828C184.139 239.828 181.958 249.854 180.524 255.92C178.623 263.841 178 267.078 178 267.078H237.649C252.92 267.078 255.102 257.052 256.535 250.986C258.436 243.065 259.06 239.828 259.06 239.828H199.41Z" fill="white"/>
</g>
<defs>
<clipPath id="clip0_24_904">
<rect width="160" height="131" fill="white" transform="translate(178 188)"/>
</clipPath>
</defs>
</svg>
