<svg width="513" height="513" viewBox="0 0 513 513" fill="none" xmlns="http://www.w3.org/2000/svg">
<circle cx="256.183" cy="256.085" r="255.5" fill="black" stroke="white"/>
<path d="M251.202 195.425C271.468 195.425 287.897 185.87 287.897 174.084C287.897 162.297 271.468 152.742 251.202 152.742C230.935 152.742 214.506 162.297 214.506 174.084C214.506 185.87 230.935 195.425 251.202 195.425Z" fill="white"/>
<path d="M251.202 356.233C271.468 356.233 287.897 346.677 287.897 334.891C287.897 323.104 271.468 313.549 251.202 313.549C230.935 313.549 214.506 323.104 214.506 334.891C214.506 346.677 230.935 356.233 251.202 356.233Z" fill="white"/>
<path d="M200.064 224.968C210.197 207.417 210.132 188.409 199.917 182.511C189.703 176.614 173.208 186.061 163.075 203.611C152.942 221.162 153.008 240.17 163.222 246.068C173.436 251.965 189.931 242.518 200.064 224.968Z" fill="white"/>
<path d="M339.312 305.361C349.445 287.81 349.385 268.805 339.178 262.912C328.971 257.019 312.481 266.469 302.348 284.019C292.215 301.57 292.275 320.575 302.483 326.468C312.69 332.362 329.179 322.912 339.312 305.361Z" fill="white"/>
<path d="M199.923 326.464C210.137 320.566 210.203 301.558 200.07 284.007C189.937 266.457 173.442 257.01 163.227 262.907C153.013 268.805 152.947 287.813 163.081 305.364C173.214 322.914 189.709 332.361 199.923 326.464Z" fill="white"/>
<path d="M339.187 246.073C349.395 240.179 349.455 221.174 339.322 203.624C329.188 186.073 312.699 176.623 302.492 182.517C292.284 188.41 292.224 207.415 302.357 224.966C312.491 242.516 328.98 251.966 339.187 246.073Z" fill="white"/>
</svg>
