<svg width="514" height="513" viewBox="0 0 514 513" fill="none" xmlns="http://www.w3.org/2000/svg">
<circle cx="257.183" cy="256.085" r="255.5" fill="black" stroke="white"/>
<path d="M259.202 196.425C279.468 196.425 295.897 186.87 295.897 175.084C295.897 163.297 279.468 153.742 259.202 153.742C238.935 153.742 222.506 163.297 222.506 175.084C222.506 186.87 238.935 196.425 259.202 196.425Z" fill="white"/>
<path d="M259.202 357.233C279.468 357.233 295.897 347.677 295.897 335.891C295.897 324.104 279.468 314.549 259.202 314.549C238.935 314.549 222.506 324.104 222.506 335.891C222.506 347.677 238.935 357.233 259.202 357.233Z" fill="white"/>
<path d="M208.064 225.968C218.197 208.417 218.132 189.409 207.917 183.511C197.703 177.614 181.208 187.061 171.075 204.611C160.942 222.162 161.008 241.17 171.222 247.068C181.436 252.965 197.931 243.518 208.064 225.968Z" fill="white"/>
<path d="M347.312 306.361C357.445 288.81 357.385 269.805 347.178 263.912C336.971 258.019 320.481 267.469 310.348 285.019C300.215 302.57 300.275 321.575 310.483 327.468C320.69 333.362 337.179 323.912 347.312 306.361Z" fill="white"/>
<path d="M207.923 327.464C218.137 321.566 218.203 302.558 208.07 285.007C197.937 267.457 181.442 258.01 171.227 263.907C161.013 269.805 160.947 288.813 171.081 306.364C181.214 323.914 197.709 333.361 207.923 327.464Z" fill="white"/>
<path d="M347.187 247.073C357.395 241.179 357.455 222.174 347.322 204.624C337.188 187.073 320.699 177.623 310.492 183.517C300.284 189.41 300.224 208.415 310.357 225.966C320.491 243.516 336.98 252.966 347.187 247.073Z" fill="white"/>
</svg>
