<svg width="512" height="513" viewBox="0 0 512 513" fill="none" xmlns="http://www.w3.org/2000/svg">
<circle cx="256" cy="256.845" r="255.5" fill="black" stroke="white"/>
<circle cx="256" cy="262.124" r="210.164" fill="black" stroke="white" stroke-width="4"/>
<g clip-path="url(#clip0_40_487)">
<path d="M171.294 240.387C173.814 245.745 180.114 256.462 180.114 256.462L252.247 137L182.003 186.172C177.909 189.009 174.444 192.791 171.924 197.204C165.309 210.758 165.309 226.518 171.294 240.387Z" fill="url(#paint0_linear_40_487)"/>
<path d="M142.945 279.472C144.52 302.482 156.174 323.916 174.444 337.785L252.247 392C252.247 392 203.423 321.71 162.474 251.734C158.379 244.485 155.544 236.289 154.284 227.779C153.654 223.996 153.654 220.214 154.284 216.431C153.339 218.323 151.134 222.42 151.134 222.42C147.04 230.931 144.205 240.072 142.63 249.528C141.685 259.614 141.685 269.701 142.945 279.472Z" fill="#A0A8D4"/>
<path d="M341.391 288.928C338.871 283.57 332.571 272.853 332.571 272.853L260.438 392L330.996 343.144C335.091 340.307 338.556 336.524 341.076 332.111C347.376 318.558 347.691 302.797 341.391 288.928Z" fill="url(#paint1_linear_40_487)"/>
<path d="M370.055 249.528C368.48 226.518 356.825 205.084 338.555 191.215L260.752 137C260.752 137 309.576 207.29 350.525 277.266C354.62 284.515 357.455 292.711 358.715 301.221C359.345 305.004 359.345 308.786 358.715 312.569C359.66 310.677 361.865 306.58 361.865 306.58C365.96 298.069 368.795 288.928 370.37 279.787C371 269.386 371 259.614 370.055 249.528Z" fill="#A0A8D4"/>
<path d="M171.924 197.204C174.444 192.791 177.594 189.009 182.004 186.172L252.247 137L180.114 256.147C180.114 256.147 173.814 245.43 171.294 240.072C165.309 226.518 165.309 210.758 171.924 197.204ZM142.945 279.472C144.52 302.482 156.174 323.916 174.444 337.785L252.247 392C252.247 392 203.423 321.71 162.474 251.734C158.379 244.485 155.544 236.289 154.284 227.779C153.654 223.996 153.654 220.214 154.284 216.431C153.339 218.323 151.134 222.42 151.134 222.42C147.04 230.931 144.205 240.072 142.63 249.528C141.685 259.614 141.685 269.701 142.945 279.472ZM341.39 288.928C338.87 283.57 332.571 272.853 332.571 272.853L260.437 392L330.996 343.143C335.09 340.307 338.555 336.524 341.075 332.111C347.375 318.557 347.69 302.797 341.39 288.928ZM369.74 249.843C368.165 226.833 356.51 205.399 338.24 191.53L260.752 137C260.752 137 309.576 207.29 350.525 277.266C354.62 284.515 357.455 292.711 358.715 301.221C359.345 305.004 359.345 308.786 358.715 312.569C359.66 310.677 361.865 306.58 361.865 306.58C365.96 298.069 368.795 288.928 370.37 279.787C371 269.386 371 259.614 369.74 249.843Z" fill="url(#paint2_linear_40_487)"/>
</g>
<defs>
<linearGradient id="paint0_linear_40_487" x1="255.528" y1="139.988" x2="162.911" y2="240.325" gradientUnits="userSpaceOnUse">
<stop offset="0.58" stop-color="#A0A8D4"/>
<stop offset="0.73" stop-color="#8791C7"/>
<stop offset="0.91" stop-color="#6470B4"/>
</linearGradient>
<linearGradient id="paint1_linear_40_487" x1="257.472" y1="389.222" x2="350.054" y2="288.957" gradientUnits="userSpaceOnUse">
<stop offset="0.58" stop-color="#A0A8D4"/>
<stop offset="0.73" stop-color="#8791C7"/>
<stop offset="0.91" stop-color="#6470B4"/>
</linearGradient>
<linearGradient id="paint2_linear_40_487" x1="256.413" y1="135.739" x2="256.413" y2="392.946" gradientUnits="userSpaceOnUse">
<stop stop-color="white"/>
<stop offset="0.18" stop-color="white"/>
<stop offset="0.57" stop-color="white"/>
<stop offset="1" stop-color="white"/>
</linearGradient>
<clipPath id="clip0_40_487">
<rect width="229" height="255" fill="white" transform="translate(142 137)"/>
</clipPath>
</defs>
</svg>
