<svg width="512" height="513" viewBox="0 0 512 513" fill="none" xmlns="http://www.w3.org/2000/svg">
<circle cx="256" cy="256.845" r="255.5" fill="black" stroke="white"/>
<g clip-path="url(#clip0_40_487)">
<path d="M165.294 237.387C167.814 242.745 174.114 253.462 174.114 253.462L246.247 134L176.003 183.172C171.909 186.009 168.444 189.791 165.924 194.204C159.309 207.758 159.309 223.518 165.294 237.387Z" fill="url(#paint0_linear_40_487)"/>
<path d="M136.945 276.472C138.52 299.482 150.174 320.916 168.444 334.785L246.247 389C246.247 389 197.423 318.71 156.474 248.734C152.379 241.485 149.544 233.289 148.284 224.779C147.654 220.996 147.654 217.214 148.284 213.431C147.339 215.323 145.134 219.42 145.134 219.42C141.04 227.931 138.205 237.072 136.63 246.528C135.685 256.614 135.685 266.701 136.945 276.472Z" fill="#A0A8D4"/>
<path d="M335.391 285.928C332.871 280.57 326.571 269.853 326.571 269.853L254.438 389L324.996 340.144C329.091 337.307 332.556 333.524 335.076 329.111C341.376 315.558 341.691 299.797 335.391 285.928Z" fill="url(#paint1_linear_40_487)"/>
<path d="M364.055 246.528C362.48 223.518 350.825 202.084 332.555 188.215L254.752 134C254.752 134 303.576 204.29 344.525 274.266C348.62 281.515 351.455 289.711 352.715 298.221C353.345 302.004 353.345 305.786 352.715 309.569C353.66 307.677 355.865 303.58 355.865 303.58C359.96 295.069 362.795 285.928 364.37 276.787C365 266.386 365 256.614 364.055 246.528Z" fill="#A0A8D4"/>
<path d="M165.924 194.204C168.444 189.791 171.594 186.009 176.004 183.172L246.247 134L174.114 253.147C174.114 253.147 167.814 242.43 165.294 237.072C159.309 223.518 159.309 207.758 165.924 194.204ZM136.945 276.472C138.52 299.482 150.174 320.916 168.444 334.785L246.247 389C246.247 389 197.423 318.71 156.474 248.734C152.379 241.485 149.544 233.289 148.284 224.779C147.654 220.996 147.654 217.214 148.284 213.431C147.339 215.323 145.134 219.42 145.134 219.42C141.04 227.931 138.205 237.072 136.63 246.528C135.685 256.614 135.685 266.701 136.945 276.472ZM335.39 285.928C332.87 280.57 326.571 269.853 326.571 269.853L254.437 389L324.996 340.143C329.09 337.307 332.555 333.524 335.075 329.111C341.375 315.557 341.69 299.797 335.39 285.928ZM363.74 246.843C362.165 223.833 350.51 202.399 332.24 188.53L254.752 134C254.752 134 303.576 204.29 344.525 274.266C348.62 281.515 351.455 289.711 352.715 298.221C353.345 302.004 353.345 305.786 352.715 309.569C353.66 307.677 355.865 303.58 355.865 303.58C359.96 295.069 362.795 285.928 364.37 276.787C365 266.386 365 256.614 363.74 246.843Z" fill="url(#paint2_linear_40_487)"/>
</g>
<defs>
<linearGradient id="paint0_linear_40_487" x1="249.528" y1="136.988" x2="156.911" y2="237.325" gradientUnits="userSpaceOnUse">
<stop offset="0.58" stop-color="#A0A8D4"/>
<stop offset="0.73" stop-color="#8791C7"/>
<stop offset="0.91" stop-color="#6470B4"/>
</linearGradient>
<linearGradient id="paint1_linear_40_487" x1="251.472" y1="386.222" x2="344.054" y2="285.957" gradientUnits="userSpaceOnUse">
<stop offset="0.58" stop-color="#A0A8D4"/>
<stop offset="0.73" stop-color="#8791C7"/>
<stop offset="0.91" stop-color="#6470B4"/>
</linearGradient>
<linearGradient id="paint2_linear_40_487" x1="250.413" y1="132.739" x2="250.413" y2="389.946" gradientUnits="userSpaceOnUse">
<stop stop-color="white"/>
<stop offset="0.18" stop-color="white"/>
<stop offset="0.57" stop-color="white"/>
<stop offset="1" stop-color="white"/>
</linearGradient>
<clipPath id="clip0_40_487">
<rect width="229" height="255" fill="white" transform="translate(136 134)"/>
</clipPath>
</defs>
</svg>
