<svg width="513" height="513" viewBox="0 0 513 513" fill="none" xmlns="http://www.w3.org/2000/svg">
<circle cx="256.942" cy="256.578" r="255.5" fill="black" stroke="white"/>
<path d="M261.051 154.774C261.051 154.268 261.716 154.082 261.978 154.514L323.941 256.692C324.086 256.932 324.007 257.244 323.764 257.384L261.801 293.264C261.468 293.457 261.051 293.216 261.051 292.831L261.051 154.774Z" fill="white" stroke="black"/>
<path d="M255.571 154.851C255.571 154.342 254.899 154.159 254.64 154.597L194.399 256.454C194.259 256.691 194.337 256.997 194.573 257.138L254.814 293.231C255.147 293.43 255.571 293.19 255.571 292.802L255.571 154.851Z" fill="white" stroke="black"/>
<path d="M196.472 268.968C196.16 268.528 196.669 267.973 197.134 268.247L255.324 302.548C255.476 302.637 255.57 302.801 255.57 302.978L255.57 350.492C255.57 350.979 254.945 351.179 254.662 350.782L254.255 351.072L254.662 350.782L196.472 268.968Z" fill="white" stroke="black"/>
<path d="M320.384 268.651C320.696 268.211 320.187 267.656 319.722 267.93L261.532 302.23C261.38 302.32 261.286 302.484 261.286 302.661L261.286 350.175C261.286 350.662 261.911 350.862 262.194 350.465L262.601 350.755L262.194 350.465L320.384 268.651Z" fill="white" stroke="black"/>
</svg>
