<svg width="513" height="513" viewBox="0 0 513 513" fill="none" xmlns="http://www.w3.org/2000/svg">
<circle cx="256.942" cy="256.578" r="255.5" fill="black" stroke="white"/>
<circle cx="256.943" cy="261.857" r="210.164" fill="black" stroke="white" stroke-width="4"/>
<path d="M258.596 163.364C258.596 162.859 259.261 162.673 259.524 163.105L321.487 265.283C321.632 265.523 321.552 265.835 321.31 265.975L259.347 301.855C259.013 302.048 258.596 301.807 258.596 301.422L258.596 163.364Z" fill="white" stroke="black"/>
<path d="M253.116 163.442C253.116 162.933 252.445 162.75 252.186 163.187L191.945 265.045C191.805 265.282 191.882 265.587 192.118 265.729L252.359 301.822C252.692 302.021 253.116 301.781 253.116 301.393L253.116 163.442Z" fill="white" stroke="black"/>
<path d="M194.018 277.559C193.705 277.119 194.214 276.564 194.679 276.838L252.869 311.138C253.022 311.228 253.115 311.392 253.115 311.569L253.115 359.083C253.115 359.57 252.49 359.77 252.208 359.373L251.8 359.663L252.208 359.373L194.018 277.559Z" fill="white" stroke="black"/>
<path d="M317.929 277.241C318.242 276.802 317.732 276.247 317.268 276.521L259.078 310.821C258.925 310.911 258.832 311.075 258.832 311.252L258.832 358.766C258.832 359.253 259.457 359.452 259.739 359.056L260.146 359.345L259.739 359.056L317.929 277.241Z" fill="white" stroke="black"/>
</svg>
