<svg width="513" height="513" viewBox="0 0 513 513" fill="none" xmlns="http://www.w3.org/2000/svg">
<circle cx="256.942" cy="256.578" r="255.5" fill="black" stroke="white"/>
<path d="M263.925 145.552L335.501 263.581C335.647 263.821 335.567 264.133 335.324 264.273L263.748 305.72C263.415 305.913 262.998 305.672 262.998 305.287L262.998 145.811C262.998 145.305 263.663 145.119 263.925 145.552Z" fill="white" stroke="black"/>
<path d="M255.918 145.634L186.324 263.306C186.184 263.543 186.261 263.848 186.497 263.99L256.092 305.687C256.425 305.886 256.849 305.646 256.849 305.258L256.848 145.888C256.848 145.38 256.177 145.196 255.918 145.634Z" fill="white" stroke="black"/>
<path d="M189.041 276.351L256.601 316.174C256.754 316.264 256.848 316.428 256.848 316.605L256.848 371.771C256.848 372.258 256.222 372.457 255.94 372.06L188.379 277.071C188.067 276.632 188.576 276.077 189.041 276.351Z" fill="white" stroke="black"/>
<path d="M331.075 275.986L263.515 315.81C263.362 315.9 263.269 316.063 263.269 316.24L263.269 371.406C263.269 371.893 263.894 372.093 264.176 371.696L331.737 276.707C332.049 276.267 331.54 275.712 331.075 275.986Z" fill="white" stroke="black"/>
</svg>
