<svg width="513" height="512" viewBox="0 0 513 512" fill="none" xmlns="http://www.w3.org/2000/svg">
<circle cx="256.184" cy="256" r="255.5" fill="black" stroke="white"/>
<g clip-path="url(#clip0_40_220)">
<path d="M145 252C145 238.195 156.225 227.015 170.086 227.015C183.947 227.015 195.172 215.835 195.172 202.03C195.172 188.225 206.442 177 220.303 177C234.164 177 245.389 188.18 245.389 201.985C245.389 215.79 234.164 226.97 220.303 226.97C206.442 226.97 195.217 238.15 195.217 251.955C195.217 265.76 206.442 276.94 220.303 276.94C234.164 276.94 245.389 288.119 245.389 301.925C245.389 315.73 234.164 326.909 220.303 326.909C206.442 326.909 195.217 315.73 195.217 301.925C195.217 288.119 183.992 276.94 170.131 276.94C156.27 276.94 145 265.805 145 252Z" fill="white"/>
<path d="M370 252C370 265.805 358.775 276.985 344.914 276.985C331.053 276.985 319.828 288.165 319.828 301.97C319.828 315.775 308.603 326.955 294.743 326.955C280.882 326.955 269.657 315.775 269.657 301.97C269.657 288.165 280.882 276.985 294.743 276.985C308.603 276.985 319.828 265.805 319.828 252C319.828 238.195 308.603 227.015 294.743 227.015C280.882 227.015 269.657 215.835 269.657 202.03C269.657 188.225 280.836 177 294.697 177C308.558 177 319.783 188.18 319.783 201.985C319.783 215.79 331.008 226.97 344.869 226.97C358.775 227.015 370 238.195 370 252Z" fill="white"/>
<path d="M282.154 252C282.154 265.398 271.247 276.306 257.75 276.306C244.253 276.306 233.346 265.443 233.346 252C233.346 238.602 244.253 227.694 257.75 227.694C271.202 227.694 282.154 238.557 282.154 252Z" fill="white"/>
</g>
<defs>
<clipPath id="clip0_40_220">
<rect width="225" height="150" fill="white" transform="translate(145 177)"/>
</clipPath>
</defs>
</svg>
