<svg width="513" height="512" viewBox="0 0 513 512" fill="none" xmlns="http://www.w3.org/2000/svg">
<circle cx="256.184" cy="256" r="255.5" fill="black" stroke="white"/>
<g clip-path="url(#clip0_40_220)">
<path d="M145 263C145 249.195 156.225 238.015 170.086 238.015C183.947 238.015 195.172 226.835 195.172 213.03C195.172 199.225 206.442 188 220.303 188C234.164 188 245.389 199.18 245.389 212.985C245.389 226.79 234.164 237.97 220.303 237.97C206.442 237.97 195.217 249.15 195.217 262.955C195.217 276.76 206.442 287.94 220.303 287.94C234.164 287.94 245.389 299.119 245.389 312.925C245.389 326.73 234.164 337.909 220.303 337.909C206.442 337.909 195.217 326.73 195.217 312.925C195.217 299.119 183.992 287.94 170.131 287.94C156.27 287.94 145 276.805 145 263Z" fill="white"/>
<path d="M370 263C370 276.805 358.775 287.985 344.914 287.985C331.053 287.985 319.828 299.165 319.828 312.97C319.828 326.775 308.603 337.955 294.743 337.955C280.882 337.955 269.657 326.775 269.657 312.97C269.657 299.165 280.882 287.985 294.743 287.985C308.603 287.985 319.828 276.805 319.828 263C319.828 249.195 308.603 238.015 294.743 238.015C280.882 238.015 269.657 226.835 269.657 213.03C269.657 199.225 280.836 188 294.697 188C308.558 188 319.783 199.18 319.783 212.985C319.783 226.79 331.008 237.97 344.869 237.97C358.775 238.015 370 249.195 370 263Z" fill="white"/>
<path d="M282.154 263C282.154 276.398 271.247 287.306 257.75 287.306C244.253 287.306 233.346 276.443 233.346 263C233.346 249.602 244.253 238.694 257.75 238.694C271.202 238.694 282.154 249.557 282.154 263Z" fill="white"/>
</g>
<defs>
<clipPath id="clip0_40_220">
<rect width="225" height="150" fill="white" transform="translate(145 188)"/>
</clipPath>
</defs>
</svg>
