<svg width="513" height="512" viewBox="0 0 513 512" fill="none" xmlns="http://www.w3.org/2000/svg">
<circle cx="256.184" cy="256" r="256" fill="black"/>
<g clip-path="url(#clip0_40_220)">
<path d="M95 256.5C95 236.713 111.114 220.688 131.012 220.688C150.91 220.688 167.024 204.664 167.024 184.877C167.024 165.089 183.204 149 203.102 149C223 149 239.114 165.024 239.114 184.812C239.114 204.599 223 220.623 203.102 220.623C183.204 220.623 167.089 236.648 167.089 256.435C167.089 276.222 183.204 292.247 203.102 292.247C223 292.247 239.114 308.271 239.114 328.059C239.114 347.846 223 363.87 203.102 363.87C183.204 363.87 167.089 347.846 167.089 328.059C167.089 308.271 150.975 292.247 131.077 292.247C111.179 292.247 95 276.287 95 256.5Z" fill="white"/>
<path d="M418 256.5C418 276.287 401.886 292.312 381.988 292.312C362.09 292.312 345.976 308.336 345.976 328.123C345.976 347.911 329.862 363.935 309.964 363.935C290.066 363.935 273.951 347.911 273.951 328.123C273.951 308.336 290.066 292.312 309.964 292.312C329.862 292.312 345.976 276.287 345.976 256.5C345.976 236.713 329.862 220.688 309.964 220.688C290.066 220.688 273.951 204.664 273.951 184.877C273.951 165.089 290 149 309.898 149C329.796 149 345.91 165.024 345.91 184.812C345.91 204.599 362.025 220.623 381.923 220.623C401.886 220.688 418 236.713 418 256.5Z" fill="white"/>
<path d="M291.892 256.5C291.892 275.704 276.235 291.339 256.859 291.339C237.483 291.339 221.825 275.768 221.825 256.5C221.825 237.297 237.483 221.662 256.859 221.662C276.17 221.662 291.892 237.232 291.892 256.5Z" fill="white"/>
</g>
<defs>
<clipPath id="clip0_40_220">
<rect width="323" height="215" fill="white" transform="translate(95 149)"/>
</clipPath>
</defs>
</svg>
