<svg width="513" height="513" viewBox="0 0 513 513" fill="none" xmlns="http://www.w3.org/2000/svg">
<circle cx="256.934" cy="256.155" r="255.5" fill="black" stroke="white"/>
<path fill-rule="evenodd" clip-rule="evenodd" d="M275.134 238.28L270.829 261.24L311.726 266.98L308.856 277.743L268.676 272.003C265.806 281.33 264.371 291.375 260.784 299.985C257.196 310.03 253.609 320.075 249.304 329.403C243.564 341.6 233.519 350.21 219.886 352.363C211.994 353.798 203.384 353.08 196.926 348.058C194.774 346.623 192.621 343.753 192.621 341.6C192.621 338.73 194.056 335.143 196.209 333.708C197.644 332.99 201.231 333.708 203.384 334.425C205.536 336.578 207.689 339.448 209.124 342.318C213.429 348.058 219.169 348.775 224.909 344.47C231.366 338.73 234.954 330.838 237.106 322.945C241.411 305.725 245.716 289.223 249.304 272.003V269.133L211.276 263.393L212.711 252.63L252.174 258.37L257.196 236.128L216.299 229.67L217.734 218.19L260.066 223.93C261.501 219.625 262.219 216.038 263.654 212.45C267.241 199.535 270.829 186.62 279.439 175.14C288.049 163.66 298.094 156.485 313.161 157.203C319.619 157.203 326.076 159.355 330.381 164.378C331.099 165.095 332.534 166.53 332.534 167.965C332.534 170.835 332.534 174.423 330.381 176.575C327.511 178.728 323.924 178.01 321.054 175.14C318.901 172.988 317.466 170.835 315.314 168.683C311.009 162.943 304.551 162.225 299.529 167.248C295.941 170.835 292.354 175.858 290.201 180.88C285.179 195.948 281.591 211.733 276.569 227.518L316.031 233.258L313.161 244.02L275.134 238.28Z" fill="white"/>
</svg>
