<svg width="513" height="513" viewBox="0 0 513 513" fill="none" xmlns="http://www.w3.org/2000/svg">
<circle cx="256.933" cy="256.155" r="255.5" fill="black" stroke="white"/>
<circle cx="256.933" cy="261.434" r="210.164" fill="black" stroke="white" stroke-width="4"/>
<path fill-rule="evenodd" clip-rule="evenodd" d="M275.133 238.28L270.828 261.24L311.725 266.98L308.855 277.743L268.675 272.003C265.805 281.33 264.37 291.375 260.783 299.985C257.195 310.03 253.608 320.075 249.303 329.403C243.563 341.6 233.518 350.21 219.885 352.363C211.993 353.798 203.383 353.08 196.925 348.058C194.773 346.623 192.62 343.753 192.62 341.6C192.62 338.73 194.055 335.143 196.208 333.708C197.643 332.99 201.23 333.708 203.383 334.425C205.535 336.578 207.688 339.448 209.123 342.318C213.428 348.058 219.168 348.775 224.908 344.47C231.365 338.73 234.953 330.838 237.105 322.945C241.41 305.725 245.715 289.223 249.303 272.003V269.133L211.275 263.393L212.71 252.63L252.173 258.37L257.195 236.128L216.298 229.67L217.733 218.19L260.065 223.93C261.5 219.625 262.218 216.038 263.653 212.45C267.24 199.535 270.828 186.62 279.438 175.14C288.048 163.66 298.093 156.485 313.16 157.203C319.618 157.203 326.075 159.355 330.38 164.378C331.098 165.095 332.533 166.53 332.533 167.965C332.533 170.835 332.533 174.423 330.38 176.575C327.51 178.728 323.923 178.01 321.053 175.14C318.9 172.988 317.465 170.835 315.313 168.683C311.008 162.943 304.55 162.225 299.528 167.248C295.94 170.835 292.353 175.858 290.2 180.88C285.178 195.948 281.59 211.733 276.568 227.518L316.03 233.258L313.16 244.02L275.133 238.28Z" fill="white"/>
</svg>
