<svg width="512" height="512" viewBox="0 0 512 512" fill="none" xmlns="http://www.w3.org/2000/svg">
<circle cx="256.001" cy="256" r="255.5" fill="black" stroke="white"/>
<g clip-path="url(#clip0_40_442)">
<path d="M257.5 440C358.292 440 440 358.292 440 257.5C440 156.708 358.292 75 257.5 75C156.708 75 75 156.708 75 257.5C75 358.292 156.708 440 257.5 440Z" fill="black"/>
<path d="M337.435 229.03H285.97V280.495H337.435V229.03Z" fill="white"/>
<path d="M234.505 299.84C234.505 310.425 225.745 319.185 215.16 319.185C204.575 319.185 195.815 310.425 195.815 299.84C195.815 289.255 204.575 280.495 215.16 280.495H234.505V229.03H215.16C176.105 229.03 144.35 260.785 144.35 299.84C144.35 338.895 176.105 370.65 215.16 370.65C254.215 370.65 285.97 338.895 285.97 299.84V280.495H234.505V299.84Z" fill="white"/>
<path d="M305.315 203.115H363.35V151.65H305.315C266.26 151.65 234.505 183.405 234.505 222.46V229.03H285.97V222.46C285.97 211.875 294.73 203.115 305.315 203.115Z" fill="white"/>
<path d="M285.97 229.03H234.505V280.495H285.97V229.03Z" fill="black"/>
</g>
<defs>
<clipPath id="clip0_40_442">
<rect width="365" height="365" fill="white" transform="translate(75 75)"/>
</clipPath>
</defs>
</svg>
