<svg width="512" height="512" viewBox="0 0 512 512" fill="none" xmlns="http://www.w3.org/2000/svg">
<circle cx="256.001" cy="256" r="256" fill="black"/>
<g clip-path="url(#clip0_40_442)">
<path d="M257.5 478C379.279 478 478 379.279 478 257.5C478 135.721 379.279 37 257.5 37C135.721 37 37 135.721 37 257.5C37 379.279 135.721 478 257.5 478Z" fill="black"/>
<path d="M354.079 223.102H291.898V285.283H354.079V223.102Z" fill="white"/>
<path d="M229.716 308.656C229.716 321.445 219.132 332.029 206.343 332.029C193.554 332.029 182.97 321.445 182.97 308.656C182.97 295.867 193.554 285.283 206.343 285.283H229.716V223.102H206.343C159.156 223.102 120.789 261.469 120.789 308.656C120.789 355.843 159.156 394.21 206.343 394.21C253.53 394.21 291.897 355.843 291.897 308.656V285.283H229.716V308.656Z" fill="white"/>
<path d="M315.271 191.791H385.39V129.61H315.271C268.084 129.61 229.717 167.977 229.717 215.164V223.102H291.898V215.164C291.898 202.375 302.482 191.791 315.271 191.791Z" fill="white"/>
<path d="M291.898 223.102H229.717V285.283H291.898V223.102Z" fill="black"/>
</g>
<defs>
<clipPath id="clip0_40_442">
<rect width="365" height="365" fill="white" transform="translate(75 75)"/>
</clipPath>
</defs>
</svg>
