<svg width="513" height="513" viewBox="0 0 513 513" fill="none" xmlns="http://www.w3.org/2000/svg">
<circle cx="256.183" cy="256.09" r="255.5" fill="black" stroke="white"/>
<path d="M241.418 149.534C246.594 146.796 254.508 146.796 259.684 149.534L312.645 177.459C315.775 179.114 317.49 181.552 317.791 184.109H317.851V324.457C317.791 327.225 316.045 329.964 312.645 331.769L259.684 359.694C254.508 362.432 246.594 362.432 241.418 359.694L188.457 331.769C185.087 329.994 183.462 327.225 183.371 324.457C183.371 324.186 183.371 323.945 183.371 323.765V185.072C183.371 184.892 183.371 184.681 183.371 184.501V184.14H183.402C183.642 181.582 185.267 179.174 188.457 177.489L241.418 149.534ZM309.425 262.137L259.654 288.467C254.478 291.206 246.594 291.206 241.388 288.467L191.737 262.197V324.035L241.388 350.155C244.337 351.72 247.376 353.254 250.355 353.315H250.536C253.515 353.315 256.374 351.81 259.293 350.396L309.425 323.795V262.137ZM175.036 321.418C175.036 326.804 175.668 330.325 176.872 332.822C177.895 334.899 179.429 336.463 182.228 338.389L182.378 338.51C182.98 338.931 183.672 339.352 184.485 339.864L185.448 340.466L188.427 342.271L184.184 349.403L180.844 347.387L180.272 347.025C179.309 346.424 178.497 345.912 177.774 345.401C169.8 339.984 166.851 334.086 166.791 321.779V321.418H175.036ZM246.534 224.823C246.143 224.944 245.782 225.124 245.45 225.275L192.58 253.29C192.519 253.32 192.459 253.35 192.429 253.38L192.369 253.41L192.459 253.471L192.58 253.531L245.45 281.546C245.782 281.727 246.143 281.877 246.534 281.997V224.823ZM254.959 224.823V281.997C255.351 281.877 255.712 281.697 256.043 281.546L308.914 253.531C308.974 253.501 309.034 253.471 309.064 253.441L309.094 253.41L309.004 253.35L308.884 253.29L256.013 225.275C255.712 225.124 255.351 224.944 254.959 224.823ZM309.425 194.13L261.881 219.106L309.425 244.082V194.13ZM191.767 194.13V244.082L239.312 219.106L191.767 194.13ZM255.983 156.997C253.244 155.553 248.249 155.553 245.511 156.997L192.58 184.982C192.519 185.012 192.459 185.042 192.429 185.072L192.369 185.103L192.459 185.163L192.58 185.223L245.511 213.208C248.249 214.652 253.244 214.652 255.983 213.208L308.914 185.223C308.974 185.193 309.034 185.163 309.064 185.133L309.094 185.103L309.004 185.042L308.884 184.982L255.983 156.997ZM317.309 159.826L320.649 161.842L321.221 162.203C322.184 162.805 322.997 163.316 323.719 163.828C331.693 169.244 334.642 175.142 334.702 187.45V187.811H326.457C326.457 182.424 325.825 178.904 324.622 176.406C323.598 174.33 322.064 172.765 319.265 170.839L319.115 170.719C318.513 170.297 317.821 169.876 317.008 169.365L316.045 168.763L313.066 166.957L317.309 159.826Z" fill="white"/>
</svg>
