<svg width="513" height="513" viewBox="0 0 513 513" fill="none" xmlns="http://www.w3.org/2000/svg">
<circle cx="256.183" cy="256.09" r="255.5" fill="black" stroke="white"/>
<circle cx="256.183" cy="261.369" r="210.164" fill="black" stroke="white" stroke-width="4"/>
<path d="M244.2 155.099C249.376 152.36 257.29 152.36 262.466 155.099L315.427 183.024C318.557 184.679 320.272 187.116 320.573 189.674H320.633V330.021C320.573 332.79 318.828 335.528 315.427 337.333L262.466 365.259C257.29 367.997 249.376 367.997 244.2 365.259L191.239 337.333C187.869 335.558 186.244 332.79 186.154 330.021C186.154 329.75 186.154 329.51 186.154 329.329V190.637C186.154 190.456 186.154 190.246 186.154 190.065V189.704H186.184C186.425 187.146 188.049 184.739 191.239 183.054L244.2 155.099ZM312.207 267.701L262.436 294.032C257.26 296.77 249.376 296.77 244.17 294.032L194.519 267.762V329.6L244.17 355.719C247.119 357.284 250.159 358.819 253.138 358.879H253.318C256.297 358.879 259.156 357.375 262.075 355.96L312.207 329.359V267.701ZM177.818 326.982C177.818 332.368 178.45 335.889 179.654 338.387C180.677 340.463 182.212 342.028 185.01 343.954L185.161 344.074C185.763 344.495 186.455 344.917 187.267 345.428L188.23 346.03L191.209 347.835L186.966 354.967L183.626 352.951L183.054 352.59C182.091 351.988 181.279 351.477 180.557 350.965C172.582 345.549 169.633 339.651 169.573 327.343V326.982H177.818ZM249.316 230.388C248.925 230.508 248.564 230.689 248.233 230.839L195.362 258.855C195.302 258.885 195.241 258.915 195.211 258.945L195.151 258.975L195.241 259.035L195.362 259.095L248.233 287.111C248.564 287.291 248.925 287.442 249.316 287.562V230.388ZM257.742 230.388V287.562C258.133 287.442 258.494 287.261 258.825 287.111L311.696 259.095C311.756 259.065 311.816 259.035 311.846 259.005L311.876 258.975L311.786 258.915L311.666 258.855L258.795 230.839C258.494 230.689 258.133 230.508 257.742 230.388ZM312.207 199.694L264.663 224.67L312.207 249.647V199.694ZM194.549 199.694V249.647L242.094 224.67L194.549 199.694ZM258.765 162.561C256.026 161.117 251.031 161.117 248.293 162.561L195.362 190.547C195.302 190.577 195.241 190.607 195.211 190.637L195.151 190.667L195.241 190.727L195.362 190.787L248.293 218.773C251.031 220.217 256.026 220.217 258.765 218.773L311.696 190.787C311.756 190.757 311.816 190.727 311.846 190.697L311.876 190.667L311.786 190.607L311.666 190.547L258.765 162.561ZM320.091 165.39L323.432 167.406L324.003 167.767C324.966 168.369 325.779 168.881 326.501 169.392C334.475 174.809 337.424 180.707 337.484 193.014V193.375H329.239C329.239 187.989 328.607 184.468 327.404 181.97C326.381 179.894 324.846 178.329 322.047 176.404L321.897 176.283C321.295 175.862 320.603 175.441 319.791 174.929L318.828 174.327L315.849 172.522L320.091 165.39Z" fill="white"/>
</svg>
