<svg width="513" height="513" viewBox="0 0 513 513" fill="none" xmlns="http://www.w3.org/2000/svg">
<circle cx="256.183" cy="256.09" r="256" fill="black"/>
<path d="M241.111 87.3931C249.649 82.869 262.705 82.869 271.244 87.3931L358.613 133.529C363.775 136.264 366.605 140.29 367.101 144.516H367.201V376.39C367.101 380.964 364.222 385.488 358.613 388.471L271.244 434.607C262.705 439.131 249.649 439.131 241.111 434.607L153.742 388.471C148.182 385.538 145.501 380.964 145.353 376.39C145.353 375.942 145.353 375.545 145.353 375.246V146.107C145.353 145.809 145.353 145.461 145.353 145.163V144.566H145.402C145.799 140.34 148.48 136.363 153.742 133.579L241.111 87.3931ZM353.301 273.429L271.194 316.93C262.656 321.454 249.649 321.454 241.061 316.93L159.153 273.528V375.694L241.061 418.847C245.926 421.432 250.94 423.968 255.855 424.067H256.153C261.067 424.067 265.783 421.581 270.598 419.245L353.301 375.296V273.429ZM131.602 371.369C131.602 380.268 132.644 386.084 134.63 390.211C136.318 393.641 138.849 396.226 143.466 399.408L143.714 399.607C144.707 400.303 145.849 400.999 147.189 401.844L148.778 402.839L153.692 405.822L146.693 417.604L141.183 414.273L140.239 413.677C138.651 412.682 137.311 411.837 136.119 410.992C122.964 402.043 118.099 392.299 118 371.965V371.369H131.602ZM249.55 211.782C248.905 211.98 248.309 212.279 247.763 212.527L160.543 258.813C160.444 258.862 160.344 258.912 160.295 258.962L160.195 259.011L160.344 259.111L160.543 259.21L247.763 305.495C248.309 305.794 248.905 306.042 249.55 306.241V211.782ZM263.45 211.782V306.241C264.095 306.042 264.691 305.744 265.237 305.495L352.457 259.21C352.556 259.16 352.656 259.111 352.705 259.061L352.755 259.011L352.606 258.912L352.408 258.813L265.187 212.527C264.691 212.279 264.095 211.98 263.45 211.782ZM353.301 161.072L274.867 202.336L353.301 243.6V161.072ZM159.203 161.072V243.6L237.636 202.336L159.203 161.072ZM265.138 99.7226C260.62 97.3362 252.38 97.3362 247.862 99.7226L160.543 145.958C160.444 146.008 160.344 146.057 160.295 146.107L160.195 146.157L160.344 146.256L160.543 146.356L247.862 192.591C252.38 194.978 260.62 194.978 265.138 192.591L352.457 146.356C352.556 146.306 352.656 146.256 352.705 146.207L352.755 146.157L352.606 146.057L352.408 145.958L265.138 99.7226ZM366.307 104.396L371.817 107.727L372.761 108.323C374.349 109.318 375.689 110.163 376.881 111.008C390.036 119.957 394.901 129.701 395 150.035V150.631H381.398C381.398 141.732 380.356 135.916 378.37 131.789C376.682 128.359 374.151 125.774 369.534 122.592L369.286 122.393C368.293 121.697 367.151 121.001 365.811 120.156L364.222 119.161L359.308 116.178L366.307 104.396Z" fill="white"/>
</svg>
