<?xml version="1.0" encoding="UTF-8"?>
<!DOCTYPE svg PUBLIC "-//W3C//DTD SVG 1.1//EN" "http://www.w3.org/Graphics/SVG/1.1/DTD/svg11.dtd">
<svg xmlns="http://www.w3.org/2000/svg" version="1.1" width="64px" height="64px" style="shape-rendering:geometricPrecision; text-rendering:geometricPrecision; image-rendering:optimizeQuality; fill-rule:evenodd; clip-rule:evenodd" xmlns:xlink="http://www.w3.org/1999/xlink">
<g><path style="opacity:1" fill="#ecf5ee" d="M -0.5,-0.5 C 12.1667,-0.5 24.8333,-0.5 37.5,-0.5C 35.9639,2.09219 33.6305,3.09219 30.5,2.5C 29.7611,2.36899 29.0944,2.53566 28.5,3C 29.7596,4.81377 29.7596,6.64711 28.5,8.5C 25.3498,8.76574 22.6832,9.76574 20.5,11.5C 19.8333,11.5 19.1667,11.5 18.5,11.5C 16.4727,11.6621 14.4727,11.4955 12.5,11C 13.1129,7.08128 11.4462,4.24795 7.5,2.5C 4.95673,4.47794 2.29007,4.81127 -0.5,3.5C -0.5,2.16667 -0.5,0.833333 -0.5,-0.5 Z"/></g>
<g><path style="opacity:1" fill="#e5f1e7" d="M 37.5,-0.5 C 40.1667,-0.5 42.8333,-0.5 45.5,-0.5C 45.0172,3.51275 46.6839,5.84608 50.5,6.5C 43.155,8.2672 36.4883,6.93387 30.5,2.5C 33.6305,3.09219 35.9639,2.09219 37.5,-0.5 Z"/></g>
<g><path style="opacity:1" fill="#f8fbfa" d="M 45.5,-0.5 C 51.5,-0.5 57.5,-0.5 63.5,-0.5C 63.5,0.166667 63.5,0.833333 63.5,1.5C 61.1835,5.12789 58.1835,8.12789 54.5,10.5C 52.603,9.63191 51.2696,8.29858 50.5,6.5C 46.6839,5.84608 45.0172,3.51275 45.5,-0.5 Z"/></g>
<g><path style="opacity:1" fill="#b4dcd7" d="M 18.5,11.5 C 18.2671,13.0618 17.6005,14.3951 16.5,15.5C 13.322,16.3439 10.6554,18.0105 8.5,20.5C 5.51763,20.0371 2.51763,19.7038 -0.5,19.5C -0.5,14.1667 -0.5,8.83333 -0.5,3.5C 2.29007,4.81127 4.95673,4.47794 7.5,2.5C 11.4462,4.24795 13.1129,7.08128 12.5,11C 14.4727,11.4955 16.4727,11.6621 18.5,11.5 Z"/></g>
<g><path style="opacity:1" fill="#b5ddd8" d="M 63.5,1.5 C 63.5,5.5 63.5,9.5 63.5,13.5C 60.6027,14.129 57.936,15.129 55.5,16.5C 54.1667,16.5 52.8333,16.5 51.5,16.5C 49.0521,15.5269 46.3854,15.1936 43.5,15.5C 42.2101,14.9423 41.3768,13.9423 41,12.5C 39.3066,13.1845 37.8066,14.1845 36.5,15.5C 37.1009,12.8624 37.1009,10.5291 36.5,8.5C 35.4164,9.66508 34.5831,10.9984 34,12.5C 33.3457,11.3044 32.8457,11.3044 32.5,12.5C 33.1667,13.1667 33.8333,13.8333 34.5,14.5C 33.277,15.6139 31.9437,15.7805 30.5,15C 31.3366,13.9887 31.67,12.8221 31.5,11.5C 27.7356,11.5883 24.2356,12.5883 21,14.5C 21.1085,13.2312 20.9418,12.2312 20.5,11.5C 22.6832,9.76574 25.3498,8.76574 28.5,8.5C 29.7596,6.64711 29.7596,4.81377 28.5,3C 29.0944,2.53566 29.7611,2.36899 30.5,2.5C 36.4883,6.93387 43.155,8.2672 50.5,6.5C 51.2696,8.29858 52.603,9.63191 54.5,10.5C 58.1835,8.12789 61.1835,5.12789 63.5,1.5 Z"/></g>
<g><path style="opacity:1" fill="#b0d9d2" d="M 43.5,15.5 C 40.8333,16.1667 38.1667,16.8333 35.5,17.5C 32.503,16.3823 29.1697,16.3823 25.5,17.5C 22.9732,16.5891 19.9732,15.9225 16.5,15.5C 17.6005,14.3951 18.2671,13.0618 18.5,11.5C 19.1667,11.5 19.8333,11.5 20.5,11.5C 20.9418,12.2312 21.1085,13.2312 21,14.5C 24.2356,12.5883 27.7356,11.5883 31.5,11.5C 31.67,12.8221 31.3366,13.9887 30.5,15C 31.9437,15.7805 33.277,15.6139 34.5,14.5C 33.8333,13.8333 33.1667,13.1667 32.5,12.5C 32.8457,11.3044 33.3457,11.3044 34,12.5C 34.5831,10.9984 35.4164,9.66508 36.5,8.5C 37.1009,10.5291 37.1009,12.8624 36.5,15.5C 37.8066,14.1845 39.3066,13.1845 41,12.5C 41.3768,13.9423 42.2101,14.9423 43.5,15.5 Z"/></g>
<g><path style="opacity:1" fill="#4d6777" d="M 63.5,13.5 C 63.5,14.8333 63.5,16.1667 63.5,17.5C 60.9455,16.612 58.2788,16.2786 55.5,16.5C 57.936,15.129 60.6027,14.129 63.5,13.5 Z"/></g>
<g><path style="opacity:1" fill="#abde50" d="M 35.5,17.5 C 38.925,17.3668 39.2583,18.0335 36.5,19.5C 35.8333,19.5 35.1667,19.5 34.5,19.5C 31.8127,19.6641 29.146,19.4974 26.5,19C 25.944,18.6174 25.6107,18.1174 25.5,17.5C 29.1697,16.3823 32.503,16.3823 35.5,17.5 Z"/></g>
<g><path style="opacity:1" fill="#a7df4f" d="M 51.5,16.5 C 52.8333,16.5 54.1667,16.5 55.5,16.5C 58.2788,16.2786 60.9455,16.612 63.5,17.5C 63.5,18.5 63.5,19.5 63.5,20.5C 60.5,20.5 57.5,20.5 54.5,20.5C 54.1667,20.5 53.8333,20.5 53.5,20.5C 52.7101,19.2058 51.7101,18.0391 50.5,17C 50.7284,16.6012 51.0618,16.4346 51.5,16.5 Z"/></g>
<g><path style="opacity:1" fill="#070c06" d="M 23.5,22.5 C 23.5,22.8333 23.5,23.1667 23.5,23.5C 23.5,28.1667 21.1667,30.5 16.5,30.5C 15.1667,29.8333 13.8333,29.1667 12.5,28.5C 10.4117,23.01 12.245,19.6767 18,18.5C 20.5453,19.0074 22.3786,20.3407 23.5,22.5 Z"/></g>
<g><path style="opacity:1" fill="#070c07" d="M 39.5,26.5 C 39.5,25.1667 39.5,23.8333 39.5,22.5C 41.9623,18.5169 45.2956,17.6835 49.5,20C 53.0546,25.4154 51.7212,28.9154 45.5,30.5C 43.2345,29.5684 41.2345,28.2351 39.5,26.5 Z"/></g>
<g><path style="opacity:1" fill="#51a14d" d="M 34.5,19.5 C 35.1667,19.5 35.8333,19.5 36.5,19.5C 38.5,19.5 39.5,20.5 39.5,22.5C 39.5,23.8333 39.5,25.1667 39.5,26.5C 39.0472,27.4584 38.3805,28.2917 37.5,29C 40.7982,29.2994 41.1315,30.1327 38.5,31.5C 37.5,31.5 36.5,31.5 35.5,31.5C 36.3029,30.5768 36.4696,29.5768 36,28.5C 35.0862,29.6537 34.2529,29.487 33.5,28C 33.8333,27.6667 34.1667,27.3333 34.5,27C 32.1517,26.8898 30.6517,25.7231 30,23.5C 28.1759,24.7487 28.3426,25.9153 30.5,27C 29.5838,27.3742 28.7504,27.8742 28,28.5C 27.0808,26.6329 26.5808,24.6329 26.5,22.5C 25.5832,23.1272 24.5832,23.4606 23.5,23.5C 23.5,23.1667 23.5,22.8333 23.5,22.5C 23.7751,20.2417 24.7751,19.9084 26.5,21.5C 29.3106,20.9204 31.9773,20.2537 34.5,19.5 Z"/></g>
<g><path style="opacity:1" fill="#dedede" d="M 45.5,21.5 C 45.8966,20.475 46.5632,20.3083 47.5,21C 49.0074,21.8373 49.5074,23.0039 49,24.5C 47.9609,23.2899 46.7942,22.2899 45.5,21.5 Z"/></g>
<g><path style="opacity:1" fill="#7bcd60" d="M 54.5,20.5 C 57.5,20.5 60.5,20.5 63.5,20.5C 63.5,22.5 63.5,24.5 63.5,26.5C 60.9455,27.388 58.2788,27.7214 55.5,27.5C 54.7814,25.2362 54.448,22.9029 54.5,20.5 Z"/></g>
<g><path style="opacity:1" fill="#a2d84b" d="M -0.5,19.5 C 2.51763,19.7038 5.51763,20.0371 8.5,20.5C 8.79472,22.7354 8.46138,24.7354 7.5,26.5C 4.94551,25.612 2.27884,25.2786 -0.5,25.5C -0.5,23.5 -0.5,21.5 -0.5,19.5 Z"/></g>
<g><path style="opacity:1" fill="#d6d7d7" d="M 15.5,20.5 C 16.2389,20.369 16.9056,20.5357 17.5,21C 16.3816,22.0736 15.3816,23.2402 14.5,24.5C 14.1667,24.3333 13.8333,24.1667 13.5,24C 14.305,22.8873 14.9717,21.7206 15.5,20.5 Z"/></g>
<g><path style="opacity:1" fill="#60c573" d="M -0.5,25.5 C 2.27884,25.2786 4.94551,25.612 7.5,26.5C 7.52006,31.5395 7.18673,36.2061 6.5,40.5C 6.52992,39.5028 6.02992,38.8361 5,38.5C 3.23411,39.2335 1.40078,39.5668 -0.5,39.5C -0.5,34.8333 -0.5,30.1667 -0.5,25.5 Z"/></g>
<g><path style="opacity:1" fill="#4d9a49" d="M 35.5,31.5 C 31.1539,31.3343 26.8206,31.501 22.5,32C 21.3157,33.1455 21.3157,34.3121 22.5,35.5C 19.7122,34.7735 17.7122,33.1068 16.5,30.5C 21.1667,30.5 23.5,28.1667 23.5,23.5C 24.5832,23.4606 25.5832,23.1272 26.5,22.5C 26.5808,24.6329 27.0808,26.6329 28,28.5C 28.7504,27.8742 29.5838,27.3742 30.5,27C 28.3426,25.9153 28.1759,24.7487 30,23.5C 30.6517,25.7231 32.1517,26.8898 34.5,27C 34.1667,27.3333 33.8333,27.6667 33.5,28C 34.2529,29.487 35.0862,29.6537 36,28.5C 36.4696,29.5768 36.3029,30.5768 35.5,31.5 Z"/></g>
<g><path style="opacity:1" fill="#4c9248" d="M 16.5,15.5 C 19.9732,15.9225 22.9732,16.5891 25.5,17.5C 25.6107,18.1174 25.944,18.6174 26.5,19C 29.146,19.4974 31.8127,19.6641 34.5,19.5C 31.9773,20.2537 29.3106,20.9204 26.5,21.5C 24.7751,19.9084 23.7751,20.2417 23.5,22.5C 22.3786,20.3407 20.5453,19.0074 18,18.5C 12.245,19.6767 10.4117,23.01 12.5,28.5C 12.7512,30.1703 13.4178,31.6703 14.5,33C 9.55574,34.2908 8.88907,36.2908 12.5,39C 11.5509,39.6172 10.7175,39.4506 10,38.5C 9.54392,39.7441 10.0439,40.5774 11.5,41C 10.6195,41.7083 9.9528,42.5416 9.5,43.5C 8.70951,44.4013 7.70951,45.0679 6.5,45.5C 6.5,43.8333 6.5,42.1667 6.5,40.5C 7.18673,36.2061 7.52006,31.5395 7.5,26.5C 8.46138,24.7354 8.79472,22.7354 8.5,20.5C 10.6554,18.0105 13.322,16.3439 16.5,15.5 Z"/></g>
<g><path style="opacity:1" fill="#50994c" d="M 43.5,15.5 C 46.3854,15.1936 49.0521,15.5269 51.5,16.5C 51.0618,16.4346 50.7284,16.6012 50.5,17C 51.7101,18.0391 52.7101,19.2058 53.5,20.5C 53.5524,24.1981 53.8857,27.8648 54.5,31.5C 52.5165,31.3832 50.8498,32.0499 49.5,33.5C 48.9495,35.6568 48.2829,37.6568 47.5,39.5C 47.3525,35.6824 45.6859,34.349 42.5,35.5C 42.7373,34.209 42.404,33.209 41.5,32.5C 40.209,32.7373 39.209,32.404 38.5,31.5C 41.1315,30.1327 40.7982,29.2994 37.5,29C 38.3805,28.2917 39.0472,27.4584 39.5,26.5C 41.2345,28.2351 43.2345,29.5684 45.5,30.5C 51.7212,28.9154 53.0546,25.4154 49.5,20C 45.2956,17.6835 41.9623,18.5169 39.5,22.5C 39.5,20.5 38.5,19.5 36.5,19.5C 39.2583,18.0335 38.925,17.3668 35.5,17.5C 38.1667,16.8333 40.8333,16.1667 43.5,15.5 Z"/></g>
<g><path style="opacity:1" fill="#754149" d="M 35.5,31.5 C 36.5,31.5 37.5,31.5 38.5,31.5C 39.209,32.404 40.209,32.7373 41.5,32.5C 41.4431,33.609 41.1098,34.609 40.5,35.5C 36.7016,36.4834 32.7016,36.8168 28.5,36.5C 26.8333,36.5 25.1667,36.5 23.5,36.5C 23.5,35.8333 23.1667,35.5 22.5,35.5C 21.3157,34.3121 21.3157,33.1455 22.5,32C 26.8206,31.501 31.1539,31.3343 35.5,31.5 Z"/></g>
<g><path style="opacity:1" fill="#222a18" d="M 41.5,32.5 C 42.404,33.209 42.7373,34.209 42.5,35.5C 41.8333,35.5 41.1667,35.5 40.5,35.5C 41.1098,34.609 41.4431,33.609 41.5,32.5 Z"/></g>
<g><path style="opacity:1" fill="#4d9d49" d="M 40.5,35.5 C 41.1667,35.5 41.8333,35.5 42.5,35.5C 43.5025,37.0109 44.1692,38.6776 44.5,40.5C 40.4152,40.5823 37.7485,42.5823 36.5,46.5C 35.3044,46.1543 35.3044,45.6543 36.5,45C 35.2506,44.2599 34.2506,44.4265 33.5,45.5C 30.8053,43.7491 30.1387,41.4158 31.5,38.5C 30.3984,37.8243 29.3984,37.1577 28.5,36.5C 32.7016,36.8168 36.7016,36.4834 40.5,35.5 Z"/></g>
<g><path style="opacity:1" fill="#43773f" d="M 53.5,20.5 C 53.8333,20.5 54.1667,20.5 54.5,20.5C 54.448,22.9029 54.7814,25.2362 55.5,27.5C 55.19,30.7131 55.5233,33.7131 56.5,36.5C 56.5,39.1667 56.5,41.8333 56.5,44.5C 55.1045,40.4091 54.4379,36.0758 54.5,31.5C 53.8857,27.8648 53.5524,24.1981 53.5,20.5 Z"/></g>
<g><path style="opacity:1" fill="#4f9f4b" d="M 12.5,28.5 C 13.8333,29.1667 15.1667,29.8333 16.5,30.5C 17.7122,33.1068 19.7122,34.7735 22.5,35.5C 23.1667,35.5 23.5,35.8333 23.5,36.5C 21.9705,37.0668 20.4705,37.7334 19,38.5C 17.8239,41.3052 17.3239,43.9719 17.5,46.5C 17.2882,48.3841 16.2882,49.7174 14.5,50.5C 13.6915,48.5779 13.6915,46.4112 14.5,44C 13.0383,42.3721 11.3717,42.2054 9.5,43.5C 9.9528,42.5416 10.6195,41.7083 11.5,41C 10.0439,40.5774 9.54392,39.7441 10,38.5C 10.7175,39.4506 11.5509,39.6172 12.5,39C 8.88907,36.2908 9.55574,34.2908 14.5,33C 13.4178,31.6703 12.7512,30.1703 12.5,28.5 Z"/></g>
<g><path style="opacity:1" fill="#4d9b4a" d="M 54.5,31.5 C 54.4379,36.0758 55.1045,40.4091 56.5,44.5C 58.5917,47.681 60.925,50.681 63.5,53.5C 63.5,56.5 63.5,59.5 63.5,62.5C 59.8616,58.5259 56.1949,54.5259 52.5,50.5C 52.1632,48.328 51.1632,46.4946 49.5,45C 50.1667,44.3333 50.8333,43.6667 51.5,43C 50.6313,41.1315 49.4646,40.6315 48,41.5C 47.5357,40.9056 47.369,40.2389 47.5,39.5C 48.2829,37.6568 48.9495,35.6568 49.5,33.5C 50.8498,32.0499 52.5165,31.3832 54.5,31.5 Z"/></g>
<g><path style="opacity:1" fill="#50a04c" d="M 23.5,36.5 C 25.1667,36.5 26.8333,36.5 28.5,36.5C 29.3984,37.1577 30.3984,37.8243 31.5,38.5C 30.1387,41.4158 30.8053,43.7491 33.5,45.5C 33.8799,47.698 33.2132,49.3646 31.5,50.5C 30.5416,50.9528 29.7083,51.6195 29,52.5C 28.6667,50.8333 28.3333,49.1667 28,47.5C 26.5553,49.6117 26.7219,51.7784 28.5,54C 27.1011,54.5946 25.7678,54.4279 24.5,53.5C 23.7582,55.3497 22.7582,56.0164 21.5,55.5C 21.5319,57.4888 22.3653,59.4888 24,61.5C 25.5793,60.828 26.746,61.4947 27.5,63.5C 21.8333,63.5 16.1667,63.5 10.5,63.5C 11.3984,62.8423 12.3984,62.1757 13.5,61.5C 12.7528,61.2635 11.9195,60.9302 11,60.5C 10.4202,57.4525 10.7535,57.1192 12,59.5C 15.479,56.8413 18.6457,53.8413 21.5,50.5C 22.8946,51.8146 23.8946,51.4812 24.5,49.5C 23.1691,48.4078 22.3357,47.0745 22,45.5C 21.7104,47.0441 21.0437,48.3774 20,49.5C 18.513,48.7471 18.3463,47.9138 19.5,47C 18.9056,46.5357 18.2389,46.369 17.5,46.5C 17.3239,43.9719 17.8239,41.3052 19,38.5C 20.4705,37.7334 21.9705,37.0668 23.5,36.5 Z"/></g>
<g><path style="opacity:1" fill="#aae449" d="M 63.5,26.5 C 63.5,32.8333 63.5,39.1667 63.5,45.5C 62.1667,45.5 60.8333,45.5 59.5,45.5C 59.2965,43.6096 59.9632,42.1096 61.5,41C 59.9963,39.5093 59.1629,37.676 59,35.5C 58.3292,36.2524 57.4959,36.5858 56.5,36.5C 55.5233,33.7131 55.19,30.7131 55.5,27.5C 58.2788,27.7214 60.9455,27.388 63.5,26.5 Z"/></g>
<g><path style="opacity:1" fill="#aae349" d="M 6.5,40.5 C 6.5,42.1667 6.5,43.8333 6.5,45.5C 3.92502,48.319 1.59168,51.319 -0.5,54.5C -0.5,49.5 -0.5,44.5 -0.5,39.5C 1.40078,39.5668 3.23411,39.2335 5,38.5C 6.02992,38.8361 6.52992,39.5028 6.5,40.5 Z"/></g>
<g><path style="opacity:1" fill="#50a04c" d="M 47.5,39.5 C 47.369,40.2389 47.5357,40.9056 48,41.5C 49.4646,40.6315 50.6313,41.1315 51.5,43C 50.8333,43.6667 50.1667,44.3333 49.5,45C 51.1632,46.4946 52.1632,48.328 52.5,50.5C 51.7611,50.369 51.0944,50.5357 50.5,51C 52.7363,54.8757 54.0697,59.0424 54.5,63.5C 51.8333,63.5 49.1667,63.5 46.5,63.5C 46.7038,60.4824 47.0371,57.4824 47.5,54.5C 46.325,54.719 45.325,54.3857 44.5,53.5C 43.4586,51.4148 41.9586,49.7481 40,48.5C 39.5439,49.7441 40.0439,50.5774 41.5,51C 39.1224,51.9745 39.4557,52.6411 42.5,53C 41.2341,53.3095 40.0674,53.8095 39,54.5C 38.8905,51.3543 37.5572,50.3543 35,51.5C 35.4712,49.3845 34.9712,47.3845 33.5,45.5C 34.2506,44.4265 35.2506,44.2599 36.5,45C 35.3044,45.6543 35.3044,46.1543 36.5,46.5C 37.7485,42.5823 40.4152,40.5823 44.5,40.5C 44.1692,38.6776 43.5025,37.0109 42.5,35.5C 45.6859,34.349 47.3525,35.6824 47.5,39.5 Z"/></g>
<g><path style="opacity:1" fill="#63c973" d="M 63.5,45.5 C 63.5,48.1667 63.5,50.8333 63.5,53.5C 60.925,50.681 58.5917,47.681 56.5,44.5C 56.5,41.8333 56.5,39.1667 56.5,36.5C 57.4959,36.5858 58.3292,36.2524 59,35.5C 59.1629,37.676 59.9963,39.5093 61.5,41C 59.9632,42.1096 59.2965,43.6096 59.5,45.5C 60.8333,45.5 62.1667,45.5 63.5,45.5 Z"/></g>
<g><path style="opacity:1" fill="#4d9b49" d="M 17.5,46.5 C 18.2389,46.369 18.9056,46.5357 19.5,47C 18.3463,47.9138 18.513,48.7471 20,49.5C 21.0437,48.3774 21.7104,47.0441 22,45.5C 22.3357,47.0745 23.1691,48.4078 24.5,49.5C 23.8946,51.4812 22.8946,51.8146 21.5,50.5C 18.6457,53.8413 15.479,56.8413 12,59.5C 10.7535,57.1192 10.4202,57.4525 11,60.5C 11.9195,60.9302 12.7528,61.2635 13.5,61.5C 12.3984,62.1757 11.3984,62.8423 10.5,63.5C 9.83333,63.5 9.16667,63.5 8.5,63.5C 9.26504,59.4017 10.0984,55.4017 11,51.5C 6.76236,54.8457 2.92903,58.5124 -0.5,62.5C -0.5,59.8333 -0.5,57.1667 -0.5,54.5C 1.59168,51.319 3.92502,48.319 6.5,45.5C 7.70951,45.0679 8.70951,44.4013 9.5,43.5C 11.3717,42.2054 13.0383,42.3721 14.5,44C 13.6915,46.4112 13.6915,48.5779 14.5,50.5C 16.2882,49.7174 17.2882,48.3841 17.5,46.5 Z"/></g>
<g><path style="opacity:1" fill="#52a24e" d="M 31.5,50.5 C 32.0476,51.6885 32.3809,52.8552 32.5,54C 31.6872,55.3139 30.6872,56.4805 29.5,57.5C 31.4236,57.1064 33.257,57.773 35,59.5C 35.2213,56.0569 36.2213,55.7236 38,58.5C 38.3333,57.5 38.6667,56.5 39,55.5C 39.6667,56.8333 40.3333,56.8333 41,55.5C 40.8475,57.5185 40.3475,59.5185 39.5,61.5C 36.452,63.4703 34.2853,62.8036 33,59.5C 32.6667,59.8333 32.3333,60.1667 32,60.5C 30.6012,59.7734 29.1012,59.2734 27.5,59C 28.6537,58.0862 28.487,57.2529 27,56.5C 26.5,57.6667 25.6667,58.5 24.5,59C 26.1667,60 27.8333,61 29.5,62C 28.944,62.3826 28.6107,62.8826 28.5,63.5C 28.1667,63.5 27.8333,63.5 27.5,63.5C 26.746,61.4947 25.5793,60.828 24,61.5C 22.3653,59.4888 21.5319,57.4888 21.5,55.5C 22.7582,56.0164 23.7582,55.3497 24.5,53.5C 25.7678,54.4279 27.1011,54.5946 28.5,54C 26.7219,51.7784 26.5553,49.6117 28,47.5C 28.3333,49.1667 28.6667,50.8333 29,52.5C 29.7083,51.6195 30.5416,50.9528 31.5,50.5 Z"/></g>
<g><path style="opacity:1" fill="#133f13" d="M 8.5,63.5 C 7.83333,63.5 7.16667,63.5 6.5,63.5C 6.48238,57.399 5.14905,57.399 2.5,63.5C 1.5,63.5 0.5,63.5 -0.5,63.5C -0.5,63.1667 -0.5,62.8333 -0.5,62.5C 2.92903,58.5124 6.76236,54.8457 11,51.5C 10.0984,55.4017 9.26504,59.4017 8.5,63.5 Z"/></g>
<g><path style="opacity:1" fill="#4f9e4b" d="M 33.5,45.5 C 34.9712,47.3845 35.4712,49.3845 35,51.5C 37.5572,50.3543 38.8905,51.3543 39,54.5C 40.0674,53.8095 41.2341,53.3095 42.5,53C 39.4557,52.6411 39.1224,51.9745 41.5,51C 40.0439,50.5774 39.5439,49.7441 40,48.5C 41.9586,49.7481 43.4586,51.4148 44.5,53.5C 45.325,54.3857 46.325,54.719 47.5,54.5C 47.0371,57.4824 46.7038,60.4824 46.5,63.5C 40.5,63.5 34.5,63.5 28.5,63.5C 28.6107,62.8826 28.944,62.3826 29.5,62C 27.8333,61 26.1667,60 24.5,59C 25.6667,58.5 26.5,57.6667 27,56.5C 28.487,57.2529 28.6537,58.0862 27.5,59C 29.1012,59.2734 30.6012,59.7734 32,60.5C 32.3333,60.1667 32.6667,59.8333 33,59.5C 34.2853,62.8036 36.452,63.4703 39.5,61.5C 40.3475,59.5185 40.8475,57.5185 41,55.5C 40.3333,56.8333 39.6667,56.8333 39,55.5C 38.6667,56.5 38.3333,57.5 38,58.5C 36.2213,55.7236 35.2213,56.0569 35,59.5C 33.257,57.773 31.4236,57.1064 29.5,57.5C 30.6872,56.4805 31.6872,55.3139 32.5,54C 32.3809,52.8552 32.0476,51.6885 31.5,50.5C 33.2132,49.3646 33.8799,47.698 33.5,45.5 Z"/></g>
<g><path style="opacity:1" fill="#194719" d="M 52.5,50.5 C 56.1949,54.5259 59.8616,58.5259 63.5,62.5C 63.5,62.8333 63.5,63.1667 63.5,63.5C 62.5,63.5 61.5,63.5 60.5,63.5C 58.6464,58.5789 57.6464,58.5789 57.5,63.5C 56.5,63.5 55.5,63.5 54.5,63.5C 54.0697,59.0424 52.7363,54.8757 50.5,51C 51.0944,50.5357 51.7611,50.369 52.5,50.5 Z"/></g>
<g><path style="opacity:1" fill="#62c47a" d="M 6.5,63.5 C 5.16667,63.5 3.83333,63.5 2.5,63.5C 5.14905,57.399 6.48238,57.399 6.5,63.5 Z"/></g>
<g><path style="opacity:1" fill="#5bc575" d="M 60.5,63.5 C 59.5,63.5 58.5,63.5 57.5,63.5C 57.6464,58.5789 58.6464,58.5789 60.5,63.5 Z"/></g>
</svg>
