<?xml version="1.0" encoding="UTF-8"?>
<!DOCTYPE svg PUBLIC "-//W3C//DTD SVG 1.1//EN" "http://www.w3.org/Graphics/SVG/1.1/DTD/svg11.dtd">
<svg xmlns="http://www.w3.org/2000/svg" version="1.1" width="64px" height="64px" style="shape-rendering:geometricPrecision; text-rendering:geometricPrecision; image-rendering:optimizeQuality; fill-rule:evenodd; clip-rule:evenodd" xmlns:xlink="http://www.w3.org/1999/xlink">
<g><path style="opacity:1" fill="#3d3d3d" d="M 16.5,-0.5 C 32.1667,-0.5 47.8333,-0.5 63.5,-0.5C 63.5,11.5 63.5,23.5 63.5,35.5C 62.7561,32.6404 62.0894,29.6404 61.5,26.5C 63.0224,24.8437 62.689,23.677 60.5,23C 61.1667,21.6667 61.8333,20.3333 62.5,19C 60.7992,15.7374 59.4658,12.2374 58.5,8.5C 55.2783,4.36773 51.2783,3.20107 46.5,5C 43.9797,7.79754 41.3131,9.63087 38.5,10.5C 39.1667,11.8333 39.8333,13.1667 40.5,14.5C 40.3764,15.1067 40.0431,15.44 39.5,15.5C 36.8333,15.1667 34.1667,14.8333 31.5,14.5C 31.8678,11.9442 31.0345,9.94417 29,8.5C 27.2847,9.60449 25.7847,10.9378 24.5,12.5C 24.4142,11.5041 24.7476,10.6708 25.5,10C 23.5,9.66667 21.5,9.33333 19.5,9C 21.676,8.83706 23.5093,8.00373 25,6.5C 25.6914,8.89118 26.6914,8.89118 28,6.5C 32.0164,8.12106 36.1831,8.62106 40.5,8C 35.9905,3.80225 30.6571,2.46892 24.5,4C 23.0161,4.66218 21.6828,5.49551 20.5,6.5C 18.2947,4.6366 16.9613,2.30327 16.5,-0.5 Z"/></g>
<g><path style="opacity:1" fill="#1f1f1f" d="M 24.5,12.5 C 24.9283,14.4047 24.2616,16.238 22.5,18C 20.5116,18.1805 18.5116,18.0138 16.5,17.5C 16.677,13.2924 18.0103,9.62571 20.5,6.5C 21.6828,5.49551 23.0161,4.66218 24.5,4C 30.6571,2.46892 35.9905,3.80225 40.5,8C 36.1831,8.62106 32.0164,8.12106 28,6.5C 26.6914,8.89118 25.6914,8.89118 25,6.5C 23.5093,8.00373 21.676,8.83706 19.5,9C 21.5,9.33333 23.5,9.66667 25.5,10C 24.7476,10.6708 24.4142,11.5041 24.5,12.5 Z"/></g>
<g><path style="opacity:1" fill="#565656" d="M -0.5,-0.5 C 5.16667,-0.5 10.8333,-0.5 16.5,-0.5C 16.9613,2.30327 18.2947,4.6366 20.5,6.5C 18.0103,9.62571 16.677,13.2924 16.5,17.5C 18.5116,18.0138 20.5116,18.1805 22.5,18C 24.2616,16.238 24.9283,14.4047 24.5,12.5C 25.7847,10.9378 27.2847,9.60449 29,8.5C 31.0345,9.94417 31.8678,11.9442 31.5,14.5C 31.1667,14.5 30.8333,14.5 30.5,14.5C 28.204,16.2184 27.8706,18.385 29.5,21C 29.0217,22.3026 28.355,23.4693 27.5,24.5C 26.1667,24.5 24.8333,24.5 23.5,24.5C 23.719,23.325 23.3857,22.325 22.5,21.5C 21.376,22.914 20.376,24.414 19.5,26C 19.579,28.305 19.7457,30.805 20,33.5C 20.6708,34.2524 21.5041,34.5858 22.5,34.5C 25.3915,35.7891 27.7248,37.7891 29.5,40.5C 29.741,43.7935 28.9076,46.7935 27,49.5C 26.237,46.9365 25.737,46.9365 25.5,49.5C 26.6374,54.2428 27.9707,58.9095 29.5,63.5C 28.5,63.5 27.5,63.5 26.5,63.5C 27.115,60.8749 26.115,58.7082 23.5,57C 23.6107,55.2785 24.1107,55.1118 25,56.5C 25.6667,55.1667 25.6667,53.8333 25,52.5C 24.586,52.9574 24.086,53.2907 23.5,53.5C 20.7305,51.8979 17.7305,50.8979 14.5,50.5C 14.1667,49.5 13.8333,48.5 13.5,47.5C 14.2211,44.3948 15.2211,41.3948 16.5,38.5C 16.8134,35.7531 16.48,33.0865 15.5,30.5C 14.4763,29.1468 13.143,28.4802 11.5,28.5C 11.7135,26.8561 11.3802,25.3561 10.5,24C 7.06098,21.8018 3.39432,20.3018 -0.5,19.5C -0.5,12.8333 -0.5,6.16667 -0.5,-0.5 Z"/></g>
<g><path style="opacity:1" fill="#474747" d="M 63.5,35.5 C 63.5,44.8333 63.5,54.1667 63.5,63.5C 62.8333,63.5 62.1667,63.5 61.5,63.5C 60.7701,62.2876 59.7701,61.2876 58.5,60.5C 59.8333,59.1667 59.8333,57.8333 58.5,56.5C 60.9456,55.573 61.7789,53.9063 61,51.5C 60.6667,52.1667 60.3333,52.8333 60,53.5C 55.7909,49.0488 53.6243,43.7154 53.5,37.5C 50.2123,37.927 47.2123,37.2603 44.5,35.5C 42.7751,37.0916 41.7751,36.7583 41.5,34.5C 41.7614,31.6802 42.0947,28.8469 42.5,26C 42.1667,25.8333 41.8333,25.6667 41.5,25.5C 40.145,27.5235 39.8117,29.5235 40.5,31.5C 39.9017,32.7946 39.4017,34.1279 39,35.5C 37.3117,34.6753 37.1451,33.6753 38.5,32.5C 36.3759,31.8506 34.3759,31.0173 32.5,30C 34.0575,26.8871 35.8909,26.7204 38,29.5C 38.3095,28.2341 38.8095,27.0674 39.5,26C 38.2068,25.51 36.8734,25.3433 35.5,25.5C 35.5751,22.7938 35.9084,20.1272 36.5,17.5C 37.5,17.5 38.5,17.5 39.5,17.5C 39.5,16.8333 39.5,16.1667 39.5,15.5C 40.0431,15.44 40.3764,15.1067 40.5,14.5C 39.8333,13.1667 39.1667,11.8333 38.5,10.5C 41.3131,9.63087 43.9797,7.79754 46.5,5C 51.2783,3.20107 55.2783,4.36773 58.5,8.5C 59.4658,12.2374 60.7992,15.7374 62.5,19C 61.8333,20.3333 61.1667,21.6667 60.5,23C 62.689,23.677 63.0224,24.8437 61.5,26.5C 62.0894,29.6404 62.7561,32.6404 63.5,35.5 Z"/></g>
<g><path style="opacity:1" fill="#1a1a1a" d="M 39.5,17.5 C 41.5154,16.6087 42.8487,17.442 43.5,20C 40.8134,23.0659 39.48,22.2326 39.5,17.5 Z"/></g>
<g><path style="opacity:1" fill="#606060" d="M -0.5,19.5 C 3.39432,20.3018 7.06098,21.8018 10.5,24C 11.3802,25.3561 11.7135,26.8561 11.5,28.5C 13.143,28.4802 14.4763,29.1468 15.5,30.5C 16.48,33.0865 16.8134,35.7531 16.5,38.5C 11.1596,41.3975 5.49297,43.7309 -0.5,45.5C -0.5,36.8333 -0.5,28.1667 -0.5,19.5 Z"/></g>
<g><path style="opacity:1" fill="#393939" d="M 30.5,14.5 C 30.9175,15.2216 31.5842,15.7216 32.5,16C 31.3279,16.4186 30.3279,17.0853 29.5,18C 31.1667,18.3333 32.8333,18.6667 34.5,19C 33.552,19.4828 32.552,19.6495 31.5,19.5C 32.0365,22.6646 31.2031,25.3312 29,27.5C 28.7679,26.2625 28.2679,25.2625 27.5,24.5C 28.355,23.4693 29.0217,22.3026 29.5,21C 27.8706,18.385 28.204,16.2184 30.5,14.5 Z"/></g>
<g><path style="opacity:1" fill="#333333" d="M 27.5,24.5 C 26.1459,26.6804 25.1459,28.8471 24.5,31C 25.1667,31.3333 25.8333,31.6667 26.5,32C 24.867,32.4796 23.5336,33.3129 22.5,34.5C 21.5041,34.5858 20.6708,34.2524 20,33.5C 19.7457,30.805 19.579,28.305 19.5,26C 20.376,24.414 21.376,22.914 22.5,21.5C 23.3857,22.325 23.719,23.325 23.5,24.5C 24.8333,24.5 26.1667,24.5 27.5,24.5 Z"/></g>
<g><path style="opacity:1" fill="#1a1a1a" d="M 30.5,14.5 C 30.8333,14.5 31.1667,14.5 31.5,14.5C 34.1667,14.8333 36.8333,15.1667 39.5,15.5C 39.5,16.1667 39.5,16.8333 39.5,17.5C 38.5,17.5 37.5,17.5 36.5,17.5C 35.9084,20.1272 35.5751,22.7938 35.5,25.5C 36.8734,25.3433 38.2068,25.51 39.5,26C 38.8095,27.0674 38.3095,28.2341 38,29.5C 35.8909,26.7204 34.0575,26.8871 32.5,30C 34.3759,31.0173 36.3759,31.8506 38.5,32.5C 37.1451,33.6753 37.3117,34.6753 39,35.5C 39.4017,34.1279 39.9017,32.7946 40.5,31.5C 39.8117,29.5235 40.145,27.5235 41.5,25.5C 41.8333,25.6667 42.1667,25.8333 42.5,26C 42.0947,28.8469 41.7614,31.6802 41.5,34.5C 40.1991,35.8845 40.1991,37.3845 41.5,39C 40.0842,41.2645 38.0842,42.4312 35.5,42.5C 33.6976,41.5418 31.6976,40.8751 29.5,40.5C 27.7248,37.7891 25.3915,35.7891 22.5,34.5C 23.5336,33.3129 24.867,32.4796 26.5,32C 25.8333,31.6667 25.1667,31.3333 24.5,31C 25.1459,28.8471 26.1459,26.6804 27.5,24.5C 28.2679,25.2625 28.7679,26.2625 29,27.5C 31.2031,25.3312 32.0365,22.6646 31.5,19.5C 32.552,19.6495 33.552,19.4828 34.5,19C 32.8333,18.6667 31.1667,18.3333 29.5,18C 30.3279,17.0853 31.3279,16.4186 32.5,16C 31.5842,15.7216 30.9175,15.2216 30.5,14.5 Z"/></g>
<g><path style="opacity:1" fill="#505050" d="M 41.5,34.5 C 41.7751,36.7583 42.7751,37.0916 44.5,35.5C 47.2123,37.2603 50.2123,37.927 53.5,37.5C 53.6243,43.7154 55.7909,49.0488 60,53.5C 60.3333,52.8333 60.6667,52.1667 61,51.5C 61.7789,53.9063 60.9456,55.573 58.5,56.5C 59.8333,57.8333 59.8333,59.1667 58.5,60.5C 59.7701,61.2876 60.7701,62.2876 61.5,63.5C 52.5,63.5 43.5,63.5 34.5,63.5C 34.1551,60.8021 32.8218,58.8021 30.5,57.5C 31.9738,56.3249 33.6404,55.3249 35.5,54.5C 34.4442,50.5292 34.4442,46.5292 35.5,42.5C 38.0842,42.4312 40.0842,41.2645 41.5,39C 40.1991,37.3845 40.1991,35.8845 41.5,34.5 Z"/></g>
<g><path style="opacity:1" fill="#242424" d="M -0.5,54.5 C -0.5,52.8333 -0.5,51.1667 -0.5,49.5C 1.82112,49.3417 3.65445,48.3417 5,46.5C 5.33333,46.8333 5.66667,47.1667 6,47.5C 11.9631,43.849 13.7965,45.1823 11.5,51.5C 10.6578,52.7246 7.65785,52.8913 2.5,52C 4.35539,54.0452 5.68873,56.3785 6.5,59C 4.98257,60.7785 4.14924,60.2785 4,57.5C 2.87099,55.8588 1.37099,54.8588 -0.5,54.5 Z"/></g>
<g><path style="opacity:1" fill="#323232" d="M 29.5,40.5 C 31.6976,40.8751 33.6976,41.5418 35.5,42.5C 34.5,42.5 33.5,42.5 32.5,42.5C 31.2921,47.1027 30.2921,51.7693 29.5,56.5C 29.6236,57.1067 29.9569,57.44 30.5,57.5C 32.8218,58.8021 34.1551,60.8021 34.5,63.5C 32.8333,63.5 31.1667,63.5 29.5,63.5C 27.9707,58.9095 26.6374,54.2428 25.5,49.5C 25.737,46.9365 26.237,46.9365 27,49.5C 28.9076,46.7935 29.741,43.7935 29.5,40.5 Z"/></g>
<g><path style="opacity:1" fill="#7f7f7f" d="M 35.5,42.5 C 34.4442,46.5292 34.4442,50.5292 35.5,54.5C 33.6404,55.3249 31.9738,56.3249 30.5,57.5C 29.9569,57.44 29.6236,57.1067 29.5,56.5C 30.2921,51.7693 31.2921,47.1027 32.5,42.5C 33.5,42.5 34.5,42.5 35.5,42.5 Z"/></g>
<g><path style="opacity:1" fill="#393939" d="M 16.5,38.5 C 15.2211,41.3948 14.2211,44.3948 13.5,47.5C 13.8333,48.5 14.1667,49.5 14.5,50.5C 17.7305,50.8979 20.7305,51.8979 23.5,53.5C 24.086,53.2907 24.586,52.9574 25,52.5C 25.6667,53.8333 25.6667,55.1667 25,56.5C 24.1107,55.1118 23.6107,55.2785 23.5,57C 26.115,58.7082 27.115,60.8749 26.5,63.5C 17.5,63.5 8.5,63.5 -0.5,63.5C -0.5,60.5 -0.5,57.5 -0.5,54.5C 1.37099,54.8588 2.87099,55.8588 4,57.5C 4.14924,60.2785 4.98257,60.7785 6.5,59C 5.68873,56.3785 4.35539,54.0452 2.5,52C 7.65785,52.8913 10.6578,52.7246 11.5,51.5C 13.7965,45.1823 11.9631,43.849 6,47.5C 5.66667,47.1667 5.33333,46.8333 5,46.5C 3.65445,48.3417 1.82112,49.3417 -0.5,49.5C -0.5,48.1667 -0.5,46.8333 -0.5,45.5C 5.49297,43.7309 11.1596,41.3975 16.5,38.5 Z"/></g>
</svg>
