<svg width="513" height="512" viewBox="0 0 513 512" fill="none" xmlns="http://www.w3.org/2000/svg">
<circle cx="256.183" cy="255.995" r="255.5" fill="black" stroke="white"/>
<g clip-path="url(#clip0_40_259)">
<path d="M208.072 270.807C214.826 270.807 221.415 268.556 226.741 264.438L183.914 221.611C173.591 234.953 176.062 254.17 189.404 264.493C194.785 268.556 201.319 270.807 208.072 270.807Z" fill="white"/>
<path d="M335.456 240.224C335.456 233.471 333.204 226.882 329.087 221.556L286.259 264.383C299.602 274.706 318.764 272.235 329.087 258.893C333.204 253.567 335.456 246.978 335.456 240.224Z" fill="white"/>
<path d="M357.034 193.608L338.091 212.551C353.355 230.835 350.939 258.069 332.655 273.333C316.623 286.73 293.342 286.73 277.31 273.333L256.5 294.142L235.745 273.388C217.461 288.652 190.228 286.236 174.964 267.952C161.567 251.919 161.567 228.639 174.964 212.606L165.245 202.888L156.021 193.608C144.875 211.947 139 233.031 139 254.5C139 319.399 191.6 372 256.5 372C321.4 372 374 319.399 374 254.5C374.055 233.031 368.125 211.947 357.034 193.608Z" fill="white"/>
<path d="M341.495 173.403C296.746 126.458 222.403 124.701 175.458 169.45C174.085 170.767 172.768 172.085 171.505 173.403C168.595 176.478 165.849 179.662 163.269 183.012L256.5 276.298L349.731 183.012C347.206 179.662 344.405 176.478 341.495 173.403ZM256.5 152.374C283.953 152.374 309.54 162.971 328.757 182.298L256.5 254.555L184.243 182.298C203.46 162.971 229.047 152.374 256.5 152.374Z" fill="white"/>
</g>
<defs>
<clipPath id="clip0_40_259">
<rect width="235" height="235" fill="white" transform="translate(139 137)"/>
</clipPath>
</defs>
</svg>
