<svg width="512" height="513" viewBox="0 0 512 513" fill="none" xmlns="http://www.w3.org/2000/svg">
<circle cx="255.997" cy="256.32" r="255.5" fill="black" stroke="white"/>
<g clip-path="url(#clip0_40_466)">
<path d="M253.5 414C336.067 414 403 347.067 403 264.5C403 181.933 336.067 115 253.5 115C170.933 115 104 181.933 104 264.5C104 347.067 170.933 414 253.5 414Z" fill="black"/>
<path fill-rule="evenodd" clip-rule="evenodd" d="M251.32 283.81C229.206 283.81 211.453 266.057 211.453 243.944C211.453 221.83 229.206 204.077 251.32 204.077C273.434 204.077 291.187 221.83 291.187 243.944C291.187 266.057 273.434 283.81 251.32 283.81ZM251.32 184.144C284.335 184.144 311.12 210.929 311.12 243.944C311.12 276.958 284.335 303.744 251.32 303.744C218.305 303.744 191.52 276.958 191.52 243.944C191.52 210.929 218.305 184.144 251.32 184.144ZM308.317 306.858C312.366 310.907 312.366 317.137 308.317 320.874L268.45 360.741C264.401 364.79 258.172 364.79 254.435 360.741C250.386 356.692 250.386 350.463 254.435 346.725L294.301 306.858C298.039 302.809 304.579 302.809 308.317 306.858ZM331.365 194.11C331.365 199.717 327.004 204.077 321.398 204.077C315.792 204.077 311.432 199.717 311.432 194.11C311.432 188.504 315.792 184.144 321.398 184.144C326.693 184.144 331.365 188.504 331.365 194.11Z" fill="white"/>
</g>
<defs>
<clipPath id="clip0_40_466">
<rect width="299" height="299" fill="white" transform="translate(104 115)"/>
</clipPath>
</defs>
</svg>
