<svg width="512" height="513" viewBox="0 0 512 513" fill="none" xmlns="http://www.w3.org/2000/svg">
<circle cx="256.009" cy="256.967" r="255.5" fill="black" stroke="white"/>
<g clip-path="url(#clip0_40_264)">
<path d="M290.788 195.927C298.477 188.238 311.109 188.238 318.798 195.927C326.487 203.617 326.487 216.249 318.798 223.938C314.267 228.469 308.225 230.391 302.047 229.567C301.772 229.567 301.497 229.567 301.085 229.567C299.301 229.293 297.378 229.567 295.456 230.391C292.847 231.627 291.062 233.687 290.101 236.158C289.14 238.63 289.277 241.376 290.376 243.847C296.966 258.127 293.946 275.427 282.687 286.549C271.427 297.808 254.264 300.829 239.984 294.238C237.376 293.003 234.63 293.003 232.158 293.964C229.687 294.925 227.627 296.71 226.529 299.181C225.842 300.829 225.43 302.477 225.567 304.262C225.567 304.536 225.567 304.948 225.567 305.223C226.666 311.539 224.469 317.992 220.075 322.523C212.386 330.212 199.754 330.212 192.065 322.523C188.358 318.816 186.298 313.873 186.298 308.518C186.298 303.301 188.358 298.22 192.065 294.513C196.596 289.982 202.637 288.06 208.816 288.883C208.953 288.883 208.953 288.883 209.091 288.883C209.777 289.021 210.464 289.158 211.15 289.158C212.661 289.158 214.034 288.883 215.407 288.197C218.016 286.961 219.801 284.902 220.624 282.567C221.585 280.096 221.585 277.212 220.35 274.604C213.759 260.187 216.78 243.023 228.039 231.902C239.298 220.642 256.461 217.622 270.741 224.212C273.212 225.448 276.096 225.448 278.567 224.487C281.039 223.526 283.098 221.741 284.334 219.269C285.295 217.347 285.433 215.15 285.158 213.091C284.197 206.912 286.256 200.459 290.788 195.927ZM271.153 275.016C279.666 266.503 279.666 252.635 271.153 243.984C262.64 235.471 248.772 235.471 240.122 243.984C231.609 252.497 231.609 266.365 240.122 275.016C248.772 283.529 262.64 283.529 271.153 275.016ZM255.5 127C328.684 127 388 186.316 388 259.5C388 332.684 328.684 392 255.5 392C182.316 392 123 332.684 123 259.5C123 186.316 182.316 127 255.5 127ZM326.075 231.352C337.746 219.681 337.746 200.733 326.075 188.925C314.404 177.254 295.456 177.254 283.648 188.925C279.254 193.319 276.645 198.674 275.409 204.166C254.127 196.202 229.824 201.282 213.622 217.484C197.42 233.687 192.339 258.127 200.44 279.409C194.811 280.508 189.456 283.254 185.062 287.648C173.391 299.319 173.391 318.267 185.062 330.075C196.733 341.746 215.681 341.746 227.49 330.075C231.883 325.681 234.63 320.189 235.728 314.56C242.319 317.031 249.184 318.267 256.049 318.267C271.29 318.267 286.256 312.363 297.378 301.241C313.58 285.039 318.661 260.873 310.834 239.728C316.326 238.355 321.681 235.609 326.075 231.352Z" fill="white"/>
</g>
<defs>
<clipPath id="clip0_40_264">
<rect width="265" height="265" fill="white" transform="translate(123 127)"/>
</clipPath>
</defs>
</svg>
