<svg width="513" height="513" viewBox="0 0 513 513" fill="none" xmlns="http://www.w3.org/2000/svg">
<circle cx="256.381" cy="256.798" r="255.5" fill="black" stroke="white"/>
<g clip-path="url(#clip0_40_202)">
<path d="M323.083 188C308.423 188 292.37 196.002 275.438 211.786C267.448 219.201 260.411 227.277 255.28 233.664C255.28 233.664 263.49 243.135 272.506 253.339C277.417 247.172 284.38 238.803 292.516 231.241C307.543 217.146 317.365 214.283 323.009 214.283C344.12 214.283 361.272 232.049 361.272 254C361.272 275.731 344.12 293.497 323.009 293.717C321.983 293.717 320.81 293.571 319.344 293.277C325.501 296.14 332.172 298.196 338.402 298.196C377.105 298.196 384.728 271.399 385.167 269.491C386.267 264.572 386.927 259.433 386.927 254.147C386.853 217.66 358.266 188 323.083 188Z" fill="white"/>
<path d="M187.844 320C202.504 320 218.557 311.998 235.489 296.214C243.479 288.799 250.516 280.723 255.647 274.336C255.647 274.336 247.437 264.866 238.421 254.661C233.51 260.828 226.547 269.197 218.41 276.759C203.384 290.708 193.488 293.718 187.918 293.718C166.807 293.718 149.655 275.951 149.655 254C149.655 232.269 166.807 214.503 187.918 214.283C188.944 214.283 190.117 214.429 191.582 214.723C185.425 211.86 178.755 209.804 172.525 209.804C133.822 209.731 126.199 236.527 125.759 238.51C124.66 243.428 124 248.567 124 253.853C124 290.34 152.587 320 187.844 320Z" fill="white"/>
<path fill-rule="evenodd" clip-rule="evenodd" d="M217.311 231.829C213.059 227.717 192.389 210.905 172.598 210.318C137.267 209.437 126.932 235.132 125.979 238.436C132.796 209.657 158.011 188.147 187.917 188C212.326 188 237.028 212.007 255.28 233.664L255.353 233.591C255.353 233.591 263.563 243.061 272.579 253.266C272.579 253.266 282.841 265.379 293.689 276.024C297.941 280.136 318.538 296.727 338.329 297.315C374.612 298.343 384.654 271.179 385.167 269.123C378.497 298.122 353.209 319.706 323.156 319.853C298.747 319.853 274.045 295.847 255.72 274.189C255.72 274.263 255.647 274.263 255.647 274.336C255.647 274.336 247.437 264.865 238.421 254.661C238.494 254.661 228.232 242.474 217.311 231.829Z" fill="white"/>
</g>
<defs>
<clipPath id="clip0_40_202">
<rect width="263" height="132" fill="white" transform="translate(124 188)"/>
</clipPath>
</defs>
</svg>
