<svg width="513" height="513" viewBox="0 0 513 513" fill="none" xmlns="http://www.w3.org/2000/svg">
<circle cx="256.381" cy="256.798" r="255.5" fill="black" stroke="white"/>
<g clip-path="url(#clip0_40_202)">
<path d="M324.082 198C309.422 198 293.37 206.002 276.437 221.786C268.448 229.201 261.411 237.277 256.28 243.664C256.28 243.664 264.49 253.135 273.505 263.339C278.417 257.172 285.38 248.803 293.516 241.241C308.543 227.146 318.365 224.283 324.009 224.283C345.119 224.283 362.272 242.049 362.272 264C362.272 285.731 345.119 303.497 324.009 303.717C322.983 303.717 321.81 303.571 320.344 303.277C326.501 306.14 333.172 308.196 339.402 308.196C378.104 308.196 385.728 281.399 386.167 279.491C387.267 274.572 387.927 269.433 387.927 264.147C387.853 227.66 359.266 198 324.082 198Z" fill="white"/>
<path d="M188.844 330C203.504 330 219.557 321.998 236.489 306.214C244.479 298.799 251.515 290.723 256.646 284.336C256.646 284.336 248.437 274.866 239.421 264.661C234.51 270.828 227.546 279.197 219.41 286.759C204.384 300.708 194.488 303.718 188.917 303.718C167.807 303.718 150.655 285.951 150.655 264C150.655 242.269 167.807 224.503 188.917 224.283C189.944 224.283 191.116 224.429 192.582 224.723C186.425 221.86 179.755 219.804 173.524 219.804C134.822 219.731 127.199 246.527 126.759 248.51C125.66 253.428 125 258.567 125 263.853C125 300.34 153.587 330 188.844 330Z" fill="white"/>
<path fill-rule="evenodd" clip-rule="evenodd" d="M218.311 241.829C214.059 237.717 193.389 220.905 173.598 220.318C138.267 219.437 127.932 245.132 126.979 248.436C133.796 219.657 159.011 198.147 188.917 198C213.326 198 238.028 222.007 256.28 243.664L256.353 243.591C256.353 243.591 264.563 253.061 273.579 263.266C273.579 263.266 283.841 275.379 294.689 286.024C298.941 290.136 319.538 306.727 339.329 307.315C375.612 308.343 385.654 281.179 386.167 279.123C379.497 308.122 354.209 329.706 324.156 329.853C299.747 329.853 275.045 305.847 256.72 284.189C256.72 284.263 256.646 284.263 256.646 284.336C256.646 284.336 248.437 274.865 239.421 264.661C239.494 264.661 229.232 252.474 218.311 241.829Z" fill="white"/>
</g>
<defs>
<clipPath id="clip0_40_202">
<rect width="263" height="132" fill="white" transform="translate(125 198)"/>
</clipPath>
</defs>
</svg>
