<svg width="513" height="513" viewBox="0 0 513 513" fill="none" xmlns="http://www.w3.org/2000/svg">
<circle cx="256.891" cy="256.16" r="255.5" fill="black" stroke="white"/>
<circle cx="256.891" cy="261.438" r="210.164" fill="black" stroke="white" stroke-width="4"/>
<g clip-path="url(#clip0_40_475)">
<mask id="mask0_40_475" style="mask-type:luminance" maskUnits="userSpaceOnUse" x="165" y="185" width="189" height="154">
<path d="M354 185H165V339H354V185Z" fill="white"/>
</mask>
<g mask="url(#mask0_40_475)">
<path d="M333.74 185H353.592L273.097 277.127C271.058 279.444 270.922 282.988 272.961 285.441L319.327 339.545H298.66L255.829 289.393L253.653 286.667C251.614 284.35 251.75 280.671 253.789 278.354L333.74 185Z" fill="white"/>
<path d="M289.006 285.441C287.646 283.942 287.238 281.761 287.646 279.853C288.054 278.763 288.734 277.673 289.55 276.855L294.853 270.995L354 339.545H335.236C335.236 339.545 300.563 298.933 289.006 285.441Z" fill="white"/>
<path d="M185.668 339.545H165L228.363 266.088C230.402 263.772 230.402 260.228 228.363 257.912L165.544 185H185.396L248.622 258.457C250.254 260.637 250.526 263.772 248.758 265.816C232.17 285.032 185.668 339.545 185.668 339.545Z" fill="white"/>
<path d="M220.204 185H201.168L259.772 253.005C259.772 253.005 259.908 252.869 266.435 245.101C268.202 243.057 268.61 240.467 266.571 238.423C254.333 225.885 220.204 185 220.204 185Z" fill="white"/>
<path d="M277.312 232.427L317.967 185H298.66L277.448 209.804L271.329 217.027C269.29 219.343 269.154 222.887 271.193 225.34C272.689 227.112 277.312 232.427 277.312 232.427Z" fill="white"/>
<path d="M241.96 292.119L201.304 339.545H220.476L241.688 314.742L247.806 307.519C249.846 305.202 249.982 301.658 247.942 299.205C246.447 297.434 241.96 292.119 241.96 292.119Z" fill="white"/>
</g>
</g>
<defs>
<clipPath id="clip0_40_475">
<rect width="189" height="154" fill="white" transform="translate(165 185)"/>
</clipPath>
</defs>
</svg>
