<svg width="513" height="513" viewBox="0 0 513 513" fill="none" xmlns="http://www.w3.org/2000/svg">
<circle cx="256.891" cy="256.16" r="255.5" fill="black" stroke="white"/>
<g clip-path="url(#clip0_103_30)">
<mask id="mask0_103_30" style="mask-type:luminance" maskUnits="userSpaceOnUse" x="165" y="174" width="189" height="154">
<path d="M354 174H165V328H354V174Z" fill="white"/>
</mask>
<g mask="url(#mask0_103_30)">
<path d="M333.74 174H353.592L273.097 266.127C271.058 268.444 270.922 271.988 272.961 274.441L319.327 328.545H298.66L255.829 278.393L253.653 275.667C251.614 273.35 251.75 269.671 253.789 267.354L333.74 174Z" fill="white"/>
<path d="M289.006 274.441C287.646 272.942 287.238 270.761 287.646 268.853C288.054 267.763 288.734 266.673 289.55 265.855L294.853 259.995L354 328.545H335.236C335.236 328.545 300.563 287.933 289.006 274.441Z" fill="white"/>
<path d="M185.668 328.545H165L228.363 255.088C230.402 252.772 230.402 249.228 228.363 246.912L165.544 174H185.396L248.622 247.457C250.254 249.637 250.526 252.772 248.758 254.816C232.17 274.032 185.668 328.545 185.668 328.545Z" fill="white"/>
<path d="M220.204 174H201.168L259.772 242.005C259.772 242.005 259.908 241.869 266.435 234.101C268.202 232.057 268.61 229.467 266.571 227.423C254.333 214.885 220.204 174 220.204 174Z" fill="white"/>
<path d="M277.312 221.427L317.967 174H298.66L277.448 198.804L271.329 206.027C269.29 208.343 269.154 211.887 271.193 214.34C272.689 216.112 277.312 221.427 277.312 221.427Z" fill="white"/>
<path d="M241.96 281.119L201.304 328.545H220.476L241.688 303.742L247.806 296.519C249.846 294.202 249.982 290.658 247.942 288.205C246.447 286.434 241.96 281.119 241.96 281.119Z" fill="white"/>
</g>
</g>
<defs>
<clipPath id="clip0_103_30">
<rect width="189" height="154" fill="white" transform="translate(165 174)"/>
</clipPath>
</defs>
</svg>
