<svg width="513" height="513" viewBox="0 0 513 513" fill="none" xmlns="http://www.w3.org/2000/svg">
<circle cx="256.891" cy="256.16" r="255.5" fill="black" stroke="white"/>
<g clip-path="url(#clip0_103_30)">
<mask id="mask0_103_30" style="mask-type:luminance" maskUnits="userSpaceOnUse" x="163" y="176" width="189" height="154">
<path d="M352 176H163V330H352V176Z" fill="white"/>
</mask>
<g mask="url(#mask0_103_30)">
<path d="M331.74 176H351.592L271.097 268.127C269.058 270.444 268.922 273.988 270.961 276.441L317.327 330.545H296.66L253.829 280.393L251.653 277.667C249.614 275.35 249.75 271.671 251.789 269.354L331.74 176Z" fill="white"/>
<path d="M287.006 276.441C285.646 274.942 285.238 272.761 285.646 270.853C286.054 269.763 286.734 268.673 287.55 267.855L292.853 261.995L352 330.545H333.236C333.236 330.545 298.563 289.933 287.006 276.441Z" fill="white"/>
<path d="M183.668 330.545H163L226.363 257.088C228.402 254.772 228.402 251.228 226.363 248.912L163.544 176H183.396L246.622 249.457C248.254 251.637 248.526 254.772 246.758 256.816C230.17 276.032 183.668 330.545 183.668 330.545Z" fill="white"/>
<path d="M218.204 176H199.168L257.772 244.005C257.772 244.005 257.908 243.869 264.435 236.101C266.202 234.057 266.61 231.467 264.571 229.423C252.333 216.885 218.204 176 218.204 176Z" fill="white"/>
<path d="M275.312 223.427L315.967 176H296.66L275.448 200.804L269.329 208.027C267.29 210.343 267.154 213.887 269.193 216.34C270.689 218.112 275.312 223.427 275.312 223.427Z" fill="white"/>
<path d="M239.96 283.119L199.304 330.545H218.476L239.688 305.742L245.806 298.519C247.846 296.202 247.982 292.658 245.942 290.205C244.447 288.434 239.96 283.119 239.96 283.119Z" fill="white"/>
</g>
</g>
<defs>
<clipPath id="clip0_103_30">
<rect width="189" height="154" fill="white" transform="translate(163 176)"/>
</clipPath>
</defs>
</svg>
