<svg width="513" height="513" viewBox="0 0 513 513" fill="none" xmlns="http://www.w3.org/2000/svg">
<circle cx="256.184" cy="256.09" r="255.5" fill="black" stroke="white"/>
<g clip-path="url(#clip0_24_959)">
<path d="M254.5 356.824C309.907 356.824 354.823 311.907 354.823 256.5C354.823 201.093 309.907 156.176 254.5 156.176C199.092 156.176 154.176 201.093 154.176 256.5C154.176 311.907 199.092 356.824 254.5 356.824Z" fill="white"/>
<path d="M252.91 144C230.66 144 208.909 150.598 190.409 162.96C171.908 175.321 157.489 192.891 148.974 213.448C140.459 234.005 138.231 256.625 142.572 278.448C146.913 300.271 157.627 320.316 173.361 336.05C189.094 351.783 209.14 362.498 230.963 366.838C252.785 371.179 275.405 368.951 295.962 360.436C316.519 351.922 334.089 337.502 346.451 319.002C358.812 300.501 365.41 278.75 365.41 256.5C365.453 241.769 362.594 227.174 356.997 213.548C351.399 199.922 343.173 187.532 332.787 177.086C322.401 166.639 310.059 158.34 296.466 152.664C282.873 146.987 268.295 144.043 253.564 144H252.91ZM254.817 260.314L243.104 299.811H305.755C306.17 299.797 306.584 299.864 306.973 300.009C307.362 300.155 307.718 300.376 308.022 300.659C308.326 300.942 308.57 301.283 308.742 301.661C308.914 302.039 309.01 302.447 309.024 302.862V303.897L303.576 322.692C303.336 323.581 302.801 324.362 302.058 324.907C301.316 325.451 300.41 325.727 299.49 325.689H203.606L219.678 270.937L201.7 276.385L205.786 263.855L223.764 258.407L246.373 181.591C246.622 180.707 247.159 179.932 247.899 179.389C248.64 178.846 249.541 178.566 250.459 178.594H274.702C275.117 178.58 275.531 178.647 275.92 178.793C276.309 178.938 276.665 179.159 276.969 179.442C277.272 179.726 277.517 180.066 277.689 180.444C277.861 180.822 277.957 181.23 277.971 181.645V182.68L258.903 247.511L276.881 242.063L273.068 255.138L254.817 260.314Z" fill="black"/>
</g>
<defs>
<clipPath id="clip0_24_959">
<rect width="225" height="225" fill="white" transform="translate(142 144)"/>
</clipPath>
</defs>
</svg>
