<svg width="513" height="513" viewBox="0 0 513 513" fill="none" xmlns="http://www.w3.org/2000/svg">
<circle cx="256.962" cy="256.54" r="255.5" fill="black" stroke="white"/>
<path d="M166.957 309.438V221.982L233.281 271.897V309.438H250.208V268.373C250.205 266.847 249.848 265.343 249.166 263.978C248.483 262.613 247.494 261.425 246.275 260.507L165.843 199.95C164.371 198.858 162.626 198.194 160.801 198.034C158.975 197.874 157.141 198.223 155.502 199.042C153.863 199.862 152.483 201.12 151.516 202.676C150.549 204.233 150.032 206.027 150.024 207.86V309.438H166.957ZM350.38 309.438V221.982L284.057 271.897V309.438H267.13V268.373C267.133 266.847 267.489 265.343 268.172 263.978C268.854 262.613 269.844 261.425 271.063 260.507L351.495 199.975C352.964 198.884 354.708 198.221 356.531 198.059C358.354 197.898 360.187 198.245 361.825 199.061C363.463 199.878 364.843 201.132 365.812 202.685C366.781 204.238 367.301 206.029 367.314 207.86V309.438H350.38Z" fill="white"/>
</svg>
