<svg width="513" height="513" viewBox="0 0 513 513" fill="none" xmlns="http://www.w3.org/2000/svg">
<circle cx="256.962" cy="256.54" r="255.5" fill="black" stroke="white"/>
<circle cx="256.493" cy="256.819" r="210.164" fill="black" stroke="white" stroke-width="4"/>
<path d="M169.307 293.719V216.005L228.242 260.36V293.719H243.284V257.228C243.281 255.872 242.964 254.536 242.358 253.323C241.751 252.11 240.872 251.054 239.789 250.238L168.316 196.428C167.009 195.457 165.458 194.867 163.836 194.725C162.214 194.582 160.584 194.892 159.127 195.621C157.671 196.349 156.445 197.467 155.586 198.85C154.726 200.233 154.267 201.828 154.26 203.456V293.719H169.307ZM332.297 293.719V216.005L273.362 260.36V293.719H258.32V257.228C258.323 255.872 258.64 254.536 259.247 253.323C259.853 252.11 260.732 251.054 261.815 250.238L333.288 196.45C334.594 195.48 336.143 194.89 337.763 194.747C339.383 194.604 341.012 194.912 342.467 195.638C343.923 196.363 345.149 197.478 346.01 198.858C346.871 200.238 347.333 201.829 347.345 203.456V293.719H332.297Z" fill="white"/>
</svg>
