<svg width="513" height="513" viewBox="0 0 513 513" fill="none" xmlns="http://www.w3.org/2000/svg">
<circle cx="256.962" cy="256.54" r="255.5" fill="black" stroke="white"/>
<path d="M174.071 304.438V226.724L233.006 271.079V304.438H248.048V267.948C248.045 266.592 247.728 265.255 247.122 264.042C246.515 262.829 245.636 261.773 244.553 260.958L173.08 207.147C171.773 206.176 170.222 205.586 168.6 205.444C166.978 205.301 165.348 205.612 163.891 206.34C162.435 207.068 161.209 208.186 160.35 209.569C159.49 210.952 159.031 212.547 159.024 214.175V304.438H174.071ZM337.061 304.438V226.724L278.126 271.079V304.438H263.085V267.948C263.087 266.592 263.404 265.255 264.011 264.042C264.617 262.829 265.496 261.773 266.579 260.958L338.052 207.169C339.358 206.199 340.907 205.61 342.527 205.466C344.147 205.323 345.776 205.631 347.231 206.357C348.687 207.082 349.913 208.197 350.774 209.577C351.635 210.957 352.097 212.549 352.109 214.175V304.438H337.061Z" fill="white"/>
</svg>
