<?xml version="1.0" encoding="UTF-8"?>
<svg version="1.1" viewBox="0 0 800 800" width="200" height="200" xmlns="http://www.w3.org/2000/svg">
<path transform="translate(0)" d="m0 0h800v800h-800z"/>
<path transform="translate(202,116)" d="m0 0h10l10 4 5 4 7 8 31 31 9 12 10 11 11 15 9 15 13 18 9 16 8 16 12 22 10 25 6 14v2l24-3h16l13 1 3-15 8-27 6-14 11-12 14-7 8-2 11 1 25 7 16 6 18 10 6 5 8 13 10 20 9 15 6 15 7 23v10l-5 8-5 4-3 1h-8l-7-3-15-10-9-7-16-16-11-9-14-12-9-12-11-14-6-7-7-1-7 21-1 10 3 7 4 3 4-1 9-10 3 1 6 9-2 19 9 13 12 23 8 19 7 19 3 16 3 15 11 23 5 18 3 16v25l-3 18-6 11-8 10-9 10-9 8-19 12-22 13-19 14-9 6-5 2h-15l-8-5-3-4 2-8 4-6 9-10 5-7-1-7-1-3-9-2-31 3-12 4-3 3 1 7 10 9 11 8 1 3-3 6-12 12-10-2-20-7-10-6-7-8-9-12-12-11-11-9-14-12-10-9-14-21-4-9-2-10v-18l4-16 6-16 16-24 7-14 8-24 5-19 9-27 8-14-1-5-10-9-11-9-14-14-7-8-10-11-8-11-7-12-11-24-8-20-7-25-6-16-11-26-7-20-5-15 1-9 4-6 6-5z" fill="#FEFEFE"/>
<path transform="translate(220,173)" d="m0 0 5 1 7 7 8 10 9 12 11 18 10 13 12 19 14 22 8 14 8 18 10 18 3 6-1 7-5 5-6-1-10-8-13-12-23-23-9-13-11-25-10-21-14-41-8-20 2-4z"/>
<path transform="translate(431,416)" d="m0 0h9l11 3 6 4 6 7 12 26 2 13-2 6-5 6-20 10h-9l-14-5-9-7-6-8-1-3 1-13 3-19 4-12 5-5z"/>
<path transform="translate(325,431)" d="m0 0h10l10 4 6 7 4 9 1 9-3 12-6 7-8 4h-10l-8-4-5-9-3-11 1-12 4-10z"/>
<path transform="translate(414,336)" d="m0 0 5 2 4 1 5-3 3 1-1 5 5 5-1 3-9-1 1 5 6 4 1 4h-8l-4 5-5-1-1-8-6-3-1-4 1-1h10l-1-5-6-4 1-4z"/>
</svg>
