<svg width="513" height="513" viewBox="0 0 513 513" fill="none" xmlns="http://www.w3.org/2000/svg">
<circle cx="256.183" cy="256.085" r="255.5" fill="black" stroke="white"/>
<circle cx="256.183" cy="261.364" r="210.164" fill="black" stroke="white" stroke-width="4"/>
<g clip-path="url(#clip0_24_986)">
<path d="M298.988 190.207L269.567 233.917C267.533 236.893 271.445 240.497 274.262 237.99L303.213 212.767C303.996 212.14 305.091 212.61 305.091 213.707V292.51C305.091 293.607 303.683 294.077 303.057 293.293L215.421 188.327C212.604 184.88 208.535 183 203.997 183H200.867C192.729 183 186 189.737 186 198.04V308.96C186 317.263 192.729 324 201.023 324C206.188 324 211.039 321.337 213.856 316.793L243.276 273.083C245.311 270.107 241.398 266.503 238.582 269.01L209.63 294.077C208.848 294.703 207.752 294.233 207.752 293.137V214.49C207.752 213.393 209.161 212.923 209.787 213.707L297.423 318.673C300.24 322.12 304.465 324 308.847 324H311.977C320.271 324 327 317.263 327 308.96V198.04C327 189.737 320.271 183 311.977 183C306.656 183 301.805 185.663 298.988 190.207Z" fill="white"/>
</g>
<defs>
<clipPath id="clip0_24_986">
<rect width="141" height="141" fill="white" transform="translate(186 183)"/>
</clipPath>
</defs>
</svg>
