<svg width="513" height="513" viewBox="0 0 513 513" fill="none" xmlns="http://www.w3.org/2000/svg">
<circle cx="256.566" cy="256.68" r="255.5" fill="black" stroke="white"/>
<g clip-path="url(#clip0_40_344)">
<path d="M299.641 181C291.074 180.993 282.854 184.396 276.786 190.46C270.717 196.525 267.297 204.756 267.275 213.346V249.211C263.941 249.436 260.533 249.578 257 249.578C253.466 249.578 250.075 249.72 246.725 249.921V213.346C246.588 204.83 243.119 196.709 237.065 190.735C231.01 184.76 222.856 181.412 214.362 181.412C205.868 181.412 197.714 184.76 191.66 190.735C185.606 196.709 182.136 204.83 182 213.346V299.063C182.136 307.579 185.606 315.701 191.66 321.675C197.714 327.649 205.868 330.997 214.362 330.997C222.856 330.997 231.01 327.649 237.065 321.675C243.119 315.701 246.588 307.579 246.725 299.063V263.199C250.058 262.973 253.466 262.831 257 262.831C260.533 262.831 263.925 262.689 267.275 262.489V299.063C267.411 307.579 270.881 315.701 276.935 321.675C282.989 327.649 291.143 330.997 299.637 330.997C308.131 330.997 316.285 327.649 322.34 321.675C328.394 315.701 331.863 307.579 332 299.063V213.346C331.978 204.757 328.558 196.527 322.492 190.463C316.425 184.399 308.207 180.996 299.641 181ZM214.358 194.253C219.414 194.251 224.265 196.26 227.846 199.839C231.426 203.419 233.445 208.276 233.458 213.346V251.325C223.99 252.701 214.743 255.322 205.958 259.121C202.152 260.796 198.568 262.941 195.291 265.505V213.346C195.305 208.282 197.318 203.43 200.892 199.851C204.466 196.272 209.308 194.259 214.358 194.253ZM233.458 299.063C233.458 304.143 231.446 309.014 227.864 312.606C224.282 316.197 219.424 318.215 214.358 318.215C209.292 318.215 204.434 316.197 200.852 312.606C197.27 309.014 195.258 304.143 195.258 299.063V290.465C195.258 282.869 201.258 275.674 211.316 271.196C218.404 268.13 225.84 265.949 233.458 264.703V299.063ZM299.641 318.157C294.585 318.159 289.735 316.15 286.154 312.57C282.573 308.991 280.555 304.133 280.541 299.063V261.085C290.01 259.709 299.256 257.088 308.041 253.288C311.848 251.613 315.431 249.469 318.708 246.904V299.063C318.695 304.127 316.681 308.98 313.107 312.559C309.534 316.137 304.692 318.15 299.641 318.157ZM302.683 241.164C295.596 244.23 288.159 246.41 280.541 247.656V213.346C280.541 208.267 282.554 203.396 286.136 199.804C289.718 196.212 294.576 194.194 299.641 194.194C304.707 194.194 309.565 196.212 313.147 199.804C316.729 203.396 318.741 208.267 318.741 213.346V221.945C318.741 229.507 312.741 236.702 302.683 241.164Z" fill="white"/>
</g>
<defs>
<clipPath id="clip0_40_344">
<rect width="150" height="150" fill="white" transform="translate(182 181)"/>
</clipPath>
</defs>
</svg>
