<svg width="513" height="513" viewBox="0 0 513 513" fill="none" xmlns="http://www.w3.org/2000/svg">
<circle cx="256.327" cy="256.941" r="255.5" fill="black" stroke="white"/>
<path d="M189.454 319.031C175.988 319.031 164.962 315.868 156.377 309.542C147.882 303.125 143.634 293.907 143.634 282.068C143.634 279.538 143.905 276.555 144.447 272.94C145.893 264.807 147.972 255.046 150.683 243.569C158.365 212.48 178.247 196.936 210.24 196.936C218.916 196.936 226.778 198.382 233.647 201.364C240.515 204.165 245.938 208.503 249.914 214.287C253.891 219.981 255.879 226.759 255.879 234.622C255.879 236.971 255.608 239.954 255.065 243.569C253.348 253.6 251.36 263.451 248.92 272.94C244.944 288.394 238.165 300.053 228.405 307.734C218.735 315.326 205.721 319.031 189.454 319.031ZM191.894 294.63C198.22 294.63 203.552 292.732 207.98 289.027C212.499 285.322 215.753 279.628 217.65 271.856C220.271 261.192 222.26 251.974 223.615 244.021C224.067 241.671 224.338 239.231 224.338 236.7C224.338 226.398 219.006 221.246 208.252 221.246C201.925 221.246 196.503 223.144 191.984 226.849C187.556 230.555 184.393 236.248 182.495 244.021C180.416 251.612 178.428 260.83 176.349 271.856C175.898 274.115 175.626 276.465 175.626 278.995C175.536 289.479 181.049 294.63 191.894 294.63Z" fill="white"/>
<path d="M263.741 317.405C262.476 317.405 261.572 317.043 260.849 316.23C260.307 315.326 260.126 314.332 260.307 313.157L283.714 202.9C283.895 201.635 284.527 200.641 285.612 199.828C286.606 199.014 287.691 198.653 288.865 198.653H333.962C346.524 198.653 356.556 201.274 364.147 206.425C371.829 211.667 375.715 219.168 375.715 229.019C375.715 231.82 375.354 234.803 374.721 237.875C371.919 250.889 366.226 260.469 357.55 266.705C349.055 272.941 337.396 276.013 322.575 276.013H299.71L291.938 313.157C291.667 314.422 291.125 315.416 290.04 316.23C289.046 317.043 287.962 317.405 286.787 317.405H263.741ZM323.75 252.606C328.54 252.606 332.607 251.341 336.131 248.72C339.746 246.099 342.096 242.394 343.271 237.514C343.632 235.616 343.813 233.899 343.813 232.453C343.813 229.199 342.819 226.669 340.921 224.952C339.023 223.144 335.679 222.241 331.07 222.241H310.736L304.319 252.606H323.75Z" fill="white"/>
</svg>
