<?xml version="1.0" encoding="UTF-8"?>
<svg version="1.1" viewBox="0 0 800 800" width="200" height="200" xmlns="http://www.w3.org/2000/svg">
<path transform="translate(411,36)" d="m0 0h8l16 5 24 13 30 20 12 9 13 10 13 11 10 9 7 6 7 8 7 7 13 17 10 14 12 21 10 21 9 25 6 25 5 31 3 23 6 57 5 33 8 44 14 72 8 36 2 14v20l-4 16-7 12-8 8-14 10-20 12-23 13-34 18-19 10-23 11-29 15-18 10-25 13-29 13-12 4-5 1h-9l-15-5-17-8-68-34-22-12-28-15-25-15-54-36-21-16-10-8-13-13-7-11-4-13v-20l6-29 9-43 7-35 11-47 10-40 17-52 17-45 17-39 14-29 9-17 13-21 11-16 14-19 11-13 7-8 11-11 20-15 15-10 8-4 20-4 26-7 15-4z" fill="#1E1F20"/>
<path transform="translate(286,381)" d="m0 0h27l1 1 19 2 11 5 7 3 18 6 18 2 42 1 6-2 11-2 21-1 2-1 18-1h22l16 8 6 5 8 10 5 12 2 6 2 10v7l2 6 2 9 2 7 7 1-1 5-10 27-10 30-4 11-4 17-9 25-9 19-8 12-9 11-8 8-11 9-13 9-18 10-15 5-13 3-20 2h-31l-14-2-13-4-16-8-11-7-11-9-7-8-11-16-10-16-5-11v-3h-2l-4-9-5-15-3-7-4-16-4-29-2-6-3-26-1-3-2-21-5-38-1-6v-17l3-1v3l5-2h2l3-3 8-4 3-3 10-6 5-1z" fill="#919495"/>
<path transform="translate(411,36)" d="m0 0h8l16 5 17 9-2 1-1 5-5 4-9 3-20 2-21 3-12 1-11 2-13 4-8 4-10 7-9 7-5 5-11 15-4 4-7 6h-2v2h-2l-2 5-4 7 1 10 2 4 2 1v2l9 2 4 5 3 8-1 8 3 6 6 2 11 2 7 6 3 1 4 6 9 6 7 3 1 2h12l6-5h9l5 5 3 8 5 23-1 5-2 3v13l2 9 2 11v12l2 8 2 9 1 26v36l1 5v3h13l1-1h7l-2 4-13 6-9 3-17 2-21-3-12-4-18-10-15-9-14-5h-26l-15 3-13 5-11 6-11 9-8 11-1 3h-2l-2 4-11 18-9 16-9 22-6 23-3 17-1 18v9l3 16 7 17 10 19 11 16 3 3v2l3 1 7 8 9 10v5l-1 5 1 7-2 3-1 13-2 4h-3v2l-5 1-16-6-3-3-9-1-11-7-24-16-21-16-10-8-13-13-7-11-4-13v-20l6-29 9-43 7-35 11-47 10-40 17-52 17-45 17-39 14-29 9-17 13-21 11-16 14-19 11-13 7-8 11-11 20-15 15-10 8-4 20-4 26-7 15-4z" fill="#36383A"/>
<path transform="translate(283,412)" d="m0 0h12l17 3 9 1h11l12 5 16 3 12 2 9 2 10 1 14 2 6 2 19 1 11-2h42l15 4 11 6 5 4 9 11 2 7-1 10v25l-3 16-3 6-3 9-4 8-4 11-5 11-11 16-1 2-5 2-4 4-7 2-3-3-7-19-7-11-11-12-13-6-12-3-7-1h-30l-34 4-15 6-9 7-7 11-4 9-5 27-6 4-4 1-4-5-4-4-5-2-8-10-4-6-4-4v-2l-3-1-2-3-3-1-1 3-3 3-6-16-4-27-3-23-6-52-1-12 4-6 10-8h2v-2h3v-2l8-4 9-3z" fill="#FBFBFB"/>
<path transform="translate(384,530)" d="m0 0h30l16 3 12 5 6 4 11 12 4 7 4 13v20l-3 13-5 10-7 9-7 7-7 6-5 4-2 3h-3v2l-9 3-11 5-10 2h-24l-11-3-8-3-5-2-4-2-4-5-5-5-5-4-5-5-6-7-7-16-1-8v-16l2-13 3-10 7-11 10-8 15-6z" fill="#1E1F20"/>
<path transform="translate(256,559)" d="m0 0 2 3 1 3 3-1 1-2 4 1 9 10 12 16 5 2 1 3 4 2 2 3 4-1 4-3h2l1-11 3-16 2-5 1 4-2 6-1 9v16l2 11 8 16 8 7v2l4 2 6 5 1 4 3 1 1 2 6 3 4 1 13 4 4 1h24l12-3 9-4 9-2v-2l4-2 1-3 6-4h2l2-4 8-7 4-5 5-7 4-9 2-11v-20l-3-8 1-4 4 10v28l-2 9v6l-1 2 4 1 5-3 12-9h2v-2h2l2-4 7-11 7-10h2l1-4 6-9 5-2 2 13v15l-8 17-8 12-9 11-8 8-11 9-13 9-18 10-15 5-13 3-20 2h-31l-14-2-13-4-16-8-11-7-11-9-7-8-11-16-10-16-5-11v-3h-2l-4-9-5-15-3-7z" fill="#6A6C6D"/>
<path transform="translate(384,530)" d="m0 0h30l16 3 12 5 4 3h-5l-10-5-1 1v3l5 2v2l4 2 7 10 1 8-8 1-7 9-1 6-8 13-5 3-7 2-13-1-10 2-12-1-9 2-16-1-5-2h-10l-7 2-5-1-7-7-2-5-1 12h-1v-16l2-13 3-10 7-11 10-8 15-6z" fill="#36383A"/>
<path transform="translate(286,381)" d="m0 0h27l1 1 19 2 11 5 7 3 18 6 18 2 42 1 6-2 11-2 21-1 2-1 18-1h22l16 8 6 5 8 10 5 12 2 6 2 10v7l2 6 2 9 2 7 7 1-1 5-10 27-3 1-4 7-6-1-1-3 1-15 1-7v-12l-2-16-3-11h-2l-2-6-2-2-2-5-2-4-4-2-6-5-8-5-10-3v-2h-96l-15-2-23-4-14-3-10-2-12-3h-7l-6-1h-28l-14 4-7 3-8 4-9 6-4 2-2 4-2 2-1 5h-1l-2-13v-17l3-1v3l5-2h2l3-3 8-4 3-3 10-6 5-1z" fill="#6A6C6D"/>
<path transform="translate(294,367)" d="m0 0h12l12 2 10 4 20 12 16 8 12 3 9 1h16l13-2 13-3 17-8 13-5 17-6 3-1 30-1 9 2 11 3 10 7 4 2v2l4 2 8 7 6 9v2h2l4 6 4 9 6 22v8l-6 9-7 17-1-3-7-1-4-10-2-11-1-2v-9l-2-7-2-6-5-12-7-8v-2l-4-2-5-4-13-6h-25l-15 1-4 1-19 1-15 3-3 1-41-1-18-2-13-4-9-3-1-2-6-2-7-3-19-2-5-1h-23l-13 3-7 2-8 5h-2l-1 3-8 4h-2l-1 3-7 1v-3l-2 1-1 15h-1v-16l5-8 4-5 12-9 11-5 10-3 8-2z" fill="#36383A"/>
<path transform="translate(621,280)" d="m0 0h1l4 31 6 57 5 33 8 44 14 72 8 36 2 14v20l-4 16-2 2-3-2-5-21-5-13-2-7-8-14-5-6-7-14-5-9-3-9-2-7 1-4-2-4-2-14-1-11 1-16 3-8 2-15 1-7 1-3h3l1-4v-9l2-3-1-13-4-27-2-26-3-34v-10l1 2 1-4v-8z" fill="#36383A"/>
<path transform="translate(298,409)" d="m0 0h23l5 1 2-1 14 4 12 2 12 3 28 5 24 1h23l17-1h23l10 2 9 4 2 2 5 2 3 3v2l3 1 5 7 5 5 6 8 1 2 1 9v20l-2 17-3 12-6 17-4 8-4 9-4 10-6 11-4 5-3 6-3 1-5 5-6 5-8 1-3-2-1-13-1-7 2 3 2 7 9-2 3-1 2-4h4l2-5 10-14 5-13 4-10 3-6 3-9 4-9 2-13v-28l1-9-4-8-3-3v-2l-3-1-5-5-14-7-12-3h-42l-13 2-17-1-12-3-13-2-12-1-5-2-19-3-9-2-9-4h-11l-9-1-17-3h-12l-10 2-11 4-4 1v2h-3v2l-7 5h-2l-1 3-3 2-2 4-1-3 2-5 9-8 5-3 10-5 9-2h5v-2z" fill="#AEB0B1"/>
<path transform="translate(284,400)" d="m0 0h31l7 1 13 2 4 2 17 3 16 3 19 3 16 1h80l8 1v2l6 1 7 3 9 6 6 5 4 5 2 5 2 2v5h2l4 11 2 16v15l-1 8-1 11 3 3 3-1 5-8h1l-1 8-8 24-4 11-4 17-9 25h-2v-16l-2-9-4 1-2 5-4 5-1 3h-2l-2 4-14 21h-2v2l-8 6-9 6-4 1-3-2 1-4 1-7 2 1v3l12-1 1-3 8-7 6-7 7-10 4-6 7-11 6-17 5-9 2-5 4-8 4-23 1-12v-23l-1-7-4-10-10-15v-2h-2v-2h-2l-1-2-3-1-2-3-15-6-11-2h-50l-26 1-22-2-16-3-24-5-16-4-22-2-20 1-23 5-9 4-2-1 4-3 8-4 15-4z" fill="#888A8C"/>
<path transform="translate(256,559)" d="m0 0 2 3 1 3 3-1 1-2 4 1 9 10 12 16 5 2 1 3 4 2 2 3 4-1 4-3h2l1-11 3-16 2-5 1 4-2 6-1 9v16l3 17 4 10-1 3-5 1-10-3-5-3-8-1h-3l-3 1-5-5-7-12-4-9v-3h-2l-4-9-5-15-3-7z" fill="#ACAEAF"/>
<path transform="translate(302,405)" d="m0 0 15 1h9l13 3 16 4 18 3 22 4 10 1h30l17-1h30l15 3 7 3 7 6 6 5 1 5 3 1 1 4 4 2 1 4h2l3 6 2 16v12l-2 20-4 17-6 15-3 5-9 23-8 12-9 12-10 9-6 4-4-1-4-2-1-22 2 3 1 13 7 1 7-4 5-4 2-3h3l2-6 5-6 7-14 4-10 5-11 5-12 4-14 2-11 1-11v-20l-1-9-4-6-5-6v-2l-4-2-4-6-2-1v-2l-3-1-1-2-5-2-7-4-6-2-7-1h-31l-13 1h-27l-23-2-21-4-13-3-14-3-12-3-2 1-4-1h-42v2l-14 3-10 5-16 12-1-2 4-6 12-9 13-5 16-3z" fill="#A2A4A5"/>
<path transform="translate(306,411)" d="m0 0 17 1 22 5 5 2 14 2 10 2 14 2 12 2 17 1 9 1 12-1 5 1 5-1 19-1 16 1 13 4 10 5 9 8v2l4 2 7 8 2 6v36l-4 17-3 10-5 9-5 14-8 16-8 13-3 1-2 4-9 7-9 1-3-9-1-7 2 3 2 7 9-2 3-1 2-4h4l2-5 10-14 5-13 4-10 3-6 3-9 4-9 2-13v-28l1-9-4-8-3-3v-2l-3-1-5-5-14-7-12-3h-42l-13 2-17-1-12-3-13-2-12-1-5-2-19-3-9-2-9-4h-11l-9-1-17-3v-1z" fill="#BABCBD"/>
<path transform="translate(621,280)" d="m0 0h1l4 31 6 57 5 33 8 44 11 57v3l-2-1-2-5-1-5-1 6-2-4-6-28-6-32-12-72-5-44-1-25 1 2 1-4v-8z" fill="#6A6C6D"/>
<path transform="translate(466,574)" d="m0 0h1v20l-3 13-5 10-7 9-7 7-7 6-5 4-2 3h-3v2l-9 3-11 5-10 2h-24l-11-3-8-3-5-2-4-2-4-5-5-5-5-4-5-5-6-7-3-6 1-2 6 8v2h2v2l4 2 10 8 18 8 10 4 10 2h11l15-2v-2l17-6 9-3 10-8 11-8 9-14 3-9 1-5z" fill="#383A3C"/>
<path transform="translate(316,563)" d="m0 0 1 4-2 6-1 9v16l3 17 4 10-1 3-5 1-10-3-5-3-8-1h-3l-3 1-5-5-7-12-3-9 6-4 9 5 5 5 9 8h10v-2h2v-31l3-13z" fill="#929596"/>
<path transform="translate(411,36)" d="m0 0h8l11 3v1l-14 3-41 9-14 4-17 5-25 8-8 1-4 1 4-4 16-10 6-3 20-4 26-7 15-4z" fill="#6A6C6D"/>
<path transform="translate(483,390)" d="m0 0h24l17 6 5 4v2l4 1v2l4 2 5 8 2 3 5 12 1 7 1 11 2 16 3 4v2l6 2v6l-1-3-7-1-4-10-2-11-1-2v-9l-2-7-2-6-5-12-7-8v-2l-4-2-5-4-13-6h-25l-15 1-4 1-19 1-15 3-3 1-41-1v-1l30-1 3-1v2l5-2 6-1 6-2 11-1 8-1 6-1 20-1z" fill="#4D4F50"/>
<path transform="translate(272,690)" d="m0 0 9 3 29 14 5 3 6 2v2l9 3 38 19 2 4h-3l-3 1-6-1-68-34-15-8-1-3-2-2z" fill="#3D3F41"/>
<path transform="translate(514,447)" d="m0 0 4 1 8 9 2 6v36l-4 17-3 10-5 9-5 14-8 16-8 13-3 1-2 4-9 7-9 1-3-9-1-7 2 3 2 7 9-2 3-1 2-4h4l2-5 10-14 5-13 4-10 3-6 3-9 4-9 2-13v-28l1-9-4-8-3-3v-2l-3-1z" fill="#B9BBBC"/>
<path transform="translate(293,377)" d="m0 0h29l9 3 6 1v2l5 2 17 9-3 1-9-3-1-2-6-2-7-3-19-2-5-1h-23l-13 3-7 2-8 5h-2l-1 3-8 4h-2l-1 3-7 1v-3l-2 1-1 15h-1v-16l5-8 8-5 9 1 13-7 7-1 5-1z" fill="#4B4D4E"/>
<path transform="translate(532,460)" d="m0 0 3 1 1 11v19l-2 17-3 18-12 24-5 15-7 11-8 11-6 9-7 7h-2l-1 3-5 4h-10l-1-3 1-24h1l1 18 4 2 5-1 11-9 6-7 11-16 4-8 7-18 4-8 6-16 4-20 1-22z" fill="#949798"/>
<path transform="translate(523,454)" d="m0 0 4 2 3 5 1 9v20l-2 17-3 12-6 17-4 8-4 9-4 10-6 11-4 5-3 6-3 1-5 5-6 5-8 1-3-2v-8l2 3 9-1 10-8 6-7 6-11 5-10 10-24 3-6 2-7 4-17v-37l-3-6z" fill="#AEB0B1"/>
<path transform="translate(558,668)" d="m0 0 2 1-1 5v2l-19 10-23 11-13 6v-2l-3 1-1-1-7 1 3-3 19-10 40-20z" fill="#3A3C3E"/>
<path transform="translate(256,559)" d="m0 0 2 3 1 3 3-1 1-2 4 1 9 10 12 16 5 2 1 3 4 2 2 3 4-1 4-3h2v-6h1v10l-3 1v2l-4 3-5-1-11-8-2-4h-2l-7-8-2-1v-2l-5-2-4-2-1 5-3-3-6-16z" fill="#B8BABB"/>
<path transform="translate(590,499)" d="m0 0h4l4 11 2 12v9l-2 9 1 6-2 7-5 17-2 2v-9l1-8 1-20-2-31z" fill="#36383A"/>
<path transform="translate(316,563)" d="m0 0 1 4-2 6-1 9v16l1 19-2 4-5-1-11-7-10-7-8 1-4 1-4-9 1-3 5-3 9 5 5 5 9 8h10v-2h2v-31l3-13z" fill="#9C9E9F"/>
<path transform="translate(411,36)" d="m0 0h8v1l-25 6-26 6-26 8-7 2h-10l2-2 6-3 20-4 26-7 15-4z" fill="#929596"/>
<path transform="translate(503,578)" d="m0 0 1 3-7 9-4 6-7 7h-2l-1 3-5 4h-10l-1-3 1-24h1l1 18 4 2 5-1 11-9 6-7z" fill="#939697"/>
<path transform="translate(279,613)" d="m0 0h12l8 4 7 4 5 3 5 2v-2h2l1-3 2 4-1 3-5 1-10-3-5-3-8-1h-3l-3 1-5-5z" fill="#87898B"/>
<path transform="translate(618,263)" d="m0 0h1l2 12v22h-2v21h-1l-3-38v-8h2z" fill="#3C3E40"/>
<path transform="translate(279,411)" d="m0 0h15v1l-19 2-13 5-4 1v2h-3v2l-7 5h-2l-1 3-3 2-2 4-1-3 2-5 9-8 5-3 10-5z" fill="#BABCBD"/>
<path transform="translate(267,412)" d="m0 0h5l-3 2-11 4-5 4-5 3-9 7-1-2 4-6 12-9z" fill="#AEB0B1"/>
<path transform="translate(363,47)" d="m0 0h2v3l-30 9h-10l2-2 6-3 20-4z" fill="#8E9192"/>
<path transform="translate(346,728)" d="m0 0 15 5 5 2 4 3v2h-3l-3 1-6-1-8-5 1-2-5-3z" fill="#37393B"/>
<path transform="translate(321,714)" d="m0 0 9 3 30 15 1 2-9-3-17-8-14-8z" fill="#6A6C6D"/>
<path transform="translate(342,641)" d="m0 0 4 2 13 8 11 4v1l-7-1-8-3-5-2-4-2-4-5z" fill="#4D4F50"/>
<path transform="translate(429,642)" d="m0 0 4 1-2 3h-3v2l-9 3-11 5h-7v-1l9-2v-2l9-3 6-1v-2h2v-2z" fill="#4D4F50"/>
<path transform="translate(250,414)" d="m0 0 2 1-7 6-6 9 1 5v13l-2-3-1-8v-11l5-6z" fill="#8F9293"/>
<path transform="translate(531,555)" d="m0 0h2v7l-5 14-2-2v-7l3-8z" fill="#87898A"/>
<path transform="translate(550,460)" d="m0 0h2l4 10 6 2v6l-1-3-7-1-4-10z" fill="#4C4E4F"/>
<path transform="translate(411,36)" d="m0 0h8v1l-25 6-9 1 4-2 17-5z" fill="#8D8F91"/>
<path transform="translate(466,574)" d="m0 0h1v20l-3 13-3 4-1-2 4-11 1-5z" fill="#37393B"/>
<path transform="translate(599,201)" d="m0 0 3 4 5 12-1 3-4-3-3-13z" fill="#3B3D3F"/>
<path transform="translate(256,414)" d="m0 0 3 1-9 6-7 6h-2l-1 3-1-2 5-6z" fill="#A2A4A5"/>
<path transform="translate(538,535)" d="m0 0 1 4-4 14h-3l2-10z" fill="#919495"/>
<path transform="translate(338,53)" d="m0 0h6l-3 3-3 1h-8l3-3z" fill="#979A9B"/>
<path transform="translate(587,580)" d="m0 0 3 1-3 8h-2l-1 2 1-7z" fill="#36383A"/>
<path transform="translate(252,418)" d="m0 0m-1 1m-1 1m-1 1v3l-8 7-3 1v-2z" fill="#ADAFB0"/>
<path transform="translate(249,131)" d="m0 0h1v5l-5 5-3 2 2-5z" fill="#595B5C"/>
<path transform="translate(332,721)" d="m0 0 6 2 8 4v2l-6-2-8-4z" fill="#3A3C3E"/>
<path transform="translate(433,535)" d="m0 0 5 1 8 4v1h-5l-9-4z" fill="#424446"/>
</svg>
