<svg width="513" height="513" viewBox="0 0 513 513" fill="none" xmlns="http://www.w3.org/2000/svg">
<circle cx="256.328" cy="256.941" r="255.5" fill="black" stroke="white"/>
<path d="M316.637 205.985C317.13 220.118 314.273 233.983 308.067 247.576C301.137 262.782 292.831 276.238 283.15 287.945C274.253 298.705 264.154 308.89 252.85 318.498C251.783 319.401 251.109 320.517 250.827 321.845L244.968 349.13C244.873 349.579 244.655 349.971 244.347 350.246L219.046 372.748C217.767 372.12 216.887 370.773 216.401 368.71C216.031 367.143 214.725 363.268 212.486 357.087L208.188 343.803C208.205 342.608 207.748 342.054 206.813 342.143C200.289 342.771 194.324 342.279 188.919 340.668C188.722 340.612 188.515 340.608 188.32 340.658C188.125 340.707 187.948 340.806 187.808 340.947L177.016 351.68C176.808 351.886 176.528 352.002 176.235 352.002C175.943 352.002 175.663 351.886 175.455 351.68L167.52 343.803C166.691 343.289 166.228 342.67 166.131 341.943C166.061 341.403 166.33 340.788 166.938 340.097C169.971 336.687 172.925 333.318 175.799 329.988C175.951 329.813 176.045 329.595 176.071 329.362C176.098 329.13 176.053 328.895 175.944 328.686C173.475 323.86 172.285 319.046 172.374 314.247C172.867 313.078 172.555 312.303 171.435 311.922C165.615 309.93 156.137 306.848 143 302.677C141.695 301.942 141.501 301.065 142.418 300.047C149.163 292.564 155.825 285.009 162.402 277.385C163.416 276.206 164.571 275.396 165.867 274.954C167.251 274.475 168.667 274.086 170.112 273.785L194.182 267.927C194.603 267.823 194.988 267.581 195.28 267.236C214.854 243.033 238.756 224.48 266.988 211.577C276.114 207.619 285.587 204.846 295.41 203.261C301.123 202.341 307.436 202.225 314.349 202.916C316.236 203.102 316.998 204.125 316.637 205.985ZM228.357 281.038C234.52 290.194 242.852 292.604 253.353 288.264C254.799 287.662 256.148 286.599 257.4 285.076C263.986 277.548 264.538 269.543 259.053 261.059C254.486 255.648 249.196 253.239 243.183 253.833C237.539 254.39 233.003 256.928 229.574 261.444C225.5 266.793 225.094 273.324 228.357 281.038Z" fill="white"/>
<path d="M89.4368 430.094L77.481 441.106C74.7919 439.529 72.5876 437.426 70.8683 434.796C98.9856 408.53 127.072 382.233 155.128 355.904C156.758 354.373 158.2 353.796 159.452 354.177C160.96 354.62 162.269 355.953 163.38 358.176C163.603 358.613 163.675 359.111 163.589 359.594C163.503 360.079 163.263 360.523 162.904 360.859L89.4368 430.094Z" fill="white"/>
<path d="M65.3004 428.208C63.0256 426.172 61.1343 423.828 59.6266 421.181L64.6391 416.585L67.0065 414.207L74.5582 406.954L127.447 357.592C128.769 356.36 129.933 356.326 130.938 357.485L134.298 361.391C134.553 361.684 134.668 362.083 134.615 362.503C134.563 362.921 134.35 363.328 134.02 363.636L65.3004 428.208Z" fill="white"/>
<path d="M105.307 438.064L103.654 439.724L100.348 442.713L98.0333 445.038L94.727 448.027L89.7674 452.45C87.1488 450.953 84.8343 449.072 82.8241 446.805L93.7351 436.51L153.17 380.891C153.488 380.596 153.891 380.414 154.321 380.37C154.751 380.328 155.182 380.426 155.551 380.652C157.755 381.997 159.122 383.751 159.651 385.912C159.698 386.102 159.692 386.304 159.632 386.498C159.571 386.692 159.459 386.87 159.307 387.015L105.307 438.064Z" fill="white"/>
</svg>
