<svg width="513" height="513" viewBox="0 0 513 513" fill="none" xmlns="http://www.w3.org/2000/svg">
<circle cx="256.328" cy="256.941" r="255.5" fill="black" stroke="white"/>
<circle cx="255.859" cy="257.22" r="210.164" fill="black" stroke="white" stroke-width="4"/>
<path d="M333.095 193.929C333.556 207.081 330.886 219.982 325.085 232.631C318.607 246.781 310.845 259.303 301.796 270.196C293.481 280.209 284.042 289.686 273.477 298.627C272.48 299.467 271.849 300.506 271.586 301.742L266.11 327.131C266.021 327.549 265.817 327.914 265.529 328.17L241.882 349.109C240.687 348.525 239.864 347.271 239.41 345.352C239.064 343.893 237.844 340.287 235.751 334.536L231.734 322.175C231.75 321.062 231.322 320.547 230.448 320.629C224.351 321.214 218.776 320.757 213.724 319.257C213.54 319.205 213.347 319.202 213.164 319.247C212.982 319.293 212.817 319.386 212.686 319.517L202.599 329.505C202.405 329.696 202.143 329.804 201.87 329.804C201.597 329.804 201.335 329.696 201.14 329.505L193.724 322.175C192.949 321.696 192.516 321.12 192.426 320.444C192.36 319.941 192.611 319.369 193.18 318.726C196.014 315.553 198.776 312.418 201.462 309.319C201.604 309.156 201.692 308.953 201.716 308.737C201.741 308.521 201.699 308.302 201.598 308.108C199.29 303.617 198.178 299.137 198.26 294.671C198.721 293.583 198.43 292.863 197.383 292.508C191.944 290.654 183.085 287.786 170.806 283.905C169.586 283.221 169.406 282.405 170.263 281.457C176.567 274.494 182.793 267.465 188.94 260.369C189.888 259.273 190.967 258.519 192.179 258.107C193.473 257.662 194.796 257.3 196.147 257.019L218.644 251.568C219.037 251.472 219.396 251.247 219.67 250.925C237.964 228.404 260.304 211.139 286.691 199.133C295.22 195.449 304.075 192.869 313.255 191.395C318.595 190.538 324.495 190.43 330.956 191.073C332.72 191.246 333.432 192.198 333.095 193.929ZM250.585 263.769C256.345 272.289 264.132 274.531 273.947 270.493C275.298 269.933 276.559 268.944 277.73 267.526C283.885 260.521 284.401 253.073 279.275 245.178C275.006 240.143 270.062 237.901 264.441 238.453C259.167 238.972 254.927 241.333 251.722 245.536C247.915 250.514 247.535 256.591 250.585 263.769Z" fill="white"/>
<path d="M120.744 402.471L109.57 412.719C107.056 411.252 104.996 409.295 103.389 406.847C129.669 382.406 155.92 357.935 182.142 333.435C183.666 332.01 185.013 331.473 186.184 331.828C187.593 332.24 188.816 333.481 189.855 335.549C190.062 335.955 190.13 336.419 190.05 336.869C189.97 337.32 189.745 337.733 189.41 338.046L120.744 402.471Z" fill="white"/>
<path d="M98.1853 400.716C96.0592 398.822 94.2915 396.641 92.8824 394.177L97.5672 389.901L99.7798 387.688L106.838 380.939L156.27 335.005C157.506 333.859 158.594 333.827 159.533 334.906L162.673 338.54C162.911 338.814 163.019 339.184 162.97 339.575C162.921 339.964 162.722 340.343 162.413 340.629L98.1853 400.716Z" fill="white"/>
<path d="M135.577 409.888L134.032 411.434L130.942 414.215L128.779 416.378L125.689 419.159L121.053 423.275C118.606 421.882 116.442 420.132 114.564 418.022L124.761 408.442L180.312 356.686C180.609 356.412 180.986 356.243 181.387 356.202C181.789 356.162 182.192 356.254 182.537 356.464C184.598 357.716 185.875 359.348 186.369 361.359C186.413 361.536 186.407 361.724 186.352 361.904C186.295 362.085 186.19 362.25 186.048 362.385L135.577 409.888Z" fill="white"/>
</svg>
