<svg width="513" height="513" viewBox="0 0 513 513" fill="none" xmlns="http://www.w3.org/2000/svg">
<circle cx="256.328" cy="256.941" r="255.5" fill="black" stroke="white"/>
<path d="M319.637 204.985C320.13 219.118 317.273 232.983 311.067 246.576C304.137 261.782 295.831 275.238 286.15 286.945C277.253 297.705 267.154 307.89 255.85 317.498C254.783 318.401 254.109 319.517 253.827 320.845L247.968 348.13C247.873 348.579 247.655 348.971 247.347 349.246L222.046 371.748C220.767 371.12 219.887 369.773 219.401 367.71C219.031 366.143 217.725 362.268 215.486 356.087L211.188 342.803C211.205 341.608 210.748 341.054 209.813 341.143C203.289 341.771 197.324 341.279 191.919 339.668C191.722 339.612 191.515 339.608 191.32 339.658C191.125 339.707 190.948 339.806 190.808 339.947L180.016 350.68C179.808 350.886 179.528 351.002 179.235 351.002C178.943 351.002 178.663 350.886 178.455 350.68L170.52 342.803C169.691 342.289 169.228 341.67 169.131 340.943C169.061 340.403 169.33 339.788 169.938 339.097C172.971 335.687 175.925 332.318 178.799 328.988C178.951 328.813 179.045 328.595 179.071 328.362C179.098 328.13 179.053 327.895 178.944 327.686C176.475 322.86 175.285 318.046 175.374 313.247C175.867 312.078 175.555 311.303 174.435 310.922C168.615 308.93 159.137 305.848 146 301.677C144.695 300.942 144.501 300.065 145.418 299.047C152.163 291.564 158.825 284.009 165.402 276.385C166.416 275.206 167.571 274.396 168.867 273.954C170.251 273.475 171.667 273.086 173.112 272.785L197.182 266.927C197.603 266.823 197.988 266.581 198.28 266.236C217.854 242.033 241.756 223.48 269.988 210.577C279.114 206.619 288.587 203.846 298.41 202.261C304.123 201.341 310.436 201.225 317.349 201.916C319.236 202.102 319.998 203.125 319.637 204.985ZM231.357 280.038C237.52 289.194 245.852 291.604 256.353 287.264C257.799 286.662 259.148 285.599 260.4 284.076C266.986 276.548 267.538 268.543 262.053 260.059C257.486 254.648 252.196 252.239 246.183 252.833C240.539 253.39 236.003 255.928 232.574 260.444C228.5 265.793 228.094 272.324 231.357 280.038Z" fill="white"/>
<path d="M92.4368 429.094L80.481 440.106C77.7919 438.529 75.5876 436.426 73.8683 433.796C101.986 407.53 130.072 381.233 158.128 354.904C159.758 353.373 161.2 352.796 162.452 353.177C163.96 353.62 165.269 354.953 166.38 357.176C166.603 357.613 166.675 358.111 166.589 358.594C166.503 359.079 166.263 359.523 165.904 359.859L92.4368 429.094Z" fill="white"/>
<path d="M68.3004 427.208C66.0256 425.172 64.1343 422.828 62.6266 420.181L67.6391 415.585L70.0065 413.207L77.5582 405.954L130.447 356.592C131.769 355.36 132.933 355.326 133.938 356.485L137.298 360.391C137.553 360.684 137.668 361.083 137.615 361.503C137.563 361.921 137.35 362.328 137.02 362.636L68.3004 427.208Z" fill="white"/>
<path d="M108.307 437.064L106.654 438.724L103.348 441.713L101.033 444.038L97.727 447.027L92.7674 451.45C90.1488 449.953 87.8343 448.072 85.8241 445.805L96.7351 435.51L156.17 379.891C156.488 379.596 156.891 379.414 157.321 379.37C157.751 379.328 158.182 379.426 158.551 379.652C160.755 380.997 162.122 382.751 162.651 384.912C162.698 385.102 162.692 385.304 162.632 385.498C162.571 385.692 162.459 385.87 162.307 386.015L108.307 437.064Z" fill="white"/>
</svg>
