<svg width="513" height="513" viewBox="0 0 513 513" fill="none" xmlns="http://www.w3.org/2000/svg">
<circle cx="256.922" cy="256.951" r="255.5" fill="black" stroke="white"/>
<path d="M356.3 156.1V347.3H315.1V247.4H281.2C277.2 247.4 273.4 248.9 270.5 251.5C268.8 253 267.6 254.8 266.7 256.9C265.8 259 265.3 261.1 265.3 263.4V286.4C265.3 292.5 260.3 297.7 254 297.7H226.8C220.7 297.7 215.5 292.7 215.5 286.4V258.6C215.5 252.5 220.5 247.3 226.8 247.3H251.4C254.7 247.3 257.9 246.2 260.3 244C261.8 242.7 263.1 241.1 264 239.1C264.9 237.3 265.3 235.3 265.3 233.2V197.1H165.9V156L356.3 156.1Z" fill="white"/>
<path d="M215.5 322.6V323C215.5 336.8 204.4 347.9 190.6 347.9C176.8 347.9 165.8 336.8 165.8 323V322.6C165.8 308.8 176.9 297.7 190.7 297.7C197.6 297.7 203.8 300.5 208.3 305C212.8 309.6 215.4 315.7 215.5 322.6Z" fill="white"/>
</svg>
