<svg width="513" height="513" viewBox="0 0 513 513" fill="none" xmlns="http://www.w3.org/2000/svg">
<circle cx="256.922" cy="256.951" r="256" fill="black"/>
<path d="M386 127.131V377H332.12V246.446H287.786C282.555 246.446 277.586 248.406 273.793 251.804C271.57 253.764 270.001 256.117 268.824 258.861C267.647 261.605 266.993 264.35 266.993 267.355V297.413C266.993 305.385 260.454 312.18 252.215 312.18H216.643C208.666 312.18 201.866 305.646 201.866 297.413V261.083C201.866 253.111 208.404 246.315 216.643 246.315H248.815C253.13 246.315 257.315 244.878 260.454 242.003C262.415 240.304 264.116 238.213 265.293 235.599C266.47 233.247 266.993 230.633 266.993 227.889V180.711H137V127L386 127.131Z" fill="white"/>
<path d="M215.5 322.6V323C215.5 336.8 204.4 347.9 190.6 347.9C176.8 347.9 165.8 336.8 165.8 323V322.6C165.8 308.8 176.9 297.7 190.7 297.7C197.6 297.7 203.8 300.5 208.3 305C212.8 309.6 215.4 315.7 215.5 322.6Z" fill="white"/>
</svg>
