<svg width="512" height="513" viewBox="0 0 512 513" fill="none" xmlns="http://www.w3.org/2000/svg">
<circle cx="256.009" cy="256.058" r="255.5" fill="black" stroke="white"/>
<g clip-path="url(#clip0_24_1009)">
<path fill-rule="evenodd" clip-rule="evenodd" d="M253.216 377C286.339 377 316.098 362.501 336.568 339.465C327.046 331.136 312.696 330.63 302.559 338.862L300.623 340.435C282.062 355.507 255.017 353.282 239.136 335.375C230.475 325.608 215.641 324.611 205.766 333.131L183.438 352.396C202.562 367.793 226.821 377 253.216 377ZM289.46 322.524C307.138 308.168 331.987 308.683 348.99 322.548C359.153 305.601 365 285.738 365 264.5C365 240.901 357.78 219 345.443 200.911C337.489 199.206 328.868 201.197 322.324 207.033L320.461 208.694C302.611 224.613 275.493 223.646 258.808 206.495C249.708 197.142 234.844 196.834 225.37 205.804L199.387 230.406L185.093 215.116L211.077 190.514C228.823 173.711 256.667 174.286 273.714 191.808C282.62 200.964 297.097 201.48 306.626 192.982L308.489 191.321C314.273 186.162 320.964 182.685 327.971 180.856C308.167 162.917 281.958 152 253.216 152C196.47 152 149.6 194.554 142.393 249.683C159.629 241.359 180.889 244.562 194.943 259.046C203.815 268.189 218.1 269.154 228.107 261.286L242.635 249.864C260.893 235.508 286.703 236.203 304.173 251.521L332.457 276.321L318.754 292.15L290.47 267.35C280.536 258.64 265.86 258.244 255.478 266.407L240.95 277.83C222.564 292.285 196.318 290.512 180.018 273.713C170.539 263.944 155.037 263.604 145.144 272.947L142 275.916C144.353 299.412 153.89 320.776 168.367 337.746L192.189 317.193C210.687 301.232 238.475 303.1 254.7 321.395C263.177 330.955 277.615 332.143 287.523 324.096L289.46 322.524Z" fill="white"/>
</g>
<defs>
<clipPath id="clip0_24_1009">
<rect width="223" height="225" fill="white" transform="translate(142 152)"/>
</clipPath>
</defs>
</svg>
