<svg width="512" height="513" viewBox="0 0 512 513" fill="none" xmlns="http://www.w3.org/2000/svg">
<circle cx="256.009" cy="256.058" r="255.5" fill="black" stroke="white"/>
<circle cx="255.82" cy="261.336" r="210.164" fill="black" stroke="white" stroke-width="4"/>
<g clip-path="url(#clip0_24_1009)">
<path fill-rule="evenodd" clip-rule="evenodd" d="M253.756 352C282.274 352 307.896 339.498 325.521 319.636C317.322 312.455 304.967 312.019 296.239 319.117L294.572 320.473C278.592 333.469 255.306 331.55 241.633 316.11C234.176 307.689 221.404 306.829 212.902 314.175L193.678 330.786C210.143 344.062 231.03 352 253.756 352ZM284.961 305.03C300.182 292.651 321.576 293.095 336.215 305.05C344.966 290.438 350 273.312 350 255C350 234.653 343.784 215.769 333.161 200.172C326.313 198.702 318.891 200.419 313.256 205.451L311.652 206.883C296.284 220.609 272.936 219.775 258.57 204.987C250.735 196.922 237.938 196.657 229.781 204.391L207.409 225.603L195.103 212.42L217.474 191.207C232.754 176.719 256.727 177.215 271.404 192.323C279.072 200.217 291.536 200.663 299.741 193.336L301.344 191.903C306.324 187.456 312.086 184.457 318.119 182.88C301.067 167.413 278.502 158 253.756 158C204.898 158 164.543 194.691 158.338 242.224C173.178 235.047 191.483 237.809 203.583 250.297C211.222 258.181 223.521 259.013 232.137 252.229L244.645 242.38C260.366 230.003 282.587 230.602 297.628 243.809L321.981 265.192L310.183 278.84L285.83 257.457C277.278 249.947 264.642 249.606 255.703 256.645L243.194 266.494C227.365 278.957 204.767 277.429 190.733 262.944C182.572 254.521 169.225 254.227 160.707 262.283L158 264.843C160.026 285.102 168.237 303.522 180.702 318.155L201.212 300.433C217.139 286.671 241.063 288.282 255.033 304.056C262.332 312.299 274.763 313.323 283.293 306.385L284.961 305.03Z" fill="white"/>
</g>
<defs>
<clipPath id="clip0_24_1009">
<rect width="192" height="194" fill="white" transform="translate(158 158)"/>
</clipPath>
</defs>
</svg>
