<svg width="512" height="512" viewBox="0 0 512 512" fill="none" xmlns="http://www.w3.org/2000/svg">
<circle cx="256" cy="255.995" r="256" fill="black"/>
<path d="M183.266 199.848C181.21 197.302 178.09 195.887 174.758 195.887H106.056C105.489 195.887 104.993 195.675 104.567 195.321C104.213 194.967 104 194.543 104 194.048V147.853C104 147.358 104.213 146.933 104.567 146.58C104.993 146.155 105.489 145.943 106.056 146.014H178.657C196.95 146.014 212.76 153.512 226.089 168.439L243.743 189.945L209.357 231.753L183.266 199.848ZM310.176 168.227C323.435 153.442 339.316 146.014 357.821 146.014H430.21C430.706 145.943 431.202 146.155 431.557 146.438C431.911 146.792 432.053 147.287 431.982 147.853V194.048C431.982 194.543 431.84 194.967 431.557 195.321C431.202 195.745 430.706 195.958 430.21 195.887H361.508C358.247 195.816 355.127 197.302 353 199.848L302.378 261.323L353.213 323.223C355.269 325.557 358.317 326.972 361.437 326.901H430.139C430.635 326.83 431.202 327.113 431.486 327.467C431.77 327.892 431.982 328.458 431.911 328.953V375.147C431.911 375.643 431.77 376.067 431.486 376.421C431.132 376.845 430.635 377.057 430.139 376.987H357.821C339.316 376.987 323.577 369.488 310.389 354.561L268.275 303.273L226.16 354.561C212.902 369.488 197.02 376.987 178.516 376.987H106.056C105.56 377.057 104.993 376.774 104.709 376.421C104.354 375.996 104.213 375.43 104.284 374.935V328.74C104.284 328.245 104.425 327.821 104.709 327.467C105.063 327.043 105.56 326.83 106.056 326.901H174.758C178.019 326.901 181.139 325.416 183.266 322.94L232.967 262.384L310.176 168.227Z" fill="white"/>
</svg>
