<svg width="512" height="512" viewBox="0 0 512 512" fill="none" xmlns="http://www.w3.org/2000/svg">
<circle cx="256" cy="255.995" r="255.5" fill="black" stroke="white"/>
<path d="M197.241 216.553C195.659 214.589 193.259 213.498 190.694 213.498H137.829C137.392 213.498 137.01 213.334 136.683 213.061C136.41 212.789 136.247 212.461 136.247 212.079V176.454C136.247 176.072 136.41 175.744 136.683 175.472C137.01 175.144 137.392 174.981 137.829 175.035H193.695C207.771 175.035 219.937 180.818 230.194 192.33L243.778 208.915L217.318 241.158L197.241 216.553ZM294.898 192.166C305.1 180.764 317.321 175.035 331.56 175.035H387.263C387.645 174.981 388.027 175.144 388.299 175.363C388.572 175.635 388.681 176.017 388.627 176.454V212.079C388.627 212.461 388.518 212.789 388.299 213.061C388.027 213.389 387.645 213.552 387.263 213.498H334.397C331.888 213.443 329.487 214.589 327.85 216.553L288.897 263.963L328.014 311.7C329.596 313.501 331.942 314.592 334.343 314.537H387.208C387.59 314.483 388.027 314.701 388.245 314.974C388.463 315.301 388.627 315.737 388.572 316.119V351.745C388.572 352.127 388.463 352.454 388.245 352.727C387.972 353.054 387.59 353.218 387.208 353.163H331.56C317.321 353.163 305.209 347.38 295.062 335.869L262.655 296.315L230.248 335.869C220.046 347.38 207.825 353.163 193.586 353.163H137.829C137.447 353.218 137.01 353 136.792 352.727C136.519 352.4 136.41 351.963 136.465 351.581V315.956C136.465 315.574 136.574 315.246 136.792 314.974C137.065 314.646 137.447 314.483 137.829 314.537H190.694C193.204 314.537 195.604 313.392 197.241 311.482L235.486 264.781L294.898 192.166Z" fill="white"/>
</svg>
