<svg width="513" height="513" viewBox="0 0 513 513" fill="none" xmlns="http://www.w3.org/2000/svg">
<circle cx="256.379" cy="256.888" r="255.5" fill="black" stroke="white"/>
<circle cx="256.379" cy="262.167" r="210.164" fill="black" stroke="white" stroke-width="4"/>
<path d="M304.159 241.363C304.715 241.361 305.246 241.589 305.626 241.994L332.425 270.54C333.624 271.817 332.719 273.909 330.967 273.909H314.728L212.602 273.895C212.056 273.895 211.534 273.672 211.157 273.278L184.369 245.263C183.156 243.993 184.05 241.888 185.806 241.881L304.159 241.363Z" fill="white"/>
<path d="M209.029 284.165C208.473 284.163 207.942 284.391 207.562 284.796L180.763 313.342C179.564 314.619 180.469 316.711 182.221 316.711H198.46L300.586 316.697C301.132 316.697 301.654 316.474 302.031 316.079L328.818 288.064C330.032 286.795 329.138 284.69 327.382 284.682L209.029 284.165Z" fill="white"/>
<path d="M211.977 198.561C211.421 198.559 210.89 198.787 210.51 199.192L183.711 227.738C182.512 229.015 183.418 231.107 185.169 231.107H201.409L303.534 231.093C304.08 231.093 304.602 230.87 304.979 230.475L331.767 202.46C332.98 201.191 332.086 199.086 330.33 199.078L211.977 198.561Z" fill="white"/>
</svg>
