<svg width="513" height="513" viewBox="0 0 513 513" fill="none" xmlns="http://www.w3.org/2000/svg">
<circle cx="256.379" cy="256.888" r="255.5" fill="black" stroke="white"/>
<path d="M308.998 246.926C309.553 246.924 310.084 247.152 310.465 247.557L342.549 281.734C343.748 283.011 342.843 285.102 341.091 285.102H321.243L201.305 285.086C200.759 285.086 200.237 284.863 199.859 284.469L167.78 250.919C166.566 249.65 167.461 247.545 169.217 247.537L308.998 246.926Z" fill="white"/>
<path d="M197.11 297.132C196.554 297.129 196.023 297.358 195.643 297.763L163.558 331.939C162.359 333.216 163.265 335.308 165.016 335.308H184.864L304.803 335.292C305.349 335.292 305.871 335.069 306.248 334.674L338.327 301.125C339.541 299.856 338.647 297.75 336.891 297.743L197.11 297.132Z" fill="white"/>
<path d="M200.568 196.72C200.013 196.718 199.481 196.946 199.101 197.351L167.017 231.528C165.818 232.805 166.723 234.896 168.475 234.896H188.323L308.261 234.88C308.807 234.88 309.329 234.657 309.706 234.263L341.786 200.713C343 199.444 342.105 197.339 340.349 197.331L200.568 196.72Z" fill="white"/>
</svg>
