<svg width="513" height="513" viewBox="0 0 513 513" fill="none" xmlns="http://www.w3.org/2000/svg">
<circle cx="256.379" cy="256.888" r="256" fill="black"/>
<path d="M352.383 225.42C352.938 225.417 353.47 225.646 353.85 226.051L412.499 288.524C413.698 289.801 412.793 291.893 411.041 291.893H373.059L163.595 291.865C163.049 291.865 162.527 291.642 162.15 291.247L103.475 229.884C102.261 228.614 103.156 226.509 104.912 226.502L352.383 225.42Z" fill="white"/>
<path d="M156.279 312.835C155.724 312.832 155.193 313.061 154.812 313.466L96.1627 375.939C94.9639 377.216 95.8693 379.308 97.6208 379.308H135.603L345.067 379.28C345.613 379.28 346.135 379.057 346.512 378.662L405.187 317.299C406.401 316.029 405.507 313.924 403.75 313.917L156.279 312.835Z" fill="white"/>
<path d="M162.301 138.004C161.746 138.001 161.215 138.23 160.834 138.635L102.185 201.108C100.986 202.385 101.891 204.477 103.643 204.477H141.625L351.089 204.449C351.635 204.449 352.157 204.226 352.534 203.831L411.209 142.468C412.423 141.198 411.529 139.093 409.772 139.086L162.301 138.004Z" fill="white"/>
</svg>
