<svg width="513" height="513" viewBox="0 0 513 513" fill="none" xmlns="http://www.w3.org/2000/svg">
<circle cx="256.172" cy="256.792" r="255.5" fill="black" stroke="white"/>
<circle cx="256.173" cy="262.07" r="210.164" fill="black" stroke="white" stroke-width="4"/>
<g clip-path="url(#clip0_40_357)">
<path d="M162.696 305.453C161.301 305.453 159.937 305.867 158.777 306.642C157.617 307.417 156.712 308.519 156.178 309.808C155.644 311.097 155.505 312.516 155.777 313.884C156.049 315.253 156.721 316.51 157.708 317.497C158.694 318.483 159.952 319.155 161.32 319.428C162.689 319.7 164.107 319.56 165.396 319.026C166.685 318.492 167.787 317.588 168.562 316.428C169.338 315.267 169.751 313.903 169.751 312.508C169.751 311.257 169.41 310.119 168.841 308.981C168.21 307.911 167.312 307.024 166.235 306.405C165.158 305.787 163.938 305.459 162.696 305.454M262.37 151.96C262.37 150.564 261.956 149.2 261.181 148.04C260.405 146.88 259.304 145.976 258.014 145.442C256.725 144.908 255.307 144.768 253.938 145.04C252.57 145.313 251.313 145.984 250.326 146.971C249.339 147.958 248.667 149.215 248.395 150.583C248.123 151.952 248.263 153.37 248.797 154.66C249.331 155.949 250.235 157.051 251.395 157.826C252.555 158.601 253.919 159.015 255.315 159.015C257.182 159.004 258.971 158.258 260.292 156.937C261.612 155.616 262.359 153.828 262.37 151.96ZM348.396 213.175C349.791 213.175 351.155 212.762 352.315 211.986C353.476 211.211 354.38 210.109 354.914 208.82C355.448 207.531 355.587 206.113 355.315 204.744C355.043 203.376 354.371 202.118 353.384 201.132C352.398 200.145 351.141 199.473 349.772 199.201C348.404 198.929 346.985 199.068 345.696 199.602C344.407 200.136 343.305 201.041 342.53 202.201C341.755 203.361 341.341 204.725 341.341 206.12C341.345 207.318 341.659 208.493 342.252 209.534C342.858 210.634 343.747 211.552 344.827 212.192C345.908 212.832 347.14 213.172 348.396 213.175ZM165.99 199.634C162.576 197.699 158.366 198.838 156.432 202.252C154.498 205.665 155.636 209.876 159.05 211.809C162.463 213.743 166.674 212.605 168.607 209.192C170.542 205.892 169.403 201.568 165.99 199.634ZM351.234 306.818C350.21 306.135 348.958 305.907 347.707 305.794C346.773 305.781 345.845 305.954 344.978 306.303C344.111 306.652 343.322 307.169 342.657 307.826C341.992 308.482 341.463 309.264 341.103 310.126C340.742 310.988 340.557 311.913 340.557 312.848C340.557 313.782 340.742 314.708 341.103 315.57C341.463 316.432 341.992 317.214 342.657 317.87C343.322 318.527 344.111 319.044 344.978 319.393C345.845 319.742 346.773 319.915 347.707 319.902C350.21 319.902 352.48 318.538 353.851 316.375C355.786 313.076 354.647 308.752 351.234 306.818ZM248.26 365.642C247.918 368.828 249.853 371.9 252.811 373.037C253.493 373.264 254.29 373.493 254.973 373.493C256.698 373.49 258.369 372.887 259.697 371.786C261.026 370.686 261.931 369.157 262.255 367.462C262.508 365.63 262.027 363.772 260.918 362.292C259.808 360.812 258.159 359.831 256.329 359.561C254.499 359.29 252.637 359.754 251.147 360.85C249.657 361.946 248.66 363.586 248.373 365.414C248.311 365.475 248.272 365.555 248.26 365.641" fill="white"/>
<path d="M358.176 293.847C357.337 293.362 356.462 292.943 355.558 292.595V226.715C356.582 226.373 357.607 225.804 358.631 225.35C369.209 219.433 373.079 206.007 367.164 195.422C361.25 184.838 347.821 180.974 337.236 186.889C336.325 187.344 335.53 187.913 334.734 188.482L276.704 154.916C276.818 153.892 276.931 152.981 276.931 151.958C276.93 139.785 267.036 130 254.974 130C242.913 130 232.786 140.013 232.786 152.073C232.786 153.097 232.9 154.008 233.013 155.031L175.439 188.37C173.149 186.576 170.525 185.254 167.721 184.48C164.916 183.707 161.986 183.498 159.099 183.865C156.213 184.232 153.428 185.168 150.906 186.618C148.385 188.069 146.175 190.006 144.407 192.316C142.639 194.627 141.346 197.265 140.605 200.078C139.863 202.892 139.687 205.824 140.087 208.706C140.487 211.588 141.454 214.362 142.933 216.867C144.412 219.373 146.374 221.56 148.704 223.302C149.5 223.871 150.297 224.44 151.207 225.008C152.136 225.577 153.129 226.035 154.165 226.373V292.14C142.899 296.691 137.436 309.439 141.987 320.699C146.538 331.96 159.282 337.426 170.548 332.874C171.572 332.533 172.483 331.964 173.392 331.51C174.303 330.941 175.212 330.372 176.123 329.689L233.128 362.573C231.193 374.519 239.386 385.784 251.334 387.719C263.282 389.654 274.546 381.461 276.48 369.513C276.707 368.262 276.707 367.124 276.707 365.871C276.692 364.806 276.616 363.742 276.48 362.685L333.144 330.03C334.055 330.712 334.965 331.395 335.989 331.965C346.567 337.882 359.997 334.127 365.917 323.545C371.602 312.962 368.188 299.991 358.176 293.847ZM362.158 321.382C357.493 329.346 347.138 332.077 339.174 327.413C332.802 323.657 329.616 316.262 331.323 309.095L304.697 293.506C300.588 297.673 295.34 300.533 289.61 301.726C283.881 302.92 277.927 302.394 272.496 300.214C268.514 301.465 259.983 302.263 259.983 302.263V349.141C269.314 351.986 274.431 361.885 271.593 371.214C268.755 380.544 258.849 385.662 249.519 382.824C249.405 382.824 249.292 382.711 249.177 382.711C248.381 382.484 247.697 382.142 247.015 381.8C238.253 377.476 234.84 366.781 239.164 358.134C241.326 353.81 245.195 350.625 249.742 349.145V301.356C246.4 300.323 243.131 299.068 239.956 297.601C234.872 298.617 229.627 298.501 224.593 297.262C219.559 296.023 214.859 293.691 210.828 290.432L179.082 308.75C179.858 312.001 179.652 315.409 178.492 318.542C177.331 321.676 175.267 324.396 172.561 326.357C169.855 328.318 166.628 329.432 163.288 329.559C159.949 329.687 156.646 328.821 153.799 327.072C150.951 325.322 148.686 322.768 147.291 319.731C145.895 316.695 145.43 313.313 145.956 310.012C146.483 306.712 147.975 303.642 150.246 301.19C152.517 298.738 155.464 297.014 158.714 296.237C164.176 294.872 169.979 296.464 174.194 300.333L203.891 283.151C193.879 269.043 195.472 249.699 207.761 237.411L173.963 218.067C167.255 224.438 156.668 224.098 150.297 217.271C148.781 215.661 147.599 213.767 146.818 211.697C146.037 209.628 145.673 207.425 145.747 205.215C145.821 203.005 146.331 200.831 147.249 198.818C148.166 196.806 149.473 194.995 151.093 193.49C157.92 187.119 168.388 187.459 174.759 194.286C178.629 198.382 180.108 204.071 178.855 209.532L216.29 231.037C221.194 228.398 226.652 226.956 232.22 226.826C237.456 222.505 250.872 218.067 250.872 218.067V166.866C242.566 164.363 237.901 155.601 240.404 147.295C242.906 138.989 251.674 134.438 259.981 136.94C268.287 139.443 272.952 148.204 270.449 156.511C269.709 158.987 268.365 161.24 266.538 163.068C264.71 164.895 262.457 166.239 259.981 166.979V217.16C259.981 217.16 284.558 223.304 292.295 232.52L332.119 209.878C330.07 200.776 335.646 191.672 344.749 189.625C353.853 187.578 362.955 193.152 365.002 202.255C367.049 211.359 361.475 220.461 352.372 222.508C349.662 223.119 346.844 223.054 344.166 222.32C341.487 221.586 339.03 220.205 337.01 218.298L297.642 240.597C298.78 242.986 299.804 245.37 300.487 247.879C312.662 256.185 316.986 272.114 310.5 285.427L336.558 300.56C339.183 298.113 342.529 296.58 346.097 296.19C349.665 295.801 353.264 296.575 356.355 298.398C364.206 303.062 366.933 313.304 362.16 321.382H362.158Z" fill="white"/>
<path d="M288.769 256.754C288.655 255.843 288.542 255.048 288.427 254.137C288.315 253.521 288.163 252.913 287.971 252.317C287.971 252.09 287.858 251.861 287.858 251.634C287.631 250.952 287.402 250.155 287.175 249.472V249.359C285.729 245.542 283.522 242.058 280.689 239.119C280.007 238.436 279.438 237.867 278.641 237.184L278.527 237.07C277.845 236.501 277.162 235.932 276.365 235.477L276.252 235.363C275.569 234.908 274.772 234.339 274.09 233.999L273.976 233.885C273.241 233.461 272.481 233.081 271.701 232.747L271.474 232.634C270.678 232.292 269.88 231.951 268.971 231.61L268.857 231.496C267.947 231.269 267.151 230.927 266.24 230.814H266.126C265.226 230.607 264.314 230.455 263.396 230.358H263.282C258.436 229.67 253.494 230.258 248.945 232.065L248.376 232.52C247.694 232.747 246.556 233.316 245.873 233.658C245.518 233.893 245.136 234.084 244.736 234.227C244.394 234.34 243.825 234.796 243.484 235.023C243.144 235.25 242.347 235.819 241.891 236.161L241.549 236.388C240.867 236.843 240.298 237.412 239.614 237.981L239.046 238.55C238.363 239.232 237.794 239.801 237.225 240.485C235.872 240.258 234.502 240.144 233.13 240.143C232.674 240.143 232.334 240.143 231.992 240.256C226.758 240.483 221.752 242.645 217.883 246.174C215.948 247.88 214.356 250.044 213.11 252.318L212.989 252.55C212.638 253.211 212.334 253.895 212.078 254.599C211.965 254.826 211.965 254.94 211.851 255.168C211.61 255.757 211.42 256.366 211.282 256.988C211.169 257.215 211.169 257.557 211.055 257.784C210.942 258.353 210.828 258.921 210.713 259.604C210.713 259.831 210.6 260.059 210.6 260.4C210.505 261.269 210.467 262.143 210.486 263.017C210.467 263.74 210.505 264.463 210.6 265.179C210.6 265.406 210.713 265.635 210.713 265.975C210.827 266.43 210.827 266.886 210.94 267.34C211.054 267.794 211.054 267.909 211.167 268.251C211.297 268.578 211.373 268.924 211.394 269.275C211.394 269.617 211.621 269.957 211.736 270.299C211.829 270.573 211.944 270.839 212.078 271.095C212.249 271.466 212.401 271.846 212.533 272.233C212.647 272.46 212.76 272.575 212.76 272.802C214.36 276.549 217.058 279.724 220.5 281.904C222.207 282.928 223.914 283.839 225.734 284.407C226.44 284.649 227.162 284.839 227.896 284.976L228.123 285.089L230.172 285.431L230.627 285.544C231.423 285.658 232.22 285.658 233.13 285.658C236.202 285.658 239.16 285.089 241.891 283.838C242.574 284.293 243.143 284.749 243.826 285.203L244.053 285.316C244.622 285.658 245.305 285.999 245.988 286.34H246.099C252.603 289.655 260.108 290.426 267.149 288.502H267.263C268.287 288.281 269.28 287.937 270.221 287.478L273.294 286.113C276.219 288.396 279.823 289.637 283.534 289.64C284.33 289.64 285.013 289.527 285.809 289.527L286.378 289.413C287.107 289.305 287.829 289.153 288.54 288.958C289.241 288.742 289.926 288.476 290.589 288.162L290.931 288.048C291.613 287.706 292.182 287.366 292.866 287.024C295.71 285.204 297.872 282.473 299.123 279.4C299.579 278.376 299.806 277.352 300.034 276.329V275.987C300.148 275.531 300.148 275.076 300.261 274.622C300.261 274.053 300.375 273.484 300.375 272.915C300.375 265.406 295.71 258.92 288.765 256.758" fill="white"/>
</g>
<defs>
<clipPath id="clip0_40_357">
<rect width="258" height="258" fill="white" transform="translate(126 130)"/>
</clipPath>
</defs>
</svg>
