<svg width="513" height="513" viewBox="0 0 513 513" fill="none" xmlns="http://www.w3.org/2000/svg">
<circle cx="256.172" cy="256.792" r="256" fill="black"/>
<g clip-path="url(#clip0_40_357)">
<path d="M133.644 323.577C131.795 323.577 129.987 324.126 128.449 325.153C126.911 326.181 125.712 327.641 125.004 329.35C124.296 331.059 124.111 332.939 124.472 334.754C124.833 336.568 125.724 338.234 127.032 339.542C128.339 340.85 130.006 341.741 131.82 342.101C133.634 342.462 135.514 342.277 137.223 341.569C138.932 340.861 140.393 339.663 141.42 338.125C142.448 336.587 142.996 334.779 142.996 332.929C142.996 331.27 142.543 329.762 141.789 328.254C140.953 326.836 139.763 325.659 138.335 324.839C136.907 324.02 135.291 323.585 133.644 323.579M265.769 120.109C265.769 118.26 265.221 116.452 264.193 114.914C263.166 113.376 261.705 112.177 259.996 111.469C258.287 110.761 256.407 110.576 254.593 110.937C252.779 111.298 251.112 112.189 249.804 113.496C248.497 114.804 247.606 116.471 247.245 118.285C246.884 120.099 247.069 121.979 247.777 123.688C248.485 125.397 249.684 126.858 251.222 127.885C252.76 128.913 254.568 129.461 256.417 129.461C258.893 129.447 261.264 128.458 263.015 126.707C264.766 124.956 265.755 122.585 265.769 120.109ZM379.804 201.256C381.654 201.256 383.462 200.707 385 199.68C386.538 198.652 387.736 197.191 388.444 195.483C389.152 193.774 389.337 191.893 388.976 190.079C388.615 188.265 387.725 186.599 386.417 185.291C385.109 183.983 383.443 183.092 381.629 182.731C379.814 182.371 377.934 182.556 376.225 183.264C374.516 183.971 373.056 185.17 372.028 186.708C371.001 188.246 370.452 190.054 370.452 191.904C370.458 193.491 370.874 195.049 371.659 196.428C372.463 197.887 373.641 199.103 375.074 199.952C376.506 200.801 378.139 201.251 379.804 201.256ZM138.01 183.306C133.485 180.741 127.904 182.251 125.341 186.775C122.777 191.3 124.286 196.881 128.81 199.445C133.335 202.008 138.916 200.5 141.48 195.975C144.045 191.601 142.535 185.869 138.01 183.306ZM383.566 325.386C382.208 324.482 380.55 324.179 378.891 324.029C377.652 324.012 376.423 324.241 375.273 324.704C374.124 325.166 373.078 325.852 372.196 326.722C371.315 327.592 370.614 328.629 370.136 329.772C369.659 330.914 369.412 332.141 369.412 333.38C369.412 334.618 369.659 335.845 370.136 336.988C370.614 338.131 371.315 339.167 372.196 340.037C373.078 340.907 374.124 341.593 375.273 342.056C376.423 342.518 377.652 342.748 378.891 342.731C382.208 342.731 385.218 340.922 387.036 338.056C389.601 333.681 388.091 327.95 383.566 325.386ZM247.065 403.362C246.612 407.586 249.177 411.657 253.098 413.166C254.003 413.467 255.06 413.769 255.964 413.769C258.251 413.766 260.466 412.966 262.227 411.507C263.989 410.048 265.187 408.021 265.617 405.775C265.953 403.346 265.316 400.883 263.845 398.922C262.373 396.96 260.187 395.659 257.762 395.301C255.336 394.943 252.867 395.557 250.892 397.01C248.917 398.463 247.596 400.637 247.216 403.06C247.134 403.141 247.081 403.247 247.065 403.361" fill="white"/>
<path d="M392.768 308.192C391.656 307.549 390.496 306.995 389.298 306.534V219.204C390.656 218.751 392.013 217.997 393.371 217.395C407.393 209.551 412.523 191.753 404.683 177.723C396.842 163.692 379.041 158.571 365.011 166.411C363.804 167.015 362.748 167.769 361.693 168.523L284.771 124.029C284.921 122.671 285.072 121.464 285.072 120.108C285.07 103.97 271.954 91 255.966 91C239.977 91 226.554 104.273 226.554 120.26C226.554 121.618 226.704 122.825 226.855 124.181L150.536 168.374C147.5 165.996 144.022 164.243 140.304 163.218C136.586 162.193 132.702 161.916 128.876 162.402C125.05 162.889 121.359 164.129 118.016 166.052C114.672 167.975 111.744 170.543 109.4 173.605C107.056 176.668 105.343 180.165 104.36 183.895C103.377 187.624 103.144 191.511 103.673 195.331C104.203 199.151 105.485 202.829 107.446 206.15C109.407 209.471 112.007 212.37 115.096 214.679C116.151 215.433 117.208 216.187 118.413 216.941C119.645 217.695 120.961 218.303 122.334 218.751V305.93C107.401 311.963 100.159 328.861 106.192 343.788C112.225 358.714 129.118 365.959 144.051 359.927C145.409 359.473 146.616 358.719 147.822 358.117C149.029 357.363 150.235 356.609 151.442 355.705L227.007 399.294C224.442 415.13 235.302 430.062 251.14 432.627C266.978 435.192 281.91 424.332 284.473 408.494C284.774 406.835 284.774 405.327 284.774 403.667C284.754 402.254 284.654 400.844 284.473 399.443L359.587 356.156C360.794 357.061 361.999 357.965 363.357 358.721C377.379 366.565 395.182 361.587 403.029 347.56C410.565 333.531 406.041 316.337 392.768 308.192ZM398.046 344.692C391.863 355.25 378.137 358.87 367.579 352.686C359.134 347.709 354.91 337.905 357.172 328.404L321.878 307.741C316.431 313.264 309.473 317.055 301.879 318.637C294.285 320.219 286.392 319.522 279.193 316.633C273.914 318.291 262.606 319.348 262.606 319.348V381.49C274.974 385.26 281.758 398.383 277.996 410.749C274.234 423.116 261.103 429.901 248.734 426.139C248.584 426.139 248.433 425.989 248.281 425.989C247.226 425.688 246.32 425.235 245.415 424.782C233.801 419.05 229.276 404.872 235.008 393.41C237.874 387.678 243.002 383.456 249.03 381.495V318.146C244.6 316.777 240.267 315.114 236.058 313.168C229.319 314.515 222.366 314.362 215.693 312.719C209.02 311.077 202.79 307.986 197.446 303.666L155.365 327.948C156.393 332.257 156.121 336.774 154.582 340.928C153.043 345.083 150.307 348.687 146.72 351.287C143.133 353.886 138.855 355.364 134.429 355.532C130.002 355.701 125.624 354.553 121.85 352.234C118.075 349.915 115.073 346.529 113.222 342.504C111.372 338.479 110.757 333.996 111.454 329.621C112.151 325.246 114.13 321.176 117.14 317.926C120.151 314.676 124.057 312.391 128.366 311.361C135.606 309.552 143.297 311.662 148.886 316.79L188.252 294.015C174.978 275.312 177.09 249.671 193.382 233.381L148.58 207.74C139.687 216.186 125.654 215.734 117.208 206.685C115.198 204.55 113.631 202.039 112.596 199.297C111.56 196.554 111.078 193.633 111.176 190.703C111.274 187.773 111.951 184.892 113.167 182.224C114.383 179.557 116.115 177.156 118.263 175.161C127.312 166.715 141.189 167.167 149.635 176.216C154.765 181.645 156.724 189.186 155.064 196.427L204.686 224.932C211.188 221.435 218.423 219.523 225.803 219.351C232.744 213.622 250.528 207.74 250.528 207.74V139.868C239.517 136.551 233.334 124.937 236.651 113.926C239.969 102.915 251.592 96.8824 262.602 100.2C273.613 103.517 279.796 115.132 276.479 126.142C275.498 129.425 273.716 132.412 271.294 134.834C268.872 137.256 265.885 139.038 262.602 140.019V206.538C262.602 206.538 295.181 214.683 305.438 226.899L358.227 196.885C355.512 184.819 362.902 172.752 374.97 170.038C387.037 167.324 399.103 174.713 401.817 186.781C404.531 198.848 397.142 210.914 385.074 213.628C381.483 214.437 377.747 214.351 374.196 213.377C370.646 212.404 367.389 210.573 364.712 208.046L312.526 237.605C314.034 240.772 315.392 243.932 316.296 247.258C332.435 258.269 338.167 279.384 329.569 297.031L364.111 317.091C367.592 313.847 372.027 311.815 376.757 311.299C381.487 310.782 386.256 311.809 390.355 314.225C400.762 320.408 404.377 333.984 398.05 344.692H398.046Z" fill="white"/>
<path d="M300.763 259.023C300.612 257.816 300.462 256.76 300.31 255.553C300.162 254.736 299.96 253.93 299.706 253.14C299.706 252.839 299.555 252.537 299.555 252.236C299.255 251.331 298.952 250.274 298.651 249.37V249.219C296.733 244.159 293.808 239.542 290.053 235.645C289.148 234.741 288.394 233.987 287.338 233.08L287.187 232.93C286.282 232.176 285.378 231.422 284.321 230.818L284.171 230.668C283.266 230.064 282.209 229.31 281.305 228.858L281.154 228.708C280.18 228.145 279.173 227.642 278.138 227.2L277.837 227.049C276.782 226.596 275.725 226.145 274.519 225.691L274.369 225.541C273.162 225.24 272.107 224.787 270.899 224.636H270.749C269.556 224.362 268.347 224.16 267.129 224.033H266.978C260.554 223.12 254.003 223.9 247.973 226.295L247.219 226.899C246.315 227.2 244.806 227.954 243.902 228.407C243.431 228.718 242.925 228.971 242.394 229.161C241.94 229.312 241.186 229.915 240.735 230.216C240.283 230.517 239.227 231.271 238.623 231.724L238.17 232.025C237.265 232.629 236.511 233.383 235.605 234.137L234.851 234.891C233.946 235.796 233.192 236.55 232.438 237.456C230.644 237.156 228.828 237.004 227.009 237.003C226.405 237.003 225.954 237.003 225.501 237.154C218.563 237.455 211.927 240.321 206.798 244.997C204.233 247.26 202.123 250.127 200.471 253.142L200.311 253.45C199.846 254.326 199.442 255.233 199.103 256.165C198.953 256.466 198.953 256.619 198.802 256.919C198.483 257.701 198.23 258.508 198.048 259.332C197.898 259.633 197.898 260.086 197.747 260.387C197.597 261.141 197.446 261.896 197.294 262.8C197.294 263.101 197.144 263.404 197.144 263.855C197.018 265.007 196.968 266.166 196.993 267.325C196.968 268.283 197.018 269.241 197.144 270.191C197.144 270.492 197.294 270.794 197.294 271.246C197.445 271.849 197.445 272.453 197.595 273.055C197.746 273.657 197.746 273.809 197.896 274.262C198.068 274.696 198.169 275.154 198.197 275.62C198.197 276.073 198.498 276.525 198.65 276.978C198.773 277.341 198.925 277.694 199.103 278.033C199.33 278.525 199.532 279.028 199.707 279.541C199.857 279.842 200.008 279.994 200.008 280.295C202.127 285.263 205.705 289.47 210.268 292.361C212.53 293.719 214.793 294.926 217.205 295.678C218.141 296 219.099 296.252 220.071 296.432L220.372 296.583L223.088 297.036L223.691 297.187C224.746 297.337 225.803 297.337 227.009 297.337C231.082 297.337 235.003 296.583 238.623 294.924C239.528 295.528 240.282 296.131 241.188 296.733L241.489 296.884C242.243 297.337 243.148 297.788 244.054 298.242H244.201C252.822 302.635 262.771 303.657 272.105 301.108H272.255C273.612 300.815 274.929 300.359 276.176 299.75L280.25 297.941C284.128 300.966 288.905 302.612 293.824 302.616C294.879 302.616 295.785 302.465 296.84 302.465L297.594 302.315C298.561 302.171 299.518 301.969 300.46 301.711C301.39 301.426 302.297 301.073 303.176 300.656L303.629 300.506C304.533 300.053 305.287 299.601 306.194 299.148C309.964 296.735 312.83 293.115 314.489 289.042C315.093 287.684 315.394 286.326 315.696 284.97V284.517C315.847 283.914 315.847 283.31 315.997 282.708C315.997 281.954 316.148 281.2 316.148 280.446C316.148 270.492 309.964 261.894 300.758 259.028" fill="white"/>
</g>
<defs>
<clipPath id="clip0_40_357">
<rect width="342" height="342" fill="white" transform="translate(85 91)"/>
</clipPath>
</defs>
</svg>
