<svg width="513" height="513" viewBox="0 0 513 513" fill="none" xmlns="http://www.w3.org/2000/svg">
<circle cx="256.721" cy="256.701" r="255.5" fill="black" stroke="white"/>
<circle cx="256.721" cy="261.979" r="210.164" fill="black" stroke="white" stroke-width="4"/>
<path d="M190.171 170.575L365.807 290.498L322.37 354.709L146.734 233.841L190.171 170.575Z" fill="url(#paint0_linear_40_397)"/>
<path d="M365.811 290.498C350.702 312.216 299.711 303.718 251.553 269.724C202.45 236.674 176.01 192.293 190.175 170.574C205.283 148.856 256.274 157.354 304.432 191.348C353.535 223.454 379.975 268.779 365.811 290.498Z" fill="url(#paint1_linear_40_397)"/>
<path d="M322.372 353.766C307.263 375.484 256.272 366.986 208.114 332.992C159.956 298.998 132.572 255.561 147.68 232.898C162.789 211.179 213.78 219.678 261.938 253.672C310.096 287.666 336.536 332.047 322.372 353.766Z" fill="url(#paint2_linear_40_397)"/>
<path d="M365.808 290.497L322.371 354.708C307.263 376.427 256.271 366.984 208.113 333.934C198.67 327.324 190.172 320.714 181.673 313.16C188.283 312.216 196.782 308.439 205.28 298.996C220.389 282.943 227.943 279.166 234.553 280.11C241.163 280.11 248.717 286.72 260.993 302.773C273.269 318.826 290.266 323.547 300.653 315.049C301.597 314.104 302.541 314.104 303.485 313.16C311.984 306.55 314.817 303.717 330.87 273.5C334.647 265.946 347.867 253.67 365.808 259.336C370.529 271.612 370.529 281.999 365.808 290.497Z" fill="#393A45"/>
<path fill-rule="evenodd" clip-rule="evenodd" d="M359.201 286.719C345.981 305.605 299.711 296.162 255.33 265.001C210.004 233.839 183.565 194.18 196.785 175.294C210.004 156.408 256.274 165.851 300.655 197.012C345.037 228.174 371.476 267.833 359.201 286.719ZM317.652 258.391C311.042 267.833 288.38 263.112 265.717 248.004C243.999 232.895 230.779 213.065 237.389 203.622C243.999 194.18 266.661 198.901 289.324 214.009C311.042 229.118 324.262 248.948 317.652 258.391Z" fill="white"/>
<path d="M186.396 192.294C186.396 191.35 185.452 190.406 184.508 191.35C183.563 192.294 182.619 192.294 182.619 193.239C183.563 196.072 184.508 197.96 184.508 199.849C184.508 200.793 185.452 201.737 186.396 200.793C187.341 200.793 188.285 199.849 187.341 198.904C187.341 197.016 187.341 195.127 186.396 192.294Z" fill="white"/>
<path d="M191.119 207.399C191.119 206.455 190.175 205.511 189.23 206.455C188.286 207.399 188.286 207.399 188.286 208.344C198.673 231.951 220.392 257.446 248.72 276.332C249.664 277.276 250.609 276.332 251.553 276.332C252.497 275.388 251.553 274.443 251.553 273.499C222.28 254.613 201.506 230.062 191.119 207.399Z" fill="white"/>
<path d="M305.373 299.938C304.429 299.938 303.485 299.938 303.485 300.882C303.485 301.827 303.485 302.771 304.429 302.771C307.262 303.715 311.039 304.659 313.872 305.604C314.816 305.604 315.76 305.604 315.76 304.659C315.76 303.715 315.761 302.771 314.816 302.771C311.983 301.827 308.206 300.882 305.373 299.938Z" fill="white"/>
<path d="M322.374 303.72C321.43 303.72 320.485 304.664 320.485 305.608C320.485 306.553 321.43 307.497 322.374 307.497C329.928 308.441 338.427 309.385 345.037 308.441C345.981 308.441 346.925 307.497 346.925 306.553C346.925 305.608 345.981 304.664 345.037 304.664C337.482 305.608 329.928 304.664 322.374 303.72Z" fill="white"/>
<defs>
<linearGradient id="paint0_linear_40_397" x1="224.583" y1="153.524" x2="259.413" y2="273.128" gradientUnits="userSpaceOnUse">
<stop stop-color="#DDDDDD"/>
<stop offset="1" stop-color="#7B7B7B"/>
</linearGradient>
<linearGradient id="paint1_linear_40_397" x1="253.269" y1="145.169" x2="288.101" y2="264.775" gradientUnits="userSpaceOnUse">
<stop stop-color="white"/>
<stop offset="1" stop-color="#19030D"/>
</linearGradient>
<linearGradient id="paint2_linear_40_397" x1="195.99" y1="161.851" x2="230.821" y2="281.457" gradientUnits="userSpaceOnUse">
<stop stop-color="white"/>
<stop offset="1" stop-color="#555555"/>
</linearGradient>
</defs>
</svg>
