<svg width="513" height="513" viewBox="0 0 513 513" fill="none" xmlns="http://www.w3.org/2000/svg">
<circle cx="256.721" cy="256.701" r="256" fill="black"/>
<path d="M175.696 116.345L445.624 300.651L378.868 399.334L108.94 213.578L175.696 116.345Z" fill="url(#paint0_linear_40_397)"/>
<path d="M445.629 300.65C422.41 334.029 344.043 320.968 270.031 268.723C194.567 217.931 153.933 149.723 175.701 116.345C198.921 82.9666 277.287 96.0276 351.3 148.272C426.763 197.613 467.398 267.272 445.629 300.65Z" fill="url(#paint1_linear_40_397)"/>
<path d="M378.87 397.884C355.651 431.262 277.284 418.201 203.272 365.957C129.259 313.713 87.1739 246.957 110.394 212.127C133.613 178.749 211.979 191.81 285.992 244.054C360.004 296.298 400.639 364.506 378.87 397.884Z" fill="url(#paint2_linear_40_397)"/>
<path d="M445.625 300.649L378.869 399.333C355.649 432.711 277.283 418.199 203.271 367.406C188.758 357.247 175.697 347.089 162.636 335.479C172.795 334.028 185.856 328.223 198.917 313.71C222.136 289.04 233.746 283.235 243.905 284.686C254.063 284.686 265.673 294.844 284.539 319.515C303.405 344.186 329.527 351.442 345.491 338.381C346.942 336.93 348.393 336.93 349.844 335.479C362.905 325.32 367.259 320.967 391.93 274.527C397.735 262.918 418.052 244.052 445.625 252.759C452.881 271.625 452.881 287.588 445.625 300.649Z" fill="#393A45"/>
<path fill-rule="evenodd" clip-rule="evenodd" d="M435.471 294.843C415.154 323.867 344.044 309.355 275.836 261.464C206.177 213.574 165.543 152.622 185.86 123.598C206.177 94.5734 277.288 109.086 345.495 156.976C413.703 204.867 454.337 265.818 435.471 294.843ZM371.617 251.306C361.459 265.818 326.629 258.562 291.8 235.342C258.422 212.123 238.104 181.647 248.263 167.135C258.422 152.622 293.251 159.879 328.08 183.098C361.459 206.318 381.776 236.793 371.617 251.306Z" fill="white"/>
<path d="M169.895 149.726C169.895 148.274 168.444 146.823 166.992 148.274C165.541 149.726 164.09 149.726 164.09 151.177C165.541 155.531 166.992 158.433 166.992 161.335C166.992 162.787 168.444 164.238 169.895 162.787C171.346 162.787 172.797 161.335 171.346 159.884C171.346 156.982 171.346 154.079 169.895 149.726Z" fill="white"/>
<path d="M177.153 172.94C177.153 171.488 175.702 170.037 174.251 171.488C172.799 172.94 172.799 172.94 172.799 174.391C188.763 210.671 222.141 249.855 265.678 278.879C267.129 280.33 268.58 278.879 270.031 278.879C271.483 277.428 270.031 275.977 270.031 274.525C225.043 245.501 193.116 207.769 177.153 172.94Z" fill="white"/>
<path d="M352.746 315.159C351.294 315.159 349.843 315.159 349.843 316.61C349.843 318.061 349.843 319.512 351.294 319.512C355.648 320.964 361.453 322.415 365.807 323.866C367.258 323.866 368.709 323.866 368.709 322.415C368.709 320.964 368.709 319.512 367.258 319.512C362.904 318.061 357.099 316.61 352.746 315.159Z" fill="white"/>
<path d="M378.873 320.97C377.422 320.97 375.971 322.421 375.971 323.873C375.971 325.324 377.422 326.775 378.873 326.775C390.483 328.226 403.544 329.678 413.703 328.226C415.154 328.226 416.605 326.775 416.605 325.324C416.605 323.873 415.154 322.421 413.703 322.421C402.093 323.873 390.483 322.421 378.873 320.97Z" fill="white"/>
<defs>
<linearGradient id="paint0_linear_40_397" x1="228.582" y1="90.1407" x2="282.112" y2="273.956" gradientUnits="userSpaceOnUse">
<stop stop-color="#DDDDDD"/>
<stop offset="1" stop-color="#7B7B7B"/>
</linearGradient>
<linearGradient id="paint1_linear_40_397" x1="272.669" y1="77.301" x2="326.201" y2="261.118" gradientUnits="userSpaceOnUse">
<stop stop-color="white"/>
<stop offset="1" stop-color="#19030D"/>
</linearGradient>
<linearGradient id="paint2_linear_40_397" x1="184.638" y1="102.938" x2="238.17" y2="286.755" gradientUnits="userSpaceOnUse">
<stop stop-color="white"/>
<stop offset="1" stop-color="#555555"/>
</linearGradient>
</defs>
</svg>
