<svg width="513" height="513" viewBox="0 0 513 513" fill="none" xmlns="http://www.w3.org/2000/svg">
<circle cx="256.763" cy="256.958" r="255.5" fill="black" stroke="white"/>
<circle cx="256.763" cy="262.236" r="210.164" fill="black" stroke="white" stroke-width="4"/>
<path fill-rule="evenodd" clip-rule="evenodd" d="M190.527 177.19H312.998C317.679 177.19 321.579 177.97 326.259 180.31C331.72 182.65 334.84 186.551 336.4 189.671C336.4 189.671 336.4 190.451 337.18 190.451C339.521 194.352 341.081 199.032 341.081 204.492C341.081 209.173 340.301 213.853 337.18 218.534L259.953 351.146C258.393 354.266 255.273 355.826 251.373 355.826C248.252 355.826 245.132 354.266 242.792 351.146L167.125 218.534C165.565 215.413 162.445 211.513 162.445 205.272C161.665 199.812 163.225 195.132 165.565 190.451C167.905 185.771 171.805 181.87 177.266 180.31C181.946 177.19 187.407 177.19 190.527 177.19ZM242.012 195.912H190.527C187.407 195.912 185.847 195.912 185.067 196.692C183.507 197.472 182.726 198.252 181.946 199.812C181.166 200.592 181.166 202.152 181.166 203.712C181.166 204.492 181.946 205.272 183.507 208.393L242.012 309.802V195.912ZM260.734 195.912V310.582L320.019 208.393C320.799 206.833 320.799 205.272 320.799 203.712C320.799 202.152 320.799 200.592 320.019 199.812C319.239 199.032 319.239 198.252 318.459 198.252L317.679 197.472C316.119 196.692 314.558 196.692 312.218 196.692H260.734V195.912Z" fill="white"/>
</svg>
