<svg width="513" height="513" viewBox="0 0 513 513" fill="none" xmlns="http://www.w3.org/2000/svg">
<circle cx="256.763" cy="256.958" r="255.5" fill="black" stroke="white"/>
<path fill-rule="evenodd" clip-rule="evenodd" d="M191.718 175.999H314.189C318.87 175.999 322.77 176.779 327.45 179.119C332.911 181.46 336.031 185.36 337.591 188.48C337.591 188.48 337.591 189.26 338.371 189.26C340.712 193.161 342.272 197.841 342.272 203.302C342.272 207.982 341.492 212.662 338.371 217.343L261.144 349.955C259.584 353.075 256.464 354.635 252.564 354.635C249.443 354.635 246.323 353.075 243.983 349.955L168.316 217.343C166.756 214.222 163.636 210.322 163.636 204.082C162.855 198.621 164.416 193.941 166.756 189.26C169.096 184.58 172.996 180.679 178.457 179.119C183.137 175.999 188.598 175.999 191.718 175.999ZM243.203 194.721H191.718C188.598 194.721 187.038 194.721 186.258 195.501C184.697 196.281 183.917 197.061 183.137 198.621C182.357 199.401 182.357 200.961 182.357 202.521C182.357 203.301 183.137 204.082 184.697 207.202L243.203 308.611V194.721ZM261.924 194.721V309.391L321.21 207.202C321.99 205.642 321.99 204.082 321.99 202.521C321.99 200.961 321.99 199.401 321.21 198.621C320.43 197.841 320.43 197.061 319.65 197.061L318.87 196.281C317.309 195.501 315.749 195.501 313.409 195.501H261.924V194.721Z" fill="white"/>
</svg>
