<svg width="513" height="513" viewBox="0 0 513 513" fill="none" xmlns="http://www.w3.org/2000/svg">
<circle cx="256.763" cy="256.958" r="255.5" fill="black" stroke="white"/>
<path fill-rule="evenodd" clip-rule="evenodd" d="M196.718 178.999H319.189C323.87 178.999 327.77 179.779 332.45 182.119C337.911 184.46 341.031 188.36 342.591 191.48C342.591 191.48 342.591 192.26 343.371 192.26C345.712 196.161 347.272 200.841 347.272 206.302C347.272 210.982 346.492 215.662 343.371 220.343L266.144 352.955C264.584 356.075 261.464 357.635 257.564 357.635C254.443 357.635 251.323 356.075 248.983 352.955L173.316 220.343C171.756 217.222 168.636 213.322 168.636 207.082C167.855 201.621 169.416 196.941 171.756 192.26C174.096 187.58 177.996 183.679 183.457 182.119C188.137 178.999 193.598 178.999 196.718 178.999ZM248.203 197.721H196.718C193.598 197.721 192.038 197.721 191.258 198.501C189.697 199.281 188.917 200.061 188.137 201.621C187.357 202.401 187.357 203.961 187.357 205.521C187.357 206.302 188.137 207.082 189.697 210.202L248.203 311.611V197.721ZM266.924 197.721V312.391L326.21 210.202C326.99 208.642 326.99 207.082 326.99 205.521C326.99 203.961 326.99 202.401 326.21 201.621C325.43 200.841 325.43 200.061 324.65 200.061L323.87 199.281C322.309 198.501 320.749 198.501 318.409 198.501H266.924V197.721Z" fill="white"/>
</svg>
