<svg width="513" height="513" viewBox="0 0 513 513" fill="none" xmlns="http://www.w3.org/2000/svg">
<circle cx="256.763" cy="256.958" r="256" fill="black"/>
<path fill-rule="evenodd" clip-rule="evenodd" d="M172.239 156.24H352.954C359.86 156.24 365.615 157.391 372.522 160.844C380.579 164.297 385.183 170.052 387.485 174.657C387.485 174.657 387.485 175.808 388.636 175.808C392.089 181.563 394.392 188.469 394.392 196.526C394.392 203.433 393.241 210.339 388.636 217.245L274.683 412.924C272.38 417.528 267.776 419.83 262.021 419.83C257.417 419.83 252.813 417.528 249.359 412.924L137.708 217.245C135.406 212.641 130.801 206.886 130.801 197.678C129.65 189.62 131.952 182.714 135.406 175.808C138.859 168.901 144.614 163.146 152.671 160.844C159.578 156.24 167.635 156.24 172.239 156.24ZM248.208 183.865H172.239C167.635 183.865 165.333 183.865 164.182 185.016C161.88 186.167 160.729 187.318 159.578 189.62C158.427 190.771 158.427 193.073 158.427 195.375C158.427 196.526 159.578 197.678 161.88 202.282L248.208 351.918V183.865ZM275.834 183.865V353.069L363.313 202.282C364.464 199.98 364.464 197.678 364.464 195.375C364.464 193.073 364.464 190.771 363.313 189.62C362.162 188.469 362.162 187.318 361.011 187.318L359.86 186.167C357.558 185.016 355.256 185.016 351.803 185.016H275.834V183.865Z" fill="white"/>
</svg>
