<svg width="513" height="513" viewBox="0 0 513 513" fill="none" xmlns="http://www.w3.org/2000/svg">
<circle cx="256.013" cy="256.798" r="255.5" fill="black" stroke="white"/>
<g clip-path="url(#clip0_24_1058)">
<path d="M341.765 229.936C332.905 221.756 320.65 209.264 310.668 200.405L310.078 199.992C309.095 199.202 307.987 198.584 306.8 198.161C282.732 193.672 170.72 172.734 168.534 173C167.922 173.086 167.337 173.308 166.822 173.65L166.26 174.093C165.57 174.794 165.045 175.642 164.725 176.573L164.577 176.957V179.054V179.379C177.187 214.491 226.977 329.516 236.781 356.507C237.372 358.338 238.494 361.823 240.591 362H241.063C242.185 362 246.969 355.68 246.969 355.68C246.969 355.68 332.492 251.967 341.145 240.922C342.265 239.561 343.253 238.098 344.098 236.551C344.313 235.341 344.212 234.096 343.803 232.936C343.394 231.777 342.692 230.744 341.765 229.936ZM268.911 242.015L305.412 211.745L326.822 231.472L268.911 242.015ZM254.736 240.036L191.894 188.534L293.57 207.286L254.736 240.036ZM260.406 253.532L324.725 243.166L251.192 331.76L260.406 253.532ZM183.359 193.672L249.479 249.781L239.911 331.819L183.359 193.672Z" fill="white"/>
</g>
<defs>
<clipPath id="clip0_24_1058">
<rect width="189" height="189" fill="white" transform="translate(160 173)"/>
</clipPath>
</defs>
</svg>
