<svg width="513" height="513" viewBox="0 0 513 513" fill="none" xmlns="http://www.w3.org/2000/svg">
<circle cx="256.013" cy="256.798" r="255.5" fill="black" stroke="white"/>
<g clip-path="url(#clip0_24_1058)">
<path d="M343.765 230.936C334.905 222.756 322.65 210.264 312.668 201.405L312.078 200.992C311.095 200.202 309.987 199.584 308.8 199.161C284.732 194.672 172.72 173.734 170.534 174C169.922 174.086 169.337 174.308 168.822 174.65L168.26 175.093C167.57 175.794 167.045 176.642 166.725 177.573L166.577 177.957V180.054V180.379C179.187 215.491 228.977 330.516 238.781 357.507C239.372 359.338 240.494 362.823 242.591 363H243.063C244.185 363 248.969 356.68 248.969 356.68C248.969 356.68 334.492 252.967 343.145 241.922C344.265 240.561 345.253 239.098 346.098 237.551C346.313 236.341 346.212 235.096 345.803 233.936C345.394 232.777 344.692 231.744 343.765 230.936ZM270.911 243.015L307.412 212.745L328.822 232.472L270.911 243.015ZM256.736 241.036L193.894 189.534L295.57 208.286L256.736 241.036ZM262.406 254.532L326.725 244.166L253.192 332.76L262.406 254.532ZM185.359 194.672L251.479 250.781L241.911 332.819L185.359 194.672Z" fill="white"/>
</g>
<defs>
<clipPath id="clip0_24_1058">
<rect width="189" height="189" fill="white" transform="translate(162 174)"/>
</clipPath>
</defs>
</svg>
