<svg width="513" height="513" viewBox="0 0 513 513" fill="none" xmlns="http://www.w3.org/2000/svg">
<circle cx="256.962" cy="256.63" r="255.5" fill="black" stroke="white"/>
<path d="M252.589 337.724V188.633H262.141V337.724H252.589ZM284.737 233.36C284.038 227.459 281.204 222.877 276.234 219.616C271.265 216.355 265.169 214.724 257.947 214.724C252.667 214.724 248.047 215.578 244.087 217.287C240.165 218.995 237.098 221.344 234.885 224.333C232.711 227.323 231.623 230.72 231.623 234.525C231.623 237.709 232.381 240.446 233.895 242.737C235.448 244.989 237.428 246.872 239.835 248.386C242.242 249.861 244.766 251.084 247.406 252.055C250.046 252.987 252.473 253.744 254.686 254.326L266.8 257.588C269.906 258.403 273.361 259.529 277.166 260.966C281.01 262.402 284.679 264.363 288.173 266.848C291.706 269.294 294.618 272.439 296.909 276.282C299.2 280.126 300.345 284.843 300.345 290.434C300.345 296.879 298.656 302.703 295.278 307.906C291.939 313.109 287.047 317.243 280.602 320.311C274.196 323.378 266.411 324.912 257.248 324.912C248.707 324.912 241.31 323.533 235.06 320.777C228.847 318.02 223.955 314.176 220.383 309.245C216.85 304.314 214.851 298.588 214.385 292.065H229.294C229.682 296.569 231.196 300.296 233.837 303.247C236.516 306.159 239.893 308.333 243.97 309.769C248.086 311.167 252.512 311.866 257.248 311.866C262.762 311.866 267.712 310.973 272.099 309.187C276.487 307.362 279.962 304.839 282.524 301.616C285.087 298.355 286.368 294.55 286.368 290.201C286.368 286.241 285.261 283.019 283.048 280.534C280.835 278.049 277.923 276.03 274.312 274.477C270.702 272.924 266.8 271.565 262.606 270.4L247.93 266.207C238.612 263.528 231.235 259.704 225.8 254.734C220.364 249.764 217.646 243.261 217.646 235.224C217.646 228.546 219.452 222.722 223.062 217.752C226.712 212.744 231.604 208.861 237.739 206.105C243.912 203.309 250.803 201.912 258.413 201.912C266.101 201.912 272.934 203.29 278.913 206.046C284.892 208.764 289.629 212.492 293.123 217.228C296.657 221.965 298.52 227.342 298.714 233.36H284.737Z" fill="white"/>
</svg>
