<svg width="513" height="513" viewBox="0 0 513 513" fill="none" xmlns="http://www.w3.org/2000/svg">
<circle cx="256.962" cy="256.63" r="255.5" fill="black" stroke="white"/>
<path d="M251.73 189.564V162.764H268.73V189.564H251.73ZM268.73 324.764V350.564H251.73V324.764H268.73ZM263.33 330.564C245.997 330.564 232.13 326.43 221.73 318.164C211.33 309.897 205.263 298.097 203.53 282.764H224.13C225.33 292.764 229.33 300.364 236.13 305.564C242.93 310.764 252.13 313.364 263.73 313.364C273.463 313.364 280.797 311.564 285.73 307.964C290.797 304.364 293.33 299.23 293.33 292.564C293.33 286.564 291.663 281.83 288.33 278.364C284.997 274.764 279.73 271.83 272.53 269.564L247.53 261.564C234.73 257.43 225.33 252.23 219.33 245.964C213.33 239.697 210.33 231.764 210.33 222.164C210.33 214.03 212.33 207.03 216.33 201.164C220.463 195.297 226.197 190.764 233.53 187.564C240.997 184.23 249.663 182.564 259.53 182.564C274.73 182.564 286.863 186.43 295.93 194.164C305.13 201.764 310.397 212.364 311.73 225.964H291.13C289.53 216.897 286.063 210.297 280.73 206.164C275.397 201.897 268.063 199.764 258.73 199.764C249.93 199.764 243.063 201.497 238.13 204.964C233.197 208.43 230.73 213.297 230.73 219.564C230.73 224.63 232.33 228.897 235.53 232.364C238.863 235.697 244.33 238.564 251.93 240.964L278.13 249.364C290.263 253.23 299.197 258.497 304.93 265.164C310.797 271.83 313.73 280.23 313.73 290.364C313.73 303.164 309.33 313.097 300.53 320.164C291.73 327.097 279.33 330.564 263.33 330.564Z" fill="white"/>
</svg>
