<svg width="513" height="513" viewBox="0 0 513 513" fill="none" xmlns="http://www.w3.org/2000/svg">
<circle cx="256.962" cy="256.63" r="256" fill="black"/>
<path d="M239.189 129.284V78.3637H285.549V129.284H239.189ZM285.549 386.164V435.184H239.189V386.164H285.549ZM266.169 397.184C230.703 397.184 202.329 389.33 181.049 373.624C159.769 357.664 147.356 335.244 143.809 306.364H200.049C201.823 321.057 208.916 332.71 221.329 341.324C233.743 349.684 249.576 353.864 268.829 353.864C284.536 353.864 296.569 351.077 304.929 345.504C313.543 339.93 317.849 332.457 317.849 323.084C317.849 314.217 315.316 307.124 310.249 301.804C305.183 296.23 296.443 291.797 284.029 288.504L233.109 274.444C207.016 267.097 187.889 257.09 175.729 244.424C163.823 231.504 157.869 215.417 157.869 196.164C157.869 179.697 162.049 165.51 170.409 153.604C179.023 141.444 191.056 132.197 206.509 125.864C221.963 119.277 240.076 115.984 260.849 115.984C292.769 115.984 318.229 123.584 337.229 138.784C356.229 153.73 366.996 173.617 369.529 198.444H313.289C310.756 185.017 304.549 175.137 294.669 168.804C285.043 162.47 272.629 159.304 257.429 159.304C244.256 159.304 233.743 161.837 225.889 166.904C218.036 171.97 214.109 178.81 214.109 187.424C214.109 194.01 216.263 200.09 220.569 205.664C224.876 210.984 233.869 215.544 247.549 219.344L298.469 233.404C325.323 240.75 344.576 250.884 356.229 263.804C368.136 276.47 374.089 292.557 374.089 312.064C374.089 339.424 364.589 360.45 345.589 375.144C326.589 389.837 300.116 397.184 266.169 397.184Z" fill="white"/>
</svg>
