<svg width="513" height="513" viewBox="0 0 513 513" fill="none" xmlns="http://www.w3.org/2000/svg">
<circle cx="256.962" cy="256.63" r="255.5" fill="black" stroke="white"/>
<circle cx="256.493" cy="256.909" r="210.164" fill="black" stroke="white" stroke-width="4"/>
<path d="M248.737 337.724V188.633H258.288V337.724H248.737ZM280.885 233.36C280.186 227.459 277.352 222.877 272.382 219.616C267.413 216.355 261.317 214.724 254.095 214.724C248.815 214.724 244.195 215.578 240.234 217.287C236.313 218.995 233.246 221.344 231.033 224.333C228.859 227.323 227.771 230.72 227.771 234.525C227.771 237.709 228.529 240.446 230.043 242.737C231.596 244.989 233.576 246.872 235.983 248.386C238.39 249.861 240.914 251.084 243.554 252.055C246.194 252.987 248.621 253.744 250.834 254.326L262.948 257.588C266.054 258.403 269.509 259.529 273.314 260.966C277.158 262.402 280.827 264.363 284.321 266.848C287.854 269.294 290.766 272.439 293.057 276.282C295.348 280.126 296.493 284.843 296.493 290.434C296.493 296.879 294.804 302.703 291.426 307.906C288.087 313.109 283.195 317.243 276.75 320.311C270.344 323.378 262.559 324.912 253.396 324.912C244.855 324.912 237.458 323.533 231.207 320.777C224.995 318.02 220.103 314.176 216.531 309.245C212.998 304.314 210.999 298.588 210.533 292.065H225.442C225.83 296.569 227.344 300.296 229.984 303.247C232.663 306.159 236.041 308.333 240.118 309.769C244.234 311.167 248.66 311.866 253.396 311.866C258.91 311.866 263.86 310.973 268.247 309.187C272.635 307.362 276.109 304.839 278.672 301.616C281.234 298.355 282.516 294.55 282.516 290.201C282.516 286.241 281.409 283.019 279.196 280.534C276.983 278.049 274.071 276.03 270.46 274.477C266.85 272.924 262.948 271.565 258.754 270.4L244.078 266.207C234.76 263.528 227.383 259.704 221.948 254.734C216.512 249.764 213.794 243.261 213.794 235.224C213.794 228.546 215.6 222.722 219.21 217.752C222.86 212.744 227.752 208.861 233.886 206.105C240.06 203.309 246.951 201.912 254.561 201.912C262.249 201.912 269.082 203.29 275.061 206.046C281.04 208.764 285.777 212.492 289.271 217.228C292.805 221.965 294.668 227.342 294.862 233.36H280.885Z" fill="white"/>
</svg>
