<svg width="513" height="513" viewBox="0 0 513 513" fill="none" xmlns="http://www.w3.org/2000/svg">
<circle cx="256.75" cy="256.154" r="255.5" fill="black" stroke="white"/>
<circle cx="256.75" cy="261.433" r="210.164" fill="black" stroke="white" stroke-width="4"/>
<g clip-path="url(#clip0_40_536)">
<path d="M258.165 49C140.979 49 46 143.979 46 261.165C46 378.351 140.979 473.33 258.165 473.33C375.351 473.33 470.33 378.351 470.33 261.165C470.33 143.979 375.351 49 258.165 49ZM363.54 294.404C354.346 273.895 320.4 228.633 270.895 233.584C219.268 239.241 160.569 268.237 143.596 310.67C117.429 290.161 140.06 254.8 155.619 238.534C152.082 222.975 161.984 189.029 167.641 174.885C169.763 162.862 179.664 154.375 184.614 152.254C183.907 143.767 198.759 139.524 205.831 138.109L206.538 136.695C208.66 130.33 210.781 122.551 229.169 116.893C244.728 111.235 258.872 125.379 264.53 133.159C265.944 128.915 271.602 122.551 277.26 127.501C328.179 135.28 345.153 191.151 347.982 217.318C357.883 224.39 378.392 242.777 383.342 259.751C388.293 280.26 382.635 284.503 375.563 290.161L374.148 291.575C370.612 295.819 366.369 295.819 363.54 294.404ZM353.639 316.328C342.536 362.863 305.195 398.577 258.165 407.559C228.462 407.559 181.078 360.883 167.641 338.959C140.06 336.837 146.425 322.693 152.79 316.328L149.254 314.913C161.984 285.21 198.052 249.85 268.773 241.363C307.67 236.412 337.373 263.994 355.054 292.283C355.761 301.476 355.054 311.377 353.639 316.328ZM198.759 280.967C203.002 291.575 215.732 308.548 234.12 288.746C232.705 283.089 222.804 273.188 198.759 280.967ZM227.047 381.392C224.219 377.148 241.192 375.027 249.678 374.32L260.994 371.491C263.116 362.297 258.872 361.59 256.751 362.297C239.777 363.711 241.192 343.909 245.435 337.544C250.386 331.887 260.994 334.008 264.53 334.716C268.066 336.13 273.724 334.716 275.845 334.008C286.454 333.301 285.746 346.031 283.625 352.396C282.918 360.883 270.895 363.711 265.237 363.711C264.53 370.076 265.944 372.905 267.359 372.905L291.404 378.563C300.598 382.099 295.647 382.806 291.404 383.513C279.381 375.734 270.895 378.563 265.237 379.977L260.994 381.392C251.093 377.856 240.485 378.563 236.241 379.977C234.12 382.099 229.169 384.928 227.047 381.392ZM289.99 292.283C290.697 283.796 299.184 269.652 323.936 282.381C320.4 290.868 308.377 304.305 289.99 292.283Z" fill="white"/>
</g>
<defs>
<clipPath id="clip0_40_536">
<rect width="424.33" height="424.33" fill="white" transform="translate(46 49)"/>
</clipPath>
</defs>
</svg>
