<svg width="513" height="513" viewBox="0 0 513 513" fill="none" xmlns="http://www.w3.org/2000/svg">
<circle cx="256.566" cy="256.77" r="255.5" fill="black" stroke="white"/>
<g clip-path="url(#clip0_24_1081)">
<path d="M283.261 226.241L246.29 247.53C245.821 247.799 245.433 248.189 245.164 248.658C244.896 249.127 244.757 249.66 244.763 250.2V268.062C244.758 268.59 244.898 269.109 245.167 269.564C245.436 270.018 245.825 270.39 246.29 270.639L261.774 279.57C262.215 279.85 262.726 279.998 263.248 279.998C263.771 279.998 264.282 279.85 264.723 279.57L328.615 242.773C339.458 236.501 339.458 218.429 328.615 212.156L271.194 179.091C268.799 177.644 266.053 176.879 263.254 176.879C260.456 176.879 257.71 177.644 255.314 179.091L197.905 212.168C195.454 213.537 193.415 215.54 192.002 217.966C190.589 220.392 189.853 223.153 189.872 225.961C189.872 248.113 189.965 270.161 189.872 292.208C189.849 295.011 190.577 297.769 191.982 300.195C193.387 302.621 195.416 304.625 197.858 306.001L255.268 339.171C257.679 340.574 260.418 341.313 263.208 341.313C265.997 341.313 268.737 340.574 271.148 339.171L328.615 306.001C331.052 304.627 333.072 302.619 334.462 300.191C335.851 297.764 336.558 295.005 336.509 292.208V263.41L268.163 302.958C266.667 303.845 264.959 304.314 263.219 304.314C261.48 304.314 259.772 303.845 258.276 302.958L227.752 285.271C226.235 284.42 224.976 283.177 224.106 281.671C223.236 280.165 222.788 278.452 222.809 276.713V241.456C222.801 239.744 223.244 238.061 224.094 236.575C224.943 235.089 226.169 233.853 227.647 232.991C237.826 227.092 248.086 221.204 258.264 215.304C259.762 214.423 261.469 213.958 263.208 213.958C264.946 213.958 266.653 214.423 268.151 215.304L283.308 223.955C283.504 224.077 283.665 224.248 283.774 224.45C283.884 224.653 283.94 224.881 283.935 225.111C283.93 225.342 283.866 225.567 283.748 225.765C283.63 225.963 283.462 226.127 283.261 226.241Z" fill="white"/>
<path d="M263.324 153.371C242.414 153.371 221.973 159.571 204.587 171.189C187.2 182.806 173.649 199.318 165.647 218.636C157.645 237.955 155.551 259.213 159.631 279.722C163.71 300.23 173.779 319.069 188.565 333.855C203.351 348.641 222.19 358.71 242.698 362.789C263.207 366.869 284.465 364.775 303.784 356.773C323.102 348.771 339.614 335.22 351.232 317.833C362.849 300.447 369.049 280.006 369.049 259.096C369.049 245.212 366.315 231.464 361.002 218.636C355.688 205.809 347.901 194.154 338.083 184.337C328.266 174.519 316.611 166.732 303.784 161.418C290.956 156.105 277.208 153.371 263.324 153.371ZM283.261 223.955L268.105 215.304C266.606 214.422 264.899 213.957 263.161 213.957C261.423 213.957 259.716 214.422 258.218 215.304C248.039 221.204 237.779 227.091 227.601 232.991C226.122 233.853 224.896 235.089 224.047 236.575C223.198 238.061 222.754 239.744 222.762 241.455V276.713C222.741 278.452 223.189 280.164 224.059 281.67C224.929 283.176 226.189 284.42 227.706 285.271L258.218 302.957C259.714 303.845 261.421 304.313 263.161 304.313C264.901 304.313 266.608 303.845 268.105 302.957L336.45 263.41V292.208C336.506 294.999 335.807 297.753 334.428 300.181C333.05 302.608 331.041 304.619 328.616 306L271.206 339.171C268.795 340.574 266.055 341.313 263.266 341.313C260.477 341.313 257.737 340.574 255.326 339.171L197.905 306C195.454 304.631 193.415 302.629 192.002 300.203C190.589 297.776 189.853 295.015 189.872 292.208C189.965 270.16 189.872 248.101 189.872 225.96C189.849 223.157 190.577 220.4 191.982 217.974C193.387 215.548 195.416 213.543 197.858 212.168L255.268 179.091C257.663 177.643 260.409 176.879 263.208 176.879C266.006 176.879 268.752 177.643 271.148 179.091L328.616 212.168C339.459 218.44 339.459 236.512 328.616 242.785L264.723 279.569C264.282 279.849 263.771 279.998 263.249 279.998C262.726 279.998 262.215 279.849 261.774 279.569L246.29 270.638C245.825 270.389 245.436 270.017 245.167 269.563C244.898 269.109 244.758 268.59 244.763 268.062V250.2C244.757 249.659 244.896 249.127 245.164 248.658C245.433 248.188 245.821 247.799 246.29 247.53L283.261 226.24C283.46 226.123 283.624 225.955 283.738 225.755C283.852 225.555 283.912 225.328 283.912 225.098C283.912 224.867 283.852 224.641 283.738 224.44C283.624 224.24 283.46 224.073 283.261 223.955Z" fill="white"/>
<path d="M263.325 109.859C233.808 109.859 204.955 118.611 180.413 135.01C155.871 151.408 136.743 174.716 125.447 201.985C114.152 229.255 111.197 259.261 116.955 288.211C122.713 317.16 136.927 343.751 157.798 364.622C178.669 385.494 205.261 399.707 234.21 405.465C263.159 411.224 293.166 408.268 320.435 396.973C347.705 385.678 371.012 366.55 387.411 342.008C403.809 317.466 412.562 288.612 412.562 259.096C412.562 219.516 396.838 181.557 368.851 153.569C340.864 125.582 302.905 109.859 263.325 109.859ZM283.262 223.955L268.105 215.304C266.607 214.423 264.9 213.958 263.161 213.958C261.423 213.958 259.716 214.423 258.218 215.304C248.039 221.204 237.779 227.092 227.601 232.991C226.122 233.853 224.897 235.089 224.047 236.575C223.198 238.061 222.755 239.744 222.762 241.456V276.713C222.741 278.452 223.189 280.165 224.059 281.67C224.929 283.176 226.189 284.42 227.706 285.271L258.218 302.958C259.714 303.845 261.422 304.314 263.161 304.314C264.901 304.314 266.609 303.845 268.105 302.958L336.451 263.41V292.208C336.506 294.999 335.808 297.754 334.429 300.181C333.05 302.608 331.042 304.619 328.616 306.001L271.206 339.171C268.795 340.574 266.056 341.313 263.266 341.313C260.477 341.313 257.737 340.574 255.326 339.171L197.905 306.001C195.454 304.631 193.415 302.629 192.002 300.203C190.589 297.777 189.854 295.016 189.872 292.208C189.965 270.16 189.872 248.101 189.872 225.961C189.849 223.158 190.578 220.4 191.982 217.974C193.387 215.548 195.416 213.543 197.858 212.168L255.268 179.091C257.664 177.644 260.409 176.879 263.208 176.879C266.007 176.879 268.752 177.644 271.148 179.091L328.616 212.168C339.459 218.441 339.459 236.512 328.616 242.785L264.724 279.569C264.283 279.849 263.771 279.998 263.249 279.998C262.726 279.998 262.215 279.849 261.774 279.569L246.291 270.638C245.825 270.389 245.436 270.018 245.167 269.563C244.898 269.109 244.758 268.59 244.763 268.062V250.2C244.758 249.659 244.896 249.127 245.165 248.658C245.433 248.189 245.822 247.799 246.291 247.53L283.262 226.24C283.46 226.123 283.624 225.955 283.738 225.755C283.852 225.555 283.912 225.328 283.912 225.098C283.912 224.867 283.852 224.641 283.738 224.441C283.624 224.24 283.46 224.073 283.262 223.955Z" fill="black"/>
</g>
<defs>
<clipPath id="clip0_24_1081">
<rect width="298.474" height="298.474" fill="white" transform="translate(114.087 109.859)"/>
</clipPath>
</defs>
</svg>
