<svg width="515" height="520" viewBox="0 0 515 520" fill="none" xmlns="http://www.w3.org/2000/svg">
<circle cx="257.566" cy="256.77" r="256" fill="black"/>
<g clip-path="url(#clip0_24_1081)">
<path d="M291.9 205.81L228.109 242.544C227.3 243.009 226.629 243.68 226.166 244.49C225.703 245.3 225.464 246.218 225.473 247.151V277.97C225.465 278.881 225.706 279.777 226.17 280.561C226.635 281.345 227.305 281.986 228.109 282.416L254.824 297.826C255.585 298.309 256.468 298.566 257.369 298.566C258.27 298.566 259.153 298.309 259.914 297.826L370.156 234.336C388.865 223.513 388.865 192.331 370.156 181.508L271.079 124.456C266.946 121.959 262.208 120.639 257.379 120.639C252.55 120.639 247.813 121.959 243.679 124.456L144.622 181.529C140.393 183.891 136.876 187.346 134.438 191.532C131.999 195.719 130.73 200.483 130.762 205.327C130.762 243.55 130.923 281.591 130.762 319.633C130.722 324.469 131.979 329.228 134.403 333.414C136.826 337.599 140.328 341.059 144.542 343.432L243.599 400.665C247.759 403.086 252.486 404.361 257.299 404.361C262.112 404.361 266.839 403.086 270.999 400.665L370.156 343.432C374.361 341.061 377.846 337.597 380.243 333.408C382.641 329.219 383.861 324.459 383.776 319.633V269.944L265.849 338.181C263.267 339.713 260.321 340.521 257.319 340.521C254.317 340.521 251.371 339.713 248.789 338.181L196.122 307.663C193.505 306.196 191.331 304.05 189.83 301.451C188.329 298.853 187.556 295.898 187.593 292.897V232.063C187.58 229.11 188.344 226.205 189.81 223.642C191.275 221.078 193.39 218.945 195.941 217.458C213.504 207.279 231.207 197.119 248.769 186.94C251.354 185.419 254.299 184.617 257.299 184.617C260.298 184.617 263.243 185.419 265.828 186.94L291.981 201.867C292.319 202.077 292.596 202.371 292.786 202.721C292.975 203.071 293.071 203.464 293.063 203.861C293.055 204.259 292.943 204.648 292.739 204.99C292.536 205.331 292.246 205.614 291.9 205.81Z" fill="white"/>
<path d="M257.5 80.0771C221.42 80.0771 186.151 90.7761 156.151 110.821C126.152 130.866 102.77 159.356 88.9633 192.69C75.1562 226.023 71.5436 262.702 78.5824 298.089C85.6213 333.475 102.995 365.98 128.508 391.492C154.02 417.004 186.524 434.378 221.911 441.417C257.298 448.456 293.977 444.844 327.31 431.036C360.643 417.229 389.134 393.848 409.179 363.848C429.224 333.849 439.923 298.58 439.923 262.5C439.923 238.544 435.204 214.822 426.036 192.69C416.869 170.557 403.432 150.447 386.492 133.508C369.553 116.568 349.443 103.131 327.31 93.9632C305.178 84.7956 281.456 80.0771 257.5 80.0771ZM291.9 201.867L265.748 186.94C263.163 185.418 260.218 184.616 257.218 184.616C254.219 184.616 251.274 185.418 248.689 186.94C231.126 197.119 213.423 207.278 195.861 217.457C193.309 218.945 191.195 221.077 189.729 223.641C188.264 226.205 187.499 229.109 187.512 232.063V292.897C187.476 295.898 188.249 298.852 189.75 301.451C191.251 304.049 193.424 306.195 196.042 307.663L248.689 338.181C251.27 339.712 254.217 340.52 257.218 340.52C260.22 340.52 263.166 339.712 265.748 338.181L383.675 269.943V319.633C383.771 324.449 382.565 329.201 380.186 333.39C377.807 337.578 374.342 341.047 370.156 343.431L271.099 400.665C266.939 403.085 262.212 404.361 257.399 404.361C252.586 404.361 247.859 403.085 243.7 400.665L144.622 343.431C140.393 341.069 136.876 337.614 134.438 333.427C131.999 329.241 130.73 324.477 130.762 319.633C130.923 281.591 130.762 243.529 130.762 205.327C130.722 200.49 131.979 195.732 134.403 191.546C136.826 187.361 140.328 183.901 144.542 181.528L243.599 124.456C247.732 121.959 252.47 120.639 257.299 120.639C262.128 120.639 266.865 121.959 270.999 124.456L370.156 181.528C388.865 192.351 388.865 223.533 370.156 234.356L259.914 297.826C259.153 298.309 258.27 298.565 257.369 298.565C256.468 298.565 255.585 298.309 254.824 297.826L228.109 282.416C227.305 281.986 226.635 281.345 226.17 280.561C225.706 279.777 225.465 278.881 225.473 277.97V247.15C225.464 246.218 225.703 245.299 226.166 244.489C226.629 243.68 227.3 243.008 228.109 242.544L291.9 205.81C292.242 205.606 292.525 205.318 292.722 204.972C292.919 204.627 293.022 204.236 293.022 203.838C293.022 203.44 292.919 203.05 292.722 202.704C292.525 202.358 292.242 202.07 291.9 201.867Z" fill="white"/>
<path d="M257.5 5C206.571 5 156.786 20.1021 114.441 48.3966C72.0951 76.691 39.0907 116.907 19.6011 163.959C0.11157 211.011 -4.98779 262.786 4.94791 312.736C14.8836 362.686 39.4081 408.568 75.4201 444.58C111.432 480.592 157.314 505.117 207.264 515.052C257.214 524.988 308.989 519.889 356.041 500.399C403.093 480.909 443.309 447.905 471.604 405.559C499.898 363.214 515 313.429 515 262.5C515 194.207 487.871 128.711 439.58 80.42C391.29 32.1294 325.793 5 257.5 5ZM291.901 201.867L265.748 186.94C263.163 185.419 260.218 184.616 257.218 184.616C254.219 184.616 251.274 185.419 248.689 186.94C231.126 197.119 213.423 207.278 195.861 217.458C193.31 218.945 191.195 221.077 189.729 223.641C188.264 226.205 187.499 229.11 187.512 232.063V292.897C187.476 295.898 188.249 298.853 189.75 301.451C191.251 304.05 193.425 306.195 196.042 307.663L248.689 338.181C251.27 339.712 254.217 340.521 257.218 340.521C260.22 340.521 263.167 339.712 265.748 338.181L383.675 269.943V319.633C383.771 324.449 382.566 329.202 380.186 333.39C377.807 337.578 374.342 341.047 370.156 343.431L271.099 400.665C266.939 403.086 262.212 404.361 257.4 404.361C252.587 404.361 247.86 403.086 243.7 400.665L144.623 343.431C140.393 341.069 136.876 337.614 134.438 333.428C132 329.241 130.73 324.477 130.762 319.633C130.923 281.591 130.762 243.529 130.762 205.327C130.722 200.491 131.98 195.732 134.403 191.546C136.827 187.361 140.328 183.901 144.542 181.528L243.599 124.456C247.733 121.959 252.47 120.639 257.299 120.639C262.128 120.639 266.865 121.959 270.999 124.456L370.156 181.528C388.865 192.351 388.865 223.533 370.156 234.356L259.914 297.826C259.153 298.309 258.271 298.565 257.369 298.565C256.468 298.565 255.585 298.309 254.825 297.826L228.109 282.416C227.306 281.986 226.635 281.345 226.171 280.561C225.706 279.777 225.465 278.881 225.474 277.97V247.151C225.464 246.218 225.703 245.299 226.166 244.49C226.629 243.68 227.3 243.008 228.109 242.544L291.901 205.81C292.242 205.607 292.526 205.318 292.722 204.972C292.919 204.627 293.022 204.236 293.022 203.838C293.022 203.441 292.919 203.05 292.722 202.704C292.526 202.359 292.242 202.07 291.901 201.867Z" fill="black"/>
</g>
<defs>
<clipPath id="clip0_24_1081">
<rect width="515" height="515" fill="white" transform="translate(0 5)"/>
</clipPath>
</defs>
</svg>
