<svg width="513" height="513" viewBox="0 0 513 513" fill="none" xmlns="http://www.w3.org/2000/svg">
<circle cx="256.566" cy="256.77" r="255.5" fill="black" stroke="white"/>
<circle cx="256.377" cy="262.049" r="210.164" fill="black" stroke="white" stroke-width="4"/>
<g clip-path="url(#clip0_24_1081)">
<path d="M271.187 233.153L239.477 251.413C239.075 251.644 238.742 251.978 238.512 252.38C238.281 252.783 238.163 253.239 238.167 253.703V269.023C238.163 269.476 238.283 269.921 238.514 270.311C238.745 270.7 239.078 271.019 239.477 271.233L252.757 278.893C253.136 279.133 253.574 279.26 254.022 279.26C254.47 279.26 254.909 279.133 255.287 278.893L310.087 247.333C319.387 241.953 319.387 226.453 310.087 221.073L260.837 192.713C258.783 191.472 256.428 190.815 254.027 190.815C251.627 190.815 249.272 191.472 247.217 192.713L197.977 221.083C195.875 222.257 194.127 223.975 192.915 226.056C191.703 228.137 191.072 230.505 191.087 232.913C191.087 251.913 191.167 270.823 191.087 289.733C191.068 292.137 191.693 294.502 192.897 296.583C194.102 298.663 195.842 300.383 197.937 301.563L247.177 330.013C249.245 331.216 251.595 331.85 253.987 331.85C256.38 331.85 258.73 331.216 260.797 330.013L310.087 301.563C312.177 300.384 313.91 298.663 315.102 296.58C316.293 294.498 316.9 292.132 316.857 289.733V265.033L258.237 298.953C256.954 299.714 255.489 300.116 253.997 300.116C252.505 300.116 251.041 299.714 249.757 298.953L223.577 283.783C222.276 283.053 221.196 281.987 220.45 280.695C219.704 279.403 219.319 277.934 219.337 276.443V246.203C219.331 244.735 219.711 243.291 220.439 242.017C221.168 240.742 222.219 239.682 223.487 238.943C232.217 233.883 241.017 228.833 249.747 223.773C251.032 223.017 252.496 222.618 253.987 222.618C255.478 222.618 256.942 223.017 258.227 223.773L271.227 231.193C271.395 231.297 271.533 231.443 271.627 231.617C271.722 231.791 271.769 231.986 271.765 232.184C271.761 232.382 271.706 232.575 271.604 232.745C271.503 232.915 271.359 233.055 271.187 233.153Z" fill="white"/>
<path d="M254.087 170.653C236.152 170.653 218.62 175.971 203.708 185.935C188.796 195.899 177.173 210.061 170.31 226.631C163.447 243.201 161.651 261.433 165.15 279.024C168.649 296.614 177.285 312.771 189.967 325.453C202.649 338.135 218.806 346.772 236.396 350.27C253.987 353.769 272.219 351.974 288.789 345.11C305.359 338.247 319.521 326.624 329.485 311.712C339.449 296.8 344.767 279.268 344.767 261.333C344.767 249.425 342.422 237.633 337.865 226.631C333.308 215.629 326.628 205.633 318.208 197.212C309.787 188.792 299.791 182.113 288.789 177.555C277.787 172.998 265.996 170.653 254.087 170.653ZM271.187 231.193L258.187 223.773C256.902 223.017 255.438 222.618 253.947 222.618C252.456 222.618 250.992 223.017 249.707 223.773C240.977 228.833 232.177 233.883 223.447 238.943C222.179 239.682 221.128 240.742 220.399 242.017C219.671 243.291 219.291 244.735 219.297 246.203V276.443C219.279 277.934 219.663 279.403 220.41 280.695C221.156 281.987 222.236 283.053 223.537 283.783L249.707 298.953C250.991 299.714 252.455 300.116 253.947 300.116C255.439 300.116 256.904 299.714 258.187 298.953L316.807 265.033V289.733C316.855 292.127 316.256 294.489 315.073 296.571C313.89 298.653 312.168 300.378 310.087 301.563L260.847 330.013C258.779 331.216 256.43 331.85 254.037 331.85C251.645 331.85 249.295 331.216 247.227 330.013L197.977 301.563C195.875 300.388 194.126 298.671 192.915 296.59C191.703 294.509 191.071 292.141 191.087 289.733C191.167 270.823 191.087 251.903 191.087 232.913C191.068 230.509 191.693 228.143 192.897 226.063C194.102 223.982 195.842 222.263 197.937 221.083L247.177 192.713C249.232 191.472 251.587 190.815 253.987 190.815C256.388 190.815 258.743 191.472 260.797 192.713L310.087 221.083C319.387 226.463 319.387 241.963 310.087 247.343L255.287 278.893C254.909 279.133 254.47 279.261 254.022 279.261C253.574 279.261 253.135 279.133 252.757 278.893L239.477 271.233C239.078 271.019 238.745 270.7 238.514 270.311C238.283 269.921 238.163 269.476 238.167 269.023V253.703C238.163 253.239 238.281 252.783 238.512 252.38C238.742 251.978 239.075 251.644 239.477 251.413L271.187 233.153C271.357 233.052 271.498 232.908 271.596 232.737C271.693 232.565 271.745 232.371 271.745 232.173C271.745 231.975 271.693 231.781 271.596 231.609C271.498 231.437 271.357 231.294 271.187 231.193Z" fill="white"/>
<path d="M254.087 133.333C228.771 133.333 204.024 140.84 182.974 154.905C161.925 168.97 145.519 188.961 135.831 212.35C126.143 235.738 123.608 261.475 128.547 286.305C133.486 311.134 145.677 333.942 163.578 351.843C181.479 369.744 204.286 381.935 229.116 386.874C253.945 391.812 279.682 389.278 303.071 379.59C326.46 369.902 346.451 353.495 360.516 332.446C374.58 311.397 382.087 286.649 382.087 261.333C382.087 227.385 368.602 194.828 344.597 170.823C320.592 146.819 288.035 133.333 254.087 133.333ZM271.187 231.193L258.187 223.773C256.902 223.017 255.439 222.618 253.947 222.618C252.456 222.618 250.993 223.017 249.707 223.773C240.977 228.833 232.177 233.883 223.447 238.943C222.179 239.682 221.128 240.742 220.399 242.017C219.671 243.291 219.291 244.735 219.297 246.203V276.443C219.279 277.935 219.664 279.403 220.41 280.695C221.156 281.987 222.236 283.053 223.537 283.783L249.707 298.953C250.991 299.714 252.455 300.116 253.947 300.116C255.44 300.116 256.904 299.714 258.187 298.953L316.807 265.033V289.733C316.855 292.127 316.256 294.49 315.073 296.572C313.891 298.654 312.168 300.378 310.087 301.563L260.847 330.013C258.78 331.216 256.43 331.85 254.037 331.85C251.645 331.85 249.295 331.216 247.227 330.013L197.977 301.563C195.875 300.389 194.127 298.671 192.915 296.59C191.703 294.509 191.072 292.141 191.087 289.733C191.167 270.823 191.087 251.903 191.087 232.913C191.068 230.509 191.693 228.143 192.897 226.063C194.102 223.982 195.843 222.263 197.937 221.083L247.177 192.713C249.232 191.472 251.587 190.816 253.987 190.816C256.388 190.816 258.743 191.472 260.797 192.713L310.087 221.083C319.387 226.463 319.387 241.963 310.087 247.343L255.287 278.893C254.909 279.133 254.47 279.261 254.022 279.261C253.574 279.261 253.136 279.133 252.757 278.893L239.477 271.233C239.078 271.019 238.745 270.7 238.514 270.311C238.283 269.921 238.163 269.476 238.167 269.023V253.703C238.163 253.239 238.282 252.783 238.512 252.38C238.742 251.978 239.075 251.644 239.477 251.413L271.187 233.153C271.357 233.052 271.498 232.909 271.596 232.737C271.694 232.565 271.745 232.371 271.745 232.173C271.745 231.975 271.694 231.781 271.596 231.609C271.498 231.437 271.357 231.294 271.187 231.193Z" fill="black"/>
</g>
<defs>
<clipPath id="clip0_24_1081">
<rect width="256" height="256" fill="white" transform="translate(126.087 133.333)"/>
</clipPath>
</defs>
</svg>
