<svg width="513" height="513" viewBox="0 0 513 513" fill="none" xmlns="http://www.w3.org/2000/svg">
<circle cx="256.327" cy="256.031" r="255.5" fill="black" stroke="white"/>
<circle cx="256.328" cy="261.31" r="210.164" fill="black" stroke="white" stroke-width="4"/>
<g clip-path="url(#clip0_24_1095)">
<path d="M253.039 348L252.1 347.53C215.466 326.058 187.755 290.637 176.483 248.319C174.682 241.658 173.352 234.84 172.412 227.944C171.551 221.048 171.082 214.074 171.003 207.099C171.003 205.924 170.847 206.08 171.943 205.532C185.72 197.695 200.279 191.975 215.7 188.37C221.415 187.038 227.129 186.019 232.922 185.314C240.906 184.373 248.89 183.981 256.953 184.138C261.493 184.216 265.955 184.53 270.417 185C292.883 187.429 313.94 194.169 333.666 205.218C333.979 205.375 334.214 205.532 334.527 205.689C334.84 205.845 334.997 206.08 334.997 206.472V207.648C334.918 211.723 334.762 215.719 334.449 219.794C333.979 225.593 333.196 231.314 332.1 237.035C329.752 249.338 326.073 261.171 320.985 272.534C312.922 290.637 301.885 306.78 287.951 320.886C277.932 331.073 266.738 339.85 254.37 347.138C253.9 347.452 253.509 347.687 253.039 348ZM178.518 211.096V212.036C178.518 217.757 178.909 223.556 179.614 229.198C180.24 234.37 181.101 239.464 182.275 244.558C182.51 245.42 182.745 246.282 183.136 247.144C190.182 262.112 206.463 270.105 222.589 266.422C234.879 263.601 244.898 254.118 248.264 241.972C249.204 238.602 249.517 235.154 249.673 231.706C249.751 229.433 249.986 227.161 250.378 224.888C253.039 211.096 262.198 199.733 275.114 194.326C275.818 194.012 276.601 193.777 277.305 193.464C277.384 193.385 277.54 193.385 277.54 193.228C275.505 192.523 263.372 191.269 256.092 191.113C240.436 190.799 225.094 192.837 210.143 197.382C199.027 200.752 188.538 205.297 178.518 211.096ZM293.979 304.978C294.37 304.742 294.605 304.429 294.762 304.194C297.893 300.276 300.867 296.201 303.607 291.969C313.392 276.766 320.28 260.388 324.116 242.677C325.447 236.643 326.308 230.609 326.856 224.496C327.247 220.343 327.404 216.19 327.404 211.958C327.404 211.644 327.404 211.409 327.325 211.096L326.151 210.39C322.942 208.588 319.654 206.864 316.366 205.297C311.513 203.024 306.66 200.987 301.572 199.341C295.388 197.382 289.126 197.147 282.863 198.714C264.937 203.024 253.431 220.656 256.875 238.759C258.753 248.79 264.155 256.626 272.765 262.112C273.313 262.503 273.94 262.817 274.487 263.209C280.828 267.049 285.76 272.299 289.282 278.803C293.039 285.621 294.683 292.988 294.214 300.746C294.292 302.078 294.135 303.489 293.979 304.978ZM253.039 340.007C253.352 339.85 253.744 339.615 254.057 339.38C263.92 333.581 273 326.685 281.298 318.848C281.846 318.378 282.237 317.751 282.55 317.124C283.098 316.105 283.646 315.008 284.116 313.99C288.03 305.84 288.891 297.376 286.308 288.599C281.219 271.672 264.937 261.955 248.577 263.992C243.881 264.541 239.575 266.03 235.505 268.381C227.755 272.769 219.458 274.572 210.534 273.71C206.15 273.318 202.002 272.142 198.009 270.418C194.878 269.008 191.904 267.284 189.242 265.168C189.086 265.011 188.851 264.933 188.459 264.698C188.538 265.09 188.616 265.325 188.694 265.481C192.217 274.415 196.522 282.878 201.61 290.95C207.168 299.649 213.509 307.72 220.71 315.087C227.912 322.453 235.818 329.036 244.35 334.756C248.264 337.264 251.943 339.537 253.039 340.007Z" fill="black"/>
<path d="M178.518 211.096C188.538 205.297 199.027 200.752 210.064 197.46C225.094 192.993 240.358 190.878 256.014 191.191C263.294 191.348 275.427 192.523 277.462 193.307C277.54 193.464 277.384 193.542 277.227 193.542C276.523 193.855 275.74 194.091 275.036 194.404C262.12 199.811 252.961 211.174 250.3 224.966C249.908 227.239 249.673 229.512 249.595 231.784C249.517 235.232 249.204 238.68 248.186 242.05C244.742 254.197 234.8 263.679 222.511 266.5C206.385 270.183 190.103 262.19 183.058 247.222C182.667 246.36 182.354 245.498 182.197 244.636C181.023 239.542 180.162 234.449 179.536 229.277C178.831 223.556 178.44 217.835 178.44 212.115C178.518 211.723 178.518 211.488 178.518 211.096Z" fill="white"/>
<path d="M293.979 304.978C294.136 303.489 294.292 302.156 294.37 300.746C294.762 292.988 293.118 285.621 289.439 278.803C285.916 272.299 280.985 267.127 274.644 263.209C274.096 262.817 273.47 262.503 272.922 262.112C264.233 256.626 258.91 248.868 257.032 238.759C253.666 220.578 265.094 203.024 283.02 198.714C289.361 197.225 295.545 197.382 301.729 199.341C306.817 200.908 311.67 203.024 316.523 205.297C319.889 206.864 323.099 208.588 326.308 210.391C326.699 210.626 327.012 210.782 327.482 211.096C327.482 211.409 327.56 211.644 327.56 211.958C327.56 216.111 327.326 220.343 327.012 224.496C326.465 230.609 325.525 236.721 324.273 242.677C320.437 260.388 313.627 276.766 303.764 291.969C301.024 296.201 298.049 300.276 294.918 304.194C294.605 304.429 294.449 304.742 293.979 304.978Z" fill="white"/>
<path d="M253.039 340.007C251.865 339.537 248.264 337.343 244.428 334.756C235.896 329.036 227.99 322.453 220.788 315.087C213.587 307.72 207.168 299.649 201.688 290.95C196.522 282.879 192.217 274.415 188.772 265.481C188.694 265.246 188.616 265.09 188.538 264.698C188.929 264.933 189.086 265.011 189.32 265.168C192.06 267.284 194.956 269.086 198.088 270.418C202.08 272.143 206.229 273.318 210.612 273.71C219.458 274.572 227.755 272.769 235.583 268.381C239.653 266.108 244.037 264.619 248.655 263.993C265.016 261.955 281.298 271.672 286.386 288.599C288.969 297.298 288.186 305.761 284.194 313.99C283.646 315.087 283.176 316.106 282.628 317.124C282.315 317.751 281.924 318.378 281.376 318.848C273.078 326.685 263.998 333.581 254.135 339.38C253.744 339.615 253.352 339.85 253.039 340.007Z" fill="white"/>
</g>
<defs>
<clipPath id="clip0_24_1095">
<rect width="164" height="163" fill="white" transform="translate(171 185)"/>
</clipPath>
</defs>
</svg>
