<svg width="513" height="513" viewBox="0 0 513 513" fill="none" xmlns="http://www.w3.org/2000/svg">
<circle cx="256.327" cy="256.031" r="255.5" fill="black" stroke="white"/>
<g clip-path="url(#clip0_24_1095)">
<path d="M258.554 378L257.254 377.351C206.547 347.711 168.191 298.817 152.589 240.404C150.097 231.209 148.255 221.798 146.955 212.279C145.763 202.76 145.113 193.132 145.004 183.505C145.004 181.882 144.788 182.098 146.305 181.341C165.374 170.524 185.527 162.627 206.872 157.651C214.781 155.812 222.69 154.406 230.708 153.433C241.76 152.135 252.811 151.594 263.971 151.81C270.256 151.918 276.432 152.351 282.607 153C313.704 156.353 342.849 165.656 370.153 180.909C370.587 181.125 370.912 181.341 371.345 181.558C371.778 181.774 371.995 182.098 371.995 182.639V184.262C371.887 189.887 371.67 195.404 371.237 201.029C370.587 209.034 369.503 216.93 367.986 224.827C364.736 241.81 359.643 258.144 352.601 273.829C341.441 298.817 326.164 321.101 306.878 340.572C293.009 354.635 277.515 366.75 260.396 376.81C259.746 377.243 259.204 377.567 258.554 378ZM155.406 189.022V190.32C155.406 198.216 155.948 206.221 156.923 214.01C157.79 221.149 158.981 228.18 160.607 235.211C160.932 236.401 161.257 237.591 161.798 238.781C171.55 259.442 194.086 270.476 216.406 265.392C233.417 261.498 247.286 248.409 251.945 231.642C253.245 226.99 253.678 222.231 253.895 217.471C254.003 214.334 254.328 211.197 254.87 208.06C258.554 189.022 271.231 173.336 289.108 165.873C290.083 165.44 291.167 165.115 292.142 164.683C292.25 164.574 292.467 164.574 292.467 164.358C289.65 163.385 272.856 161.654 262.78 161.437C241.11 161.005 219.873 163.817 199.179 170.091C183.793 174.743 169.274 181.017 155.406 189.022ZM315.22 318.613C315.762 318.288 316.087 317.856 316.304 317.531C320.638 312.123 324.755 306.498 328.547 300.656C342.091 279.671 351.626 257.062 356.935 232.615C358.777 224.286 359.968 215.957 360.727 207.519C361.269 201.786 361.485 196.053 361.485 190.211C361.485 189.779 361.485 189.454 361.377 189.022L359.752 188.048C355.309 185.56 350.759 183.18 346.208 181.017C339.491 177.88 332.773 175.067 325.73 172.796C317.171 170.091 308.503 169.767 299.835 171.93C275.023 177.88 259.096 202.219 263.863 227.207C266.463 241.053 273.939 251.87 285.858 259.442C286.616 259.983 287.483 260.416 288.242 260.957C297.018 266.257 303.844 273.505 308.719 282.483C313.92 291.894 316.196 302.062 315.545 312.772C315.654 314.611 315.437 316.558 315.22 318.613ZM258.554 366.966C258.987 366.75 259.529 366.425 259.962 366.101C273.614 358.096 286.183 348.577 297.668 337.76C298.426 337.111 298.968 336.245 299.401 335.38C300.16 333.974 300.918 332.459 301.568 331.053C306.986 319.803 308.178 308.12 304.602 296.005C297.56 272.639 275.023 259.226 252.378 262.038C245.877 262.796 239.918 264.851 234.284 268.096C223.557 274.154 212.072 276.642 199.721 275.452C193.653 274.911 187.91 273.288 182.385 270.909C178.051 268.961 173.933 266.582 170.25 263.661C170.033 263.445 169.708 263.336 169.166 263.012C169.274 263.553 169.383 263.877 169.491 264.094C174.367 276.425 180.326 288.108 187.369 299.25C195.062 311.257 203.838 322.399 213.806 332.567C223.774 342.736 234.717 351.822 246.527 359.719C251.945 363.18 257.037 366.317 258.554 366.966Z" fill="black"/>
<path d="M155.406 189.022C169.275 181.017 183.794 174.743 199.071 170.2C219.874 164.034 241.002 161.113 262.672 161.546C272.748 161.762 289.542 163.385 292.359 164.466C292.467 164.683 292.251 164.791 292.034 164.791C291.059 165.224 289.975 165.548 289 165.981C271.123 173.445 258.446 189.13 254.762 208.168C254.22 211.305 253.895 214.442 253.787 217.579C253.679 222.339 253.245 227.099 251.837 231.75C247.069 248.517 233.309 261.606 216.298 265.5C193.978 270.584 171.442 259.551 161.69 238.89C161.149 237.7 160.715 236.51 160.499 235.32C158.873 228.289 157.682 221.257 156.815 214.118C155.84 206.221 155.298 198.325 155.298 190.428C155.406 189.887 155.406 189.563 155.406 189.022Z" fill="white"/>
<path d="M315.221 318.613C315.437 316.558 315.654 314.719 315.762 312.772C316.304 302.063 314.029 291.894 308.936 282.483C304.061 273.505 297.235 266.366 288.458 260.957C287.7 260.416 286.833 259.983 286.075 259.442C274.048 251.87 266.68 241.161 264.08 227.207C259.421 202.111 275.24 177.88 300.052 171.93C308.828 169.875 317.387 170.091 325.947 172.796C332.99 174.959 339.707 177.88 346.425 181.017C351.084 183.18 355.526 185.56 359.969 188.048C360.51 188.373 360.944 188.589 361.594 189.022C361.594 189.454 361.702 189.779 361.702 190.212C361.702 195.945 361.377 201.786 360.944 207.519C360.185 215.957 358.885 224.394 357.152 232.616C351.842 257.063 342.416 279.671 328.764 300.656C324.972 306.498 320.855 312.123 316.521 317.531C316.087 317.856 315.871 318.289 315.221 318.613Z" fill="white"/>
<path d="M258.554 366.966C256.929 366.317 251.945 363.288 246.636 359.719C234.826 351.822 223.883 342.735 213.915 332.567C203.947 322.399 195.062 311.257 187.478 299.25C180.326 288.108 174.367 276.425 169.6 264.094C169.492 263.769 169.383 263.553 169.275 263.012C169.817 263.336 170.033 263.445 170.358 263.661C174.151 266.582 178.16 269.07 182.493 270.908C188.019 273.288 193.762 274.911 199.829 275.452C212.073 276.642 223.558 274.154 234.393 268.096C240.027 264.959 246.094 262.904 252.487 262.038C275.132 259.226 297.668 272.639 304.711 296.005C308.286 308.012 307.203 319.695 301.677 331.053C300.919 332.567 300.269 333.973 299.51 335.38C299.077 336.245 298.535 337.11 297.777 337.759C286.292 348.577 273.723 358.096 260.071 366.101C259.529 366.425 258.988 366.75 258.554 366.966Z" fill="white"/>
</g>
<defs>
<clipPath id="clip0_24_1095">
<rect width="227" height="225" fill="white" transform="translate(145 153)"/>
</clipPath>
</defs>
</svg>
