<svg width="513" height="513" viewBox="0 0 513 513" fill="none" xmlns="http://www.w3.org/2000/svg">
<circle cx="256.328" cy="256.031" r="256" fill="black"/>
<g clip-path="url(#clip0_24_1103)">
<path d="M380.165 148.193L338.504 169.363L137.324 271.563C136.644 266.388 136.302 261.175 136.299 255.956C136.327 235.132 141.809 214.676 152.202 196.615C162.595 178.554 177.539 163.514 195.553 152.986C213.567 142.457 234.026 136.805 254.904 136.589C275.783 136.374 296.355 141.602 314.584 151.756L338.43 139.638L341.988 137.827C320.143 122.014 294.339 112.532 267.429 110.43C240.52 108.328 213.551 113.688 189.504 125.917C165.457 138.146 145.269 156.767 131.17 179.724C117.071 202.681 109.61 229.078 109.613 256C109.613 259.718 109.755 263.421 110.038 267.11C110.434 272.334 109.272 277.558 106.699 282.125C104.125 286.693 100.255 290.398 95.5746 292.777L83 299.172V328.999L120.021 310.18L132.01 304.077L143.824 298.077L355.909 190.3L379.741 178.196L429 153.157V123.344L380.165 148.193Z" fill="white"/>
<path d="M429 183L155.871 321.7L132.04 333.833L83 358.755V388.553L131.703 363.806L173.365 342.636L374.749 240.29C375.43 245.499 375.772 250.747 375.774 256C375.761 276.848 370.281 297.33 359.877 315.413C349.474 333.496 334.51 348.551 316.47 359.083C298.43 369.615 277.941 375.258 257.039 375.451C236.136 375.644 215.546 370.382 197.313 360.186L195.85 360.959L169.998 374.099C191.838 389.913 217.636 399.398 244.541 401.505C271.447 403.612 298.413 398.259 322.46 386.039C346.507 373.818 366.698 355.205 380.803 332.257C394.909 309.308 402.378 282.917 402.387 256C402.387 252.248 402.24 248.496 401.962 244.787C401.567 239.565 402.727 234.343 405.298 229.776C407.868 225.21 411.734 221.502 416.411 219.12L429 212.726V183Z" fill="white"/>
</g>
<defs>
<clipPath id="clip0_24_1103">
<rect width="346" height="292" fill="white" transform="translate(83 110)"/>
</clipPath>
</defs>
</svg>
