<svg width="513" height="513" viewBox="0 0 513 513" fill="none" xmlns="http://www.w3.org/2000/svg">
<circle cx="256.328" cy="256.031" r="255.5" fill="black" stroke="white"/>
<circle cx="255.859" cy="256.31" r="210.164" fill="black" stroke="white" stroke-width="4"/>
<g clip-path="url(#clip0_24_1103)">
<path d="M320.454 203.012L298.659 214.105L193.418 267.655C193.062 264.943 192.883 262.211 192.882 259.477C192.896 248.565 195.764 237.847 201.201 228.384C206.638 218.92 214.455 211.04 223.879 205.523C233.302 200.007 244.005 197.045 254.927 196.932C265.849 196.819 276.611 199.558 286.147 204.879L298.621 198.529L300.482 197.581C289.054 189.295 275.556 184.327 261.479 183.225C247.402 182.124 233.294 184.932 220.715 191.34C208.135 197.747 197.574 207.505 190.199 219.533C182.823 231.562 178.92 245.394 178.922 259.5C178.922 261.448 178.996 263.388 179.144 265.321C179.351 268.059 178.744 270.796 177.397 273.189C176.051 275.582 174.026 277.524 171.578 278.77L165 282.121V297.75L184.367 287.889L190.638 284.691L196.818 281.547L307.765 225.075L320.231 218.733L346 205.613V189.992L320.454 203.012Z" fill="white"/>
<path d="M346 221.25L203.121 293.925L190.654 300.282L165 313.341V328.954L190.478 315.988L212.272 304.895L317.62 251.269C317.976 253.998 318.155 256.748 318.156 259.5C318.149 270.424 315.283 281.156 309.841 290.631C304.398 300.106 296.57 307.994 287.133 313.513C277.696 319.031 266.978 321.988 256.043 322.089C245.109 322.19 234.338 319.433 224.8 314.09L224.034 314.496L210.51 321.381C221.935 329.667 235.431 334.636 249.506 335.74C263.581 336.844 277.687 334.04 290.267 327.637C302.846 321.233 313.409 311.481 320.787 299.456C328.166 287.432 332.074 273.604 332.078 259.5C332.078 257.534 332.002 255.568 331.856 253.625C331.649 250.889 332.256 248.152 333.601 245.759C334.945 243.367 336.968 241.424 339.414 240.176L346 236.825V221.25Z" fill="white"/>
</g>
<defs>
<clipPath id="clip0_24_1103">
<rect width="181" height="153" fill="white" transform="translate(165 183)"/>
</clipPath>
</defs>
</svg>
