<svg width="512" height="513" viewBox="0 0 512 513" fill="none" xmlns="http://www.w3.org/2000/svg">
<circle cx="256" cy="256.159" r="255.5" fill="black" stroke="white"/>
<circle cx="256" cy="261.438" r="210.164" fill="black" stroke="white" stroke-width="4"/>
<g clip-path="url(#clip0_24_1120)">
<path d="M321.111 185.432H347.127L292.986 239.015C273.379 258.41 241.591 258.41 221.97 239.015L167.809 185.432H193.845L234.978 226.136C240.971 232.04 249.048 235.35 257.462 235.35C265.877 235.35 273.953 232.04 279.946 226.136L321.111 185.432Z" fill="white"/>
<path d="M193.512 334.432H167.479L221.971 280.518C241.577 261.123 273.366 261.123 292.986 280.518L347.479 334.432H321.463L279.979 293.397C273.985 287.493 265.909 284.183 257.494 284.183C249.08 284.183 241.003 287.493 235.01 293.397L193.512 334.432Z" fill="white"/>
</g>
<defs>
<clipPath id="clip0_24_1120">
<rect width="180" height="149" fill="white" transform="translate(167.479 185.432)"/>
</clipPath>
</defs>
</svg>
