<svg width="512" height="513" viewBox="0 0 512 513" fill="none" xmlns="http://www.w3.org/2000/svg">
<circle cx="256" cy="256.159" r="256" fill="black"/>
<g clip-path="url(#clip0_24_1120)">
<path d="M362.908 137H406.412L315.877 226.186C283.09 258.467 229.933 258.467 197.123 226.186L106.553 137H150.092L218.875 204.75C228.897 214.577 242.403 220.085 256.474 220.085C270.545 220.085 284.051 214.577 294.072 204.75L362.908 137Z" fill="white"/>
<path d="M149.533 385H106L197.123 295.264C229.91 262.983 283.067 262.983 315.877 295.264L407 385H363.496L294.125 316.7C284.103 306.873 270.597 301.365 256.526 301.365C242.455 301.365 228.95 306.873 218.928 316.7L149.533 385Z" fill="white"/>
</g>
<defs>
<clipPath id="clip0_24_1120">
<rect width="301" height="248" fill="white" transform="translate(106 137)"/>
</clipPath>
</defs>
</svg>
