<svg width="513" height="512" viewBox="0 0 513 512" fill="none" xmlns="http://www.w3.org/2000/svg">
<circle cx="256.25" cy="256" r="255.5" fill="black" stroke="white"/>
<g clip-path="url(#clip0_75_61)">
<path d="M269.371 357C255.476 357 245.334 353.614 238.945 346.842C233.027 341.11 229.593 333.24 229.393 324.953C229.321 322.436 229.897 319.943 231.066 317.719C232.156 315.797 233.731 314.203 235.629 313.099C237.836 311.985 240.268 311.406 242.734 311.406C245.199 311.406 247.631 311.985 249.838 313.099C251.733 314.199 253.3 315.795 254.375 317.719C255.578 319.932 256.176 322.429 256.109 324.953C256.233 327.968 255.378 330.941 253.675 333.418C252.255 335.44 250.226 336.942 247.892 337.699C250.175 340.64 253.405 342.677 257.019 343.456C261.063 344.644 265.252 345.255 269.463 345.272C275.038 345.321 280.499 343.669 285.132 340.531C289.939 337.096 293.524 332.185 295.355 326.526C297.676 319.792 298.809 312.696 298.702 305.565C298.889 298.13 297.649 290.729 295.05 283.771C293.096 278.207 289.386 273.447 284.493 270.227C279.945 267.316 274.665 265.788 269.283 265.826C264.593 266.228 260.071 267.781 256.109 270.351L246.339 275.306V270.351L290.243 210.765H229.393V272.598C229.221 277.06 230.388 281.47 232.74 285.249C233.877 286.896 235.416 288.217 237.207 289.085C238.998 289.953 240.981 290.339 242.962 290.204C246.623 290.129 250.164 288.867 253.062 286.603C256.348 284.167 259.207 281.191 261.521 277.799C261.729 277.205 262.114 276.689 262.621 276.323C263.029 275.966 263.549 275.77 264.088 275.769C265.145 275.866 266.146 276.297 266.948 276.999C267.965 278.149 268.519 279.643 268.5 281.185C268.382 282.222 268.199 283.25 267.952 284.263C265.79 289.557 262.167 294.108 257.516 297.372C253.195 300.329 248.093 301.898 242.877 301.871C229.702 301.871 220.575 299.244 215.496 293.991C212.885 291.087 210.873 287.686 209.577 283.986C208.282 280.286 207.728 276.362 207.95 272.443V210.765H177V199.276H208.094V173.081L200.975 165.874V160H221.633L229.393 164.064V199.276L309.775 199.029L317.778 207.155L268.489 257.263C271.466 256.052 274.602 255.284 277.798 254.985C284.123 255.266 290.295 257.048 295.813 260.188C302.203 263.261 307.589 268.123 311.331 274.198C314.684 279.341 317.057 285.072 318.329 291.097C319.374 295.85 319.935 300.698 320.002 305.566C320.035 314.857 317.953 324.03 313.918 332.376C310.091 340.457 303.65 346.973 295.662 350.845C287.485 354.921 278.487 357.028 269.371 357Z" fill="white"/>
</g>
<defs>
<clipPath id="clip0_75_61">
<rect width="143" height="197" fill="white" transform="translate(177 160)"/>
</clipPath>
</defs>
</svg>
