<svg width="513" height="513" viewBox="0 0 513 513" fill="none" xmlns="http://www.w3.org/2000/svg">
<circle cx="256.797" cy="256.909" r="255.5" fill="black" stroke="white"/>
<path d="M247.263 295.077H308.886V325.889H272.527V351.959H240.907V326.697H202.986C202.986 316.408 201.424 306.173 203.793 296.693C204.601 291.953 210.096 287.212 214.081 282.473C225.932 268.252 237.783 254.031 250.442 239.811C255.181 234.262 259.922 229.522 265.47 223.22H206.218V192.408H240.96V166.341H271.773V191.597H309.694C309.694 201.885 311.256 212.12 308.886 221.6C308.079 226.341 302.584 231.08 298.597 235.821C286.748 250.041 274.897 264.262 262.238 278.483C257.496 284.035 252.758 289.528 247.263 295.077Z" fill="white"/>
</svg>
