<svg width="513" height="513" viewBox="0 0 513 513" fill="none" xmlns="http://www.w3.org/2000/svg">
<circle cx="256.76" cy="256.594" r="255.5" fill="black" stroke="white"/>
<g clip-path="url(#clip0_40_542)">
<path d="M347.996 238.891L312.326 254.877L217.697 303.289L312.326 349.018V273.431L347.996 257.274V368.942L312.326 384.927L172.996 317.904V282.28L269.442 234.724L172.996 188.139V152.001L209.234 136.016L347.996 203.153V238.891Z" fill="white"/>
<path d="M172.996 152.001L312.326 219.138L347.996 203.153L209.234 136.016L172.996 152.001Z" fill="#434444"/>
<path d="M312.327 218.987L347.997 203.002V238.74L312.327 254.725V218.987Z" fill="#373737"/>
<path d="M172.996 152.033V188.171L269.442 234.756L172.996 282.312V317.936L312.326 384.959V349.107L217.697 303.321L312.326 254.909V219.171L172.996 152.033Z" fill="white"/>
<path d="M312.327 384.693L347.997 368.707V257.04L312.327 273.196V384.693Z" fill="#373737"/>
</g>
<defs>
<clipPath id="clip0_40_542">
<rect width="175" height="249" fill="white" transform="translate(173 136)"/>
</clipPath>
</defs>
</svg>
