<svg width="38" height="34" viewBox="0 0 38 34" fill="none" xmlns="http://www.w3.org/2000/svg">
<path d="M36.7239 9.32809C34.3771 8.91001 32.0061 9.02508 29.6516 9.6691C29.8174 9.16549 29.9536 8.64971 30.0577 8.12597C30.3734 6.53738 30.1634 4.97961 29.4514 3.62119C28.7915 2.36264 27.7229 1.3469 26.443 0.761007C25.1559 0.172239 23.7572 0.0461871 22.3983 0.396225C21.1062 0.729538 19.9025 1.49385 18.8855 2.62177C17.8685 1.49385 16.6648 0.729377 15.3728 0.396225C14.0139 0.0458193 12.6154 0.171841 11.3281 0.761007C10.0483 1.34653 8.97964 2.36227 8.31965 3.62119C7.60731 4.97965 7.3977 6.53701 7.71336 8.12597C7.81733 8.64958 7.95368 9.16509 8.11954 9.6691C5.76494 9.02506 3.39408 8.91001 1.04723 9.32809C0.575224 9.41207 0.23291 9.821 0.23291 10.3005L0.23291 23.6102C0.23291 24.1547 0.675932 24.5977 1.22043 24.5977L5.3397 24.5977C5.83014 24.5977 6.25069 24.2985 6.41108 23.835L6.50525 23.5632C8.41643 24.2755 9.88826 25.8068 10.7084 26.6608C10.7903 26.746 10.8665 26.8254 10.9361 26.8967L16.7954 32.9004C17.1548 33.2689 17.6396 33.4731 18.1607 33.4765L18.173 33.4765C18.6966 33.4765 19.1876 33.2738 19.5564 32.9049C19.7942 32.6671 19.9576 32.3821 20.0468 32.08C20.3859 32.2745 20.772 32.3785 21.1748 32.3785C21.781 32.3785 22.3502 32.1435 22.7768 31.7168C23.1636 31.33 23.3811 30.837 23.4291 30.3305C23.6358 30.3915 23.8528 30.423 24.0752 30.423C24.6815 30.423 25.2506 30.188 25.6772 29.7613C26.0792 29.3593 26.311 28.8312 26.3364 28.2637C27.0659 28.4229 27.8594 28.2199 28.4256 27.6536C29.2604 26.8191 29.3046 25.5107 28.5574 24.5989C28.7645 24.5604 28.9705 24.5011 29.1732 24.4179C29.7574 24.1797 30.2967 23.9086 30.8182 23.6466C30.957 23.577 31.0917 23.5094 31.2259 23.4427L31.3615 23.8345C31.522 24.2979 31.9424 24.5973 32.4329 24.5973L36.5521 24.5973C37.0966 24.5973 37.5397 24.1542 37.5397 23.6097L37.5398 10.3007C37.5386 9.82121 37.1959 9.41266 36.7243 9.3283L36.7239 9.32809ZM8.78905 7.91269C8.18761 4.88389 9.86003 2.63989 11.7843 1.75953C13.5902 0.933301 16.2904 1.03936 18.453 3.81361C18.557 3.9471 18.7167 4.02494 18.8857 4.02494C19.0549 4.02494 19.2145 3.9471 19.3184 3.81361C21.4809 1.03936 24.1809 0.933301 25.9871 1.75953C27.9114 2.63982 29.5835 4.88379 28.982 7.91269C28.8333 8.66068 28.6143 9.39065 28.3306 10.0874C28.1137 10.1653 27.8967 10.2472 27.6805 10.3339C27.1905 10.5305 26.9423 11.075 27.1151 11.5736L27.346 12.2401C25.8639 12.2459 24.6377 11.8585 23.3501 11.4508C22.9616 11.328 22.5599 11.2006 22.1468 11.0831C20.232 10.5378 18.3021 11.0073 16.852 12.3711L16.6686 12.5435C14.1678 13.1085 12.4443 13.0713 10.3783 12.3814L10.658 11.5736C10.8308 11.075 10.5822 10.5305 10.0926 10.3339C9.87603 10.2471 9.65935 10.1653 9.44202 10.0875C9.15769 9.39066 8.93815 8.66029 8.78949 7.91271L8.78905 7.91269ZM5.33883 23.5004L1.32957 23.5004L1.32957 10.3926C4.06607 9.92254 6.84277 10.2325 9.58549 11.3138L5.37394 23.476C5.36741 23.4953 5.35957 23.5006 5.33907 23.5006L5.33883 23.5004ZM27.6481 26.878C27.1924 27.3337 26.4513 27.3333 25.9962 26.878L22.4172 23.2182C22.2055 23.0012 21.8583 22.9971 21.6414 23.2088C21.4245 23.4205 21.4203 23.7677 21.632 23.9846L24.8955 27.3288C24.8963 27.3296 24.8967 27.33 24.8976 27.3309C24.8984 27.3317 24.8993 27.333 24.9001 27.3338C25.1191 27.5532 25.2403 27.8464 25.2403 28.1596C25.2403 28.4728 25.1195 28.7664 24.9001 28.9854C24.681 29.2049 24.3874 29.3257 24.0742 29.3257C23.761 29.3257 23.4674 29.2049 23.2484 28.9858L19.517 25.1742C19.3053 24.9572 18.9581 24.9531 18.7412 25.1648C18.5242 25.3765 18.5201 25.7236 18.7318 25.9406L21.9953 29.2848C21.9961 29.2856 21.9964 29.286 21.9974 29.2869C21.9981 29.2877 21.9991 29.289 21.9998 29.2898C22.4551 29.7451 22.4551 30.4861 21.9998 30.9417C21.5445 31.3974 20.8031 31.397 20.3479 30.9417L16.2962 26.8101C16.0845 26.5931 15.7373 26.5889 15.5204 26.8007C15.3034 27.0124 15.2993 27.3595 15.511 27.5765L18.7745 30.9207C18.7752 30.9215 18.7756 30.9219 18.7766 30.9228C18.7773 30.9236 18.7783 30.9249 18.779 30.9257C19.111 31.2577 19.111 31.7981 18.779 32.1301C18.6177 32.2914 18.402 32.3802 18.1714 32.3802L18.1661 32.3802C17.9409 32.379 17.7325 32.2918 17.5794 32.1349L11.7205 26.1302C11.6526 26.0606 11.5788 25.9837 11.499 25.9005C10.6121 24.9768 9.0195 23.3199 6.86411 22.5262L10.0179 13.419C11.249 13.8304 12.3844 14.0323 13.5992 14.0323C14.1142 14.0323 14.644 13.9955 15.2004 13.9234L13.8395 15.2028C13.2139 15.7912 12.8835 16.5555 12.8835 17.4145L12.8835 23.1297C12.8835 23.4327 13.1291 23.6782 13.432 23.6782C15.8733 23.6782 18.3985 22.1351 18.3985 19.5533C18.3985 18.6407 19.1212 17.993 19.6672 17.5479L25.8786 23.7556C26.1766 24.0536 26.5186 24.2792 26.8853 24.4299L27.639 25.218C28.0975 25.696 28.1011 26.4256 27.6483 26.8784L27.6481 26.878ZM30.324 22.6665C29.8213 22.9191 29.3013 23.1803 28.7567 23.4026C28.0103 23.7072 27.2243 23.5488 26.6539 22.9789L20.0911 16.4192C19.8856 16.2136 19.5556 16.2042 19.3382 16.3975C19.2776 16.4516 19.1945 16.5183 19.0986 16.5956C18.4705 17.1025 17.3013 18.0462 17.3013 19.5525C17.3013 20.6301 16.6684 21.3289 16.137 21.7253C15.5438 22.1679 14.7793 22.4569 13.9801 22.5486L13.9801 17.4139C13.9801 16.8502 14.1799 16.3878 14.5906 16.0018L17.6015 13.1707C18.7638 12.078 20.3102 11.7018 21.8448 12.1385C22.2424 12.2515 22.6362 12.3764 23.0174 12.4972C24.4332 12.9454 25.8948 13.4069 27.7218 13.3288L30.8628 22.3985C30.6813 22.4873 30.5011 22.5778 30.3243 22.6663L30.324 22.6665ZM36.441 23.5004L32.4318 23.5004C32.4116 23.5004 32.4039 23.4947 32.3974 23.4759L28.1852 11.3136C30.9274 10.2323 33.7041 9.92243 36.4411 10.3925L36.441 23.5004Z" fill="white"/>
</svg>
