<svg width="15" height="16" viewBox="0 0 15 16" fill="none" xmlns="http://www.w3.org/2000/svg">
<path d="M0.152562 14.6932C-0.0344136 14.8964 -0.021253 15.2127 0.181958 15.3997C0.385168 15.5867 0.701477 15.5735 0.888453 15.3703L0.152562 14.6932ZM14.2875 0.591539C14.276 0.315634 14.0431 0.101276 13.7672 0.112756L9.27106 0.299826C8.99516 0.311306 8.7808 0.544275 8.79228 0.82018C8.80376 1.09608 9.03673 1.31044 9.31263 1.29896L13.3092 1.13268L13.4755 5.12922C13.4869 5.40512 13.7199 5.61948 13.9958 5.608C14.2717 5.59652 14.4861 5.36355 14.4746 5.08765L14.2875 0.591539ZM0.888453 15.3703L14.1559 0.950874L13.42 0.273774L0.152562 14.6932L0.888453 15.3703Z" fill="white"/>
</svg>
