<svg width="35" height="35" viewBox="0 0 35 35" fill="none" xmlns="http://www.w3.org/2000/svg">
<path d="M3.30366 0.8396H21.1504C21.9101 0.8396 22.6027 1.15091 23.1024 1.65069C23.6022 2.15048 23.9135 2.84163 23.9135 3.60273V11.4666H31.7774C32.5371 11.4666 33.2297 11.7779 33.7294 12.2777C34.2292 12.7775 34.5405 13.4686 34.5405 14.2297V32.0765C34.5405 32.8362 34.2292 33.5287 33.7294 34.0285C33.2297 34.5283 32.5385 34.8396 31.7774 34.8396H13.9306C13.1709 34.8396 12.4784 34.5283 11.9786 34.0285C11.4788 33.5287 11.1675 32.8376 11.1675 32.0765V24.2126H3.30366C2.54396 24.2126 1.8514 23.9013 1.35162 23.4015C0.851834 22.9017 0.540527 22.2106 0.540527 21.4495V3.60273C0.540527 2.84303 0.851834 2.15048 1.35162 1.65069C1.8514 1.15091 2.54256 0.8396 3.30366 0.8396ZM13.0209 12.8319L22.5456 22.3566C22.717 22.0938 22.8155 21.7825 22.8155 21.4484V20.6545L14.7217 12.5606H13.9277C13.5921 12.5606 13.2809 12.6606 13.0196 12.8305L13.0209 12.8319ZM21.6686 23.0304L12.3452 13.7071C12.291 13.8699 12.2624 14.0455 12.2624 14.2255V15.5963L19.779 23.1129H21.1498C21.3312 23.1129 21.5054 23.0843 21.6682 23.0301L21.6686 23.0304ZM19.7965 12.5604L22.8153 15.5792V12.5604H19.7965ZM22.8153 17.13L18.2457 12.5604H16.2723L22.814 19.1022V17.1287L22.8153 17.13ZM12.2627 19.1206L16.2553 23.1131H18.2273L12.2628 17.1487L12.2627 19.1206ZM14.7045 23.1131L12.2627 20.6713V23.1131H14.7045ZM23.9124 12.5606V21.4471C23.9124 22.2039 23.6026 22.895 23.1014 23.3963L23.0985 23.3991C22.5973 23.8989 21.9076 24.2088 21.1507 24.2088H12.2642V32.0726C12.2642 32.531 12.4527 32.9466 12.754 33.2493C13.0553 33.5506 13.4723 33.7391 13.9307 33.7391H31.7774C32.2358 33.7391 32.6513 33.5506 32.9541 33.2493C33.2554 32.948 33.4438 32.531 33.4438 32.0726V14.2259C33.4438 13.7675 33.2554 13.3519 32.9541 13.0492C32.6528 12.7479 32.2358 12.5594 31.7774 12.5594H23.9135L23.9124 12.5606ZM13.9292 11.4639H22.8158V3.60002C22.8158 3.14164 22.6273 2.72608 22.326 2.42337C22.0247 2.12207 21.6077 1.93358 21.1493 1.93358H3.30256C2.84418 1.93358 2.42863 2.12207 2.12591 2.42337C1.82461 2.72467 1.63612 3.14164 1.63612 3.60002V21.4468C1.63612 21.9052 1.82461 22.3207 2.12591 22.6234C2.42721 22.9247 2.84418 23.1132 3.30256 23.1132H11.1664V14.2267C11.1664 13.4699 11.4763 12.7787 11.9775 12.2775L11.9804 12.2747C12.4816 11.7749 13.1713 11.465 13.9281 11.465L13.9292 11.4639Z" fill="white"/>
</svg>
