<svg xmlns="http://www.w3.org/2000/svg" width="30" height="30" viewBox="0 0 30 30" fill="#fff"><path d="M4.425 1.671A2.74 2.74 0 0 0 1.5 4.4a2.71 2.71 0 0 0 2.869 2.728H4.4a2.734 2.734 0 1 0 .028-5.457ZM4.4 6.128h-.031a1.736 1.736 0 1 1 .056-3.457A1.737 1.737 0 1 1 4.4 6.128M6.541 8.431H2.253a.5.5 0 0 0-.5.5v12.9a.5.5 0 0 0 .5.5h4.288a.5.5 0 0 0 .5-.5v-12.9a.5.5 0 0 0-.5-.5m-.5 12.9H2.753v-11.9h3.288ZM17.064 8.128A4.7 4.7 0 0 0 13.7 9.362v-.431a.5.5 0 0 0-.5-.5H8.914a.5.5 0 0 0-.5.523c.053 1.183 0 12.756 0 12.873a.5.5 0 0 0 .5.5H13.2a.5.5 0 0 0 .5-.5v-7.2a2.8 2.8 0 0 1 .1-.86 1.87 1.87 0 0 1 1.737-1.254c.413 0 1.671 0 1.671 2.417v6.9a.5.5 0 0 0 .5.5H22a.5.5 0 0 0 .5-.5v-7.4c0-3.945-2.033-6.302-5.436-6.302m4.436 13.2h-3.287v-6.4c0-2.973-1.673-3.417-2.671-3.417a2.83 2.83 0 0 0-2.664 1.878 3.3 3.3 0 0 0-.177 1.236v6.7H9.416c.009-2.058.04-9.654.009-11.9H12.7v1.328a.5.5 0 0 0 .92.272 3.77 3.77 0 0 1 3.443-1.9c2.819 0 4.436 1.934 4.436 5.305Z"></path></svg>