<?xml version="1.0" encoding="UTF-8"?>
<svg width="1200pt" height="1200pt" version="1.1" viewBox="0 0 1200 1200" xmlns="http://www.w3.org/2000/svg">
 <path d="m1008.3 141.2h-816.53c-50.898 0.070312-99.688 20.348-135.64 56.379-35.953 36.027-56.129 84.855-56.094 135.75v533.34c-0.035156 50.898 20.141 99.727 56.094 135.75 35.953 36.031 84.742 56.309 135.64 56.379h816.53c50.898-0.070312 99.688-20.348 135.64-56.379 35.953-36.027 56.129-84.855 56.094-135.75v-533.34c0.035156-50.898-20.141-99.727-56.094-135.75-35.953-36.031-84.742-56.309-135.64-56.379zm-816.53 60.133h816.53c34.961 0.035157 68.477 13.969 93.16 38.727 24.684 24.758 38.512 58.312 38.441 93.273v4.5352h-1080v-4.5352c-0.070313-35.004 13.793-68.602 38.535-93.367 24.742-24.766 58.324-38.668 93.332-38.633zm816.53 797.34h-816.53c-34.961-0.035157-68.477-13.969-93.16-38.727-24.684-24.758-38.512-58.312-38.441-93.273v-346.67h1080v346.67c0.070313 35.004-13.793 68.602-38.535 93.367-24.742 24.766-58.324 38.668-93.332 38.633z" fill="#fff"/>
</svg>
