<?xml version="1.0" encoding="UTF-8"?>
<svg width="1200pt" height="1200pt" version="1.1" viewBox="0 0 1200 1200" xmlns="http://www.w3.org/2000/svg">
 <g fill="#fff">
  <path d="m1061.4 999.36h-922.8c-35.039 0-63.602-28.559-63.602-63.602l0.003906-671.52c0-35.039 28.559-63.602 63.602-63.602h922.8c35.039 0 63.602 28.559 63.602 63.602v671.52c-0.003906 35.043-28.562 63.602-63.605 63.602zm-922.8-738.72c-2.0391 0-3.6016 1.5586-3.6016 3.6016v671.52c0 2.0391 1.5586 3.6016 3.6016 3.6016h922.8c2.0391 0 3.6016-1.5586 3.6016-3.6016l-0.003906-671.52c0-2.0391-1.5586-3.6016-3.6016-3.6016z"/>
  <path d="m270.96 636.36c-4.5586 0-9.2383-1.8008-12.719-5.2812-7.0781-7.0781-7.0781-18.48 0-25.441l98.281-98.281-102.12-102.12c-7.0781-7.0781-7.0781-18.48 0-25.441 7.0781-7.0781 18.48-7.0781 25.441 0l114.84 114.84c7.0781 7.0781 7.0781 18.48 0 25.441l-111 111c-3.4844 3.4844-8.043 5.2852-12.723 5.2852z"/>
  <path d="m665.28 636.36h-209.88c-9.9609 0-18-8.0391-18-18s8.0391-18 18-18h209.88c9.9609 0 18 8.0391 18 18 0.003906 9.9609-8.0391 18-17.996 18z"/>
 </g>
</svg>
