<svg width="274" height="84" viewBox="0 0 274 84" fill="none" xmlns="http://www.w3.org/2000/svg">
<circle cx="42" cy="42" r="42" fill="#FFFFFE"/>
<path d="M42 64L62 29H22L42 64Z" fill="#012E43"/>
<path d="M104 65.5389V18.3228H110.458V59.4063H129.852V65.5389H104Z" fill="white"/>
<path d="M157.051 50.853V30.1268H163.321V65.5389H157.177V59.4063H156.842C156.104 61.2968 154.92 62.8722 153.29 64.1326C151.673 65.3775 149.66 66 147.25 66C145.188 66 143.363 65.5005 141.774 64.5014C140.2 63.487 138.96 61.9885 138.054 60.0058C137.163 58.023 136.717 55.5716 136.717 52.6513V30.1268H142.966V51.8213C142.966 54.2344 143.572 56.1556 144.784 57.585C145.996 59.0144 147.57 59.7291 149.507 59.7291C150.677 59.7291 151.841 59.4063 152.997 58.7608C154.167 58.1153 155.136 57.1393 155.902 55.8328C156.682 54.5264 157.065 52.8665 157.051 50.853Z" fill="white"/>
<path d="M176.649 30.1268L183.734 43.9135L190.881 30.1268H197.715L187.705 47.8328L197.799 65.5389H190.965L183.734 52.3055L176.524 65.5389H169.669L179.659 47.8328L169.794 30.1268H176.649Z" fill="white"/>
<path d="M201.799 65.5516V19.8306H208.365V41.6642H208.896L227.148 19.8306H235.414L217.863 40.414L235.477 65.5516H227.573L213.507 45.1245L208.365 51.3307V65.5516H201.799Z" fill="white"/>
<path d="M243.068 65.5516V31.2609H249.422V65.5516H243.068ZM246.277 25.9699C245.172 25.9699 244.223 25.5829 243.43 24.809C242.651 24.0202 242.261 23.0826 242.261 21.9961C242.261 20.8948 242.651 19.9571 243.43 19.1832C244.223 18.3944 245.172 18 246.277 18C247.382 18 248.324 18.3944 249.103 19.1832C249.896 19.9571 250.293 20.8948 250.293 21.9961C250.293 23.0826 249.896 24.0202 249.103 24.809C248.324 25.5829 247.382 25.9699 246.277 25.9699Z" fill="white"/>
<path d="M273.204 31.2609V36.6188H255.377V31.2609H273.204ZM260.157 23.0454H266.511V55.4831C266.511 56.778 266.695 57.7528 267.063 58.4077C267.431 59.0476 267.906 59.4867 268.487 59.7248C269.082 59.9481 269.726 60.0597 270.42 60.0597C270.93 60.0597 271.377 60.0225 271.759 59.9481C272.141 59.8737 272.439 59.8141 272.651 59.7695L273.799 65.2837C273.431 65.4325 272.906 65.5813 272.226 65.7302C271.547 65.8939 270.697 65.9832 269.677 65.9981C268.005 66.0278 266.447 65.7153 265.002 65.0604C263.557 64.4056 262.388 63.3935 261.496 62.0243C260.604 60.655 260.157 58.936 260.157 56.8673V23.0454Z" fill="white"/>
</svg>
