<svg width="513" height="512" viewBox="0 0 513 512" fill="none" xmlns="http://www.w3.org/2000/svg">
<circle cx="256.184" cy="256" r="256" fill="black"/>
<g clip-path="url(#clip0_40_50)">
<path d="M410 252.082C410 165.77 340.23 96 254.082 96C167.934 96 98 165.77 98 252.082C98 338.394 167.77 408.164 254.082 408.164C340.394 408.164 410 338.23 410 252.082Z" fill="white"/>
<path d="M224.929 259.616C238.359 257.487 247.367 244.876 245.238 231.446C243.109 218.016 230.498 209.008 217.068 211.137C203.638 213.266 194.63 225.877 196.759 239.307C199.052 252.737 211.663 261.745 224.929 259.616ZM289.131 259.616C302.561 257.487 311.569 244.876 309.439 231.446C307.31 218.016 294.699 209.008 281.269 211.137C267.839 213.266 258.832 225.877 260.961 239.307C263.09 252.737 275.701 261.745 289.131 259.616Z" fill="black"/>
<path d="M253.099 134.161C186.441 134.161 132.394 189.191 132.394 256.995H163.184C163.184 206.06 203.147 164.951 252.936 164.951C302.888 164.951 342.687 206.224 342.687 256.995H373.477C373.805 189.191 319.758 134.161 253.099 134.161Z" fill="black"/>
</g>
<defs>
<clipPath id="clip0_40_50">
<rect width="312" height="312" fill="white" transform="translate(98 96)"/>
</clipPath>
</defs>
</svg>
