<svg width="513" height="513" viewBox="0 0 513 513" fill="none" xmlns="http://www.w3.org/2000/svg">
<circle cx="256.183" cy="256.09" r="256" fill="black"/>
<g clip-path="url(#clip0_20_11)">
<path d="M192.61 256.983C191.96 268.295 200.662 277.98 211.968 278.631C212.374 278.631 212.781 278.631 213.188 278.631C224.574 278.631 233.765 269.435 233.684 258.041C233.684 246.647 224.493 237.45 213.106 237.532C202.208 237.532 193.18 246.077 192.61 256.983Z" fill="white"/>
<path d="M115.995 251.693C112.335 251.449 109.163 254.297 109 257.959C108.837 261.622 111.603 264.796 115.263 264.959C118.923 265.203 122.013 262.354 122.257 258.692C122.501 255.03 119.655 251.937 115.995 251.693Z" fill="white"/>
<path d="M191.309 137.672C194.562 136.044 195.864 131.975 194.237 128.719C192.61 125.464 188.544 124.162 185.29 125.79C182.037 127.417 180.736 131.405 182.362 134.661C183.989 137.997 187.974 139.381 191.309 137.672Z" fill="white"/>
<path d="M212.13 174.051C217.173 171.528 219.206 165.343 216.685 160.297C214.164 155.251 207.982 153.217 202.94 155.74C197.897 158.262 195.864 164.448 198.385 169.494C200.906 174.54 207.088 176.574 212.13 174.051Z" fill="white"/>
<path d="M142.021 199.036C145.925 201.559 151.13 200.501 153.733 196.595C156.254 192.688 155.197 187.48 151.293 184.875C147.389 182.352 142.183 183.41 139.581 187.317C136.978 191.223 138.117 196.513 142.021 199.036Z" fill="white"/>
<path d="M154.465 248.03C148.772 247.705 143.973 252.018 143.648 257.715C143.323 263.412 147.633 268.214 153.327 268.54C159.02 268.865 163.819 264.552 164.144 258.855C164.469 253.239 160.159 248.356 154.465 248.03Z" fill="white"/>
<path d="M143.16 316.964C139.012 319.08 137.304 324.126 139.419 328.358C141.533 332.508 146.576 334.218 150.805 332.101C154.953 329.985 156.661 324.94 154.547 320.708C152.432 316.557 147.308 314.848 143.16 316.964Z" fill="white"/>
<path d="M183.013 226.789C188.625 230.451 196.108 228.905 199.687 223.289C203.347 217.674 201.801 210.186 196.189 206.605C190.577 202.943 183.095 204.489 179.516 210.105C175.856 215.639 177.401 223.127 183.013 226.789Z" fill="white"/>
<path d="M309.486 173.237C314.204 176.33 320.629 175.028 323.72 170.308C326.81 165.587 325.509 159.158 320.792 156.065C316.074 152.973 309.649 154.275 306.558 158.995C303.386 163.797 304.688 170.145 309.486 173.237Z" fill="white"/>
<path d="M330.471 137.021C333.562 139.055 337.628 138.16 339.662 135.067C341.695 131.975 340.8 127.906 337.71 125.871C334.619 123.836 330.552 124.732 328.519 127.743C326.567 130.835 327.462 134.986 330.471 137.021Z" fill="white"/>
<path d="M311.032 237.369C299.727 236.718 289.967 245.426 289.398 256.738C288.747 268.051 297.45 277.817 308.755 278.387C309.162 278.387 309.568 278.387 309.894 278.387C321.199 278.387 330.39 269.19 330.39 257.796C330.471 246.972 321.931 237.938 311.032 237.369Z" fill="white"/>
<path d="M218.882 225.324C222.379 232.242 229.455 236.637 237.263 236.637C248.568 236.637 257.759 227.44 257.759 216.046C257.759 212.872 257.027 209.698 255.563 206.768C250.439 196.595 238.076 192.526 227.991 197.653C217.824 202.862 213.758 215.232 218.882 225.324Z" fill="white"/>
<path d="M379.839 199.037C383.987 196.921 385.614 191.793 383.499 187.643C381.385 183.492 376.261 181.864 372.113 183.98C367.965 186.096 366.338 191.142 368.371 195.293C370.567 199.444 375.61 201.153 379.839 199.037Z" fill="white"/>
<path d="M327.787 205.548C321.849 208.559 319.409 215.802 322.419 221.743C325.428 227.684 332.667 230.126 338.604 227.115C344.541 224.103 346.981 216.86 343.972 210.919C340.963 204.978 333.724 202.618 327.787 205.548Z" fill="white"/>
<path d="M260.687 133.928C265.323 134.173 269.308 130.592 269.633 125.953C269.959 121.314 266.299 117.326 261.663 117C257.027 116.756 253.041 120.256 252.716 124.895C252.472 129.615 256.051 133.603 260.687 133.928Z" fill="white"/>
<path d="M260.606 187.073C267.275 187.48 272.968 182.352 273.294 175.679C273.7 169.005 268.576 163.308 261.907 162.983C255.238 162.576 249.544 167.703 249.219 174.377C248.894 181.05 253.936 186.747 260.606 187.073Z" fill="white"/>
<path d="M195.214 310.453C201.151 307.442 203.591 300.199 200.582 294.257C197.572 288.316 190.334 285.875 184.396 288.886C178.459 291.897 176.019 299.141 179.028 305.082C182.038 311.023 189.276 313.464 195.214 310.453Z" fill="white"/>
<path d="M268.413 204.733C262.232 214.256 264.835 226.952 274.351 233.137C283.867 239.322 296.555 236.718 302.736 227.196C308.917 217.674 306.315 204.978 296.799 198.792C293.464 196.595 289.56 195.456 285.575 195.456C278.661 195.456 272.236 198.955 268.413 204.733Z" fill="white"/>
<path d="M304.119 290.676C298.995 280.503 286.632 276.434 276.547 281.561C266.38 286.689 262.313 299.059 267.437 309.151C272.561 319.324 284.924 323.393 295.009 318.266C305.095 313.22 309.243 301.012 304.2 290.839C304.2 290.758 304.2 290.758 304.119 290.676Z" fill="white"/>
<path d="M339.986 289.211C334.374 285.549 326.891 287.095 323.313 292.711C319.653 298.327 321.198 305.814 326.81 309.395C332.422 313.057 339.905 311.511 343.483 305.895C347.143 300.361 345.598 292.874 339.986 289.211Z" fill="white"/>
<path d="M379.352 258.366C379.677 252.669 375.367 247.868 369.673 247.542C363.98 247.217 359.181 251.53 358.856 257.227C358.531 262.924 362.841 267.726 368.535 268.051C374.147 268.377 379.027 263.982 379.352 258.366Z" fill="white"/>
<path d="M407.737 251.041C404.077 250.797 400.905 253.646 400.742 257.308C400.58 260.97 403.345 264.144 407.005 264.307C410.665 264.551 413.755 261.703 413.999 258.041C414.162 254.378 411.397 251.286 407.737 251.041Z" fill="white"/>
<path d="M380.979 316.964C377.075 314.441 371.869 315.499 369.267 319.405C366.745 323.312 367.803 328.52 371.707 331.125C375.611 333.648 380.816 332.59 383.419 328.683C386.021 324.777 384.883 319.487 380.979 316.964Z" fill="white"/>
<path d="M192.448 378.979C189.357 376.945 185.29 377.84 183.257 380.851C181.224 383.944 182.118 388.013 185.128 390.048C188.218 392.082 192.285 391.187 194.318 388.176C196.433 385.165 195.538 381.014 192.448 378.979Z" fill="white"/>
<path d="M331.691 378.328C328.437 379.956 327.136 384.025 328.763 387.281C330.389 390.536 334.456 391.838 337.709 390.21C340.963 388.583 342.264 384.595 340.637 381.339C339.011 378.003 335.025 376.619 331.691 378.328Z" fill="white"/>
<path d="M254.587 311.267C260.768 301.745 258.165 289.049 248.649 282.782C239.133 276.597 226.445 279.201 220.183 288.723C213.92 298.245 216.604 310.941 226.12 317.208C229.455 319.405 233.359 320.545 237.344 320.545C244.339 320.626 250.764 317.127 254.587 311.267Z" fill="white"/>
<path d="M213.513 342.763C208.796 339.67 202.371 340.972 199.28 345.693C196.189 350.413 197.491 356.843 202.208 359.935C206.925 363.028 213.351 361.726 216.441 357.005C219.613 352.285 218.312 345.856 213.513 342.763Z" fill="white"/>
<path d="M261.419 382.072C256.783 381.828 252.798 385.409 252.472 390.048C252.147 394.687 255.807 398.674 260.443 399C265.079 399.244 269.064 395.745 269.39 391.106C269.634 386.385 266.055 382.397 261.419 382.072Z" fill="white"/>
<path d="M261.5 328.927C254.83 328.521 249.137 333.648 248.812 340.321C248.405 346.995 253.529 352.692 260.198 353.017C266.868 353.343 272.561 348.297 272.886 341.624C273.293 335.031 268.169 329.253 261.5 328.927Z" fill="white"/>
<path d="M310.869 341.949C305.826 344.553 303.793 350.739 306.396 355.785C308.998 360.83 315.18 362.865 320.222 360.261C325.265 357.738 327.298 351.553 324.777 346.507C322.174 341.461 315.993 339.345 310.869 341.949Z" fill="white"/>
</g>
<defs>
<clipPath id="clip0_20_11">
<rect width="305" height="282" fill="white" transform="translate(109 117)"/>
</clipPath>
</defs>
</svg>
