<svg width="513" height="513" viewBox="0 0 513 513" fill="none" xmlns="http://www.w3.org/2000/svg">
<circle cx="256.067" cy="256.499" r="256" fill="black"/>
<path fill-rule="evenodd" clip-rule="evenodd" d="M288.883 101.785L394.101 155.218C409.362 163.193 419 178.345 419 195.89V220.612H380.447V195.89C380.447 193.497 378.84 191.105 376.431 189.51L271.213 136.078C269.606 135.28 267.197 135.28 264.787 136.078L159.569 189.51C157.16 190.308 155.553 192.7 155.553 195.89V220.612H117V195.89C117 179.142 126.638 163.193 141.899 155.218L247.117 101.785C259.968 95.405 275.229 95.405 288.883 101.785ZM300.931 254.905C300.931 236.562 285.67 222.207 268 222.207C249.527 222.207 235.069 236.562 235.069 254.905C235.069 273.247 250.33 287.602 268 287.602C285.67 287.602 300.931 273.247 300.931 254.905ZM375.628 323.49C378.037 322.692 379.644 320.3 379.644 317.11V292.387H418.197V317.11C418.197 333.857 408.559 349.808 393.298 357.783L288.08 411.215C281.654 414.405 274.426 416 267.197 416C259.968 416 252.739 414.405 246.314 411.215L141.899 357.783C126.638 349.808 117 334.655 117 317.11V292.387H155.553V317.11C155.553 319.503 157.16 321.895 159.569 323.49L248.723 368.15V323.49C218.202 314.717 196.516 287.602 196.516 254.905C196.516 215.827 228.644 183.13 268.803 183.13C308.16 183.13 341.09 215.03 341.09 254.905C341.09 287.602 318.601 315.515 288.883 323.49V368.15L375.628 323.49Z" fill="white" fill-opacity="0.9"/>
</svg>
