<svg width="513" height="513" viewBox="0 0 513 513" fill="none" xmlns="http://www.w3.org/2000/svg">
<circle cx="256.18" cy="256.411" r="256" fill="black"/>
<path d="M336.047 169.78C320.941 140.899 290.363 136.548 253.862 145.173L238.932 99.9726L211.447 109.061L226.169 154.143C218.937 156.489 211.488 158.583 204.141 161.203L189.437 116.387L161.952 125.475L176.882 170.676C170.966 172.801 121.396 189.087 121.396 189.087L131.081 218.529C131.081 218.529 151.241 211.393 151.073 211.87C162.273 208.128 168.021 213.469 170.897 218.669L211.908 342.542C212.549 346.16 212.301 352.434 204.623 355.076C205.104 355.31 184.627 361.668 184.627 361.668L190.005 396.389C190.005 396.389 239.12 380.267 245.57 378.172L260.667 423.894L288.152 414.806L273.032 368.752C280.6 366.451 287.965 364.096 295.127 361.688L310.162 407.48L337.647 398.392L322.554 352.736C364.931 339.392 393.538 310.193 384.537 269.057C378.89 244.272 350.15 225.553 327.265 224.749C340.421 211.424 346.306 192.86 336.047 169.78ZM329.908 280.355C338.219 321.138 281.364 329.988 262.808 336.218L242.267 275.749C260.889 269.515 318.08 244.732 329.908 280.355ZM289.857 198.821C298.194 235.009 249.569 242.512 234.067 247.606L215.364 192.739C230.942 187.773 275.603 165.756 289.857 198.821Z" fill="white"/>
</svg>
