<svg width="513" height="513" viewBox="0 0 513 513" fill="none" xmlns="http://www.w3.org/2000/svg">
<circle cx="256.933" cy="256.155" r="256" fill="black"/>
<g clip-path="url(#clip0_40_168)">
<path fill-rule="evenodd" clip-rule="evenodd" d="M164.022 136.125C159.196 111.1 178.502 88 203.599 88C225.801 88 244.142 106.287 244.142 128.425V178.475C249.934 178.475 255.726 177.513 261.517 177.513C267.309 177.513 272.136 177.512 277.927 178.475V128.425C277.927 106.287 296.268 88 318.47 88C343.568 88 362.874 111.1 359.013 136.125L348.394 194.838C386.041 211.2 415 240.075 415 275.688V297.825C415 327.662 395.694 352.688 367.7 369.05C339.707 386.375 303.025 396 261.517 396C220.009 396 183.328 386.375 155.334 369.05C128.306 352.688 109 327.662 109 297.825V275.688C109 240.075 136.994 211.2 174.64 194.838L164.022 136.125ZM333.915 202.537L346.464 133.237C349.36 115.912 336.811 99.55 318.47 99.55C303.025 99.55 290.476 112.062 290.476 127.462V190.987C286.615 190.025 281.789 190.025 277.927 190.025C272.136 190.025 267.309 189.062 261.517 189.062C255.726 189.062 249.934 189.063 244.142 190.025C240.281 190.025 235.454 190.987 231.593 190.987V128.425C231.593 113.025 219.044 100.512 203.599 100.512C186.224 100.512 172.71 116.875 176.571 134.2L189.12 203.5C148.577 218.9 121.549 245.85 121.549 276.65V298.787C121.549 345.95 184.293 384.45 261.517 384.45C338.741 384.45 401.486 345.95 401.486 298.787V276.65C402.451 244.888 375.423 217.937 333.915 202.537Z" fill="white"/>
<path d="M402.451 297.825C402.451 344.987 339.707 383.488 262.483 383.488C185.259 383.488 122.514 344.987 122.514 297.825V275.688H403.416V297.825H402.451Z" fill="url(#paint0_linear_40_168)"/>
<path fill-rule="evenodd" clip-rule="evenodd" d="M176.571 134.2C172.71 116.875 186.224 100.513 203.599 100.513C219.044 100.513 231.593 113.025 231.593 128.425V191.95C241.246 190.988 250.899 190.025 261.517 190.025C271.17 190.025 280.823 190.988 290.476 191.95V128.425C290.476 113.025 303.025 100.513 318.47 100.513C335.845 100.513 349.36 116.875 346.464 134.2L333.915 203.5C374.457 218.9 402.451 245.85 402.451 276.65C402.451 323.813 339.707 362.313 262.483 362.313C185.259 362.313 122.514 323.813 122.514 276.65C122.514 245.85 149.543 218.9 190.085 203.5L176.571 134.2Z" fill="black"/>
<path d="M222.905 269.912C222.905 282.425 216.148 293.012 207.461 293.012C198.773 293.012 192.016 282.425 192.016 269.912C192.016 257.4 198.773 246.812 207.461 246.812C216.148 246.812 222.905 257.4 222.905 269.912Z" fill="white"/>
<path d="M330.054 269.912C330.054 282.425 323.297 293.012 314.609 293.012C305.921 293.012 299.164 282.425 299.164 269.912C299.164 257.4 305.921 246.812 314.609 246.812C323.297 246.812 330.054 257.4 330.054 269.912Z" fill="white"/>
</g>
<defs>
<linearGradient id="paint0_linear_40_168" x1="262.965" y1="275.688" x2="262.965" y2="383.488" gradientUnits="userSpaceOnUse">
<stop stop-color="white"/>
<stop offset="1" stop-color="#515151"/>
</linearGradient>
<clipPath id="clip0_40_168">
<rect width="306" height="308" fill="white" transform="translate(109 88)"/>
</clipPath>
</defs>
</svg>
