<svg width="512" height="513" viewBox="0 0 512 513" fill="none" xmlns="http://www.w3.org/2000/svg">
<circle cx="256.004" cy="256.38" r="256" fill="black"/>
<g clip-path="url(#clip0_40_428)">
<path d="M251.5 493C371.622 493 469 395.622 469 275.5C469 155.378 371.622 58 251.5 58C131.378 58 34 155.378 34 275.5C34 395.622 131.378 493 251.5 493Z" fill="black"/>
<path fill-rule="evenodd" clip-rule="evenodd" d="M134.891 341.222C125.925 322.346 121.206 301.582 121.206 279.403C121.206 198.236 186.8 132.641 267.967 132.641C313.27 132.641 353.381 152.933 380.28 185.022L396.324 171.337C365.651 134.529 319.404 111.406 267.967 111.406C175.002 111.406 99.97 186.438 99.97 278.931C99.97 304.414 105.633 328.481 115.543 349.716L134.891 341.222Z" fill="white"/>
<path fill-rule="evenodd" clip-rule="evenodd" d="M267.967 378.502C213.226 378.502 168.396 334.143 168.396 278.931C168.396 224.19 212.755 179.36 267.967 179.36C298.641 179.36 326.011 193.045 344.415 214.752L360.46 201.067C338.28 174.641 305.247 158.124 267.967 158.124C201.429 158.596 147.16 212.393 147.16 278.931C147.16 345.469 200.957 399.266 267.495 399.266V378.502H267.967Z" fill="white"/>
<path fill-rule="evenodd" clip-rule="evenodd" d="M303.832 309.133C295.337 319.515 282.124 326.121 267.495 326.121C241.541 326.121 220.305 304.886 220.305 278.931C220.305 252.977 241.541 231.741 267.495 231.741C282.124 231.741 294.866 238.348 303.832 248.73L321.764 233.629C308.551 218.056 289.203 208.146 267.495 208.146C228.327 208.146 196.71 239.763 196.71 278.931C196.71 318.099 228.327 349.717 267.495 349.717C287.315 349.717 305.247 341.694 318.461 328.009L303.832 309.133Z" fill="white"/>
</g>
<defs>
<clipPath id="clip0_40_428">
<rect width="435" height="435" fill="white" transform="translate(34 58)"/>
</clipPath>
</defs>
</svg>
