<svg width="513" height="513" viewBox="0 0 513 513" fill="none" xmlns="http://www.w3.org/2000/svg">
<circle cx="256.184" cy="256.09" r="256" fill="black"/>
<path fill-rule="evenodd" clip-rule="evenodd" d="M256.384 116.508L135.854 186.132V325.477L256.384 395.102L376.914 325.477V186.132L256.384 116.508ZM261.446 81.361C258.294 79.5463 254.474 79.5463 251.322 81.361L108.062 164.166C104.91 165.98 103 169.323 103 172.952V338.561C103 342.191 104.91 345.533 108.062 347.348L251.322 430.153C254.474 431.967 258.294 431.967 261.446 430.153L404.707 347.348C407.858 345.533 409.769 342.191 409.769 338.561V172.952C409.769 169.323 407.858 165.98 404.707 164.166L261.446 81.361Z" fill="white"/>
<path d="M256.384 166.935L179.501 211.346V300.167L255.907 344.292C256.193 344.483 256.384 344.769 256.384 345.151V360.337C256.384 361.101 255.525 361.578 254.856 361.196L168.136 311.151C165.748 309.814 164.315 307.33 164.315 304.561V206.953C164.315 204.278 165.748 201.7 168.136 200.363L252.564 151.558C254.952 150.221 257.817 150.221 260.109 151.558L347.211 201.7C347.88 202.082 347.88 203.037 347.211 203.419C342.054 206.475 339.475 207.812 333.649 211.059C333.363 211.25 332.981 211.25 332.694 211.059L256.384 166.935Z" fill="white"/>
<path d="M269.088 257.668C269.088 257.286 269.279 256.904 269.661 256.808L346.067 216.122C346.735 215.74 347.595 216.218 347.595 216.982V316.023C347.595 316.405 347.404 316.691 347.117 316.882L270.712 361.293C270.043 361.675 269.183 361.197 269.183 360.433V257.668H269.088Z" fill="white"/>
</svg>
