<svg width="513" height="513" viewBox="0 0 513 513" fill="none" xmlns="http://www.w3.org/2000/svg">
<circle cx="256.456" cy="256.249" r="256" fill="black"/>
<path d="M273.023 278.475H358.759C360.586 278.475 361.449 278.475 361.581 276.077C362.282 267.352 362.282 258.576 361.581 249.84C361.581 248.144 360.739 247.443 358.901 247.443H188.272C186.16 247.443 185.591 248.144 185.591 250.125V275.234C185.591 278.475 185.591 278.475 188.972 278.475H273.023ZM352.007 218.098C352.25 217.458 352.25 216.757 352.007 216.127C350.575 213.009 348.879 210.033 346.909 207.24C343.945 202.465 340.452 198.067 336.472 194.116C334.593 191.729 332.421 189.586 329.984 187.768C317.779 177.376 303.27 170.022 287.674 166.325C279.805 164.557 271.764 163.714 263.702 163.785H187.977C185.865 163.785 185.581 164.629 185.581 166.467V216.544C185.581 218.657 185.581 219.225 188.262 219.225H350.991C350.991 219.225 352.403 218.941 352.687 218.098H351.996H352.007ZM352.007 307.82C349.61 307.556 347.194 307.556 344.798 307.82H188.414C186.302 307.82 185.591 307.82 185.591 310.644V359.603C185.591 361.858 185.591 362.427 188.414 362.427H260.615C264.067 362.691 267.52 362.447 270.901 361.726C281.379 360.974 291.685 358.699 301.513 354.951C305.087 353.712 308.54 352.097 311.799 350.156H312.784C329.71 341.35 343.457 327.515 352.128 310.532C352.128 310.532 353.113 308.399 352.007 307.84V307.82ZM157.253 387.811V386.967V354.098V342.955V309.8C157.253 307.962 157.253 307.688 154.999 307.688H124.396C122.701 307.688 122 307.688 122 305.433V278.627H154.714C156.542 278.627 157.253 278.627 157.253 276.23V249.708C157.253 248.012 157.253 247.596 154.999 247.596H124.396C122.701 247.596 122 247.596 122 245.341V220.515C122 218.961 122 218.545 124.254 218.545H154.572C156.684 218.545 157.253 218.545 157.253 215.863V139.824C157.253 137.569 157.253 137 160.076 137H265.834C273.51 137.305 281.135 138.148 288.679 139.539C304.224 142.414 319.16 147.97 332.816 155.903C341.873 161.236 350.209 167.676 357.632 175.091C363.216 180.891 368.252 187.168 372.72 193.852C377.157 200.627 380.842 207.869 383.736 215.437C384.092 217.407 385.98 218.738 387.95 218.403H413.191C416.43 218.403 416.43 218.403 416.572 221.511V244.65C416.572 246.905 415.73 247.474 413.465 247.474H394.001C392.032 247.474 391.463 247.474 391.605 250.013C392.377 258.606 392.377 267.23 391.605 275.823C391.605 278.221 391.605 278.505 394.296 278.505H416.562C417.547 279.775 416.562 281.044 416.562 282.324C416.704 283.96 416.704 285.615 416.562 287.251V304.326C416.562 306.723 415.862 307.434 413.74 307.434H387.087C385.229 307.078 383.421 308.267 382.995 310.115C376.649 326.621 366.496 341.421 353.377 353.285C348.585 357.602 343.549 361.665 338.289 365.413C332.644 368.664 327.151 372.046 321.363 374.728C310.712 379.522 299.544 383.057 288.08 385.302C277.196 387.252 266.159 388.136 255.082 387.983H157.212V387.841L157.253 387.811Z" fill="#FEFEFD"/>
</svg>
