<svg width="514" height="513" viewBox="0 0 514 513" fill="none" xmlns="http://www.w3.org/2000/svg">
<circle cx="257.183" cy="256.085" r="256" fill="black"/>
<path d="M256.641 152.196C286.647 152.196 310.971 138.049 310.971 120.598C310.971 103.147 286.647 89 256.641 89C226.636 89 202.312 103.147 202.312 120.598C202.312 138.049 226.636 152.196 256.641 152.196Z" fill="white"/>
<path d="M256.641 390.28C286.647 390.28 310.971 376.133 310.971 358.682C310.971 341.231 286.647 327.084 256.641 327.084C226.636 327.084 202.312 341.231 202.312 358.682C202.312 376.133 226.636 390.28 256.641 390.28Z" fill="white"/>
<path d="M180.929 195.935C195.932 169.95 195.835 141.807 180.712 133.076C165.589 124.345 141.168 138.331 126.165 164.316C111.162 190.3 111.259 218.443 126.382 227.175C141.505 235.906 165.927 221.92 180.929 195.935Z" fill="white"/>
<path d="M387.095 314.962C402.097 288.977 402.008 260.839 386.896 252.114C371.783 243.388 347.37 257.379 332.367 283.364C317.364 309.349 317.453 337.487 332.566 346.213C347.679 354.938 372.092 340.947 387.095 314.962Z" fill="white"/>
<path d="M180.72 346.206C195.843 337.474 195.94 309.331 180.937 283.347C165.935 257.362 141.513 243.375 126.39 252.107C111.267 260.838 111.17 288.981 126.173 314.966C141.175 340.951 165.597 354.937 180.72 346.206Z" fill="white"/>
<path d="M386.909 227.182C402.022 218.457 402.111 190.319 387.108 164.334C372.106 138.349 347.692 124.358 332.58 133.083C317.467 141.809 317.378 169.947 332.381 195.932C347.383 221.916 371.797 235.908 386.909 227.182Z" fill="white"/>
</svg>
