<svg width="512" height="513" viewBox="0 0 512 513" fill="none" xmlns="http://www.w3.org/2000/svg">
<circle cx="256" cy="256.845" r="256" fill="black"/>
<g clip-path="url(#clip0_40_487)">
<path d="M151.946 232.902C155.038 239.48 162.769 252.634 162.769 252.634L251.282 106L165.088 166.356C160.063 169.838 155.811 174.481 152.719 179.897C144.602 196.534 144.602 215.879 151.946 232.902Z" fill="url(#paint0_linear_40_487)"/>
<path d="M117.159 280.878C119.092 309.121 133.393 335.43 155.811 352.454L251.282 419C251.282 419 191.371 332.722 141.124 246.831C136.099 237.932 132.62 227.873 131.074 217.426C130.301 212.784 130.301 208.141 131.074 203.498C129.915 205.819 127.209 210.849 127.209 210.849C122.184 221.295 118.705 232.515 116.773 244.122C115.613 256.503 115.613 268.884 117.159 280.878Z" fill="#A0A8D4"/>
<path d="M360.667 292.484C357.575 285.907 349.844 272.753 349.844 272.753L261.331 419L347.912 359.031C352.936 355.549 357.188 350.906 360.28 345.489C368.011 328.853 368.397 309.508 360.667 292.484Z" fill="url(#paint1_linear_40_487)"/>
<path d="M395.84 244.122C393.908 215.879 379.606 189.57 357.188 172.546L261.718 106C261.718 106 321.628 192.278 371.876 278.169C376.901 287.068 380.379 297.127 381.925 307.574C382.699 312.216 382.699 316.859 381.925 321.502C383.085 319.18 385.791 314.151 385.791 314.151C390.815 303.705 394.294 292.485 396.227 281.265C397 268.497 397 256.503 395.84 244.122Z" fill="#A0A8D4"/>
<path d="M152.719 179.897C155.811 174.481 159.677 169.838 165.088 166.356L251.282 106L162.769 252.247C162.769 252.247 155.038 239.093 151.946 232.515C144.602 215.879 144.602 196.534 152.719 179.897ZM117.159 280.878C119.092 309.121 133.393 335.43 155.811 352.454L251.282 419C251.282 419 191.371 332.722 141.124 246.831C136.099 237.932 132.62 227.873 131.074 217.426C130.301 212.784 130.301 208.141 131.074 203.498C129.915 205.82 127.209 210.849 127.209 210.849C122.184 221.295 118.705 232.515 116.773 244.122C115.613 256.503 115.613 268.884 117.159 280.878ZM360.667 292.485C357.575 285.907 349.844 272.753 349.844 272.753L261.331 419L347.912 359.031C352.937 355.549 357.188 350.906 360.28 345.489C368.011 328.853 368.397 309.508 360.667 292.485ZM395.454 244.509C393.521 216.266 379.22 189.957 356.802 172.933L261.718 106C261.718 106 321.628 192.278 371.876 278.169C376.901 287.068 380.379 297.127 381.926 307.574C382.699 312.216 382.699 316.859 381.926 321.502C383.085 319.18 385.791 314.151 385.791 314.151C390.816 303.705 394.294 292.485 396.227 281.265C397 268.497 397 256.503 395.454 244.509Z" fill="url(#paint2_linear_40_487)"/>
</g>
<defs>
<linearGradient id="paint0_linear_40_487" x1="255.308" y1="109.668" x2="141.622" y2="232.791" gradientUnits="userSpaceOnUse">
<stop offset="0.58" stop-color="#A0A8D4"/>
<stop offset="0.73" stop-color="#8791C7"/>
<stop offset="0.91" stop-color="#6470B4"/>
</linearGradient>
<linearGradient id="paint1_linear_40_487" x1="257.692" y1="415.589" x2="371.335" y2="292.554" gradientUnits="userSpaceOnUse">
<stop offset="0.58" stop-color="#A0A8D4"/>
<stop offset="0.73" stop-color="#8791C7"/>
<stop offset="0.91" stop-color="#6470B4"/>
</linearGradient>
<linearGradient id="paint2_linear_40_487" x1="256.394" y1="104.453" x2="256.394" y2="420.161" gradientUnits="userSpaceOnUse">
<stop stop-color="white"/>
<stop offset="0.18" stop-color="white"/>
<stop offset="0.57" stop-color="white"/>
<stop offset="1" stop-color="white"/>
</linearGradient>
<clipPath id="clip0_40_487">
<rect width="281" height="313" fill="white" transform="translate(116 106)"/>
</clipPath>
</defs>
</svg>
