<svg width="513" height="513" viewBox="0 0 513 513" fill="none" xmlns="http://www.w3.org/2000/svg">
<circle cx="256.942" cy="256.578" r="256" fill="black"/>
<path d="M265.729 96.9312C265.729 96.4254 266.394 96.2394 266.657 96.672L368.851 265.192C368.996 265.432 368.916 265.744 368.674 265.884L266.48 325.06C266.146 325.253 265.729 325.013 265.729 324.627L265.729 96.9312Z" fill="white" stroke="black"/>
<path d="M257.448 97.0087C257.448 96.5 256.777 96.3163 256.518 96.7542L157.133 264.798C156.993 265.035 157.07 265.34 157.306 265.482L256.691 325.027C257.025 325.227 257.448 324.987 257.448 324.598L257.448 97.0087Z" fill="white" stroke="black"/>
<path d="M159.132 282.55C158.82 282.11 159.329 281.555 159.794 281.829L257.201 339.246C257.353 339.336 257.447 339.5 257.447 339.677L257.447 419.213C257.447 419.7 256.822 419.899 256.539 419.503L256.132 419.792L256.539 419.503L159.132 282.55Z" fill="white" stroke="black"/>
<path d="M364.427 282.034C364.739 281.595 364.23 281.04 363.765 281.314L266.358 338.73C266.206 338.82 266.112 338.984 266.112 339.161L266.112 418.697C266.112 419.184 266.737 419.384 267.02 418.987L267.427 419.277L267.02 418.987L364.427 282.034Z" fill="white" stroke="black"/>
</svg>
