<svg width="513" height="513" viewBox="0 0 513 513" fill="none" xmlns="http://www.w3.org/2000/svg">
<circle cx="256.934" cy="256.155" r="256" fill="black"/>
<path fill-rule="evenodd" clip-rule="evenodd" d="M274.173 240.44L268.908 268.52L318.925 275.54L315.415 288.702L266.275 281.682C262.765 293.09 261.01 305.375 256.623 315.905C252.235 328.19 247.848 340.475 242.583 351.882C235.563 366.8 223.278 377.33 206.605 379.962C196.953 381.717 186.423 380.84 178.525 374.697C175.893 372.942 173.26 369.432 173.26 366.8C173.26 363.29 175.015 358.902 177.648 357.147C179.403 356.27 183.79 357.147 186.423 358.025C189.055 360.657 191.688 364.167 193.443 367.677C198.708 374.697 205.728 375.575 212.748 370.31C220.645 363.29 225.033 353.637 227.665 343.985C232.93 322.925 238.195 302.742 242.583 281.682V278.172L196.075 271.152L197.83 257.99L246.093 265.01L252.235 237.807L202.218 229.91L203.973 215.87L255.745 222.89C257.5 217.625 258.378 213.237 260.133 208.85C264.52 193.055 268.908 177.26 279.438 163.22C289.968 149.18 302.253 140.405 320.68 141.282C328.578 141.282 336.475 143.915 341.74 150.057C342.618 150.935 344.373 152.69 344.373 154.445C344.373 157.955 344.373 162.342 341.74 164.975C338.23 167.607 333.842 166.73 330.332 163.22C327.7 160.587 325.945 157.955 323.313 155.322C318.048 148.302 310.15 147.425 304.008 153.567C299.62 157.955 295.233 164.097 292.6 170.24C286.458 188.667 282.07 207.972 275.928 227.277L324.19 234.297L320.68 247.46L274.173 240.44Z" fill="white"/>
</svg>
