<svg width="512" height="513" viewBox="0 0 512 513" fill="none" xmlns="http://www.w3.org/2000/svg">
<circle cx="255.997" cy="256.32" r="256" fill="black"/>
<g clip-path="url(#clip0_40_466)">
<path d="M256 467C369.218 467 461 375.218 461 262C461 148.782 369.218 57 256 57C142.782 57 51 148.782 51 262C51 375.218 142.782 467 256 467Z" fill="black"/>
<path fill-rule="evenodd" clip-rule="evenodd" d="M253.01 288.479C222.687 288.479 198.344 264.135 198.344 233.813C198.344 203.49 222.687 179.146 253.01 179.146C283.333 179.146 307.677 203.49 307.677 233.813C307.677 264.135 283.333 288.479 253.01 288.479ZM253.01 151.812C298.281 151.812 335.01 188.542 335.01 233.813C335.01 279.083 298.281 315.813 253.01 315.813C207.739 315.813 171.01 279.083 171.01 233.813C171.01 188.542 207.739 151.812 253.01 151.812ZM331.167 320.083C336.719 325.635 336.719 334.177 331.167 339.302L276.5 393.969C270.948 399.521 262.406 399.521 257.281 393.969C251.729 388.417 251.729 379.875 257.281 374.75L311.948 320.083C317.073 314.531 326.042 314.531 331.167 320.083ZM362.771 165.479C362.771 173.167 356.792 179.146 349.104 179.146C341.417 179.146 335.437 173.167 335.437 165.479C335.437 157.792 341.417 151.812 349.104 151.812C356.364 151.812 362.771 157.792 362.771 165.479Z" fill="white"/>
</g>
<defs>
<clipPath id="clip0_40_466">
<rect width="410" height="410" fill="white" transform="translate(51 57)"/>
</clipPath>
</defs>
</svg>
