<svg width="512" height="513" viewBox="0 0 512 513" fill="none" xmlns="http://www.w3.org/2000/svg">
<circle cx="256.009" cy="256.967" r="256" fill="black"/>
<g clip-path="url(#clip0_40_264)">
<path d="M302.44 179.736C312.451 169.725 328.896 169.725 338.907 179.736C348.917 189.746 348.917 206.192 338.907 216.202C333.008 222.101 325.142 224.604 317.098 223.531C316.741 223.531 316.383 223.531 315.847 223.531C313.523 223.174 311.021 223.531 308.518 224.604C305.122 226.212 302.798 228.894 301.547 232.111C300.295 235.329 300.474 238.904 301.904 242.122C310.484 260.712 306.552 283.236 291.894 297.715C277.236 312.373 254.891 316.306 236.301 307.725C232.904 306.117 229.329 306.117 226.111 307.368C222.894 308.619 220.212 310.943 218.782 314.161C217.889 316.306 217.352 318.451 217.531 320.775C217.531 321.132 217.531 321.668 217.531 322.026C218.961 330.249 216.101 338.65 210.381 344.549C200.37 354.56 183.925 354.56 173.915 344.549C169.088 339.723 166.407 333.288 166.407 326.316C166.407 319.523 169.088 312.909 173.915 308.083C179.813 302.184 187.679 299.681 195.723 300.754C195.902 300.754 195.902 300.754 196.08 300.754C196.974 300.933 197.868 301.111 198.762 301.111C200.728 301.111 202.516 300.754 204.303 299.86C207.699 298.251 210.023 295.57 211.096 292.531C212.347 289.313 212.347 285.56 210.738 282.163C202.158 263.394 206.091 241.049 220.749 226.57C235.407 211.912 257.751 207.979 276.342 216.56C279.56 218.168 283.313 218.168 286.531 216.917C289.749 215.666 292.43 213.342 294.039 210.124C295.29 207.622 295.469 204.762 295.111 202.08C293.86 194.036 296.541 185.635 302.44 179.736ZM276.878 282.699C287.961 271.617 287.961 253.562 276.878 242.301C265.795 231.218 247.741 231.218 236.479 242.301C225.396 253.383 225.396 271.438 236.479 282.699C247.741 293.782 265.795 293.782 276.878 282.699ZM256.5 90C351.777 90 429 167.223 429 262.5C429 357.777 351.777 435 256.5 435C161.223 435 84 357.777 84 262.5C84 167.223 161.223 90 256.5 90ZM348.381 225.855C363.575 210.661 363.575 185.992 348.381 170.619C333.187 155.425 308.518 155.425 293.145 170.619C287.425 176.339 284.028 183.311 282.42 190.461C254.712 180.093 223.073 186.707 201.979 207.801C180.886 228.894 174.272 260.712 184.819 288.42C177.49 289.85 170.518 293.425 164.798 299.145C149.604 314.339 149.604 339.008 164.798 354.381C179.992 369.575 204.661 369.575 220.034 354.381C225.754 348.661 229.329 341.51 230.759 334.181C239.339 337.399 248.277 339.008 257.215 339.008C277.057 339.008 296.541 331.321 311.021 316.842C332.114 295.749 338.728 264.288 328.539 236.759C335.689 234.971 342.661 231.396 348.381 225.855Z" fill="white"/>
</g>
<defs>
<clipPath id="clip0_40_264">
<rect width="345" height="345" fill="white" transform="translate(84 90)"/>
</clipPath>
</defs>
</svg>
