<svg width="513" height="513" viewBox="0 0 513 513" fill="none" xmlns="http://www.w3.org/2000/svg">
<circle cx="256.381" cy="256.798" r="256" fill="black"/>
<g clip-path="url(#clip0_40_202)">
<path d="M358.154 166C338.923 166 317.865 176.488 295.654 197.175C285.173 206.893 275.942 217.477 269.212 225.848C269.212 225.848 279.981 238.26 291.808 251.634C298.25 243.552 307.385 232.583 318.058 222.672C337.769 204.199 350.654 200.446 358.058 200.446C385.75 200.446 408.25 223.731 408.25 252.5C408.25 280.981 385.75 304.265 358.058 304.554C356.712 304.554 355.173 304.361 353.25 303.977C361.327 307.729 370.077 310.423 378.25 310.423C429.019 310.423 439.019 275.304 439.596 272.802C441.038 266.355 441.904 259.62 441.904 252.692C441.808 204.872 404.308 166 358.154 166Z" fill="white"/>
<path d="M180.75 339C199.981 339 221.038 328.512 243.25 307.825C253.731 298.107 262.962 287.523 269.692 279.152C269.692 279.152 258.923 266.74 247.096 253.366C240.654 261.448 231.519 272.417 220.846 282.328C201.135 300.609 188.154 304.554 180.846 304.554C153.154 304.554 130.654 281.269 130.654 252.5C130.654 224.02 153.154 200.735 180.846 200.446C182.192 200.446 183.731 200.639 185.654 201.023C177.577 197.271 168.827 194.577 160.654 194.577C109.885 194.481 99.8846 229.6 99.3077 232.198C97.8654 238.645 97 245.38 97 252.308C97 300.128 134.5 339 180.75 339Z" fill="white"/>
<path fill-rule="evenodd" clip-rule="evenodd" d="M219.404 223.442C213.827 218.054 186.712 196.02 160.75 195.25C114.404 194.096 100.846 227.772 99.5962 232.102C108.538 194.384 141.615 166.192 180.846 166C212.865 166 245.269 197.463 269.212 225.848L269.308 225.751C269.308 225.751 280.077 238.164 291.904 251.538C291.904 251.538 305.365 267.414 319.596 281.365C325.173 286.754 352.192 308.499 378.154 309.269C425.75 310.616 438.923 275.015 439.596 272.321C430.846 310.327 397.673 338.615 358.25 338.808C326.231 338.808 293.827 307.344 269.788 278.96C269.788 279.056 269.692 279.056 269.692 279.152C269.692 279.152 258.923 266.74 247.096 253.366C247.192 253.366 233.731 237.394 219.404 223.442Z" fill="white"/>
</g>
<defs>
<clipPath id="clip0_40_202">
<rect width="345" height="173" fill="white" transform="translate(97 166)"/>
</clipPath>
</defs>
</svg>
