<svg width="513" height="513" viewBox="0 0 513 513" fill="none" xmlns="http://www.w3.org/2000/svg">
<circle cx="256.891" cy="256.16" r="256" fill="black"/>
<g clip-path="url(#clip0_103_30)">
<mask id="mask0_103_30" style="mask-type:luminance" maskUnits="userSpaceOnUse" x="121" y="154" width="274" height="223">
<path d="M395 154H121V377H395V154Z" fill="white"/>
</mask>
<g mask="url(#mask0_103_30)">
<path d="M365.629 154H394.409L277.712 287.405C274.756 290.76 274.558 295.891 277.515 299.443L344.734 377.789H314.771L252.678 305.166L249.524 301.219C246.567 297.865 246.764 292.536 249.721 289.181L365.629 154Z" fill="white"/>
<path d="M300.775 299.443C298.804 297.273 298.213 294.115 298.804 291.352C299.396 289.774 300.381 288.195 301.564 287.011L309.252 278.525L395 377.79H367.797C367.797 377.79 317.531 318.981 300.775 299.443Z" fill="white"/>
<path d="M150.963 377.789H121L212.859 271.42C215.816 268.065 215.816 262.935 212.859 259.58L121.788 154H150.568L242.23 260.369C244.596 263.527 244.99 268.065 242.427 271.026C218.378 298.851 150.963 377.789 150.963 377.789Z" fill="white"/>
<path d="M201.032 154H173.435L258.394 252.475C258.394 252.475 258.591 252.278 268.053 241.029C270.616 238.069 271.207 234.319 268.25 231.359C250.509 213.204 201.032 154 201.032 154Z" fill="white"/>
<path d="M283.823 222.676L342.763 154H314.771L284.02 189.917L275.15 200.376C272.193 203.731 271.996 208.862 274.953 212.414C277.121 214.98 283.823 222.676 283.823 222.676Z" fill="white"/>
<path d="M232.571 309.113L173.632 377.789H201.426L232.177 341.873L241.048 331.413C244.004 328.058 244.202 322.927 241.245 319.375C239.076 316.81 232.571 309.113 232.571 309.113Z" fill="white"/>
</g>
</g>
<defs>
<clipPath id="clip0_103_30">
<rect width="274" height="223" fill="white" transform="translate(121 154)"/>
</clipPath>
</defs>
</svg>
