<svg width="513" height="513" viewBox="0 0 513 513" fill="none" xmlns="http://www.w3.org/2000/svg">
<circle cx="256.184" cy="256.09" r="256" fill="black"/>
<g clip-path="url(#clip0_24_959)">
<path d="M256 421.869C347.606 421.869 421.868 347.607 421.868 256C421.868 164.393 347.606 90.1313 256 90.1313C164.393 90.1313 90.1309 164.393 90.1309 256C90.1309 347.607 164.393 421.869 256 421.869Z" fill="white"/>
<path d="M253.372 70C216.585 70 180.624 80.9087 150.036 101.347C119.449 121.785 95.6085 150.834 81.5306 184.821C67.4527 218.808 63.7692 256.206 70.9461 292.287C78.1229 328.367 95.8377 361.509 121.85 387.522C147.863 413.534 181.005 431.249 217.085 438.426C253.166 445.603 290.564 441.919 324.551 427.842C358.538 413.764 387.588 389.924 408.025 359.336C428.463 328.749 439.372 292.787 439.372 256C439.443 231.645 434.717 207.515 425.462 184.986C416.207 162.458 402.606 141.973 385.435 124.702C368.263 107.43 347.858 93.7096 325.384 84.3239C302.91 74.9381 278.808 70.0709 254.453 70H253.372ZM256.525 262.305L237.159 327.608H340.743C341.429 327.584 342.113 327.695 342.756 327.936C343.399 328.176 343.988 328.541 344.49 329.01C344.992 329.478 345.397 330.041 345.681 330.666C345.965 331.291 346.124 331.966 346.147 332.652V334.363L337.14 365.438C336.743 366.908 335.858 368.199 334.63 369.099C333.402 369.999 331.905 370.455 330.384 370.392H171.856L198.428 279.869L168.704 288.877L175.459 268.16L205.183 259.153L242.563 132.15C242.975 130.689 243.864 129.407 245.088 128.509C246.312 127.612 247.801 127.149 249.319 127.196H289.401C290.087 127.172 290.772 127.283 291.415 127.524C292.058 127.765 292.647 128.129 293.149 128.598C293.651 129.066 294.056 129.629 294.34 130.254C294.624 130.879 294.782 131.554 294.806 132.24V133.952L263.28 241.138L293.004 232.131L286.699 253.748L256.525 262.305Z" fill="black"/>
</g>
<defs>
<clipPath id="clip0_24_959">
<rect width="372" height="372" fill="white" transform="translate(70 70)"/>
</clipPath>
</defs>
</svg>
