<svg width="513" height="513" viewBox="0 0 513 513" fill="none" xmlns="http://www.w3.org/2000/svg">
<circle cx="256.962" cy="256.54" r="256" fill="black"/>
<path d="M117.562 341V209.159L217.676 284.407V341H243.229V279.094C243.224 276.794 242.685 274.526 241.655 272.469C240.625 270.411 239.131 268.62 237.292 267.236L115.879 175.946C113.658 174.299 111.023 173.299 108.268 173.057C105.512 172.816 102.743 173.342 100.269 174.577C97.7949 175.813 95.7122 177.709 94.2524 180.056C92.7926 182.402 92.0129 185.107 92 187.87V341H117.562ZM394.438 341V209.159L294.324 284.407V341H268.771V279.094C268.776 276.794 269.315 274.526 270.345 272.469C271.375 270.411 272.869 268.62 274.708 267.236L396.121 175.984C398.339 174.338 400.971 173.338 403.723 173.095C406.475 172.852 409.241 173.375 411.714 174.606C414.187 175.837 416.271 177.728 417.733 180.069C419.196 182.41 419.98 185.11 420 187.87V341H394.438Z" fill="white"/>
</svg>
