<svg width="513" height="513" viewBox="0 0 513 513" fill="none" xmlns="http://www.w3.org/2000/svg">
<circle cx="256.183" cy="256.085" r="256" fill="black"/>
<g clip-path="url(#clip0_24_986)">
<path d="M340.976 134.413L282.134 221.833C278.065 227.787 285.89 234.993 291.524 229.98L349.426 179.533C350.991 178.28 353.182 179.22 353.182 181.413V339.02C353.182 341.213 350.365 342.153 349.113 340.587L173.841 130.653C168.208 123.76 160.07 120 150.993 120H144.734C128.458 120 115 133.473 115 150.08V371.92C115 388.527 128.458 402 145.047 402C155.375 402 165.078 396.673 170.711 387.587L229.553 300.167C233.622 294.213 225.797 287.007 220.163 292.02L162.261 342.153C160.696 343.407 158.505 342.467 158.505 340.273V182.98C158.505 180.787 161.322 179.847 162.574 181.413L337.846 391.347C343.479 398.24 351.93 402 360.694 402H366.953C383.542 402 397 388.527 397 371.92V150.08C397 133.473 383.542 120 366.953 120C356.312 120 346.609 125.327 340.976 134.413Z" fill="white"/>
</g>
<defs>
<clipPath id="clip0_24_986">
<rect width="282" height="282" fill="white" transform="translate(115 120)"/>
</clipPath>
</defs>
</svg>
