<svg width="513" height="513" viewBox="0 0 513 513" fill="none" xmlns="http://www.w3.org/2000/svg">
<circle cx="256.327" cy="256.941" r="256" fill="black"/>
<path d="M153.186 351.031C133.441 351.031 117.274 346.393 104.685 337.117C92.2283 327.708 86 314.191 86 296.832C86 293.121 86.3976 288.748 87.1927 283.447C89.3129 271.521 92.3608 257.209 96.3364 240.379C107.6 194.793 136.754 172 183.665 172C196.387 172 207.916 174.12 217.988 178.493C228.059 182.601 236.01 188.962 241.841 197.443C247.671 205.792 250.587 215.731 250.587 227.26C250.587 230.705 250.189 235.078 249.394 240.379C246.876 255.089 243.961 269.533 240.383 283.447C234.552 306.108 224.613 323.203 210.301 334.467C196.122 345.598 177.04 351.031 153.186 351.031ZM156.764 315.252C166.041 315.252 173.859 312.469 180.353 307.035C186.978 301.602 191.749 293.254 194.532 281.857C198.375 266.22 201.29 252.703 203.278 241.042C203.941 237.596 204.338 234.018 204.338 230.308C204.338 215.201 196.52 207.647 180.75 207.647C171.474 207.647 163.523 210.43 156.897 215.863C150.404 221.297 145.765 229.645 142.983 241.042C139.935 252.173 137.019 265.69 133.971 281.857C133.309 285.17 132.911 288.615 132.911 292.326C132.779 307.698 140.862 315.252 156.764 315.252Z" fill="white"/>
<path d="M262.116 348.646C260.261 348.646 258.935 348.116 257.875 346.923C257.08 345.598 256.815 344.141 257.08 342.418L291.402 180.746C291.667 178.891 292.595 177.433 294.185 176.241C295.643 175.048 297.233 174.518 298.956 174.518H365.082C383.502 174.518 398.211 178.361 409.343 185.915C420.607 193.601 426.305 204.6 426.305 219.044C426.305 223.152 425.775 227.525 424.847 232.031C420.739 251.113 412.391 265.16 399.669 274.304C387.212 283.448 370.118 287.953 348.385 287.953H314.858L303.461 342.418C303.064 344.273 302.269 345.731 300.679 346.923C299.221 348.116 297.631 348.646 295.908 348.646H262.116ZM350.108 253.631C357.131 253.631 363.094 251.776 368.262 247.933C373.563 244.09 377.009 238.657 378.731 231.501C379.261 228.718 379.526 226.2 379.526 224.08C379.526 219.309 378.069 215.599 375.286 213.081C372.503 210.43 367.6 209.105 360.841 209.105H331.025L321.616 253.631H350.108Z" fill="white"/>
</svg>
