<svg width="611" height="614" viewBox="0 0 611 614" fill="none" xmlns="http://www.w3.org/2000/svg">
<circle cx="281.328" cy="330.941" r="256" fill="black"/>
<path d="M416.714 215.418C417.378 234.449 413.533 253.117 405.18 271.42C395.853 291.895 384.676 310.014 371.647 325.777C359.673 340.265 346.082 353.979 330.869 366.916C329.433 368.132 328.525 369.635 328.146 371.423L320.261 408.162C320.133 408.766 319.839 409.294 319.424 409.664L285.375 439.964C283.654 439.118 282.468 437.304 281.815 434.526C281.317 432.416 279.56 427.198 276.547 418.876L270.762 400.989C270.785 399.38 270.169 398.634 268.911 398.754C260.131 399.6 252.103 398.938 244.829 396.768C244.564 396.693 244.286 396.688 244.023 396.754C243.761 396.82 243.522 396.954 243.334 397.144L228.81 411.596C228.53 411.873 228.153 412.029 227.76 412.029C227.366 412.029 226.989 411.873 226.709 411.596L216.03 400.989C214.914 400.297 214.291 399.464 214.161 398.485C214.067 397.757 214.428 396.929 215.247 395.999C219.328 391.408 223.305 386.872 227.172 382.388C227.377 382.151 227.503 381.858 227.539 381.545C227.574 381.232 227.514 380.915 227.368 380.635C224.045 374.137 222.443 367.654 222.562 361.192C223.226 359.618 222.806 358.575 221.299 358.062C213.467 355.379 200.71 351.229 183.031 345.613C181.274 344.624 181.014 343.443 182.248 342.072C191.325 331.996 200.29 321.824 209.142 311.557C210.507 309.971 212.061 308.88 213.805 308.284C215.669 307.64 217.573 307.116 219.519 306.71L251.913 298.822C252.479 298.683 252.997 298.357 253.39 297.892C279.733 265.303 311.901 240.321 349.896 222.948C362.178 217.618 374.927 213.885 388.146 211.751C395.836 210.512 404.331 210.356 413.635 211.286C416.175 211.537 417.2 212.914 416.714 215.418ZM297.905 316.476C306.2 328.805 317.413 332.05 331.546 326.206C333.491 325.396 335.307 323.965 336.992 321.914C345.856 311.777 346.598 300.999 339.217 289.575C333.071 282.29 325.951 279.045 317.858 279.845C310.263 280.596 304.158 284.012 299.543 290.094C294.061 297.297 293.514 306.089 297.905 316.476Z" fill="white"/>
<path d="M110.945 517.179L94.8544 532.007C91.2353 529.883 88.2688 527.052 85.9549 523.511C123.796 488.144 161.595 452.734 199.352 417.283C201.547 415.221 203.487 414.445 205.173 414.958C207.202 415.554 208.964 417.349 210.459 420.342C210.758 420.93 210.856 421.601 210.74 422.252C210.624 422.905 210.301 423.502 209.818 423.955L110.945 517.179Z" fill="white"/>
<path d="M78.4615 514.639C75.4001 511.897 72.8548 508.742 70.8257 505.178L77.5716 498.989L80.7576 495.787L90.9208 486.021L162.099 419.555C163.879 417.897 165.445 417.851 166.798 419.412L171.319 424.671C171.662 425.066 171.817 425.603 171.746 426.168C171.677 426.731 171.39 427.279 170.945 427.694L78.4615 514.639Z" fill="white"/>
<path d="M132.303 527.911L130.079 530.146L125.629 534.171L122.514 537.301L118.064 541.325L111.39 547.282C107.865 545.266 104.751 542.733 102.045 539.68L116.729 525.818L196.718 450.928C197.145 450.53 197.688 450.285 198.267 450.226C198.845 450.169 199.425 450.302 199.922 450.606C202.889 452.417 204.728 454.778 205.44 457.689C205.504 457.944 205.495 458.216 205.415 458.477C205.333 458.739 205.182 458.978 204.977 459.173L132.303 527.911Z" fill="white"/>
</svg>
