<svg width="513" height="513" viewBox="0 0 513 513" fill="none" xmlns="http://www.w3.org/2000/svg">
<circle cx="256.013" cy="256.798" r="256" fill="black"/>
<g clip-path="url(#clip0_24_1058)">
<path d="M408.367 196.412C392.898 182.13 371.5 160.319 354.072 144.85L353.041 144.128C351.325 142.75 349.39 141.67 347.317 140.931C305.294 133.094 109.717 96.5359 105.902 97C104.832 97.1497 103.81 97.5374 102.911 98.1344L101.931 98.9078C100.725 100.133 99.8087 101.613 99.25 103.239L98.9922 103.909V107.57V108.137C121.009 169.445 207.944 370.281 225.063 417.409C226.094 420.606 228.053 426.691 231.714 427H232.539C234.498 427 242.852 415.966 242.852 415.966C242.852 415.966 392.177 234.878 407.284 215.594C409.24 213.218 410.966 210.663 412.441 207.962C412.817 205.849 412.64 203.675 411.926 201.651C411.212 199.627 409.986 197.822 408.367 196.412ZM281.163 217.502L344.894 164.65L382.277 199.094L281.163 217.502ZM256.413 214.047L146.688 124.122L324.217 156.864L256.413 214.047ZM266.313 237.611L378.616 219.512L250.225 374.2L266.313 237.611ZM131.786 133.094L247.234 231.062L230.528 374.303L131.786 133.094Z" fill="white"/>
</g>
<defs>
<clipPath id="clip0_24_1058">
<rect width="330" height="330" fill="white" transform="translate(91 97)"/>
</clipPath>
</defs>
</svg>
