<svg width="513" height="513" viewBox="0 0 513 513" fill="none" xmlns="http://www.w3.org/2000/svg">
<circle cx="256.327" cy="256.031" r="256" fill="black"/>
<g clip-path="url(#clip0_24_1095)">
<path d="M256.577 421L254.727 420.077C182.575 377.923 127.999 308.385 105.798 225.308C102.252 212.231 99.6315 198.846 97.7815 185.308C96.0856 171.769 95.1606 158.077 95.0064 144.385C95.0064 142.077 94.6981 142.385 96.8565 141.308C123.99 125.923 152.666 114.692 183.038 107.615C194.292 105 205.547 103 216.955 101.615C232.681 99.7692 248.406 98.9999 264.286 99.3076C273.227 99.4615 282.015 100.077 290.803 101C335.05 105.769 376.522 119 415.372 140.692C415.989 141 416.452 141.308 417.068 141.615C417.685 141.923 417.993 142.385 417.993 143.154V145.461C417.839 153.461 417.531 161.308 416.914 169.308C415.989 180.692 414.447 191.923 412.289 203.154C407.664 227.308 400.418 250.538 390.397 272.846C374.517 308.385 352.779 340.077 325.337 367.769C305.603 387.769 283.557 405 259.198 419.308C258.273 419.923 257.502 420.385 256.577 421ZM109.807 152.231V154.077C109.807 165.308 110.578 176.692 111.965 187.769C113.199 197.923 114.894 207.923 117.207 217.923C117.669 219.615 118.132 221.308 118.903 223C132.778 252.385 164.846 268.077 196.605 260.846C220.809 255.308 240.543 236.692 247.173 212.846C249.023 206.231 249.639 199.461 249.948 192.692C250.102 188.231 250.564 183.769 251.335 179.308C256.577 152.231 274.615 129.923 300.053 119.308C301.441 118.692 302.982 118.231 304.37 117.615C304.524 117.461 304.832 117.461 304.832 117.154C300.824 115.769 276.927 113.308 262.59 113C231.756 112.385 201.538 116.385 172.092 125.308C150.199 131.923 129.541 140.846 109.807 152.231ZM337.208 336.538C337.979 336.077 338.441 335.462 338.75 335C344.917 327.308 350.775 319.308 356.171 311C375.442 281.154 389.009 249 396.564 214.231C399.185 202.385 400.88 190.538 401.96 178.538C402.731 170.385 403.039 162.231 403.039 153.923C403.039 153.308 403.039 152.846 402.885 152.231L400.572 150.846C394.251 147.308 387.776 143.923 381.301 140.846C371.742 136.385 362.184 132.385 352.163 129.154C339.983 125.308 327.65 124.846 315.316 127.923C280.011 136.385 257.348 171 264.131 206.538C267.831 226.231 278.469 241.615 295.428 252.385C296.507 253.154 297.74 253.769 298.82 254.538C311.307 262.077 321.02 272.385 327.958 285.154C335.358 298.538 338.596 313 337.671 328.231C337.825 330.846 337.516 333.615 337.208 336.538ZM256.577 405.308C257.194 405 257.965 404.538 258.581 404.077C278.007 392.692 295.89 379.154 312.232 363.769C313.312 362.846 314.083 361.615 314.699 360.385C315.778 358.385 316.858 356.231 317.783 354.231C325.491 338.231 327.187 321.615 322.099 304.385C312.078 271.154 280.011 252.077 247.789 256.077C238.539 257.154 230.06 260.077 222.043 264.692C206.78 273.308 190.438 276.846 172.862 275.154C164.229 274.385 156.058 272.077 148.195 268.692C142.028 265.923 136.17 262.538 130.928 258.385C130.62 258.077 130.157 257.923 129.386 257.461C129.541 258.231 129.695 258.692 129.849 259C136.787 276.538 145.266 293.154 155.287 309C166.233 326.077 178.721 341.923 192.905 356.385C207.088 370.846 222.66 383.769 239.464 395C247.173 399.923 254.419 404.385 256.577 405.308Z" fill="black"/>
<path d="M109.807 152.231C129.541 140.846 150.2 131.923 171.938 125.462C201.538 116.692 231.602 112.538 262.436 113.154C276.774 113.462 300.67 115.769 304.678 117.308C304.833 117.615 304.524 117.769 304.216 117.769C302.828 118.385 301.287 118.846 299.899 119.462C274.461 130.077 256.423 152.385 251.181 179.462C250.41 183.923 249.948 188.385 249.794 192.846C249.64 199.615 249.023 206.385 247.019 213C240.235 236.846 220.656 255.462 196.451 261C164.692 268.231 132.624 252.538 118.749 223.154C117.978 221.462 117.361 219.769 117.053 218.077C114.74 208.077 113.045 198.077 111.811 187.923C110.424 176.692 109.653 165.462 109.653 154.231C109.807 153.462 109.807 153 109.807 152.231Z" fill="white"/>
<path d="M337.208 336.539C337.516 333.616 337.825 331 337.979 328.231C338.75 313 335.512 298.539 328.266 285.154C321.329 272.385 311.616 262.231 299.128 254.539C298.049 253.769 296.815 253.154 295.736 252.385C278.623 241.616 268.14 226.385 264.44 206.539C257.81 170.846 280.319 136.385 315.624 127.923C328.112 125 340.292 125.308 352.471 129.154C362.492 132.231 372.051 136.385 381.609 140.846C388.239 143.923 394.559 147.308 400.88 150.846C401.651 151.308 402.268 151.616 403.193 152.231C403.193 152.846 403.347 153.308 403.347 153.923C403.347 162.077 402.885 170.385 402.268 178.539C401.189 190.539 399.339 202.539 396.872 214.231C389.318 249 375.905 281.154 356.479 311C351.083 319.308 345.225 327.308 339.058 335C338.441 335.462 338.133 336.077 337.208 336.539Z" fill="white"/>
<path d="M256.577 405.308C254.264 404.384 247.173 400.077 239.618 395C222.814 383.769 207.242 370.846 193.059 356.384C178.875 341.923 166.233 326.077 155.441 309C145.266 293.154 136.787 276.538 130.003 259C129.849 258.538 129.695 258.231 129.541 257.461C130.311 257.923 130.62 258.077 131.082 258.384C136.478 262.538 142.182 266.077 148.349 268.692C156.212 272.077 164.383 274.384 173.017 275.154C190.438 276.846 206.78 273.308 222.197 264.692C230.214 260.231 238.847 257.308 247.943 256.077C280.165 252.077 312.232 271.154 322.253 304.384C327.341 321.461 325.799 338.077 317.937 354.231C316.858 356.384 315.933 358.384 314.853 360.384C314.237 361.615 313.466 362.846 312.387 363.769C296.045 379.154 278.161 392.692 258.735 404.077C257.964 404.538 257.194 405 256.577 405.308Z" fill="white"/>
</g>
<defs>
<clipPath id="clip0_24_1095">
<rect width="323" height="320" fill="white" transform="translate(95 101)"/>
</clipPath>
</defs>
</svg>
