<svg width="513" height="512" viewBox="0 0 513 512" fill="none" xmlns="http://www.w3.org/2000/svg">
<circle cx="256.25" cy="256" r="256" fill="black"/>
<g clip-path="url(#clip0_75_61)">
<path d="M280.32 423C256.806 423 239.643 417.277 228.831 405.83C218.815 396.14 213.003 382.837 212.665 368.83C212.543 364.574 213.519 360.36 215.497 356.601C217.341 353.353 220.006 350.658 223.219 348.791C226.953 346.909 231.069 345.929 235.241 345.929C239.414 345.929 243.53 346.909 247.264 348.791C250.471 350.65 253.123 353.348 254.943 356.601C256.978 360.342 257.99 364.562 257.876 368.83C258.086 373.926 256.64 378.951 253.757 383.138C251.355 386.556 247.921 389.095 243.971 390.375C247.834 395.346 253.3 398.789 259.417 400.106C266.261 402.115 273.349 403.148 280.476 403.175C289.911 403.258 299.152 400.466 306.993 395.162C315.127 389.355 321.194 381.053 324.293 371.488C328.221 360.105 330.138 348.111 329.957 336.056C330.273 323.488 328.175 310.978 323.778 299.217C320.47 289.811 314.192 281.766 305.911 276.323C298.214 271.401 289.28 268.819 280.171 268.884C272.235 269.563 264.582 272.188 257.876 276.532L241.344 284.908V276.532L315.642 175.811H212.665V280.331C212.374 287.873 214.348 295.328 218.328 301.715C220.254 304.499 222.859 306.732 225.89 308.2C228.92 309.667 232.275 310.319 235.628 310.091C241.824 309.965 247.816 307.831 252.721 304.004C258.282 299.886 263.12 294.856 267.036 289.123C267.388 288.117 268.038 287.246 268.898 286.627C269.587 286.024 270.468 285.692 271.38 285.69C273.169 285.855 274.862 286.583 276.22 287.77C277.941 289.714 278.878 292.239 278.846 294.846C278.647 296.599 278.337 298.337 277.919 300.049C274.261 308.997 268.129 316.69 260.257 322.207C252.946 327.207 244.311 329.857 235.483 329.812C213.188 329.812 197.742 325.372 189.147 316.492C184.728 311.584 181.323 305.835 179.131 299.581C176.938 293.327 176.002 286.693 176.377 280.069V175.811H124V156.391H176.621V112.112L164.574 99.9294V90H199.533L212.665 96.869V156.391L348.696 155.973L362.239 169.709L278.827 254.41C283.866 252.362 289.173 251.065 294.581 250.559C305.286 251.033 315.73 254.045 325.069 259.353C335.883 264.548 344.997 272.767 351.329 283.036C357.004 291.728 361.02 301.417 363.172 311.601C364.941 319.634 365.89 327.829 366.004 336.058C366.059 351.763 362.536 367.269 355.707 381.376C349.23 395.037 338.33 406.051 324.812 412.596C310.974 419.487 295.747 423.047 280.32 423Z" fill="white"/>
</g>
<defs>
<clipPath id="clip0_75_61">
<rect width="242" height="333" fill="white" transform="translate(124 90)"/>
</clipPath>
</defs>
</svg>
