<svg width="513" height="513" viewBox="0 0 513 513" fill="none" xmlns="http://www.w3.org/2000/svg">
<circle cx="256.797" cy="256.909" r="256" fill="black"/>
<path d="M241.574 308.791H349.697V352.78H285.901V390H230.422V353.933H163.886C163.886 339.244 161.146 324.633 165.303 311.099C166.721 304.331 176.362 297.563 183.354 290.797C204.147 270.494 224.941 250.192 247.151 229.89C255.467 221.969 263.785 215.201 273.52 206.204H169.557V162.215H230.516V125H284.578V161.057H351.114C351.114 175.744 353.854 190.357 349.697 203.891C348.279 210.659 338.638 217.426 331.644 224.194C310.853 244.496 290.059 264.798 267.849 285.101C259.529 293.027 251.215 300.87 241.574 308.791Z" fill="white"/>
</svg>
