<svg width="513" height="513" viewBox="0 0 513 513" fill="none" xmlns="http://www.w3.org/2000/svg">
<circle cx="256.183" cy="256.845" r="256" fill="black"/>
<path d="M338.374 312.662C349.35 327.423 360.668 342.526 371.987 357.63C349.35 384.405 321.225 401.569 287.269 408.777C249.541 416.673 213.871 410.837 179.229 391.614C210.098 368.615 240.281 345.959 270.806 323.303C277.666 329.825 284.183 336.348 290.699 342.526C297.902 349.392 295.158 349.735 304.419 344.586C317.109 337.377 327.742 327.423 335.973 315.408C336.316 314.722 337.002 314.035 337.345 313.349C337.002 313.349 337.345 313.349 338.374 312.662ZM203.581 342.87C195.007 349.392 187.118 355.227 179.229 361.406C173.399 365.869 167.568 369.988 161.737 374.451C159.336 376.51 157.621 376.51 154.877 374.107C128.811 350.765 112.347 321.93 106.174 287.603C100 252.933 105.488 219.979 121.951 188.742C122.294 188.055 122.98 187.025 123.323 186.339C123.323 185.996 123.666 185.996 124.352 185.652C146.989 215.517 169.969 245.381 192.606 275.246C191.92 276.275 191.577 276.962 190.891 277.648C184.031 284.857 177.171 292.066 169.969 298.931C167.911 300.991 167.568 302.707 168.94 305.11C176.142 318.841 186.089 330.169 198.436 339.437C200.151 340.467 201.523 341.497 203.581 342.87ZM331.514 129.699C320.539 137.595 309.563 145.49 298.588 153.042C279.724 166.429 260.86 180.16 242.338 193.547C239.938 195.264 238.223 195.607 236.165 193.204C229.991 186.682 223.474 180.846 217.301 174.324C215.586 172.608 213.871 172.265 211.47 173.295C196.722 180.846 185.06 191.488 175.457 204.875C174.771 205.562 174.085 206.592 173.399 207.622C167.911 200.413 162.766 193.891 157.621 187.025C152.134 179.817 146.989 172.608 141.844 165.743C140.129 163.34 139.786 161.623 142.187 159.221C168.597 130.043 201.18 112.879 240.281 108.76C271.149 105.327 300.646 111.506 328.085 126.267C329.114 126.953 330.142 127.296 331.171 127.983C331.171 129.013 331.171 129.356 331.514 129.699ZM387.421 335.661C380.218 326.393 373.702 317.811 367.185 309.229C352.093 289.32 337.002 269.067 321.568 249.157C319.51 246.411 319.51 244.695 321.911 242.292C328.428 235.77 334.601 229.247 341.118 222.725C342.833 221.009 343.519 219.293 342.147 216.89C334.601 202.472 324.312 190.458 310.935 180.846C309.906 180.16 308.877 179.13 307.506 178.444C308.534 177.414 309.563 176.727 310.249 176.041C323.283 166.086 336.316 156.474 349.35 146.52C351.408 144.803 353.122 144.117 355.523 146.52C388.107 176.041 405.599 212.771 407.314 257.052C408 282.798 402.169 307.17 390.508 330.169C389.479 331.542 388.45 333.258 387.421 335.661Z" fill="white"/>
</svg>
