<svg width="1440" height="800" viewBox="0 0 1440 800" fill="none" xmlns="http://www.w3.org/2000/svg">
<g clip-path="url(#clip0_213_591)">
<rect width="1440" height="800" fill="#060606"/>
<g opacity="0.9">
<g filter="url(#filter0_f_213_591)">
<path d="M984.469 -548.44L1238.25 -932L1032.97 -520.44L545.754 323.436L317.959 661.989L497.257 295.436L984.469 -548.44Z" fill="url(#paint0_linear_213_591)" fill-opacity="0.12"/>
</g>
<g filter="url(#filter1_f_213_591)">
<path d="M1128 -446.805L1364.25 -800L1176.5 -418.805L726.497 360.618L514.249 672.243L678 332.618L1128 -446.805Z" fill="url(#paint1_linear_213_591)" fill-opacity="0.12"/>
</g>
<g filter="url(#filter2_f_213_591)">
<path d="M1060.09 -502.53L1328.25 -911L1108.58 -474.53L590.845 422.221L350.296 782.864L542.347 394.221L1060.09 -502.53Z" fill="url(#paint2_linear_213_591)" fill-opacity="0.2"/>
</g>
<g filter="url(#filter3_f_213_591)">
<path d="M1013 -414.805L1249.25 -768L1061.5 -386.805L611.497 392.618L399.249 704.243L563 364.618L1013 -414.805Z" fill="url(#paint3_linear_213_591)" fill-opacity="0.2"/>
</g>
</g>
<path d="M245.376 178.176H137V282.307H245.376V178.176Z" fill="url(#paint4_linear_213_591)" fill-opacity="0.02"/>
<path d="M454 485.408H351V582.683H454V485.408Z" fill="url(#paint5_linear_213_591)" fill-opacity="0.02"/>
<path d="M1199.38 479.63H1091V583.761H1199.38V479.63Z" fill="url(#paint6_linear_213_591)" fill-opacity="0.02"/>
<path d="M457.376 73.1964H349V177.328H457.376V73.1964Z" fill="url(#paint7_linear_213_591)" fill-opacity="0.02"/>
<path d="M-72.3333 -330.348H-178V-228.82M-72.3333 -330.348V-228.82M-72.3333 -330.348H33.3333M-72.3333 -228.82H-178M-72.3333 -228.82H33.3333M-72.3333 -228.82V-127.291M-178 -228.82V-127.291M33.3333 -330.348V-228.82M33.3333 -330.348H139M33.3333 -228.82H139M33.3333 -228.82V-127.291M139 -330.348V-228.82M139 -330.348H244.667M139 -228.82H244.667M139 -228.82V-127.291M244.667 -330.348V-228.82M244.667 -330.348H350.333M244.667 -228.82H350.333M244.667 -228.82V-127.291M350.333 -330.348V-228.82M350.333 -330.348H456M350.333 -228.82H456M350.333 -228.82V-127.291M456 -330.348V-228.82M456 -330.348H561.667M456 -228.82H561.667M456 -228.82V-127.291M561.667 -330.348V-228.82M561.667 -330.348H667.333M561.667 -228.82H667.333M561.667 -228.82V-127.291M667.333 -330.348V-228.82M667.333 -330.348H773M667.333 -228.82H773M667.333 -228.82V-127.291M773 -330.348V-228.82M773 -330.348H878.667M773 -228.82H878.667M773 -228.82V-127.291M878.667 -330.348V-228.82M878.667 -330.348H984.333M878.667 -228.82H984.333M878.667 -228.82V-127.291M984.333 -330.348V-228.82M984.333 -330.348H1090M984.333 -228.82H1090M984.333 -228.82V-127.291M1090 -330.348V-228.82M1090 -330.348H1195.67M1090 -228.82H1195.67M1090 -228.82V-127.291M1195.67 -330.348V-228.82M1195.67 -330.348H1301.33M1195.67 -228.82H1301.33M1195.67 -228.82V-127.291M1301.33 -330.348V-228.82M1301.33 -330.348H1407M1301.33 -228.82H1407M1301.33 -228.82V-127.291M1407 -330.348V-228.82M1407 -330.348H1512.67M1407 -228.82H1512.67M1407 -228.82V-127.291M1512.67 -330.348V-228.82M1512.67 -330.348H1618.33V-228.82M1512.67 -228.82H1618.33M1512.67 -228.82V-127.291M1618.33 -228.82V-127.291M-72.3333 -127.291H-178M-72.3333 -127.291H33.3333M-72.3333 -127.291V-25.7634M-178 -127.291V-25.7634M33.3333 -127.291H139M33.3333 -127.291V-25.7634M139 -127.291H244.667M139 -127.291V-25.7634M244.667 -127.291H350.333M244.667 -127.291V-25.7634M350.333 -127.291H456M350.333 -127.291V-25.7634M456 -127.291H561.667M456 -127.291V-25.7634M561.667 -127.291H667.333M561.667 -127.291V-25.7634M667.333 -127.291H773M667.333 -127.291V-25.7634M773 -127.291H878.667M773 -127.291V-25.7634M878.667 -127.291H984.333M878.667 -127.291V-25.7634M984.333 -127.291H1090M984.333 -127.291V-25.7634M1090 -127.291H1195.67M1090 -127.291V-25.7634M1195.67 -127.291H1301.33M1195.67 -127.291V-25.7634M1301.33 -127.291H1407M1301.33 -127.291V-25.7634M1407 -127.291H1512.67M1407 -127.291V-25.7634M1512.67 -127.291H1618.33M1512.67 -127.291V-25.7634M1618.33 -127.291V-25.7634M-72.3333 -25.7634H-178M-72.3333 -25.7634H33.3333M-72.3333 -25.7634V75.7647M-178 -25.7634V75.7647M33.3333 -25.7634H139M33.3333 -25.7634V75.7647M139 -25.7634H244.667M139 -25.7634V75.7647M244.667 -25.7634H350.333M244.667 -25.7634V75.7647M350.333 -25.7634H456M350.333 -25.7634V75.7647M456 -25.7634H561.667M456 -25.7634V75.7647M561.667 -25.7634H667.333M561.667 -25.7634V75.7647M667.333 -25.7634H773M667.333 -25.7634V75.7647M773 -25.7634H878.667M773 -25.7634V75.7647M878.667 -25.7634H984.333M878.667 -25.7634V75.7647M984.333 -25.7634H1090M984.333 -25.7634V75.7647M1090 -25.7634H1195.67M1090 -25.7634V75.7647M1195.67 -25.7634H1301.33M1195.67 -25.7634V75.7647M1301.33 -25.7634H1407M1301.33 -25.7634V75.7647M1407 -25.7634H1512.67M1407 -25.7634V75.7647M1512.67 -25.7634H1618.33M1512.67 -25.7634V75.7647M1618.33 -25.7634V75.7647M-72.3333 75.7647H-178M-72.3333 75.7647H33.3333M-72.3333 75.7647V177.293M-178 75.7647V177.293M33.3333 75.7647H139M33.3333 75.7647V177.293M139 75.7647H244.667M139 75.7647V177.293M244.667 75.7647H350.333M244.667 75.7647V177.293M350.333 75.7647H456M350.333 75.7647V177.293M456 75.7647H561.667M456 75.7647V177.293M561.667 75.7647H667.333M561.667 75.7647V177.293M667.333 75.7647H773M667.333 75.7647V177.293M773 75.7647H878.667M773 75.7647V177.293M878.667 75.7647H984.333M878.667 75.7647V177.293M984.333 75.7647H1090M984.333 75.7647V177.293M1090 75.7647H1195.67M1090 75.7647V177.293M1195.67 75.7647H1301.33M1195.67 75.7647V177.293M1301.33 75.7647H1407M1301.33 75.7647V177.293M1407 75.7647H1512.67M1407 75.7647V177.293M1512.67 75.7647H1618.33M1512.67 75.7647V177.293M1618.33 75.7647V177.293M-72.3333 177.293H-178M-72.3333 177.293H33.3333M-72.3333 177.293V278.821M-178 177.293V278.821M33.3333 177.293H139M33.3333 177.293V278.821M139 177.293H244.667M139 177.293V278.821M244.667 177.293H350.333M244.667 177.293V278.821M350.333 177.293H456M350.333 177.293V278.821M456 177.293H561.667M456 177.293V278.821M561.667 177.293H667.333M561.667 177.293V278.821M667.333 177.293H773M667.333 177.293V278.821M773 177.293H878.667M773 177.293V278.821M878.667 177.293H984.333M878.667 177.293V278.821M984.333 177.293H1090M984.333 177.293V278.821M1090 177.293H1195.67M1090 177.293V278.821M1195.67 177.293H1301.33M1195.67 177.293V278.821M1301.33 177.293H1407M1301.33 177.293V278.821M1407 177.293H1512.67M1407 177.293V278.821M1512.67 177.293H1618.33M1512.67 177.293V278.821M1618.33 177.293V278.821M-72.3333 278.821H-178M-72.3333 278.821H33.3333M-72.3333 278.821V380.349M-178 278.821V380.349M33.3333 278.821H139M33.3333 278.821V380.349M139 278.821H244.667M139 278.821V380.349M244.667 278.821H350.333M244.667 278.821V380.349M350.333 278.821H456M350.333 278.821V380.349M456 278.821H561.667M456 278.821V380.349M561.667 278.821H667.333M561.667 278.821V380.349M667.333 278.821H773M667.333 278.821V380.349M773 278.821H878.667M773 278.821V380.349M878.667 278.821H984.333M878.667 278.821V380.349M984.333 278.821H1090M984.333 278.821V380.349M1090 278.821H1195.67M1090 278.821V380.349M1195.67 278.821H1301.33M1195.67 278.821V380.349M1301.33 278.821H1407M1301.33 278.821V380.349M1407 278.821H1512.67M1407 278.821V380.349M1512.67 278.821H1618.33M1512.67 278.821V380.349M1618.33 278.821V380.349M-72.3333 380.349H-178M-72.3333 380.349H33.3333M-72.3333 380.349V481.877M-178 380.349V481.877M33.3333 380.349H139M33.3333 380.349V481.877M139 380.349H244.667M139 380.349V481.877M244.667 380.349H350.333M244.667 380.349V481.877M350.333 380.349H456M350.333 380.349V481.877M456 380.349H561.667M456 380.349V481.877M561.667 380.349H667.333M561.667 380.349V481.877M667.333 380.349H773M667.333 380.349V481.877M773 380.349H878.667M773 380.349V481.877M878.667 380.349H984.333M878.667 380.349V481.877M984.333 380.349H1090M984.333 380.349V481.877M1090 380.349H1195.67M1090 380.349V481.877M1195.67 380.349H1301.33M1195.67 380.349V481.877M1301.33 380.349H1407M1301.33 380.349V481.877M1407 380.349H1512.67M1407 380.349V481.877M1512.67 380.349H1618.33M1512.67 380.349V481.877M1618.33 380.349V481.877M-72.3333 481.877H-178M-72.3333 481.877H33.3333M-72.3333 481.877V583.405M-178 481.877V583.405M33.3333 481.877H139M33.3333 481.877V583.405M139 481.877H244.667M139 481.877V583.405M244.667 481.877H350.333M244.667 481.877V583.405M350.333 481.877H456M350.333 481.877V583.405M456 481.877H561.667M456 481.877V583.405M561.667 481.877H667.333M561.667 481.877V583.405M667.333 481.877H773M667.333 481.877V583.405M773 481.877H878.667M773 481.877V583.405M878.667 481.877H984.333M878.667 481.877V583.405M984.333 481.877H1090M984.333 481.877V583.405M1090 481.877H1195.67M1090 481.877V583.405M1195.67 481.877H1301.33M1195.67 481.877V583.405M1301.33 481.877H1407M1301.33 481.877V583.405M1407 481.877H1512.67M1407 481.877V583.405M1512.67 481.877H1618.33M1512.67 481.877V583.405M1618.33 481.877V583.405M-72.3333 583.405H-178M-72.3333 583.405H33.3333M-72.3333 583.405V684.933M-178 583.405V684.933M33.3333 583.405H139M33.3333 583.405V684.933M139 583.405H244.667M139 583.405V684.933M244.667 583.405H350.333M244.667 583.405V684.933M350.333 583.405H456M350.333 583.405V684.933M456 583.405H561.667M456 583.405V684.933M561.667 583.405H667.333M561.667 583.405V684.933M667.333 583.405H773M667.333 583.405V684.933M773 583.405H878.667M773 583.405V684.933M878.667 583.405H984.333M878.667 583.405V684.933M984.333 583.405H1090M984.333 583.405V684.933M1090 583.405H1195.67M1090 583.405V684.933M1195.67 583.405H1301.33M1195.67 583.405V684.933M1301.33 583.405H1407M1301.33 583.405V684.933M1407 583.405H1512.67M1407 583.405V684.933M1512.67 583.405H1618.33M1512.67 583.405V684.933M1618.33 583.405V684.933M-72.3333 684.933H-178M-72.3333 684.933H33.3333M-72.3333 684.933V786.461M-178 684.933V786.461M33.3333 684.933H139M33.3333 684.933V786.461M139 684.933H244.667M139 684.933V786.461M244.667 684.933H350.333M244.667 684.933V786.461M350.333 684.933H456M350.333 684.933V786.461M456 684.933H561.667M456 684.933V786.461M561.667 684.933H667.333M561.667 684.933V786.461M667.333 684.933H773M667.333 684.933V786.461M773 684.933H878.667M773 684.933V786.461M878.667 684.933H984.333M878.667 684.933V786.461M984.333 684.933H1090M984.333 684.933V786.461M1090 684.933H1195.67M1090 684.933V786.461M1195.67 684.933H1301.33M1195.67 684.933V786.461M1301.33 684.933H1407M1301.33 684.933V786.461M1407 684.933H1512.67M1407 684.933V786.461M1512.67 684.933H1618.33M1512.67 684.933V786.461M1618.33 684.933V786.461M-72.3333 786.461H-178M-72.3333 786.461H33.3333M-72.3333 786.461V887.99M-178 786.461V887.99H-72.3333M33.3333 786.461H139M33.3333 786.461V887.99M139 786.461H244.667M139 786.461V887.99M244.667 786.461H350.333M244.667 786.461V887.99M350.333 786.461H456M350.333 786.461V887.99M456 786.461H561.667M456 786.461V887.99M561.667 786.461H667.333M561.667 786.461V887.99M667.333 786.461H773M667.333 786.461V887.99M773 786.461H878.667M773 786.461V887.99M878.667 786.461H984.333M878.667 786.461V887.99M984.333 786.461H1090M984.333 786.461V887.99M1090 786.461H1195.67M1090 786.461V887.99M1195.67 786.461H1301.33M1195.67 786.461V887.99M1301.33 786.461H1407M1301.33 786.461V887.99M1407 786.461H1512.67M1407 786.461V887.99M1512.67 786.461H1618.33M1512.67 786.461V887.99M1618.33 786.461V887.99H1512.67M-72.3333 887.99H33.3333M33.3333 887.99H139M139 887.99H244.667M244.667 887.99H350.333M350.333 887.99H456M456 887.99H561.667M561.667 887.99H667.333M667.333 887.99H773M773 887.99H878.667M878.667 887.99H984.333M984.333 887.99H1090M1090 887.99H1195.67M1195.67 887.99H1301.33M1301.33 887.99H1407M1407 887.99H1512.67" stroke="url(#paint8_radial_213_591)" stroke-opacity="0.08" stroke-width="2"/>
<path d="M986.376 72.2334H878V176.365H986.376V72.2334Z" fill="url(#paint9_linear_213_591)" fill-opacity="0.02"/>
<circle cx="1302.04" cy="749.815" r="1" fill="white" fill-opacity="0.05"/>
<circle cx="1336.16" cy="495.532" r="1" fill="white" fill-opacity="0.15"/>
<circle cx="1335.73" cy="555.656" r="1" fill="white" fill-opacity="0.1"/>
<circle cx="951.026" cy="529.525" r="1" fill="white" fill-opacity="0.1"/>
<circle cx="565.808" cy="212.882" r="1" fill="white" fill-opacity="0.1"/>
<circle cx="554.623" cy="792.233" r="1" fill="white" fill-opacity="0.15"/>
<circle cx="413.907" cy="274.979" r="1" fill="white" fill-opacity="0.25"/>
<circle cx="1361.82" cy="332.309" r="1" fill="white" fill-opacity="0.1"/>
<circle cx="1239.91" cy="282.779" r="1" fill="white"/>
<circle cx="267.742" cy="136.03" r="1" fill="white" fill-opacity="0.25"/>
<circle cx="304.961" cy="628.153" r="1" fill="white" fill-opacity="0.1"/>
<circle cx="482.067" cy="671.105" r="1" fill="white" fill-opacity="0.05"/>
<circle cx="746.014" cy="693.666" r="1" fill="white" fill-opacity="0.1"/>
<circle cx="1159.78" cy="466.781" r="1" fill="white" fill-opacity="0.05"/>
<circle cx="49.8857" cy="180.962" r="1" fill="white" fill-opacity="0.05"/>
<circle cx="1044.91" cy="528.127" r="1" fill="white" fill-opacity="0.25"/>
<circle cx="451.473" cy="272.958" r="1" fill="white" fill-opacity="0.15"/>
<circle cx="318.93" cy="231.319" r="1" fill="white" fill-opacity="0.15"/>
<circle cx="1279.47" cy="728.392" r="1" fill="white" fill-opacity="0.05"/>
<circle cx="638.88" cy="315.643" r="1" fill="white" fill-opacity="0.25"/>
<circle cx="1197.3" cy="12.8397" r="1" fill="white" fill-opacity="0.25"/>
<circle cx="506.723" cy="307.648" r="1" fill="white" fill-opacity="0.05"/>
<circle cx="482.297" cy="296.833" r="1" fill="white" fill-opacity="0.1"/>
<circle cx="464.194" cy="680.041" r="1" fill="white" fill-opacity="0.25"/>
<circle cx="1290" cy="691.099" r="1" fill="white" fill-opacity="0.1"/>
<circle cx="1262.98" cy="39.9076" r="1" fill="white" fill-opacity="0.25"/>
<circle cx="1024.84" cy="182.655" r="1" fill="white" fill-opacity="0.15"/>
<circle cx="993.237" cy="369.36" r="1" fill="white" fill-opacity="0.05"/>
<circle cx="960.264" cy="625.371" r="1" fill="white"/>
<circle cx="1163.88" cy="761.003" r="1" fill="white" fill-opacity="0.25"/>
<circle cx="315.27" cy="782.964" r="1" fill="white" fill-opacity="0.05"/>
<circle cx="1053.55" cy="603.562" r="1" fill="white" fill-opacity="0.25"/>
<circle cx="719.777" cy="168.9" r="0.5" fill="white" fill-opacity="0.05"/>
<circle cx="411.169" cy="75.7858" r="0.5" fill="white" fill-opacity="0.05"/>
<circle cx="547.281" cy="146.224" r="0.5" fill="white" fill-opacity="0.1"/>
<circle cx="705.812" cy="598.848" r="0.5" fill="white" fill-opacity="0.1"/>
<circle cx="1047.45" cy="638.666" r="0.5" fill="white" fill-opacity="0.25"/>
<circle cx="994.058" cy="80.1406" r="0.5" fill="white" fill-opacity="0.15"/>
<circle cx="641.536" cy="672.006" r="0.5" fill="white" fill-opacity="0.25"/>
<circle cx="75.3379" cy="224.954" r="0.5" fill="white" fill-opacity="0.05"/>
<circle cx="277.617" cy="394.714" r="0.5" fill="white" fill-opacity="0.1"/>
<circle cx="1061.52" cy="696.367" r="0.5" fill="white" fill-opacity="0.25"/>
<circle cx="1321.38" cy="267.054" r="0.5" fill="white" fill-opacity="0.05"/>
<circle cx="493.621" cy="632.887" r="0.5" fill="white" fill-opacity="0.05"/>
<circle cx="450.736" cy="787.151" r="0.5" fill="white"/>
<circle cx="373.121" cy="531.139" r="0.5" fill="white" fill-opacity="0.05"/>
<circle cx="152.854" cy="634.135" r="0.5" fill="white" fill-opacity="0.05"/>
<circle cx="706.162" cy="595.788" r="0.5" fill="white" fill-opacity="0.05"/>
<circle cx="941.124" cy="689.951" r="0.5" fill="white"/>
<circle cx="1355.82" cy="787.854" r="0.5" fill="white" fill-opacity="0.1"/>
<circle cx="841.056" cy="225.334" r="0.5" fill="white" fill-opacity="0.25"/>
<circle cx="337.181" cy="689.471" r="0.5" fill="white"/>
<circle cx="423.115" cy="477.502" r="0.5" fill="white"/>
<circle cx="1246.25" cy="17.689" r="0.5" fill="white" fill-opacity="0.1"/>
<circle cx="-0.378906" cy="709.416" r="0.5" fill="white"/>
<circle cx="970.801" cy="799.234" r="0.5" fill="white" fill-opacity="0.15"/>
<circle cx="521.08" cy="325.797" r="0.5" fill="white" fill-opacity="0.1"/>
<circle cx="948.182" cy="673.73" r="0.5" fill="white" fill-opacity="0.05"/>
<circle cx="840.969" cy="87.051" r="0.5" fill="white" fill-opacity="0.25"/>
<circle cx="910.189" cy="8.06396" r="0.5" fill="white" fill-opacity="0.25"/>
<circle cx="536.585" cy="656.532" r="0.5" fill="white" fill-opacity="0.05"/>
<circle cx="1230.31" cy="385.317" r="0.5" fill="white" fill-opacity="0.25"/>
<circle cx="64.3115" cy="24.5067" r="0.5" fill="white" fill-opacity="0.25"/>
<circle cx="125.811" cy="488.996" r="0.5" fill="white" fill-opacity="0.05"/>
<circle cx="1111.2" cy="215.252" r="0.5" fill="white" fill-opacity="0.25"/>
<circle cx="562.109" cy="135.448" r="0.5" fill="white" fill-opacity="0.15"/>
<circle cx="1144.11" cy="96.3436" r="0.5" fill="white" fill-opacity="0.05"/>
<circle cx="1093.98" cy="631.097" r="0.5" fill="white" fill-opacity="0.15"/>
<circle cx="1149.49" cy="65.6775" r="0.5" fill="white"/>
<circle cx="488.563" cy="207.042" r="0.5" fill="white" fill-opacity="0.15"/>
<circle cx="106.465" cy="757.415" r="0.5" fill="white" fill-opacity="0.05"/>
<circle cx="785.354" cy="647.364" r="0.5" fill="white" fill-opacity="0.25"/>
<circle cx="660.981" cy="514.281" r="0.5" fill="white" fill-opacity="0.25"/>
<circle cx="490.314" cy="42.9818" r="0.5" fill="white" fill-opacity="0.25"/>
<circle cx="996.222" cy="387.174" r="0.5" fill="white"/>
<circle cx="1356.8" cy="713.829" r="0.5" fill="white" fill-opacity="0.25"/>
<circle cx="72.2842" cy="731.463" r="0.5" fill="white" fill-opacity="0.15"/>
<circle cx="956.46" cy="76.7042" r="0.5" fill="white" fill-opacity="0.05"/>
<circle cx="121.279" cy="537.557" r="0.5" fill="white" fill-opacity="0.25"/>
<circle cx="1318.5" cy="584.302" r="0.5" fill="white" fill-opacity="0.25"/>
<circle cx="1245.58" cy="93.6052" r="0.5" fill="white" fill-opacity="0.1"/>
<circle cx="1103.14" cy="476.114" r="0.5" fill="white" fill-opacity="0.05"/>
<circle cx="443.414" cy="274.712" r="0.5" fill="white" fill-opacity="0.1"/>
<circle cx="702.406" cy="551.285" r="0.5" fill="white" fill-opacity="0.1"/>
<circle cx="878.227" cy="393.366" r="0.5" fill="white" fill-opacity="0.1"/>
<circle cx="1071.14" cy="259.641" r="0.5" fill="white" fill-opacity="0.25"/>
<circle cx="280.557" cy="626.412" r="0.5" fill="white" fill-opacity="0.05"/>
<circle cx="843.446" cy="627.457" r="0.5" fill="white"/>
<circle cx="116.372" cy="162.162" r="0.5" fill="white" fill-opacity="0.05"/>
<circle cx="872.636" cy="626.661" r="0.5" fill="white" fill-opacity="0.25"/>
<circle cx="241.916" cy="252.416" r="0.5" fill="white" fill-opacity="0.15"/>
<circle cx="1375.65" cy="599.154" r="0.5" fill="white" fill-opacity="0.25"/>
<circle cx="148.077" cy="104.114" r="0.5" fill="white" fill-opacity="0.15"/>
<circle cx="1322.25" cy="555.729" r="0.5" fill="white" fill-opacity="0.1"/>
<circle cx="1122.97" cy="81.5026" r="0.5" fill="white"/>
<circle cx="275.474" cy="511.685" r="0.5" fill="white"/>
<circle cx="626.043" cy="558.374" r="0.5" fill="white" fill-opacity="0.05"/>
<circle cx="872.016" cy="509.029" r="0.5" fill="white" fill-opacity="0.25"/>
<circle cx="886.46" cy="441.071" r="0.5" fill="white"/>
<circle cx="828.829" cy="436.905" r="0.5" fill="white" fill-opacity="0.15"/>
<circle cx="1155.49" cy="495.709" r="0.5" fill="white" fill-opacity="0.1"/>
<circle cx="788.726" cy="327.447" r="0.5" fill="white" fill-opacity="0.05"/>
<circle cx="903.369" cy="718.919" r="0.5" fill="white" fill-opacity="0.05"/>
<circle cx="1160.54" cy="341.772" r="0.5" fill="white"/>
<circle cx="88.2197" cy="193.844" r="0.5" fill="white" fill-opacity="0.25"/>
<circle cx="518.76" cy="296.862" r="0.5" fill="white" fill-opacity="0.05"/>
<circle cx="750.344" cy="509.145" r="0.5" fill="white" fill-opacity="0.15"/>
<circle cx="1025.08" cy="455.463" r="0.5" fill="white" fill-opacity="0.1"/>
<circle cx="855.426" cy="148.752" r="0.5" fill="white" fill-opacity="0.25"/>
<circle cx="893.872" cy="350.809" r="0.5" fill="white" fill-opacity="0.25"/>
<circle cx="124.217" cy="314.155" r="0.5" fill="white" fill-opacity="0.25"/>
<circle cx="984.662" cy="113.988" r="0.5" fill="white" fill-opacity="0.05"/>
<circle cx="1053.85" cy="727.025" r="0.5" fill="white" fill-opacity="0.15"/>
<circle cx="1281.53" cy="619.882" r="0.5" fill="white" fill-opacity="0.25"/>
<circle cx="155.524" cy="195.828" r="0.5" fill="white" fill-opacity="0.05"/>
<circle cx="534.474" cy="602.625" r="0.5" fill="white" fill-opacity="0.15"/>
<circle cx="1118.23" cy="209.937" r="0.5" fill="white" fill-opacity="0.15"/>
<circle cx="80.4951" cy="536.484" r="0.5" fill="white" fill-opacity="0.25"/>
<circle cx="1034.47" cy="498.171" r="0.5" fill="white" fill-opacity="0.15"/>
<circle cx="1316.04" cy="289.704" r="0.5" fill="white" fill-opacity="0.1"/>
<circle cx="24.9795" cy="404.333" r="0.5" fill="white" fill-opacity="0.05"/>
<circle cx="1115.54" cy="586.71" r="0.5" fill="white" fill-opacity="0.05"/>
<circle cx="1079.32" cy="351.058" r="0.5" fill="white" fill-opacity="0.1"/>
<circle cx="762.045" cy="408.842" r="0.5" fill="white" fill-opacity="0.1"/>
<circle cx="79.1152" cy="33.1909" r="0.5" fill="white" fill-opacity="0.05"/>
<circle cx="771.102" cy="673.407" r="0.5" fill="white" fill-opacity="0.15"/>
<circle cx="379.562" cy="293.259" r="0.5" fill="white" fill-opacity="0.05"/>
<circle cx="553.704" cy="521.853" r="0.5" fill="white"/>
<circle cx="1204.38" cy="229.783" r="0.5" fill="white" fill-opacity="0.25"/>
<circle cx="690.591" cy="240.199" r="0.5" fill="white" fill-opacity="0.15"/>
<circle cx="1178.83" cy="244.542" r="0.5" fill="white" fill-opacity="0.25"/>
<circle cx="884.332" cy="52.5266" r="0.5" fill="white" fill-opacity="0.25"/>
<circle cx="598.806" cy="614.108" r="0.5" fill="white" fill-opacity="0.25"/>
<circle cx="127.157" cy="644.467" r="0.5" fill="white" fill-opacity="0.05"/>
<circle cx="862.47" cy="241.946" r="0.5" fill="white" fill-opacity="0.15"/>
<circle cx="868.498" cy="477.567" r="0.5" fill="white" fill-opacity="0.15"/>
<circle cx="400.465" cy="678.512" r="0.5" fill="white" fill-opacity="0.1"/>
<circle cx="1086.12" cy="267.965" r="0.5" fill="white" fill-opacity="0.05"/>
<circle cx="1081.39" cy="550.5" r="0.5" fill="white" fill-opacity="0.25"/>
<circle cx="493.828" cy="51.4713" r="0.5" fill="white" fill-opacity="0.05"/>
<circle cx="1059.11" cy="769.043" r="0.5" fill="white"/>
<circle cx="1376.29" cy="533.853" r="0.5" fill="white" fill-opacity="0.25"/>
<circle cx="845.248" cy="365.198" r="0.5" fill="white" fill-opacity="0.05"/>
<circle cx="404.506" cy="27.0389" r="0.5" fill="white" fill-opacity="0.15"/>
<circle cx="705.293" cy="657.941" r="0.5" fill="white" fill-opacity="0.25"/>
<circle cx="1386.1" cy="381.214" r="0.5" fill="white" fill-opacity="0.1"/>
<circle cx="1057.74" cy="383.454" r="0.5" fill="white" fill-opacity="0.05"/>
<circle cx="184.079" cy="720.538" r="0.5" fill="white" fill-opacity="0.05"/>
<circle cx="1340.45" cy="679.587" r="0.5" fill="white" fill-opacity="0.05"/>
<circle cx="838.967" cy="710.066" r="0.5" fill="white" fill-opacity="0.25"/>
<circle cx="419.744" cy="410.858" r="0.5" fill="white" fill-opacity="0.1"/>
<circle cx="759.797" cy="728.545" r="0.5" fill="white" fill-opacity="0.15"/>
<circle cx="782.479" cy="286.813" r="0.5" fill="white" fill-opacity="0.25"/>
<circle cx="96.5088" cy="669" r="0.5" fill="white" fill-opacity="0.25"/>
<circle cx="1074.76" cy="145.961" r="0.5" fill="white" fill-opacity="0.1"/>
<circle cx="1336.87" cy="794.477" r="0.5" fill="white" fill-opacity="0.1"/>
<circle cx="305.805" cy="798.944" r="0.5" fill="white" fill-opacity="0.25"/>
<circle cx="523.361" cy="400.034" r="0.5" fill="white" fill-opacity="0.25"/>
<circle cx="882.469" cy="632.517" r="0.5" fill="white" fill-opacity="0.1"/>
<circle cx="183.061" cy="36.1035" r="0.5" fill="white" fill-opacity="0.05"/>
<circle cx="784.437" cy="330.554" r="0.5" fill="white" fill-opacity="0.25"/>
<circle cx="278.716" cy="81.8601" r="0.5" fill="white" fill-opacity="0.1"/>
<circle cx="1118.45" cy="399.481" r="0.5" fill="white"/>
<circle cx="1387.5" cy="341.294" r="0.5" fill="white" fill-opacity="0.1"/>
<circle cx="1345.7" cy="514.571" r="0.5" fill="white"/>
<circle cx="109.673" cy="115.099" r="0.5" fill="white" fill-opacity="0.05"/>
<circle cx="237.156" cy="480.92" r="0.5" fill="white" fill-opacity="0.05"/>
<circle cx="742.795" cy="476.531" r="0.5" fill="white" fill-opacity="0.25"/>
<circle cx="223.42" cy="27.2939" r="0.5" fill="white" fill-opacity="0.1"/>
<circle cx="59.4404" cy="312.286" r="0.5" fill="white" fill-opacity="0.15"/>
<circle cx="1200.95" cy="124.234" r="0.5" fill="white" fill-opacity="0.15"/>
<circle cx="1042.61" cy="477.808" r="0.5" fill="white" fill-opacity="0.1"/>
<circle cx="170.199" cy="613.861" r="0.5" fill="white" fill-opacity="0.1"/>
<circle cx="1241.9" cy="610.354" r="0.5" fill="white" fill-opacity="0.25"/>
<circle cx="435.389" cy="711.807" r="0.5" fill="white"/>
<circle cx="770.613" cy="196.077" r="0.5" fill="white" fill-opacity="0.15"/>
<circle cx="743.587" cy="231.786" r="0.5" fill="white" fill-opacity="0.25"/>
<circle cx="1101.18" cy="745.258" r="0.5" fill="white"/>
<circle cx="334.264" cy="512.317" r="0.5" fill="white"/>
<circle cx="761.562" cy="353.291" r="0.5" fill="white" fill-opacity="0.25"/>
<circle cx="1358.57" cy="160.41" r="0.5" fill="white" fill-opacity="0.15"/>
<circle cx="800.775" cy="172.437" r="0.5" fill="white" fill-opacity="0.05"/>
<circle cx="921.495" cy="453.604" r="0.5" fill="white" fill-opacity="0.1"/>
<circle cx="952.035" cy="246.027" r="0.5" fill="white" fill-opacity="0.15"/>
<circle cx="190.39" cy="533.119" r="0.5" fill="white" fill-opacity="0.25"/>
<circle cx="257.609" cy="610.719" r="0.5" fill="white" fill-opacity="0.15"/>
<circle cx="600.368" cy="159.077" r="0.5" fill="white" fill-opacity="0.25"/>
<circle cx="987.253" cy="505.109" r="0.5" fill="white"/>
<circle cx="659.932" cy="792.089" r="0.5" fill="white" fill-opacity="0.05"/>
<circle cx="526.229" cy="547.632" r="0.5" fill="white" fill-opacity="0.25"/>
<circle cx="23.9521" cy="184.708" r="0.5" fill="white" fill-opacity="0.1"/>
<circle cx="673.521" cy="796.316" r="0.5" fill="white" fill-opacity="0.25"/>
<circle cx="573.193" cy="504.663" r="0.5" fill="white" fill-opacity="0.1"/>
<circle cx="464.928" cy="453.764" r="0.5" fill="white"/>
<circle cx="1038.68" cy="361.871" r="0.5" fill="white" fill-opacity="0.1"/>
<circle cx="273.032" cy="640.958" r="0.5" fill="white" fill-opacity="0.1"/>
<circle cx="985.831" cy="12.3202" r="0.5" fill="white" fill-opacity="0.15"/>
<circle cx="431.29" cy="630.109" r="0.5" fill="white" fill-opacity="0.05"/>
<circle cx="1001.99" cy="224.021" r="0.5" fill="white" fill-opacity="0.25"/>
<circle cx="64.9902" cy="437.911" r="0.5" fill="white" fill-opacity="0.25"/>
<circle cx="1003.95" cy="45.7562" r="0.5" fill="white" fill-opacity="0.15"/>
<circle cx="1221.4" cy="460.52" r="0.5" fill="white" fill-opacity="0.15"/>
<circle cx="1320.65" cy="243.898" r="0.5" fill="white" fill-opacity="0.1"/>
<circle cx="1249.87" cy="643.155" r="0.5" fill="white"/>
<circle cx="103.097" cy="777.971" r="0.5" fill="white" fill-opacity="0.1"/>
<circle cx="127.825" cy="659.037" r="0.5" fill="white" fill-opacity="0.1"/>
<circle cx="525.277" cy="383.92" r="0.5" fill="white" fill-opacity="0.1"/>
<circle cx="981.979" cy="237.134" r="0.5" fill="white" fill-opacity="0.05"/>
<circle cx="59.8818" cy="108.313" r="0.5" fill="white" fill-opacity="0.15"/>
<circle cx="186.727" cy="775.641" r="0.5" fill="white" fill-opacity="0.05"/>
<circle cx="977.573" cy="392.946" r="0.5" fill="white" fill-opacity="0.25"/>
<circle cx="629.617" cy="592.126" r="0.5" fill="white" fill-opacity="0.1"/>
<circle cx="548.661" cy="792.201" r="0.5" fill="white" fill-opacity="0.25"/>
<circle cx="350.414" cy="188.177" r="0.5" fill="white" fill-opacity="0.1"/>
<circle cx="696.392" cy="529.391" r="0.5" fill="white" fill-opacity="0.05"/>
<circle cx="686.42" cy="719.561" r="0.5" fill="white" fill-opacity="0.15"/>
<circle cx="161.956" cy="670.155" r="0.5" fill="white" fill-opacity="0.25"/>
<circle cx="1108.43" cy="752.31" r="0.5" fill="white" fill-opacity="0.25"/>
<circle cx="800.328" cy="464.217" r="0.5" fill="white" fill-opacity="0.25"/>
<circle cx="1165.64" cy="476.672" r="0.5" fill="white" fill-opacity="0.25"/>
<circle cx="1149.43" cy="674.451" r="0.5" fill="white" fill-opacity="0.1"/>
<circle cx="255.981" cy="607.103" r="0.5" fill="white" fill-opacity="0.05"/>
<circle cx="601.396" cy="510.104" r="0.5" fill="white" fill-opacity="0.05"/>
<circle cx="6.55664" cy="353.936" r="0.5" fill="white" fill-opacity="0.15"/>
<circle cx="574.153" cy="360.099" r="0.5" fill="white" fill-opacity="0.1"/>
<circle cx="335.604" cy="36.1068" r="0.5" fill="white" fill-opacity="0.05"/>
<circle cx="293.833" cy="257.583" r="0.5" fill="white" fill-opacity="0.25"/>
<circle cx="148.737" cy="362.354" r="0.5" fill="white" fill-opacity="0.25"/>
<circle cx="451.245" cy="458.919" r="0.5" fill="white" fill-opacity="0.05"/>
<circle cx="1057.55" cy="751.433" r="0.5" fill="white" fill-opacity="0.05"/>
<circle cx="457.847" cy="103.988" r="0.5" fill="white" fill-opacity="0.05"/>
<circle cx="540.545" cy="375.224" r="0.5" fill="white" fill-opacity="0.15"/>
<circle cx="1233.24" cy="230.2" r="0.5" fill="white" fill-opacity="0.05"/>
<circle cx="988.997" cy="111.382" r="0.5" fill="white" fill-opacity="0.15"/>
<circle cx="1085.96" cy="384.043" r="0.5" fill="white" fill-opacity="0.1"/>
<circle cx="734" cy="520.954" r="0.5" fill="white" fill-opacity="0.05"/>
<circle cx="624.229" cy="244.539" r="0.5" fill="white" fill-opacity="0.05"/>
<circle cx="230.557" cy="708.861" r="0.5" fill="white" fill-opacity="0.15"/>
<circle cx="713.428" cy="431.489" r="0.5" fill="white" fill-opacity="0.15"/>
<circle cx="730.724" cy="111.898" r="0.5" fill="white" fill-opacity="0.05"/>
<circle cx="1214.85" cy="257.964" r="0.5" fill="white" fill-opacity="0.05"/>
<circle cx="569.874" cy="457.36" r="0.5" fill="white"/>
<circle cx="927.212" cy="138.078" r="0.5" fill="white" fill-opacity="0.05"/>
<circle cx="913.574" cy="430.93" r="0.5" fill="white" fill-opacity="0.25"/>
<circle cx="915.718" cy="579.085" r="0.5" fill="white" fill-opacity="0.1"/>
<circle cx="361.374" cy="72.447" r="0.5" fill="white" fill-opacity="0.05"/>
<circle cx="709.228" cy="322.368" r="0.5" fill="white" fill-opacity="0.05"/>
<circle cx="1014.01" cy="441.969" r="0.5" fill="white" fill-opacity="0.1"/>
<circle cx="1002.28" cy="90.0723" r="0.5" fill="white" fill-opacity="0.25"/>
<circle cx="782.344" cy="514.442" r="0.5" fill="white" fill-opacity="0.15"/>
<circle cx="852.556" cy="119.652" r="0.5" fill="white" fill-opacity="0.25"/>
<circle cx="53.291" cy="301.278" r="0.5" fill="white" fill-opacity="0.05"/>
<circle cx="476.845" cy="190.549" r="0.5" fill="white" fill-opacity="0.1"/>
<circle cx="1144.71" cy="96.3051" r="0.5" fill="white" fill-opacity="0.25"/>
<circle cx="535.613" cy="403.465" r="0.5" fill="white" fill-opacity="0.1"/>
<circle cx="77.9902" cy="516.793" r="0.5" fill="white" fill-opacity="0.25"/>
<circle cx="884.314" cy="583.566" r="0.5" fill="white" fill-opacity="0.25"/>
<circle cx="1033.83" cy="10.7516" r="0.5" fill="white"/>
<circle cx="850.115" cy="357.235" r="0.5" fill="white" fill-opacity="0.05"/>
<circle cx="513.42" cy="184.157" r="0.5" fill="white" fill-opacity="0.1"/>
<circle cx="1201.53" cy="585.463" r="0.5" fill="white" fill-opacity="0.1"/>
<circle cx="717.35" cy="435.854" r="0.5" fill="white" fill-opacity="0.25"/>
<circle cx="273.611" cy="361.385" r="0.5" fill="white" fill-opacity="0.15"/>
<circle cx="527.159" cy="255.029" r="0.5" fill="white" fill-opacity="0.25"/>
<circle cx="166.478" cy="84.8113" r="0.5" fill="white" fill-opacity="0.05"/>
<circle cx="1319.56" cy="474.229" r="0.5" fill="white" fill-opacity="0.05"/>
<circle cx="1241.36" cy="701.649" r="0.5" fill="white" fill-opacity="0.25"/>
<circle cx="281.091" cy="443.239" r="0.5" fill="white" fill-opacity="0.25"/>
<circle cx="858.252" cy="740.581" r="0.5" fill="white" fill-opacity="0.15"/>
<circle cx="1191.4" cy="511.588" r="0.5" fill="white" fill-opacity="0.1"/>
<circle cx="272.71" cy="484.967" r="0.5" fill="white" fill-opacity="0.1"/>
<circle cx="1102.19" cy="523.931" r="0.5" fill="white" fill-opacity="0.25"/>
<circle cx="377.407" cy="528.923" r="0.5" fill="white" fill-opacity="0.15"/>
<circle cx="45.6113" cy="143.127" r="0.5" fill="white" fill-opacity="0.05"/>
<circle cx="370.422" cy="153.341" r="0.5" fill="white"/>
<circle cx="751.432" cy="300.384" r="0.5" fill="white" fill-opacity="0.15"/>
<circle cx="477.312" cy="243.688" r="0.5" fill="white" fill-opacity="0.25"/>
<path d="M57.2754 73.7854L57.6997 74.8611L58.7754 75.2854L57.6997 75.7097L57.2754 76.7854L56.8511 75.7097L55.7754 75.2854L56.8511 74.8611L57.2754 73.7854Z" fill="white" fill-opacity="0.25"/>
<path d="M434.367 368.954L434.791 370.03L435.867 370.454L434.791 370.878L434.367 371.954L433.943 370.878L432.867 370.454L433.943 370.03L434.367 368.954Z" fill="white" fill-opacity="0.15"/>
<path d="M30.0723 163.149L30.4965 164.225L31.5723 164.649L30.4965 165.073L30.0723 166.149L29.648 165.073L28.5723 164.649L29.648 164.225L30.0723 163.149Z" fill="white" fill-opacity="0.1"/>
<path d="M324.739 436.438L325.164 437.513L326.239 437.938L325.164 438.362L324.739 439.438L324.315 438.362L323.239 437.938L324.315 437.513L324.739 436.438Z" fill="white" fill-opacity="0.25"/>
<path d="M368.333 323.747L368.757 324.823L369.833 325.247L368.757 325.672L368.333 326.747L367.909 325.672L366.833 325.247L367.909 324.823L368.333 323.747Z" fill="white" fill-opacity="0.15"/>
<path d="M987.144 95.3895L987.568 96.4653L988.644 96.8895L987.568 97.3138L987.144 98.3895L986.719 97.3138L985.644 96.8895L986.719 96.4653L987.144 95.3895Z" fill="white" fill-opacity="0.15"/>
<path d="M1233.19 731.111L1233.61 732.186L1234.69 732.611L1233.61 733.035L1233.19 734.111L1232.76 733.035L1231.69 732.611L1232.76 732.186L1233.19 731.111Z" fill="white" fill-opacity="0.05"/>
<path d="M824.787 131.828L825.211 132.903L826.287 133.328L825.211 133.752L824.787 134.828L824.363 133.752L823.287 133.328L824.363 132.903L824.787 131.828Z" fill="white" fill-opacity="0.1"/>
<path d="M1260.54 56.106L1260.97 57.1817L1262.04 57.606L1260.97 58.0302L1260.54 59.106L1260.12 58.0302L1259.04 57.606L1260.12 57.1817L1260.54 56.106Z" fill="white" fill-opacity="0.25"/>
<path d="M661.514 240.193L661.938 241.268L663.014 241.693L661.938 242.117L661.514 243.193L661.089 242.117L660.014 241.693L661.089 241.268L661.514 240.193Z" fill="white" fill-opacity="0.1"/>
<path d="M1338.25 733.171L1338.67 734.247L1339.75 734.671L1338.67 735.095L1338.25 736.171L1337.82 735.095L1336.75 734.671L1337.82 734.247L1338.25 733.171Z" fill="white" fill-opacity="0.1"/>
<path d="M388.248 227.198L388.672 228.273L389.748 228.698L388.672 229.122L388.248 230.198L387.824 229.122L386.748 228.698L387.824 228.273L388.248 227.198Z" fill="white" fill-opacity="0.25"/>
<path d="M843.945 751.249L844.37 752.324L845.445 752.749L844.37 753.173L843.945 754.249L843.521 753.173L842.445 752.749L843.521 752.324L843.945 751.249Z" fill="white" fill-opacity="0.15"/>
<path d="M193.484 406.419L193.909 407.495L194.984 407.919L193.909 408.344L193.484 409.419L193.06 408.344L191.984 407.919L193.06 407.495L193.484 406.419Z" fill="white" fill-opacity="0.25"/>
<path d="M1298.71 247.153L1299.14 248.229L1300.21 248.653L1299.14 249.078L1298.71 250.153L1298.29 249.078L1297.21 248.653L1298.29 248.229L1298.71 247.153Z" fill="white" fill-opacity="0.25"/>
<path d="M907.09 408.053L907.514 409.129L908.59 409.553L907.514 409.978L907.09 411.053L906.666 409.978L905.59 409.553L906.666 409.129L907.09 408.053Z" fill="white" fill-opacity="0.1"/>
<path d="M907.84 73.5599L908.264 74.6357L909.34 75.0599L908.264 75.4842L907.84 76.5599L907.416 75.4842L906.34 75.0599L907.416 74.6357L907.84 73.5599Z" fill="white" fill-opacity="0.05"/>
<path d="M236.071 363.427L236.496 364.503L237.571 364.927L236.496 365.351L236.071 366.427L235.647 365.351L234.571 364.927L235.647 364.503L236.071 363.427Z" fill="white" fill-opacity="0.05"/>
<path d="M1351.85 201.536L1352.28 202.612L1353.35 203.036L1352.28 203.46L1351.85 204.536L1351.43 203.46L1350.35 203.036L1351.43 202.612L1351.85 201.536Z" fill="white" fill-opacity="0.25"/>
<path d="M386.789 448.357L387.213 449.433L388.289 449.857L387.213 450.281L386.789 451.357L386.365 450.281L385.289 449.857L386.365 449.433L386.789 448.357Z" fill="white" fill-opacity="0.15"/>
<path d="M1344.66 590.806L1345.09 591.881L1346.16 592.306L1345.09 592.73L1344.66 593.806L1344.24 592.73L1343.16 592.306L1344.24 591.881L1344.66 590.806Z" fill="white" fill-opacity="0.1"/>
<path d="M1325.01 450.099L1325.44 451.174L1326.51 451.599L1325.44 452.023L1325.01 453.099L1324.59 452.023L1323.51 451.599L1324.59 451.174L1325.01 450.099Z" fill="white" fill-opacity="0.05"/>
<path d="M1083.1 748.93L1083.52 750.006L1084.6 750.43L1083.52 750.854L1083.1 751.93L1082.67 750.854L1081.6 750.43L1082.67 750.006L1083.1 748.93Z" fill="white" fill-opacity="0.25"/>
<circle cx="624.508" cy="474.537" r="1.5" fill="white" fill-opacity="0.1"/>
<circle cx="887.345" cy="309.575" r="1.5" fill="white" fill-opacity="0.15"/>
<circle cx="792.133" cy="489.807" r="1.5" fill="white" fill-opacity="0.15"/>
<circle cx="1193.91" cy="783.878" r="1.5" fill="white" fill-opacity="0.25"/>
<circle cx="1166.82" cy="566.592" r="1.5" fill="white" fill-opacity="0.15"/>
<circle cx="29.8877" cy="13.718" r="1.5" fill="white" fill-opacity="0.25"/>
<circle cx="224.616" cy="95.6367" r="1.5" fill="white" fill-opacity="0.25"/>
<circle cx="767.402" cy="779.951" r="1.5" fill="white" fill-opacity="0.25"/>
<circle cx="619.845" cy="596.184" r="1.5" fill="white" fill-opacity="0.05"/>
<circle cx="943.748" cy="684.348" r="1.5" fill="white" fill-opacity="0.05"/>
<circle cx="943.775" cy="288.973" r="1.5" fill="white" fill-opacity="0.15"/>
<circle cx="1130.14" cy="212.535" r="1.5" fill="white" fill-opacity="0.15"/>
<circle cx="577.748" cy="72.2213" r="1.5" fill="white" fill-opacity="0.05"/>
<circle cx="603.14" cy="750.635" r="1.5" fill="white" fill-opacity="0.25"/>
<circle cx="419.779" cy="674.413" r="1.5" fill="white" fill-opacity="0.15"/>
<circle cx="891.83" cy="175.662" r="1.5" fill="white" fill-opacity="0.25"/>
<path d="M73.7051 708.107L74.5711 709.607H72.8391L73.7051 708.107Z" fill="white" fill-opacity="0.25"/>
<path d="M862.958 604.442L863.824 605.942H862.092L862.958 604.442Z" fill="white"/>
<path d="M1010.44 26.236L1011.3 27.736H1009.57L1010.44 26.236Z" fill="white" fill-opacity="0.05"/>
<path d="M1188.55 16.5806L1189.42 18.0806H1187.69L1188.55 16.5806Z" fill="white" fill-opacity="0.25"/>
<path d="M302.255 44.0674L303.121 45.5674H301.389L302.255 44.0674Z" fill="white" fill-opacity="0.25"/>
<path d="M760.65 55.281L761.516 56.781H759.784L760.65 55.281Z" fill="white" fill-opacity="0.1"/>
<path d="M1203.82 88.4845L1204.69 89.9845H1202.96L1203.82 88.4845Z" fill="white" fill-opacity="0.25"/>
<path d="M526.059 75.1328L526.925 76.6328H525.193L526.059 75.1328Z" fill="white" fill-opacity="0.15"/>
<path d="M471.249 565.793L472.115 567.293H470.383L471.249 565.793Z" fill="white" fill-opacity="0.25"/>
<path d="M107.898 728.254L108.764 729.754H107.032L107.898 728.254Z" fill="white" fill-opacity="0.15"/>
<path d="M274.062 384.609L274.929 386.109H273.196L274.062 384.609Z" fill="white" fill-opacity="0.15"/>
<path d="M663.05 234.653L663.916 236.153H662.184L663.05 234.653Z" fill="white" fill-opacity="0.25"/>
<path d="M1107.8 535.511L1108.66 537.011H1106.93L1107.8 535.511Z" fill="white"/>
<path d="M983.038 452.809L983.904 454.309H982.172L983.038 452.809Z" fill="white" fill-opacity="0.05"/>
<path d="M467.197 11.1248L468.063 12.6248H466.331L467.197 11.1248Z" fill="white" fill-opacity="0.25"/>
<path d="M755.636 12.1987L756.502 13.6987H754.77L755.636 12.1987Z" fill="white" fill-opacity="0.15"/>
<path d="M766.848 768.155L767.714 769.655H765.982L766.848 768.155Z" fill="white" fill-opacity="0.05"/>
<path d="M1216.08 101.678L1216.95 103.178H1215.21L1216.08 101.678Z" fill="white" fill-opacity="0.1"/>
<path d="M327.656 313.493L328.522 314.993H326.79L327.656 313.493Z" fill="white" fill-opacity="0.1"/>
<path d="M706.158 665.959L707.024 667.459H705.292L706.158 665.959Z" fill="white" fill-opacity="0.1"/>
<path d="M1000.35 360.774L1001.22 362.274H999.488L1000.35 360.774Z" fill="white" fill-opacity="0.15"/>
<path d="M348.399 170.627L349.265 172.127H347.533L348.399 170.627Z" fill="white" fill-opacity="0.1"/>
<path d="M669.919 675.48L670.785 676.98H669.053L669.919 675.48Z" fill="white" fill-opacity="0.15"/>
<path d="M237.493 519.687L238.359 521.187H236.627L237.493 519.687Z" fill="white" fill-opacity="0.1"/>
<path d="M760.762 516.289L761.628 517.789H759.896L760.762 516.289Z" fill="white"/>
<path d="M602.87 144.718L603.736 146.218H602.004L602.87 144.718Z" fill="white" fill-opacity="0.25"/>
<path d="M411.064 632.419L411.93 633.919H410.198L411.064 632.419Z" fill="white" fill-opacity="0.1"/>
<path d="M359.511 706.042L360.377 707.542H358.645L359.511 706.042Z" fill="white" fill-opacity="0.15"/>
<path d="M300.902 517.007L301.768 518.507H300.036L300.902 517.007Z" fill="white" fill-opacity="0.25"/>
<path d="M224.362 144.402L225.228 145.902H223.496L224.362 144.402Z" fill="white" fill-opacity="0.1"/>
<path d="M749.987 753.83L750.853 755.33H749.121L749.987 753.83Z" fill="white" fill-opacity="0.05"/>
<g filter="url(#filter4_f_213_591)">
<ellipse cx="668.458" cy="195.5" rx="2.5" ry="16.4583" transform="rotate(90 668.458 195.5)" fill="white"/>
</g>
</g>
<defs>
<filter id="filter0_f_213_591" x="221.959" y="-1028" width="1112.29" height="1785.99" filterUnits="userSpaceOnUse" color-interpolation-filters="sRGB">
<feFlood flood-opacity="0" result="BackgroundImageFix"/>
<feBlend mode="normal" in="SourceGraphic" in2="BackgroundImageFix" result="shape"/>
<feGaussianBlur stdDeviation="48" result="effect1_foregroundBlur_213_591"/>
</filter>
<filter id="filter1_f_213_591" x="418.249" y="-896" width="1042" height="1664.24" filterUnits="userSpaceOnUse" color-interpolation-filters="sRGB">
<feFlood flood-opacity="0" result="BackgroundImageFix"/>
<feBlend mode="normal" in="SourceGraphic" in2="BackgroundImageFix" result="shape"/>
<feGaussianBlur stdDeviation="48" result="effect1_foregroundBlur_213_591"/>
</filter>
<filter id="filter2_f_213_591" x="254.296" y="-1007" width="1169.95" height="1885.86" filterUnits="userSpaceOnUse" color-interpolation-filters="sRGB">
<feFlood flood-opacity="0" result="BackgroundImageFix"/>
<feBlend mode="normal" in="SourceGraphic" in2="BackgroundImageFix" result="shape"/>
<feGaussianBlur stdDeviation="48" result="effect1_foregroundBlur_213_591"/>
</filter>
<filter id="filter3_f_213_591" x="303.249" y="-864" width="1042" height="1664.24" filterUnits="userSpaceOnUse" color-interpolation-filters="sRGB">
<feFlood flood-opacity="0" result="BackgroundImageFix"/>
<feBlend mode="normal" in="SourceGraphic" in2="BackgroundImageFix" result="shape"/>
<feGaussianBlur stdDeviation="48" result="effect1_foregroundBlur_213_591"/>
</filter>
<filter id="filter4_f_213_591" x="611.999" y="153" width="112.917" height="85" filterUnits="userSpaceOnUse" color-interpolation-filters="sRGB">
<feFlood flood-opacity="0" result="BackgroundImageFix"/>
<feBlend mode="normal" in="SourceGraphic" in2="BackgroundImageFix" result="shape"/>
<feGaussianBlur stdDeviation="20" result="effect1_foregroundBlur_213_591"/>
</filter>
<linearGradient id="paint0_linear_213_591" x1="1238.25" y1="-932" x2="317.959" y2="661.989" gradientUnits="userSpaceOnUse">
<stop stop-color="white"/>
<stop offset="1" stop-color="white" stop-opacity="0.54"/>
</linearGradient>
<linearGradient id="paint1_linear_213_591" x1="888" y1="24" x2="666" y2="451.5" gradientUnits="userSpaceOnUse">
<stop stop-color="white"/>
<stop offset="1" stop-color="white" stop-opacity="0"/>
</linearGradient>
<linearGradient id="paint2_linear_213_591" x1="780.367" y1="37.0723" x2="528.335" y2="530.468" gradientUnits="userSpaceOnUse">
<stop stop-color="white"/>
<stop offset="1" stop-color="white" stop-opacity="0"/>
</linearGradient>
<linearGradient id="paint3_linear_213_591" x1="773" y1="56" x2="551" y2="483.5" gradientUnits="userSpaceOnUse">
<stop stop-color="white"/>
<stop offset="1" stop-color="white" stop-opacity="0"/>
</linearGradient>
<linearGradient id="paint4_linear_213_591" x1="191.188" y1="178.176" x2="191.188" y2="282.307" gradientUnits="userSpaceOnUse">
<stop stop-color="white" stop-opacity="0"/>
<stop offset="1" stop-color="white"/>
</linearGradient>
<linearGradient id="paint5_linear_213_591" x1="402.5" y1="485.408" x2="402.5" y2="582.683" gradientUnits="userSpaceOnUse">
<stop stop-color="white" stop-opacity="0"/>
<stop offset="1" stop-color="white"/>
</linearGradient>
<linearGradient id="paint6_linear_213_591" x1="1145.19" y1="479.63" x2="1145.19" y2="583.761" gradientUnits="userSpaceOnUse">
<stop stop-color="white" stop-opacity="0"/>
<stop offset="1" stop-color="white"/>
</linearGradient>
<linearGradient id="paint7_linear_213_591" x1="403.188" y1="73.1964" x2="403.188" y2="177.328" gradientUnits="userSpaceOnUse">
<stop stop-color="white" stop-opacity="0"/>
<stop offset="1" stop-color="white"/>
</linearGradient>
<radialGradient id="paint8_radial_213_591" cx="0" cy="0" r="1" gradientUnits="userSpaceOnUse" gradientTransform="translate(720.167 311.362) rotate(90) scale(575.326 899.522)">
<stop stop-color="white"/>
<stop offset="1" stop-color="white" stop-opacity="0"/>
</radialGradient>
<linearGradient id="paint9_linear_213_591" x1="932.188" y1="72.2334" x2="932.188" y2="176.365" gradientUnits="userSpaceOnUse">
<stop stop-color="white" stop-opacity="0"/>
<stop offset="1" stop-color="white"/>
</linearGradient>
<clipPath id="clip0_213_591">
<rect width="1440" height="800" fill="white"/>
</clipPath>
</defs>
</svg>
