<?xml version="1.0" standalone="no"?>
<!DOCTYPE svg PUBLIC "-//W3C//DTD SVG 20010904//EN"
 "http://www.w3.org/TR/2001/REC-SVG-20010904/DTD/svg10.dtd">
<svg version="1.0" xmlns="http://www.w3.org/2000/svg"
 width="64.000000pt" height="64.000000pt" viewBox="0 0 64.000000 64.000000"
 preserveAspectRatio="xMidYMid meet">

<g transform="translate(0.000000,64.000000) scale(0.100000,-0.100000)"
fill="#000000" stroke="none">
<path d="M224 626 c-222 -72 -294 -343 -138 -516 43 -48 134 -96 200 -106 94
-14 231 54 291 143 41 63 67 152 59 207 -16 108 -98 216 -195 259 -57 25 -162
32 -217 13z m274 -200 c-5 -22 -172 -315 -180 -316 -7 0 -188 312 -188 324 0
3 84 6 186 6 156 0 185 -2 182 -14z"/>
</g>
</svg>
