<svg width="387" height="84" viewBox="0 0 387 84" fill="none" xmlns="http://www.w3.org/2000/svg">
<circle cx="42" cy="42" r="42" fill="#FFFFFE"/>
<path d="M42 64L62 29H22L42 64Z" fill="#012E43"/>
<path d="M104 65.2161V18H110.458V59.0836H129.852V65.2161H104Z" fill="white"/>
<path d="M157.051 50.5303V29.804H163.321V65.2161H157.177V59.0836H156.842C156.104 60.9741 154.92 62.5495 153.29 63.8098C151.673 65.0548 149.66 65.6772 147.25 65.6772C145.188 65.6772 143.363 65.1777 141.774 64.1787C140.2 63.1643 138.96 61.6657 138.054 59.683C137.163 57.7003 136.717 55.2488 136.717 52.3285V29.804H142.966V51.4986C142.966 53.9116 143.572 55.8329 144.784 57.2622C145.996 58.6916 147.57 59.4063 149.507 59.4063C150.677 59.4063 151.841 59.0836 152.997 58.438C154.167 57.7925 155.136 56.8165 155.902 55.5101C156.682 54.2036 157.065 52.5437 157.051 50.5303Z" fill="white"/>
<path d="M176.649 29.804L183.734 43.5908L190.881 29.804H197.715L187.705 47.5101L197.799 65.2161H190.965L183.734 51.9827L176.524 65.2161H169.669L179.659 47.5101L169.794 29.804H176.649Z" fill="white"/>
<path d="M228.588 65.2161L216.717 18H223.509L231.848 54.5648H232.245L240.918 18H247.647L256.32 54.5879H256.717L265.035 18H271.848L259.957 65.2161H253.457L244.45 29.8501H244.115L235.108 65.2161H228.588Z" fill="white"/>
<path d="M283.416 66C281.381 66 279.542 65.585 277.898 64.755C276.254 63.9097 274.952 62.6878 273.99 61.0893C273.043 59.4909 272.569 57.5312 272.569 55.2104C272.569 53.2123 272.917 51.5677 273.614 50.2767C274.311 48.9856 275.251 47.9635 276.435 47.2104C277.62 46.4573 278.943 45.8886 280.406 45.5043C281.869 45.1201 283.36 44.828 284.878 44.6282C286.801 44.3823 288.362 44.1825 289.56 44.0288C290.758 43.8598 291.629 43.5908 292.172 43.2219C292.715 42.853 292.987 42.2536 292.987 41.4236V41.2622C292.987 39.2488 292.472 37.6888 291.441 36.5821C290.424 35.4755 288.905 34.9222 286.885 34.9222C284.781 34.9222 283.123 35.4371 281.911 36.4669C280.713 37.4813 279.884 38.611 279.424 39.8559L273.551 38.3804C274.248 36.2286 275.265 34.4918 276.603 33.17C277.954 31.8329 279.507 30.8646 281.263 30.2651C283.018 29.6503 284.864 29.3429 286.801 29.3429C288.083 29.3429 289.441 29.512 290.876 29.8501C292.325 30.1729 293.677 30.7723 294.931 31.6484C296.199 32.5245 297.237 33.7771 298.045 35.4063C298.853 37.0202 299.257 39.1182 299.257 41.7003V65.2161H293.154V60.3746H292.904C292.499 61.2661 291.893 62.1422 291.085 63.0029C290.277 63.8636 289.239 64.5783 287.971 65.147C286.704 65.7157 285.185 66 283.416 66ZM284.774 60.4669C286.502 60.4669 287.978 60.0903 289.204 59.3372C290.444 58.5841 291.385 57.6004 292.026 56.3862C292.681 55.1566 293.008 53.8425 293.008 52.4438V47.879C292.785 48.1249 292.353 48.3554 291.712 48.5706C291.085 48.7704 290.368 48.9472 289.56 49.1009C288.752 49.2392 287.964 49.3698 287.198 49.4928C286.432 49.6004 285.791 49.6926 285.276 49.7695C284.063 49.9385 282.956 50.2229 281.953 50.6225C280.963 51.0221 280.169 51.5985 279.57 52.3516C278.985 53.0893 278.692 54.073 278.692 55.3026C278.692 57.0086 279.264 58.2997 280.406 59.1758C281.549 60.0365 283.005 60.4669 284.774 60.4669Z" fill="white"/>
<path d="M313.828 18V65.2161H307.58V18H313.828Z" fill="white"/>
<path d="M328.484 18V65.2161H322.235V18H328.484Z" fill="white"/>
<path d="M350.725 65.9308C347.562 65.9308 344.839 65.1854 342.554 63.6945C340.283 62.1883 338.527 60.0749 337.287 57.3545C336.061 54.6186 335.448 51.414 335.448 47.7406C335.448 44.1134 336.061 40.9164 337.287 38.1499C338.527 35.3833 340.255 33.2238 342.47 31.6715C344.699 30.1191 347.305 29.3429 350.286 29.3429C352.097 29.3429 353.853 29.6734 355.553 30.3343C357.252 30.9952 358.778 32.0327 360.129 33.4467C361.481 34.8607 362.547 36.6974 363.327 38.9568C364.107 41.2008 364.497 43.9289 364.497 47.1412V49.585H338.98V44.4207H358.374C358.374 42.6071 358.04 41.001 357.371 39.6023C356.702 38.1883 355.762 37.074 354.55 36.2594C353.351 35.4448 351.944 35.0375 350.328 35.0375C348.572 35.0375 347.04 35.5139 345.73 36.4669C344.435 37.4044 343.431 38.634 342.721 40.1556C342.024 41.6619 341.676 43.2988 341.676 45.0663V49.1009C341.676 51.4678 342.052 53.4813 342.804 55.1412C343.571 56.8012 344.637 58.0692 346.002 58.9452C347.367 59.806 348.963 60.2363 350.788 60.2363C351.972 60.2363 353.052 60.0519 354.027 59.683C355.002 59.2988 355.845 58.7301 356.556 57.9769C357.266 57.2238 357.81 56.2939 358.186 55.1873L364.1 56.3631C363.627 58.2843 362.777 59.9673 361.551 61.4121C360.338 62.8415 358.813 63.9558 356.974 64.755C355.149 65.5389 353.066 65.9308 350.725 65.9308Z" fill="white"/>
<path d="M386.415 29.804V35.3372H368.881V29.804H386.415ZM373.583 21.3199H379.832V54.8184C379.832 56.1556 380.013 57.1623 380.375 57.8386C380.737 58.4995 381.204 58.9529 381.775 59.1988C382.361 59.4294 382.994 59.5447 383.677 59.5447C384.179 59.5447 384.618 59.5062 384.994 59.4294C385.37 59.3525 385.662 59.2911 385.871 59.245L387 64.9395C386.638 65.0932 386.122 65.2469 385.454 65.4006C384.785 65.5696 383.949 65.6619 382.946 65.6772C381.302 65.708 379.769 65.3852 378.348 64.7089C376.927 64.0327 375.777 62.9875 374.9 61.5735C374.022 60.1595 373.583 58.3842 373.583 56.2478V21.3199Z" fill="white"/>
</svg>
