<svg width="513" height="513" viewBox="0 0 513 513" fill="none" xmlns="http://www.w3.org/2000/svg">
<circle cx="256.933" cy="256.245" r="256" fill="black"/>
<g clip-path="url(#clip0_24_904)">
<path d="M301.315 145H197.199L188.564 193.619L282.542 193.731C328.834 193.731 342.483 210.686 342.093 238.757C341.87 253.13 335.686 277.495 333.012 285.411C325.882 306.465 311.231 330.437 256.304 330.381L164.944 330.325L156.337 379H260.231C296.886 379 312.429 374.677 328.974 367.042C365.573 349.918 387.355 313.538 396.101 266.042C409.052 195.303 392.897 145 301.315 145Z" fill="white"/>
<path d="M152.271 237.578C124.974 237.578 121.075 255.487 118.512 266.323C115.114 280.471 114 286.253 114 286.253H220.623C247.92 286.253 251.819 268.344 254.382 257.509C257.78 243.361 258.894 237.578 258.894 237.578H152.271Z" fill="white"/>
</g>
<defs>
<clipPath id="clip0_24_904">
<rect width="286" height="234" fill="white" transform="translate(114 145)"/>
</clipPath>
</defs>
</svg>
