<?xml version="1.0" encoding="UTF-8"?>
<svg version="1.1" viewBox="0 0 800 800" width="200" height="200" xmlns="http://www.w3.org/2000/svg">
<path transform="translate(0)" d="m0 0h800v800h-800z"/>
<path transform="translate(598,138)" d="m0 0h24l15 4 13 7 11 9 8 8 6 12v19l-4 15-8 17-10 14-11 12-10 8-13 8-26 14-28 14-6 15-6 25-10 56-9 48-9 40-10 36-11 32-11 26-12 23-11 17-10 13-12 13-12 11-10 7-14 8-17 7-17 4-19 2-12-3-14-7-12-9-10-9-9-9-10-14-14-30-8-22-5-20-3-20-1-26-5-59-4-33-8-36-19-78-4-15-6-11-8-8-10-8-11-9-14-12-10-10-10-14-5-12-1-4v-19l4-15 8-15 7-6 12-5 6-1h14l19 3 15 5 16 8 16 12 28 24 11 10 4 3h11l50-9 18-2h14l23 4 8 2h9l13-3 20-8 29-15 22-12 29-14 15-6 19-5z" fill="#FEFFFE"/>
<path transform="translate(370,543)" d="m0 0h9l15 3 16 8 10 9 7 9 5 11 2 7v18l-4 13-6 10-9 10-10 8-16 8-17 5h-23l-11-3-10-6-9-10-4-12-1-7v-17l3-17 4-13 6-10 12-12 10-6 9-4z"/>
<path transform="translate(459,320)" d="m0 0h11l9 4 8 7 7 11 4 10 5 24v14l-4 15-5 10-8 9-11 4h-12l-16-3-14-5-10-9-5-10-1-4v-21l3-12 9-19 9-12 11-9z"/>
<path transform="translate(298,335)" d="m0 0h15l9 4 8 7 6 10 3 12v9l-3 12-5 9-7 7-10 5-11 1-8-2-6-3-5-5-6-8-3-9-1-6v-11l3-11 5-10 9-8z"/>
<path transform="translate(519,202)" d="m0 0 7 1 4 4-4 5 1 4 2 2-1 4-9 3-4 8-1 17-3 6-5 3-5-2-5-7-9-3-4-5 1-4 13-3 4-4-2-6-5-5-4-3 1-5 4-2 16-1 4-1 2-4z"/>
</svg>
