<svg width="513" height="512" viewBox="0 0 513 512" fill="none" xmlns="http://www.w3.org/2000/svg">
<circle cx="256.183" cy="255.995" r="256" fill="black"/>
<g clip-path="url(#clip0_40_259)">
<path d="M188.408 276.761C197.834 276.761 207.03 273.619 214.464 267.871L154.688 208.095C140.28 226.718 143.729 253.54 162.351 267.948C169.862 273.619 178.981 276.761 188.408 276.761Z" fill="white"/>
<path d="M366.202 234.075C366.202 224.648 363.06 215.452 357.312 208.019L297.536 267.794C316.159 282.202 342.905 278.753 357.312 260.131C363.06 252.697 366.202 243.501 366.202 234.075Z" fill="white"/>
<path d="M396.32 169.011L369.88 195.45C391.185 220.97 387.813 258.981 362.293 280.286C339.916 298.985 307.422 298.985 285.045 280.286L256 309.331L227.032 280.363C201.512 301.667 163.501 298.295 142.196 272.776C123.497 250.398 123.497 217.905 142.196 195.527L128.632 181.963L115.757 169.011C100.2 194.607 92 224.036 92 254C92 344.583 165.417 418 256 418C346.583 418 420 344.583 420 254C420.077 224.036 411.8 194.607 396.32 169.011Z" fill="white"/>
<path d="M374.632 140.809C312.174 75.2858 208.409 72.8334 142.886 135.291C140.97 137.131 139.131 138.97 137.368 140.809C133.307 145.101 129.475 149.546 125.873 154.22L256 284.424L386.127 154.22C382.602 149.546 378.693 145.101 374.632 140.809ZM256 111.458C294.318 111.458 330.03 126.248 356.852 153.224L256 254.076L155.148 153.224C181.97 126.248 217.682 111.458 256 111.458Z" fill="white"/>
</g>
<defs>
<clipPath id="clip0_40_259">
<rect width="328" height="328" fill="white" transform="translate(92 90)"/>
</clipPath>
</defs>
</svg>
