<?xml version="1.0" encoding="UTF-8"?>
<!DOCTYPE svg PUBLIC "-//W3C//DTD SVG 1.1//EN" "http://www.w3.org/Graphics/SVG/1.1/DTD/svg11.dtd">
<svg xmlns="http://www.w3.org/2000/svg" version="1.1" width="64px" height="64px" style="shape-rendering:geometricPrecision; text-rendering:geometricPrecision; image-rendering:optimizeQuality; fill-rule:evenodd; clip-rule:evenodd" xmlns:xlink="http://www.w3.org/1999/xlink">
<g><path style="opacity:1" fill="#062439" d="M -0.5,-0.5 C 2.83333,-0.5 6.16667,-0.5 9.5,-0.5C 9.51056,1.01739 10.1772,2.18405 11.5,3C 6.97145,6.36354 2.97145,10.1969 -0.5,14.5C -0.5,9.5 -0.5,4.5 -0.5,-0.5 Z"/></g>
<g><path style="opacity:1" fill="#275a38" d="M 16.5,-0.5 C 17.1667,-0.5 17.8333,-0.5 18.5,-0.5C 18.5569,0.608953 18.8902,1.60895 19.5,2.5C 18.5,2.5 17.5,2.5 16.5,2.5C 16.5,1.5 16.5,0.5 16.5,-0.5 Z"/></g>
<g><path style="opacity:1" fill="#215a2d" d="M 48.5,-0.5 C 53.5,-0.5 58.5,-0.5 63.5,-0.5C 63.5,2.5 63.5,5.5 63.5,8.5C 63.1667,8.5 62.8333,8.5 62.5,8.5C 61.2347,7.52066 59.9014,6.52066 58.5,5.5C 53.5509,6.60446 50.2176,4.60446 48.5,-0.5 Z"/></g>
<g><path style="opacity:1" fill="#215a2c" d="M 23.5,-0.5 C 29.5,-0.5 35.5,-0.5 41.5,-0.5C 41.2178,0.777652 40.5511,1.77765 39.5,2.5C 38.1054,1.18543 37.1054,1.51877 36.5,3.5C 33.5159,5.99309 30.5159,5.99309 27.5,3.5C 26.1667,2.16667 24.8333,0.833333 23.5,-0.5 Z"/></g>
<g><path style="opacity:1" fill="#b9bdc0" d="M 18.5,-0.5 C 20.1667,-0.5 21.8333,-0.5 23.5,-0.5C 24.8333,0.833333 26.1667,2.16667 27.5,3.5C 27.5,4.5 27.5,5.5 27.5,6.5C 23.9812,6.74074 21.3145,5.40741 19.5,2.5C 18.8902,1.60895 18.5569,0.608953 18.5,-0.5 Z"/></g>
<g><path style="opacity:1" fill="#c7dbe0" d="M 11.5,-0.5 C 12.1667,-0.5 12.8333,-0.5 13.5,-0.5C 16.1456,5.14324 20.1456,9.47657 25.5,12.5C 22.7628,12.4013 20.0961,12.7347 17.5,13.5C 16.2673,10.2652 14.6006,7.26519 12.5,4.5C 12.3713,2.7839 12.038,1.11723 11.5,-0.5 Z"/></g>
<g><path style="opacity:1" fill="#9caeb8" d="M 9.5,-0.5 C 10.1667,-0.5 10.8333,-0.5 11.5,-0.5C 12.038,1.11723 12.3713,2.7839 12.5,4.5C 7.80375,7.87311 3.47042,11.5398 -0.5,15.5C -0.5,15.1667 -0.5,14.8333 -0.5,14.5C 2.97145,10.1969 6.97145,6.36354 11.5,3C 10.1772,2.18405 9.51056,1.01739 9.5,-0.5 Z"/></g>
<g><path style="opacity:1" fill="#07263c" d="M 12.5,4.5 C 14.6006,7.26519 16.2673,10.2652 17.5,13.5C 15.0905,14.7007 13.0905,16.3674 11.5,18.5C 10.8826,18.6107 10.3826,18.944 10,19.5C 6.89902,15.2423 5.23235,15.5756 5,20.5C 5.61524,22.1161 6.61524,23.4495 8,24.5C 8.78914,26.7116 8.62247,28.7116 7.5,30.5C 4.55049,28.8847 1.88382,26.8847 -0.5,24.5C -0.5,21.5 -0.5,18.5 -0.5,15.5C 3.47042,11.5398 7.80375,7.87311 12.5,4.5 Z"/></g>
<g><path style="opacity:1" fill="#5c97db" d="M 41.5,-0.5 C 43.8333,-0.5 46.1667,-0.5 48.5,-0.5C 50.2176,4.60446 53.5509,6.60446 58.5,5.5C 59.9014,6.52066 61.2347,7.52066 62.5,8.5C 55.7452,8.14549 49.0786,7.14549 42.5,5.5C 41.2299,4.71237 40.2299,3.71237 39.5,2.5C 40.5511,1.77765 41.2178,0.777652 41.5,-0.5 Z"/></g>
<g><path style="opacity:1" fill="#6297db" d="M 13.5,-0.5 C 14.5,-0.5 15.5,-0.5 16.5,-0.5C 16.5,0.5 16.5,1.5 16.5,2.5C 17.5,2.5 18.5,2.5 19.5,2.5C 21.3145,5.40741 23.9812,6.74074 27.5,6.5C 27.5,5.5 27.5,4.5 27.5,3.5C 30.5159,5.99309 33.5159,5.99309 36.5,3.5C 39.2177,6.54539 41.8844,9.54539 44.5,12.5C 42.0615,14.0268 40.0615,16.0268 38.5,18.5C 36.6214,18.6068 36.2881,18.1068 37.5,17C 33.2822,14.3964 33.6155,12.8964 38.5,12.5C 38.9228,9.75687 37.7561,8.42354 35,8.5C 32.8372,8.49468 31.3372,9.49468 30.5,11.5C 28.9547,12.4519 27.288,12.7852 25.5,12.5C 20.1456,9.47657 16.1456,5.14324 13.5,-0.5 Z"/></g>
<g><path style="opacity:1" fill="#5e97dd" d="M 62.5,8.5 C 62.8333,8.5 63.1667,8.5 63.5,8.5C 63.5,12.5 63.5,16.5 63.5,20.5C 58.4701,22.4738 58.4701,23.8071 63.5,24.5C 63.5,25.5 63.5,26.5 63.5,27.5C 59.8183,27.6653 56.1516,27.4986 52.5,27C 51.2625,26.7679 50.2625,26.2679 49.5,25.5C 51.1667,25.5 52.8333,25.5 54.5,25.5C 54.5,24.5 54.5,23.5 54.5,22.5C 52.4884,21.9862 50.4884,21.8195 48.5,22C 47.6634,23.0113 47.33,24.1779 47.5,25.5C 46.8333,25.1667 46.1667,24.8333 45.5,24.5C 44.2928,23.8112 42.9594,23.6446 41.5,24C 40.2423,22.2591 39.2423,20.4258 38.5,18.5C 40.0615,16.0268 42.0615,14.0268 44.5,12.5C 50.0923,15.0344 55.7589,15.0344 61.5,12.5C 62.4287,11.3112 62.762,9.97782 62.5,8.5 Z"/></g>
<g><path style="opacity:1" fill="#b9bbbf" d="M 39.5,2.5 C 40.2299,3.71237 41.2299,4.71237 42.5,5.5C 49.0786,7.14549 55.7452,8.14549 62.5,8.5C 62.762,9.97782 62.4287,11.3112 61.5,12.5C 55.7589,15.0344 50.0923,15.0344 44.5,12.5C 41.8844,9.54539 39.2177,6.54539 36.5,3.5C 37.1054,1.51877 38.1054,1.18543 39.5,2.5 Z"/></g>
<g><path style="opacity:1" fill="#674337" d="M 38.5,18.5 C 39.2423,20.4258 40.2423,22.2591 41.5,24C 42.9594,23.6446 44.2928,23.8112 45.5,24.5C 45.2729,26.9328 46.2729,28.5994 48.5,29.5C 48.366,31.2915 48.6993,32.9582 49.5,34.5C 48.7321,36.7146 48.0654,39.0479 47.5,41.5C 46.3569,41.0919 45.3569,40.4252 44.5,39.5C 45.7111,38.2798 45.7111,37.1131 44.5,36C 42.2571,36.3187 40.0905,36.152 38,35.5C 37.3486,33.765 37.5153,32.0983 38.5,30.5C 37.1319,28.363 36.1319,26.0297 35.5,23.5C 33.603,22.6319 32.2696,21.2986 31.5,19.5C 30.5255,18.365 29.3588,17.365 28,16.5C 26.6177,19.3055 24.7844,21.6388 22.5,23.5C 22.5,21.8333 22.5,20.1667 22.5,18.5C 18.6666,19.0249 15,20.0249 11.5,21.5C 11.5,20.5 11.5,19.5 11.5,18.5C 13.0905,16.3674 15.0905,14.7007 17.5,13.5C 20.0961,12.7347 22.7628,12.4013 25.5,12.5C 27.288,12.7852 28.9547,12.4519 30.5,11.5C 31.3372,9.49468 32.8372,8.49468 35,8.5C 37.7561,8.42354 38.9228,9.75687 38.5,12.5C 33.6155,12.8964 33.2822,14.3964 37.5,17C 36.2881,18.1068 36.6214,18.6068 38.5,18.5 Z"/></g>
<g><path style="opacity:1" fill="#225c3a" d="M 56.5,18.5 C 59.8606,19.2032 60.1939,20.5365 57.5,22.5C 55.3576,21.5629 55.0243,20.2296 56.5,18.5 Z"/></g>
<g><path style="opacity:1" fill="#7f4b37" d="M 31.5,19.5 C 31.3398,21.1992 31.5065,22.8659 32,24.5C 33.6077,23.5668 34.441,24.2335 34.5,26.5C 33.9904,28.0879 32.9904,29.2545 31.5,30C 32.0523,37.1306 33.5523,37.2973 36,30.5C 36.5356,32.5672 36.0356,34.4006 34.5,36C 31.5398,36.1736 29.2064,37.3403 27.5,39.5C 27.8333,38.1667 28.1667,36.8333 28.5,35.5C 30.2798,34.0101 30.9465,32.0101 30.5,29.5C 30.3505,28.448 30.5172,27.448 31,26.5C 31.6543,27.6956 32.1543,27.6956 32.5,26.5C 30.7156,25.394 28.8822,25.394 27,26.5C 25.0188,26.1015 23.5188,25.1015 22.5,23.5C 24.7844,21.6388 26.6177,19.3055 28,16.5C 29.3588,17.365 30.5255,18.365 31.5,19.5 Z"/></g>
<g><path style="opacity:1" fill="#b5bcc6" d="M 63.5,20.5 C 63.5,21.8333 63.5,23.1667 63.5,24.5C 58.4701,23.8071 58.4701,22.4738 63.5,20.5 Z"/></g>
<g><path style="opacity:1" fill="#205a2d" d="M 49.5,25.5 C 48.8333,25.5 48.1667,25.5 47.5,25.5C 47.33,24.1779 47.6634,23.0113 48.5,22C 50.4884,21.8195 52.4884,21.9862 54.5,22.5C 54.5,23.5 54.5,24.5 54.5,25.5C 52.8333,25.5 51.1667,25.5 49.5,25.5 Z"/></g>
<g><path style="opacity:1" fill="#012848" d="M -0.5,24.5 C 1.88382,26.8847 4.55049,28.8847 7.5,30.5C 6.91618,33.285 7.91618,34.9517 10.5,35.5C 9.25987,36.973 8.25987,38.6396 7.5,40.5C 10.1216,41.3732 10.1216,43.2065 7.5,46C 4.50369,45.3293 1.83702,43.8293 -0.5,41.5C -0.5,35.8333 -0.5,30.1667 -0.5,24.5 Z"/></g>
<g><path style="opacity:1" fill="#7f503d" d="M 11.5,18.5 C 11.5,19.5 11.5,20.5 11.5,21.5C 15,20.0249 18.6666,19.0249 22.5,18.5C 22.5,20.1667 22.5,21.8333 22.5,23.5C 23.5188,25.1015 25.0188,26.1015 27,26.5C 28.8822,25.394 30.7156,25.394 32.5,26.5C 32.1543,27.6956 31.6543,27.6956 31,26.5C 30.5172,27.448 30.3505,28.448 30.5,29.5C 26.3859,31.1174 22.0525,31.9508 17.5,32C 15.0268,32.2195 13.3602,33.3862 12.5,35.5C 11.8333,35.5 11.1667,35.5 10.5,35.5C 7.91618,34.9517 6.91618,33.285 7.5,30.5C 8.62247,28.7116 8.78914,26.7116 8,24.5C 6.61524,23.4495 5.61524,22.1161 5,20.5C 5.23235,15.5756 6.89902,15.2423 10,19.5C 10.3826,18.944 10.8826,18.6107 11.5,18.5 Z"/></g>
<g><path style="opacity:1" fill="#97c7d2" d="M 45.5,24.5 C 46.1667,24.8333 46.8333,25.1667 47.5,25.5C 48.1667,25.5 48.8333,25.5 49.5,25.5C 50.2625,26.2679 51.2625,26.7679 52.5,27C 56.1516,27.4986 59.8183,27.6653 63.5,27.5C 63.5,28.1667 63.5,28.8333 63.5,29.5C 58.5,29.5 53.5,29.5 48.5,29.5C 46.2729,28.5994 45.2729,26.9328 45.5,24.5 Z"/></g>
<g><path style="opacity:1" fill="#732515" d="M 30.5,29.5 C 30.9465,32.0101 30.2798,34.0101 28.5,35.5C 26.3523,35.6106 26.019,34.944 27.5,33.5C 21.7347,31.3842 18.4014,33.3842 17.5,39.5C 16.8333,39.5 16.1667,39.5 15.5,39.5C 15.8404,37.4524 15.5071,36.4524 14.5,36.5C 13.8333,36.1667 13.1667,35.8333 12.5,35.5C 13.3602,33.3862 15.0268,32.2195 17.5,32C 22.0525,31.9508 26.3859,31.1174 30.5,29.5 Z"/></g>
<g><path style="opacity:1" fill="#7e513d" d="M 31.5,19.5 C 32.2696,21.2986 33.603,22.6319 35.5,23.5C 36.1319,26.0297 37.1319,28.363 38.5,30.5C 37.5153,32.0983 37.3486,33.765 38,35.5C 40.0905,36.152 42.2571,36.3187 44.5,36C 45.7111,37.1131 45.7111,38.2798 44.5,39.5C 45.3569,40.4252 46.3569,41.0919 47.5,41.5C 46.2228,47.0662 42.8894,50.7328 37.5,52.5C 37.8143,48.8065 36.1477,46.4732 32.5,45.5C 31.1476,46.5175 30.1476,47.8508 29.5,49.5C 28.2798,48.2889 27.1131,48.2889 26,49.5C 25.6667,47.8333 25.3333,46.1667 25,44.5C 24.3557,47.3221 23.3557,50.3221 22,53.5C 20.8333,52.3333 19.6667,51.1667 18.5,50C 18.8333,49.6667 19.1667,49.3333 19.5,49C 18.2644,47.9152 16.9311,47.0819 15.5,46.5C 15.5,44.1667 15.5,41.8333 15.5,39.5C 16.1667,39.5 16.8333,39.5 17.5,39.5C 17.5587,41.7224 18.7253,42.7224 21,42.5C 23.2818,41.7102 25.4484,40.7102 27.5,39.5C 29.2064,37.3403 31.5398,36.1736 34.5,36C 36.0356,34.4006 36.5356,32.5672 36,30.5C 33.5523,37.2973 32.0523,37.1306 31.5,30C 32.9904,29.2545 33.9904,28.0879 34.5,26.5C 34.441,24.2335 33.6077,23.5668 32,24.5C 31.5065,22.8659 31.3398,21.1992 31.5,19.5 Z"/></g>
<g><path style="opacity:1" fill="#317287" d="M 63.5,32.5 C 63.5,32.8333 63.5,33.1667 63.5,33.5C 60.4299,33.3677 57.4299,33.701 54.5,34.5C 53.0783,34.2914 51.745,33.7914 50.5,33C 54.8206,32.501 59.1539,32.3343 63.5,32.5 Z"/></g>
<g><path style="opacity:1" fill="#032c46" d="M 63.5,33.5 C 63.5,37.5 63.5,41.5 63.5,45.5C 61.7368,42.9804 59.7368,40.6471 57.5,38.5C 56.5,37.1667 55.5,35.8333 54.5,34.5C 57.4299,33.701 60.4299,33.3677 63.5,33.5 Z"/></g>
<g><path style="opacity:1" fill="#c75751" d="M 28.5,35.5 C 28.1667,36.8333 27.8333,38.1667 27.5,39.5C 25.4484,40.7102 23.2818,41.7102 21,42.5C 18.7253,42.7224 17.5587,41.7224 17.5,39.5C 18.4014,33.3842 21.7347,31.3842 27.5,33.5C 26.019,34.944 26.3523,35.6106 28.5,35.5 Z"/></g>
<g><path style="opacity:1" fill="#e5e5e2" d="M 48.5,29.5 C 53.5,29.5 58.5,29.5 63.5,29.5C 63.5,30.5 63.5,31.5 63.5,32.5C 59.1539,32.3343 54.8206,32.501 50.5,33C 51.745,33.7914 53.0783,34.2914 54.5,34.5C 55.5,35.8333 56.5,37.1667 57.5,38.5C 57.0598,42.7676 58.7264,45.6009 62.5,47C 61.5838,47.3742 60.7504,47.8742 60,48.5C 60.1141,51.6862 59.9474,54.6862 59.5,57.5C 58.1122,52.238 56.9455,47.238 56,42.5C 53.9458,39.6256 51.7792,36.9589 49.5,34.5C 48.6993,32.9582 48.366,31.2915 48.5,29.5 Z"/></g>
<g><path style="opacity:1" fill="#b4a693" d="M 49.5,34.5 C 51.7792,36.9589 53.9458,39.6256 56,42.5C 56.9455,47.238 58.1122,52.238 59.5,57.5C 59.5,58.8333 59.5,60.1667 59.5,61.5C 59.1667,62.1667 58.8333,62.8333 58.5,63.5C 56.8333,63.5 55.1667,63.5 53.5,63.5C 54.4558,62.3406 55.4558,61.1739 56.5,60C 56.3699,58.9412 55.8699,58.1079 55,57.5C 53.6122,59.7024 52.1122,61.7024 50.5,63.5C 40.5,63.5 30.5,63.5 20.5,63.5C 19.7717,61.4885 18.9383,59.4885 18,57.5C 17.6667,58.1667 17.3333,58.8333 17,59.5C 16.7216,58.5842 16.2216,57.9175 15.5,57.5C 15.5,56.8333 15.5,56.1667 15.5,55.5C 18.6074,55.6488 21.6074,55.1488 24.5,54C 25.1258,53.2496 25.6258,52.4162 26,51.5C 28.276,54.0636 30.276,53.7303 32,50.5C 33.6371,52.6057 35.4705,53.2724 37.5,52.5C 42.8894,50.7328 46.2228,47.0662 47.5,41.5C 48.0654,39.0479 48.7321,36.7146 49.5,34.5 Z"/></g>
<g><path style="opacity:1" fill="#5b5249" d="M 50.5,39.5 C 53.858,40.5269 55.5246,42.8602 55.5,46.5C 53.8561,46.7135 52.3561,46.3802 51,45.5C 50.5045,43.5273 50.3379,41.5273 50.5,39.5 Z"/></g>
<g><path style="opacity:1" fill="#e5dedb" d="M 15.5,39.5 C 15.5,41.8333 15.5,44.1667 15.5,46.5C 14.609,47.1098 13.609,47.4431 12.5,47.5C 12.87,43.7674 13.5367,40.1007 14.5,36.5C 15.5071,36.4524 15.8404,37.4524 15.5,39.5 Z"/></g>
<g><path style="opacity:1" fill="#5e9bb1" d="M 57.5,38.5 C 59.7368,40.6471 61.7368,42.9804 63.5,45.5C 63.5,50.8333 63.5,56.1667 63.5,61.5C 62.1667,61.5 60.8333,61.5 59.5,61.5C 59.5,60.1667 59.5,58.8333 59.5,57.5C 59.9474,54.6862 60.1141,51.6862 60,48.5C 60.7504,47.8742 61.5838,47.3742 62.5,47C 58.7264,45.6009 57.0598,42.7676 57.5,38.5 Z"/></g>
<g><path style="opacity:1" fill="#084365" d="M 10.5,35.5 C 11.1667,35.5 11.8333,35.5 12.5,35.5C 13.1667,35.8333 13.8333,36.1667 14.5,36.5C 13.5367,40.1007 12.87,43.7674 12.5,47.5C 12.5,49.1667 12.5,50.8333 12.5,52.5C 12.5,53.5 12.5,54.5 12.5,55.5C 8.49808,55.6812 6.99808,54.0146 8,50.5C 5.52223,48.1804 2.68889,46.5137 -0.5,45.5C -0.5,44.1667 -0.5,42.8333 -0.5,41.5C 1.83702,43.8293 4.50369,45.3293 7.5,46C 10.1216,43.2065 10.1216,41.3732 7.5,40.5C 8.25987,38.6396 9.25987,36.973 10.5,35.5 Z"/></g>
<g><path style="opacity:1" fill="#1b558a" d="M -0.5,45.5 C 2.68889,46.5137 5.52223,48.1804 8,50.5C 6.99808,54.0146 8.49808,55.6812 12.5,55.5C 12.4326,56.9587 12.7659,58.2921 13.5,59.5C 10.8127,59.3359 8.14603,59.5026 5.5,60C 7.13414,60.4935 8.80081,60.6602 10.5,60.5C 10.5569,61.609 10.8902,62.609 11.5,63.5C 7.5,63.5 3.5,63.5 -0.5,63.5C -0.5,57.5 -0.5,51.5 -0.5,45.5 Z"/></g>
<g><path style="opacity:1" fill="#98302e" d="M 15.5,54.5 C 14.5,54.1667 13.8333,53.5 13.5,52.5C 15.2897,49.953 16.9564,50.2863 18.5,53.5C 17.675,54.3857 16.675,54.719 15.5,54.5 Z"/></g>
<g><path style="opacity:1" fill="#793f2c" d="M 37.5,52.5 C 35.4705,53.2724 33.6371,52.6057 32,50.5C 30.276,53.7303 28.276,54.0636 26,51.5C 25.6258,52.4162 25.1258,53.2496 24.5,54C 21.6074,55.1488 18.6074,55.6488 15.5,55.5C 15.5,55.1667 15.5,54.8333 15.5,54.5C 16.675,54.719 17.675,54.3857 18.5,53.5C 16.9564,50.2863 15.2897,49.953 13.5,52.5C 13.1667,52.5 12.8333,52.5 12.5,52.5C 12.5,50.8333 12.5,49.1667 12.5,47.5C 13.609,47.4431 14.609,47.1098 15.5,46.5C 16.9311,47.0819 18.2644,47.9152 19.5,49C 19.1667,49.3333 18.8333,49.6667 18.5,50C 19.6667,51.1667 20.8333,52.3333 22,53.5C 23.3557,50.3221 24.3557,47.3221 25,44.5C 25.3333,46.1667 25.6667,47.8333 26,49.5C 27.1131,48.2889 28.2798,48.2889 29.5,49.5C 30.1476,47.8508 31.1476,46.5175 32.5,45.5C 36.1477,46.4732 37.8143,48.8065 37.5,52.5 Z"/></g>
<g><path style="opacity:1" fill="#77a7bf" d="M 12.5,52.5 C 12.8333,52.5 13.1667,52.5 13.5,52.5C 13.8333,53.5 14.5,54.1667 15.5,54.5C 15.5,54.8333 15.5,55.1667 15.5,55.5C 15.5,56.1667 15.5,56.8333 15.5,57.5C 15.5,58.8333 14.8333,59.5 13.5,59.5C 12.7659,58.2921 12.4326,56.9587 12.5,55.5C 12.5,54.5 12.5,53.5 12.5,52.5 Z"/></g>
<g><path style="opacity:1" fill="#69594c" d="M 53.5,49.5 C 54.0431,49.56 54.3764,49.8933 54.5,50.5C 52.3128,53.1786 50.8128,56.1786 50,59.5C 47.2135,62.3447 45.8802,62.0113 46,58.5C 47.2547,57.7894 48.4214,56.956 49.5,56C 49.1667,55.6667 48.8333,55.3333 48.5,55C 50.345,53.322 52.0116,51.4887 53.5,49.5 Z"/></g>
<g><path style="opacity:1" fill="#e1e3e3" d="M 15.5,57.5 C 16.2216,57.9175 16.7216,58.5842 17,59.5C 17.3333,58.8333 17.6667,58.1667 18,57.5C 18.9383,59.4885 19.7717,61.4885 20.5,63.5C 19.1667,63.5 17.8333,63.5 16.5,63.5C 16.5,62.5 16.5,61.5 16.5,60.5C 14.5,60.5 12.5,60.5 10.5,60.5C 8.80081,60.6602 7.13414,60.4935 5.5,60C 8.14603,59.5026 10.8127,59.3359 13.5,59.5C 14.8333,59.5 15.5,58.8333 15.5,57.5 Z"/></g>
<g><path style="opacity:1" fill="#645145" d="M 53.5,63.5 C 52.5,63.5 51.5,63.5 50.5,63.5C 52.1122,61.7024 53.6122,59.7024 55,57.5C 55.8699,58.1079 56.3699,58.9412 56.5,60C 55.4558,61.1739 54.4558,62.3406 53.5,63.5 Z"/></g>
<g><path style="opacity:1" fill="#6097bc" d="M 10.5,60.5 C 12.5,60.5 14.5,60.5 16.5,60.5C 16.5,61.5 16.5,62.5 16.5,63.5C 14.8333,63.5 13.1667,63.5 11.5,63.5C 10.8902,62.609 10.5569,61.609 10.5,60.5 Z"/></g>
<g><path style="opacity:1" fill="#b56ec7" d="M 59.5,61.5 C 60.8333,61.5 62.1667,61.5 63.5,61.5C 63.5,62.1667 63.5,62.8333 63.5,63.5C 61.8333,63.5 60.1667,63.5 58.5,63.5C 58.8333,62.8333 59.1667,62.1667 59.5,61.5 Z"/></g>
</svg>
