<?xml version="1.0" encoding="UTF-8"?>
<svg version="1.1" viewBox="0 0 800 800" width="200" height="200" xmlns="http://www.w3.org/2000/svg">
<path transform="translate(0)" d="m0 0h800v800h-800z"/>
<path transform="translate(393,186)" d="m0 0h12l9 4 7 7 8 13 13 23 14 24 16 28 16 27 14 25 14 24 16 28 14 24 16 28 14 24 11 21 3 12v15l-4 16-7 13-11 12-11 7-13 5-18 2h-259l-14-2-12-5-10-6-10-10-8-14-4-11-1-4v-19l3-11 8-16 16-28 15-26 14-24 16-28 28-48 32-56 14-24 20-35 8-10 8-4z" fill="#FEFFFE"/>
<path transform="translate(422,284)" d="m0 0 4 4 18 35 14 27 20 36 28 50 15 27 13 23 7 12 2 5-1 9-6 7-6 2h-108z"/>
<path transform="translate(374,284)" d="m0 0 2 2-1 235-2 1-107-1-5-3-6-8v-8l13-24 14-24 14-26 12-21 15-27 12-22 9-16 9-17 18-36z"/>
</svg>
