<svg width="513" height="513" viewBox="0 0 513 513" fill="none" xmlns="http://www.w3.org/2000/svg">
<circle cx="256.566" cy="256.68" r="256" fill="black"/>
<g clip-path="url(#clip0_40_344)">
<path d="M324.227 142C310.519 141.989 297.367 147.433 287.657 157.136C277.948 166.839 272.475 180.009 272.44 193.754V251.137C267.107 251.498 261.653 251.725 256 251.725C250.347 251.725 244.92 251.953 239.56 252.274V193.754C239.342 180.128 233.791 167.134 224.104 157.575C214.417 148.017 201.371 142.659 187.78 142.659C174.189 142.659 161.143 148.017 151.456 157.575C141.769 167.134 136.218 180.128 136 193.754V330.901C136.218 344.527 141.769 357.521 151.456 367.08C161.143 376.639 174.189 381.996 187.78 381.996C201.371 381.996 214.417 376.639 224.104 367.08C233.791 357.521 239.342 344.527 239.56 330.901V273.518C244.893 273.157 250.347 272.93 256 272.93C261.653 272.93 267.08 272.703 272.44 272.382V330.901C272.658 344.527 278.209 357.521 287.896 367.08C297.583 376.639 310.629 381.996 324.22 381.996C337.811 381.996 350.857 376.639 360.544 367.08C370.231 357.521 375.782 344.527 376 330.901V193.754C375.965 180.011 370.494 166.844 360.787 157.141C351.081 147.438 337.932 141.993 324.227 142ZM187.773 163.204C195.863 163.201 203.624 166.415 209.353 172.143C215.083 177.87 218.312 185.642 218.333 193.754V254.52C203.184 256.721 188.39 260.915 174.333 266.994C168.243 269.674 162.51 273.105 157.267 277.208V193.754C157.288 185.651 160.51 177.887 166.228 172.162C171.945 166.436 179.693 163.215 187.773 163.204ZM218.333 330.901C218.333 339.028 215.114 346.822 209.383 352.569C203.651 358.316 195.878 361.544 187.773 361.544C179.668 361.544 171.895 358.316 166.164 352.569C160.433 346.822 157.213 339.028 157.213 330.901V317.143C157.213 304.99 166.813 293.479 182.907 286.313C194.246 281.407 206.144 277.918 218.333 275.925V330.901ZM324.227 361.451C316.137 361.454 308.376 358.24 302.647 352.513C296.917 346.785 293.688 339.013 293.667 330.901V270.136C308.816 267.934 323.61 263.74 337.667 257.662C343.757 254.981 349.49 251.55 354.733 247.447V330.901C354.712 339.004 351.49 346.768 345.772 352.494C340.055 358.219 332.307 361.44 324.227 361.451ZM329.093 238.262C317.754 243.168 305.856 246.657 293.667 248.65V193.754C293.667 185.627 296.886 177.833 302.617 172.086C308.349 166.339 316.122 163.111 324.227 163.111C332.332 163.111 340.105 166.339 345.836 172.086C351.567 177.833 354.787 185.627 354.787 193.754V207.512C354.787 219.611 345.187 231.123 329.093 238.262Z" fill="white"/>
</g>
<defs>
<clipPath id="clip0_40_344">
<rect width="240" height="240" fill="white" transform="translate(136 142)"/>
</clipPath>
</defs>
</svg>
