<?xml version="1.0" encoding="UTF-8"?>
<!DOCTYPE svg PUBLIC "-//W3C//DTD SVG 1.1//EN" "http://www.w3.org/Graphics/SVG/1.1/DTD/svg11.dtd">
<svg xmlns="http://www.w3.org/2000/svg" version="1.1" width="64px" height="64px" style="shape-rendering:geometricPrecision; text-rendering:geometricPrecision; image-rendering:optimizeQuality; fill-rule:evenodd; clip-rule:evenodd" xmlns:xlink="http://www.w3.org/1999/xlink">
<g><path style="opacity:1" fill="#22694e" d="M -0.5,-0.5 C 20.8333,-0.5 42.1667,-0.5 63.5,-0.5C 63.5,15.5 63.5,31.5 63.5,47.5C 63.1667,47.5 62.8333,47.5 62.5,47.5C 62.6567,46.1266 62.49,44.7932 62,43.5C 60.6244,42.2949 59.4577,40.9616 58.5,39.5C 57.1667,38.5 55.8333,37.5 54.5,36.5C 55.4614,34.7354 55.7947,32.7354 55.5,30.5C 55.5,29.1667 54.8333,28.5 53.5,28.5C 53.1667,27.1667 52.8333,25.8333 52.5,24.5C 52.0825,23.7784 51.4158,23.2784 50.5,23C 52.3782,21.0072 52.7115,18.8405 51.5,16.5C 49.8704,18.264 47.8704,19.264 45.5,19.5C 42.6802,19.2475 40.0135,19.7475 37.5,21C 38.2524,21.6708 38.5858,22.5041 38.5,23.5C 35.4454,19.6091 31.6121,18.6091 27,20.5C 25.3853,19.6138 23.8853,18.6138 22.5,17.5C 22.0679,16.2905 21.4013,15.2905 20.5,14.5C 19.5,14.5 18.5,14.5 17.5,14.5C 15.2362,13.7814 12.9029,13.448 10.5,13.5C 5.9476,13.2771 2.28094,14.9437 -0.5,18.5C -0.5,12.1667 -0.5,5.83333 -0.5,-0.5 Z"/></g>
<g><path style="opacity:1" fill="#352214" d="M 17.5,14.5 C 18.5,14.5 19.5,14.5 20.5,14.5C 19.3697,17.1367 19.3697,19.8033 20.5,22.5C 19.8826,22.6107 19.3826,22.944 19,23.5C 18.7411,20.4133 18.2411,17.4133 17.5,14.5 Z"/></g>
<g><path style="opacity:1" fill="#d7843a" d="M 10.5,13.5 C 14.6619,15.8205 16.9952,19.3205 17.5,24C 16.9399,29.1607 16.4399,34.3274 16,39.5C 13.8861,42.7317 12.0528,46.0651 10.5,49.5C 9.84182,48.2067 9.50848,46.7067 9.5,45C 10.6597,39.5432 11.6597,34.0432 12.5,28.5C 12.6052,22.0967 9.60516,19.5967 3.5,21C 0.97122,23.6417 -0.0287796,26.8084 0.5,30.5C 0.166667,30.5 -0.166667,30.5 -0.5,30.5C -0.5,26.5 -0.5,22.5 -0.5,18.5C 2.28094,14.9437 5.9476,13.2771 10.5,13.5 Z"/></g>
<g><path style="opacity:1" fill="#3e291f" d="M 52.5,24.5 C 49.4552,24.5079 46.4552,24.8413 43.5,25.5C 45.1484,24.0735 47.1484,23.2401 49.5,23C 48.2695,21.5952 46.9361,20.4286 45.5,19.5C 47.8704,19.264 49.8704,18.264 51.5,16.5C 52.7115,18.8405 52.3782,21.0072 50.5,23C 51.4158,23.2784 52.0825,23.7784 52.5,24.5 Z"/></g>
<g><path style="opacity:1" fill="#e1b37d" d="M 10.5,49.5 C 10.3284,50.4916 10.6618,51.1583 11.5,51.5C 11.762,52.9778 11.4287,54.3112 10.5,55.5C 5.91929,51.4169 4.58596,46.4169 6.5,40.5C 7.7027,39.0575 8.2027,37.3908 8,35.5C 6.58609,36.4132 5.08609,36.4132 3.5,35.5C 2.07501,34.078 1.07501,32.4113 0.5,30.5C -0.0287796,26.8084 0.97122,23.6417 3.5,21C 9.60516,19.5967 12.6052,22.0967 12.5,28.5C 11.6597,34.0432 10.6597,39.5432 9.5,45C 9.50848,46.7067 9.84182,48.2067 10.5,49.5 Z"/></g>
<g><path style="opacity:1" fill="#c27f6d" d="M 20.5,14.5 C 21.4013,15.2905 22.0679,16.2905 22.5,17.5C 22.7329,19.0618 23.3995,20.3951 24.5,21.5C 23.4863,22.6737 22.153,23.3404 20.5,23.5C 20.5,23.1667 20.5,22.8333 20.5,22.5C 19.3697,19.8033 19.3697,17.1367 20.5,14.5 Z"/></g>
<g><path style="opacity:1" fill="#d0813b" d="M 22.5,17.5 C 23.8853,18.6138 25.3853,19.6138 27,20.5C 31.6121,18.6091 35.4454,19.6091 38.5,23.5C 38.631,24.2389 38.4643,24.9056 38,25.5C 34.284,23.066 30.4507,22.8993 26.5,25C 28.5269,25.4978 30.5269,25.3311 32.5,24.5C 35.5336,25.2773 38.2002,26.6106 40.5,28.5C 39.675,29.3857 38.675,29.719 37.5,29.5C 36.8333,29.5 36.1667,29.5 35.5,29.5C 34.0813,28.5489 32.4147,28.2155 30.5,28.5C 30.3893,29.1174 30.056,29.6174 29.5,30C 31.74,30.977 34.0733,31.477 36.5,31.5C 36.8333,31.5 37.1667,31.5 37.5,31.5C 38.172,32.2674 39.0053,32.9341 40,33.5C 43.9352,32.8622 47.7685,32.1955 51.5,31.5C 52.1667,31.5 52.8333,31.5 53.5,31.5C 53.9382,31.4346 54.2716,31.6012 54.5,32C 53.6721,32.9147 52.6721,33.5814 51.5,34C 48.0087,34.738 44.6754,35.5713 41.5,36.5C 38.5,36.5 35.5,36.5 32.5,36.5C 33.6085,35.71 34.9419,35.21 36.5,35C 33.7759,34.7305 31.1092,34.2305 28.5,33.5C 27.7526,35.2894 28.086,36.9561 29.5,38.5C 33.3095,41.8354 37.6428,42.5021 42.5,40.5C 43.209,41.404 44.209,41.7373 45.5,41.5C 45.5,41.8333 45.5,42.1667 45.5,42.5C 38.6086,43.0987 31.942,42.2654 25.5,40C 21.4078,35.8821 20.4078,31.0488 22.5,25.5C 23.2299,24.2876 24.2299,23.2876 25.5,22.5C 25.3764,21.8933 25.0431,21.56 24.5,21.5C 23.3995,20.3951 22.7329,19.0618 22.5,17.5 Z"/></g>
<g><path style="opacity:1" fill="#d18340" d="M 45.5,19.5 C 46.9361,20.4286 48.2695,21.5952 49.5,23C 47.1484,23.2401 45.1484,24.0735 43.5,25.5C 41.4862,25.6085 39.8195,24.9418 38.5,23.5C 38.5858,22.5041 38.2524,21.6708 37.5,21C 40.0135,19.7475 42.6802,19.2475 45.5,19.5 Z"/></g>
<g><path style="opacity:1" fill="#2f140a" d="M 24.5,21.5 C 25.0431,21.56 25.3764,21.8933 25.5,22.5C 24.2299,23.2876 23.2299,24.2876 22.5,25.5C 21.2502,25.5774 20.4169,26.244 20,27.5C 19.4209,26.0715 19.5876,24.7382 20.5,23.5C 22.153,23.3404 23.4863,22.6737 24.5,21.5 Z"/></g>
<g><path style="opacity:1" fill="#cf813e" d="M 52.5,24.5 C 52.8333,25.8333 53.1667,27.1667 53.5,28.5C 52.8501,28.1961 52.1835,27.8627 51.5,27.5C 49.1148,28.6615 46.7814,29.6615 44.5,30.5C 43.5,30.5 42.5,30.5 41.5,30.5C 41.3653,28.4458 42.032,26.7791 43.5,25.5C 46.4552,24.8413 49.4552,24.5079 52.5,24.5 Z"/></g>
<g><path style="opacity:1" fill="#140803" d="M 30.5,28.5 C 29.5041,28.4142 28.6708,28.7476 28,29.5C 27.2496,28.8742 26.4162,28.3742 25.5,28C 27.3869,27.2204 29.0536,27.3871 30.5,28.5 Z"/></g>
<g><path style="opacity:1" fill="#a9a6a5" d="M 35.5,29.5 C 36.1667,29.5 36.8333,29.5 37.5,29.5C 38.5,30.1667 39.5,30.8333 40.5,31.5C 39.5,31.5 38.5,31.5 37.5,31.5C 37.1667,31.5 36.8333,31.5 36.5,31.5C 35.7375,30.7321 34.7375,30.2321 33.5,30C 34.0944,29.5357 34.7611,29.369 35.5,29.5 Z"/></g>
<g><path style="opacity:1" fill="#4d3729" d="M 38.5,23.5 C 39.8195,24.9418 41.4862,25.6085 43.5,25.5C 42.032,26.7791 41.3653,28.4458 41.5,30.5C 42.5,30.5 43.5,30.5 44.5,30.5C 43.4324,31.4345 42.099,31.7678 40.5,31.5C 39.5,30.8333 38.5,30.1667 37.5,29.5C 38.675,29.719 39.675,29.3857 40.5,28.5C 38.2002,26.6106 35.5336,25.2773 32.5,24.5C 30.5269,25.3311 28.5269,25.4978 26.5,25C 30.4507,22.8993 34.284,23.066 38,25.5C 38.4643,24.9056 38.631,24.2389 38.5,23.5 Z"/></g>
<g><path style="opacity:1" fill="#e1e1e1" d="M 53.5,28.5 C 54.8333,28.5 55.5,29.1667 55.5,30.5C 54.5084,30.3284 53.8417,30.6618 53.5,31.5C 52.8333,31.5 52.1667,31.5 51.5,31.5C 50.7611,31.631 50.0944,31.4643 49.5,31C 50.8584,30.0656 52.1917,29.2323 53.5,28.5 Z"/></g>
<g><path style="opacity:1" fill="#3b2e28" d="M 30.5,28.5 C 32.4147,28.2155 34.0813,28.5489 35.5,29.5C 34.7611,29.369 34.0944,29.5357 33.5,30C 34.7375,30.2321 35.7375,30.7321 36.5,31.5C 34.0733,31.477 31.74,30.977 29.5,30C 30.056,29.6174 30.3893,29.1174 30.5,28.5 Z"/></g>
<g><path style="opacity:1" fill="#1b1310" d="M 53.5,28.5 C 52.1917,29.2323 50.8584,30.0656 49.5,31C 50.0944,31.4643 50.7611,31.631 51.5,31.5C 47.7685,32.1955 43.9352,32.8622 40,33.5C 39.0053,32.9341 38.172,32.2674 37.5,31.5C 38.5,31.5 39.5,31.5 40.5,31.5C 42.099,31.7678 43.4324,31.4345 44.5,30.5C 46.7814,29.6615 49.1148,28.6615 51.5,27.5C 52.1835,27.8627 52.8501,28.1961 53.5,28.5 Z"/></g>
<g><path style="opacity:1" fill="#226349" d="M -0.5,30.5 C -0.166667,30.5 0.166667,30.5 0.5,30.5C 1.07501,32.4113 2.07501,34.078 3.5,35.5C 5.27855,36.6697 6.27855,38.3364 6.5,40.5C 4.58596,46.4169 5.91929,51.4169 10.5,55.5C 11.4287,54.3112 11.762,52.9778 11.5,51.5C 11.8333,51.5 12.1667,51.5 12.5,51.5C 11.9791,55.4809 11.6458,59.4809 11.5,63.5C 7.5,63.5 3.5,63.5 -0.5,63.5C -0.5,52.5 -0.5,41.5 -0.5,30.5 Z"/></g>
<g><path style="opacity:1" fill="#252119" d="M 3.5,35.5 C 5.08609,36.4132 6.58609,36.4132 8,35.5C 8.2027,37.3908 7.7027,39.0575 6.5,40.5C 6.27855,38.3364 5.27855,36.6697 3.5,35.5 Z"/></g>
<g><path style="opacity:1" fill="#25130a" d="M 32.5,36.5 C 30.8212,36.2852 29.8212,36.9519 29.5,38.5C 28.086,36.9561 27.7526,35.2894 28.5,33.5C 31.1092,34.2305 33.7759,34.7305 36.5,35C 34.9419,35.21 33.6085,35.71 32.5,36.5 Z"/></g>
<g><path style="opacity:1" fill="#553e2e" d="M 53.5,31.5 C 53.8417,30.6618 54.5084,30.3284 55.5,30.5C 55.7947,32.7354 55.4614,34.7354 54.5,36.5C 53.7784,36.9175 53.2784,37.5842 53,38.5C 51.9887,37.6634 50.8221,37.33 49.5,37.5C 47.0521,36.5269 44.3854,36.1936 41.5,36.5C 44.6754,35.5713 48.0087,34.738 51.5,34C 52.6721,33.5814 53.6721,32.9147 54.5,32C 54.2716,31.6012 53.9382,31.4346 53.5,31.5 Z"/></g>
<g><path style="opacity:1" fill="#1d0e0c" d="M 32.5,36.5 C 35.5,36.5 38.5,36.5 41.5,36.5C 41.9175,37.2216 42.5842,37.7216 43.5,38C 42.944,38.3826 42.6107,38.8826 42.5,39.5C 39.1339,38.2842 35.8005,37.2842 32.5,36.5 Z"/></g>
<g><path style="opacity:1" fill="#aa9794" d="M 41.5,36.5 C 44.3854,36.1936 47.0521,36.5269 49.5,37.5C 48.5,37.5 47.5,37.5 46.5,37.5C 46.7678,39.099 46.4345,40.4324 45.5,41.5C 45.6567,40.1266 45.49,38.7932 45,37.5C 44.7645,39.1193 43.9311,40.1193 42.5,40.5C 42.5,40.1667 42.5,39.8333 42.5,39.5C 42.6107,38.8826 42.944,38.3826 43.5,38C 42.5842,37.7216 41.9175,37.2216 41.5,36.5 Z"/></g>
<g><path style="opacity:1" fill="#a55e25" d="M 10.5,13.5 C 12.9029,13.448 15.2362,13.7814 17.5,14.5C 18.2411,17.4133 18.7411,20.4133 19,23.5C 19.3826,22.944 19.8826,22.6107 20.5,22.5C 20.5,22.8333 20.5,23.1667 20.5,23.5C 19.5876,24.7382 19.4209,26.0715 20,27.5C 20.4169,26.244 21.2502,25.5774 22.5,25.5C 20.4078,31.0488 21.4078,35.8821 25.5,40C 31.942,42.2654 38.6086,43.0987 45.5,42.5C 42.3752,43.4794 39.0419,43.8128 35.5,43.5C 33.5,43.5 31.5,43.5 29.5,43.5C 28.8333,43.5 28.1667,43.5 27.5,43.5C 25.5368,42.1798 23.5368,40.8465 21.5,39.5C 21.2172,38.7109 20.7172,38.0442 20,37.5C 18.1978,38.7893 17.0312,40.4559 16.5,42.5C 14.0257,44.8976 12.6924,47.8976 12.5,51.5C 12.1667,51.5 11.8333,51.5 11.5,51.5C 10.6618,51.1583 10.3284,50.4916 10.5,49.5C 12.0528,46.0651 13.8861,42.7317 16,39.5C 16.4399,34.3274 16.9399,29.1607 17.5,24C 16.9952,19.3205 14.6619,15.8205 10.5,13.5 Z"/></g>
<g><path style="opacity:1" fill="#885a4e" d="M 32.5,36.5 C 35.8005,37.2842 39.1339,38.2842 42.5,39.5C 42.5,39.8333 42.5,40.1667 42.5,40.5C 37.6428,42.5021 33.3095,41.8354 29.5,38.5C 29.8212,36.9519 30.8212,36.2852 32.5,36.5 Z"/></g>
<g><path style="opacity:1" fill="#29241d" d="M 54.5,36.5 C 55.8333,37.5 57.1667,38.5 58.5,39.5C 57.9569,39.56 57.6236,39.8933 57.5,40.5C 60.3271,43.2401 59.6604,44.9068 55.5,45.5C 53.997,44.4099 53.6637,43.2433 54.5,42C 53.6266,40.955 52.6266,40.1217 51.5,39.5C 50.4168,39.4606 49.4168,39.1272 48.5,38.5C 47.2267,39.2565 47.2267,39.9232 48.5,40.5C 48.0269,41.9063 47.0269,42.573 45.5,42.5C 45.5,42.1667 45.5,41.8333 45.5,41.5C 46.4345,40.4324 46.7678,39.099 46.5,37.5C 47.5,37.5 48.5,37.5 49.5,37.5C 50.8221,37.33 51.9887,37.6634 53,38.5C 53.2784,37.5842 53.7784,36.9175 54.5,36.5 Z"/></g>
<g><path style="opacity:1" fill="#311a0f" d="M 21.5,39.5 C 19.5887,40.075 17.922,41.075 16.5,42.5C 17.0312,40.4559 18.1978,38.7893 20,37.5C 20.7172,38.0442 21.2172,38.7109 21.5,39.5 Z"/></g>
<g><path style="opacity:1" fill="#181210" d="M 45.5,41.5 C 44.209,41.7373 43.209,41.404 42.5,40.5C 43.9311,40.1193 44.7645,39.1193 45,37.5C 45.49,38.7932 45.6567,40.1266 45.5,41.5 Z"/></g>
<g><path style="opacity:1" fill="#674e3f" d="M 51.5,39.5 C 51.5,41.1667 51.5,42.8333 51.5,44.5C 50.8333,44.5 50.1667,44.5 49.5,44.5C 49.1667,43.1667 48.8333,41.8333 48.5,40.5C 47.2267,39.9232 47.2267,39.2565 48.5,38.5C 49.4168,39.1272 50.4168,39.4606 51.5,39.5 Z"/></g>
<g><path style="opacity:1" fill="#5d371d" d="M 21.5,39.5 C 23.5368,40.8465 25.5368,42.1798 27.5,43.5C 26.0687,44.7804 25.4021,46.4471 25.5,48.5C 23.7962,45.7442 22.4629,42.7442 21.5,39.5 Z"/></g>
<g><path style="opacity:1" fill="#ca7a35" d="M 21.5,39.5 C 22.4629,42.7442 23.7962,45.7442 25.5,48.5C 27.4352,49.1495 29.4352,49.4828 31.5,49.5C 32.4584,49.0472 33.2917,48.3805 34,47.5C 34.9947,48.0659 35.828,48.7326 36.5,49.5C 36.9887,50.9952 37.6554,52.3285 38.5,53.5C 37.8333,54.1667 37.1667,54.8333 36.5,55.5C 35.1779,55.67 34.0113,55.3366 33,54.5C 32.2828,55.0442 31.7828,55.7109 31.5,56.5C 28.1501,56.665 24.8168,56.4983 21.5,56C 19.5029,54.8068 17.8362,53.3068 16.5,51.5C 15.9241,48.393 15.9241,45.393 16.5,42.5C 17.922,41.075 19.5887,40.075 21.5,39.5 Z"/></g>
<g><path style="opacity:1" fill="#c19766" d="M 51.5,39.5 C 52.6266,40.1217 53.6266,40.955 54.5,42C 53.6637,43.2433 53.997,44.4099 55.5,45.5C 59.6604,44.9068 60.3271,43.2401 57.5,40.5C 57.6236,39.8933 57.9569,39.56 58.5,39.5C 59.4577,40.9616 60.6244,42.2949 62,43.5C 62.49,44.7932 62.6567,46.1266 62.5,47.5C 59.8806,47.2317 57.3806,47.565 55,48.5C 53.6244,47.2949 52.4577,45.9616 51.5,44.5C 51.5,42.8333 51.5,41.1667 51.5,39.5 Z"/></g>
<g><path style="opacity:1" fill="#dfb27c" d="M 27.5,43.5 C 28.1667,43.5 28.8333,43.5 29.5,43.5C 30.3984,44.1577 31.3984,44.8243 32.5,45.5C 31.7542,46.7362 31.4208,48.0695 31.5,49.5C 29.4352,49.4828 27.4352,49.1495 25.5,48.5C 25.4021,46.4471 26.0687,44.7804 27.5,43.5 Z"/></g>
<g><path style="opacity:1" fill="#463221" d="M 29.5,43.5 C 31.5,43.5 33.5,43.5 35.5,43.5C 34.0529,46.306 34.7196,47.306 37.5,46.5C 40.4327,48.7381 40.0993,49.7381 36.5,49.5C 35.828,48.7326 34.9947,48.0659 34,47.5C 33.2917,48.3805 32.4584,49.0472 31.5,49.5C 31.4208,48.0695 31.7542,46.7362 32.5,45.5C 31.3984,44.8243 30.3984,44.1577 29.5,43.5 Z"/></g>
<g><path style="opacity:1" fill="#4e2d17" d="M 16.5,42.5 C 15.9241,45.393 15.9241,48.393 16.5,51.5C 15.8485,50.9094 15.1818,50.2427 14.5,49.5C 13.8182,50.2427 13.1515,50.9094 12.5,51.5C 12.6924,47.8976 14.0257,44.8976 16.5,42.5 Z"/></g>
<g><path style="opacity:1" fill="#2a1d14" d="M 49.5,44.5 C 50.1667,44.5 50.8333,44.5 51.5,44.5C 52.4577,45.9616 53.6244,47.2949 55,48.5C 57.3806,47.565 59.8806,47.2317 62.5,47.5C 62.7709,49.3797 62.1042,50.713 60.5,51.5C 60.7678,53.099 60.4345,54.4324 59.5,55.5C 58.9473,53.4482 57.9473,53.1148 56.5,54.5C 53.8707,53.2857 51.204,53.2857 48.5,54.5C 49.4831,53.1497 50.8164,52.1497 52.5,51.5C 53.6527,50.3132 53.6527,49.3132 52.5,48.5C 51.5,47.1667 50.5,45.8333 49.5,44.5 Z"/></g>
<g><path style="opacity:1" fill="#cfa26f" d="M 48.5,40.5 C 48.8333,41.8333 49.1667,43.1667 49.5,44.5C 50.5,45.8333 51.5,47.1667 52.5,48.5C 49.4104,52.0925 45.4104,53.7592 40.5,53.5C 39.4039,49.7113 38.7373,49.7113 38.5,53.5C 37.6554,52.3285 36.9887,50.9952 36.5,49.5C 40.0993,49.7381 40.4327,48.7381 37.5,46.5C 34.7196,47.306 34.0529,46.306 35.5,43.5C 39.0419,43.8128 42.3752,43.4794 45.5,42.5C 47.0269,42.573 48.0269,41.9063 48.5,40.5 Z"/></g>
<g><path style="opacity:1" fill="#cb7e3c" d="M 60.5,51.5 C 58.1331,53.0723 56.1331,52.739 54.5,50.5C 55.8903,48.7971 57.3903,48.1304 59,48.5C 59.5133,49.5266 60.0133,50.5266 60.5,51.5 Z"/></g>
<g><path style="opacity:1" fill="#216a4f" d="M 62.5,47.5 C 62.8333,47.5 63.1667,47.5 63.5,47.5C 63.5,52.8333 63.5,58.1667 63.5,63.5C 61.5,63.5 59.5,63.5 57.5,63.5C 57.298,61.0504 57.6314,58.717 58.5,56.5C 58.5,55.8333 58.8333,55.5 59.5,55.5C 60.4345,54.4324 60.7678,53.099 60.5,51.5C 62.1042,50.713 62.7709,49.3797 62.5,47.5 Z"/></g>
<g><path style="opacity:1" fill="#99551f" d="M 16.5,51.5 C 17.8362,53.3068 19.5029,54.8068 21.5,56C 24.8168,56.4983 28.1501,56.665 31.5,56.5C 31.1583,57.3382 30.4916,57.6716 29.5,57.5C 27.1432,57.3367 24.8098,57.5034 22.5,58C 23.056,58.3826 23.3893,58.8826 23.5,59.5C 20.9884,58.0721 18.3217,57.5721 15.5,58C 14.5939,59.6995 14.2606,61.5328 14.5,63.5C 13.5,63.5 12.5,63.5 11.5,63.5C 11.6458,59.4809 11.9791,55.4809 12.5,51.5C 13.1515,50.9094 13.8182,50.2427 14.5,49.5C 15.1818,50.2427 15.8485,50.9094 16.5,51.5 Z"/></g>
<g><path style="opacity:1" fill="#29180e" d="M 40.5,53.5 C 39.5326,54.8062 38.1993,55.4729 36.5,55.5C 37.1667,54.8333 37.8333,54.1667 38.5,53.5C 38.7373,49.7113 39.4039,49.7113 40.5,53.5 Z"/></g>
<g><path style="opacity:1" fill="#c77e41" d="M 56.5,54.5 C 57.9473,53.1148 58.9473,53.4482 59.5,55.5C 58.8333,55.5 58.5,55.8333 58.5,56.5C 57.8333,55.8333 57.1667,55.1667 56.5,54.5 Z"/></g>
<g><path style="opacity:1" fill="#1f1209" d="M 36.5,55.5 C 36.8333,56.1667 37.1667,56.8333 37.5,57.5C 35.5648,56.8505 33.5648,56.5172 31.5,56.5C 31.7828,55.7109 32.2828,55.0442 33,54.5C 34.0113,55.3366 35.1779,55.67 36.5,55.5 Z"/></g>
<g><path style="opacity:1" fill="#e7b77f" d="M 56.5,54.5 C 56.5,57.5 56.5,60.5 56.5,63.5C 45.5,63.5 34.5,63.5 23.5,63.5C 23.5,63.1667 23.5,62.8333 23.5,62.5C 24.4345,61.4324 24.7678,60.099 24.5,58.5C 26.4147,58.7845 28.0813,58.4511 29.5,57.5C 30.4916,57.6716 31.1583,57.3382 31.5,56.5C 33.5648,56.5172 35.5648,56.8505 37.5,57.5C 41.7849,59.1665 45.4515,58.1665 48.5,54.5C 51.204,53.2857 53.8707,53.2857 56.5,54.5 Z"/></g>
<g><path style="opacity:1" fill="#8c5d36" d="M 52.5,48.5 C 53.6527,49.3132 53.6527,50.3132 52.5,51.5C 50.8164,52.1497 49.4831,53.1497 48.5,54.5C 45.4515,58.1665 41.7849,59.1665 37.5,57.5C 37.1667,56.8333 36.8333,56.1667 36.5,55.5C 38.1993,55.4729 39.5326,54.8062 40.5,53.5C 45.4104,53.7592 49.4104,52.0925 52.5,48.5 Z"/></g>
<g><path style="opacity:1" fill="#d58136" d="M 23.5,59.5 C 23.5,60.5 23.5,61.5 23.5,62.5C 23.5,62.8333 23.5,63.1667 23.5,63.5C 20.5,63.5 17.5,63.5 14.5,63.5C 14.2606,61.5328 14.5939,59.6995 15.5,58C 18.3217,57.5721 20.9884,58.0721 23.5,59.5 Z"/></g>
<g><path style="opacity:1" fill="#1d130c" d="M 29.5,57.5 C 28.0813,58.4511 26.4147,58.7845 24.5,58.5C 24.7678,60.099 24.4345,61.4324 23.5,62.5C 23.5,61.5 23.5,60.5 23.5,59.5C 23.3893,58.8826 23.056,58.3826 22.5,58C 24.8098,57.5034 27.1432,57.3367 29.5,57.5 Z"/></g>
<g><path style="opacity:1" fill="#091109" d="M 56.5,54.5 C 57.1667,55.1667 57.8333,55.8333 58.5,56.5C 57.6314,58.717 57.298,61.0504 57.5,63.5C 57.1667,63.5 56.8333,63.5 56.5,63.5C 56.5,60.5 56.5,57.5 56.5,54.5 Z"/></g>
</svg>
