<svg width="512" height="513" viewBox="0 0 512 513" fill="none" xmlns="http://www.w3.org/2000/svg">
<circle cx="256.009" cy="256.058" r="256" fill="black"/>
<g clip-path="url(#clip0_24_1009)">
<path fill-rule="evenodd" clip-rule="evenodd" d="M255.613 415C300.768 415 341.336 395.217 369.241 363.785C356.26 352.422 336.698 351.731 322.879 362.963L320.239 365.109C294.937 385.675 258.068 382.638 236.419 358.204C224.612 344.879 204.39 343.518 190.928 355.143L160.49 381.429C186.56 402.438 219.63 415 255.613 415ZM305.021 340.671C329.121 321.082 362.995 321.785 386.174 340.704C400.029 317.58 408 290.478 408 261.5C408 229.301 398.158 199.417 381.339 174.736C370.496 172.41 358.743 175.126 349.822 183.09L347.283 185.356C322.95 207.076 285.982 205.757 263.236 182.356C250.831 169.593 230.568 169.174 217.653 181.413L182.232 214.981L162.746 194.118L198.167 160.55C222.36 137.623 260.318 138.408 283.556 162.316C295.698 174.808 315.433 175.513 328.423 163.918L330.962 161.651C338.847 154.613 347.969 149.868 357.522 147.372C330.523 122.896 294.795 108 255.613 108C178.255 108 114.36 166.062 104.535 241.283C128.032 229.925 157.015 234.296 176.173 254.058C188.268 266.534 207.742 267.85 221.383 257.115L241.188 241.53C266.079 221.943 301.263 222.891 325.078 243.79L363.636 277.629L344.956 299.227L306.398 265.389C292.857 253.504 272.849 252.964 258.696 264.102L238.891 279.689C213.828 299.412 178.048 296.993 155.827 274.071C142.906 260.742 121.773 260.277 108.286 273.025L104 277.076C107.207 309.136 120.209 338.285 139.945 361.441L172.419 333.397C197.637 311.618 235.517 314.167 257.636 339.13C269.193 352.174 288.874 353.795 302.381 342.816L305.021 340.671Z" fill="white"/>
</g>
<defs>
<clipPath id="clip0_24_1009">
<rect width="304" height="307" fill="white" transform="translate(104 108)"/>
</clipPath>
</defs>
</svg>
