<svg width="513" height="513" viewBox="0 0 513 513" fill="none" xmlns="http://www.w3.org/2000/svg">
<circle cx="256.76" cy="256.594" r="256" fill="black"/>
<g clip-path="url(#clip0_40_542)">
<path d="M383.994 231.172L332.221 254.347L194.875 324.535L332.221 390.833V281.247L383.994 257.823V419.719L332.221 442.894L129.994 345.724V294.076L269.979 225.13L129.994 157.591V105.198L182.591 82.0227L383.994 179.359V231.172Z" fill="white"/>
<path d="M129.994 105.198L332.221 202.534L383.994 179.359L182.591 82.0227L129.994 105.198Z" fill="#434444"/>
<path d="M332.223 202.315L383.996 179.139V230.953L332.223 254.128V202.315Z" fill="#373737"/>
<path d="M129.994 105.244V157.637L269.979 225.176L129.994 294.123V345.77L332.221 442.941V390.962L194.875 324.581L332.221 254.394V202.58L129.994 105.244Z" fill="white"/>
<path d="M332.223 442.554L383.996 419.379V257.483L332.223 280.907V442.554Z" fill="#373737"/>
</g>
<defs>
<clipPath id="clip0_40_542">
<rect width="254" height="361" fill="white" transform="translate(130 82)"/>
</clipPath>
</defs>
</svg>
