<svg width="24" height="35" viewBox="0 0 24 35" fill="none" xmlns="http://www.w3.org/2000/svg">
<path d="M4.88461 34.7094C4.9872 34.7938 5.11411 34.8391 5.24504 34.8391C5.2807 34.8391 5.31753 34.8357 5.3533 34.8284L23.1219 31.3694C23.3882 31.3178 23.5803 31.0844 23.5803 30.8135L23.5802 4.85948C23.5802 4.58807 23.3881 4.35513 23.1212 4.30354L5.35258 0.84974C5.18706 0.816922 5.01481 0.861074 4.88449 0.968741C4.75417 1.07641 4.67825 1.23673 4.67825 1.40566V4.29283H0.574969C0.261654 4.29283 0.00830078 4.54665 0.00830078 4.8595L0.00841884 30.8135C0.00841884 31.1264 0.261766 31.3802 0.575087 31.3802H4.67837V34.2724C4.67837 34.4418 4.75428 34.6023 4.88461 34.7094ZM5.81171 2.09346L22.447 5.32755L22.4469 30.3471L5.81159 33.5857V2.09407L5.81171 2.09346ZM1.14116 30.2476V5.42698H4.67777V30.2476H1.14116Z" fill="white"/>
<path d="M7.82738 19.4448C8.14069 19.4448 8.39405 19.1909 8.39405 18.8781V16.8001C8.39405 16.4872 8.1407 16.2334 7.82738 16.2334C7.51406 16.2334 7.26071 16.4872 7.26071 16.8001V18.8781C7.26071 19.191 7.51406 19.4448 7.82738 19.4448Z" fill="white"/>
</svg>
